<?xml version="1.0" standalone="no"?>
<!DOCTYPE svg PUBLIC "-//W3C//DTD SVG 1.1//EN" "http://www.w3.org/Graphics/SVG/1.1/DTD/svg11.dtd" >
<svg xmlns="http://www.w3.org/2000/svg">
<metadata></metadata>
<defs>
<font id="citisansregular" horiz-adv-x="1200" >
<font-face units-per-em="2048" ascent="1638" descent="-410" />
<missing-glyph horiz-adv-x="516" />
<glyph unicode=" "  horiz-adv-x="516" />
<glyph unicode="&#x09;" horiz-adv-x="516" />
<glyph unicode="&#xa0;" horiz-adv-x="516" />
<glyph unicode="!" horiz-adv-x="612" d="M121 158q0 33 12 62t33 52q23 24 54.5 38t68.5 14q36 0 67.5 -14t54.5 -38q22 -23 34 -52t12 -62q0 -32 -11.5 -61t-31.5 -52q-23 -26 -55 -40.5t-70 -14.5q-37 0 -68 14t-54 37q-22 23 -34 52.5t-12 64.5zM246 457q1 125 1.5 218.5t3 165t7 127t12.5 105.5l64 391h317 l-63 -391q-9 -50 -23 -105.5t-36 -127t-51.5 -165t-69.5 -218.5h-162z" />
<glyph unicode="&#x22;" horiz-adv-x="938" d="M870 977h-182l41 487h264zM451 977h-181l39 487h264z" />
<glyph unicode="#" d="M1225 899h-240l-78 -299h172v-201h-223l-113 -399h-215l113 399h-190l-111 -399h-217l110 399h-157v201h213l76 299h-175v203h230l98 362h213l-98 -362h188l101 362h213l-95 -362h185v-203zM778 899h-194l-84 -299h192z" />
<glyph unicode="$" d="M795 375q2 6 2 12v12q0 47 -26.5 86.5t-68.5 73.5l-57 -319q60 17 100 50.5t50 84.5zM498 1059q0 -23 7 -43t20 -37q14 -18 34 -34.5t45 -33.5l58 322q-38 -9 -71 -27t-56 -45q-17 -21 -27 -46.5t-10 -55.5zM1057 485q0 -21 -2.5 -44.5t-7.5 -49.5q-8 -44 -25 -84.5 t-43 -76.5q-55 -79 -150 -134q-97 -55 -223 -76l-39 -215h-161l34 203q-45 2 -99 10t-106 22q-50 13 -92 29.5t-69 36.5l131 220q29 -23 64.5 -41t73.5 -31q70 -23 138 -29l76 424l-135 80q-54 32 -89 62.5t-55 62.5q-20 31 -28 62.5t-8 66.5q0 115 57 211q29 48 70.5 89.5 t98.5 73.5q98 57 230 79l31 166h162l-31 -160q56 -4 103 -14t86 -24q62 -22 106 -52l-113 -211q-22 17 -47 31.5t-52 26.5q-56 25 -120 36l-73 -412l86 -49q59 -34 101.5 -65.5t70.5 -68.5q24 -32 36.5 -69.5t12.5 -85.5z" />
<glyph unicode="%" horiz-adv-x="1825" d="M1446 381q0 35 -12.5 62.5t-38.5 44.5q-29 20 -74 20q-35 0 -65 -12.5t-53 -33.5q-32 -29 -49 -68.5t-17 -84.5q0 -59 34 -95q32 -34 91 -34q40 0 74 17t59 46q23 27 36.5 62.5t14.5 75.5zM643 1118q0 53 -31 87q-35 38 -96 38q-42 0 -76.5 -18t-59.5 -47 q-23 -27 -35.5 -61t-12.5 -70q0 -62 36 -98q34 -34 91 -34q36 0 67 14t55 38q29 29 45.5 67.5t16.5 83.5zM1661 414q0 -54 -13.5 -105t-38.5 -96q-28 -51 -67.5 -92.5t-88.5 -72.5q-51 -32 -109 -50t-119 -18q-63 0 -114.5 17.5t-89.5 49.5q-48 39 -73.5 97t-25.5 130 q0 56 15 107.5t41 99.5q34 60 84 108t113 78q42 20 87.5 31t93.5 11q65 0 119 -20.5t94 -56.5q45 -40 68.5 -96t23.5 -122zM858 1157q0 -51 -11.5 -98.5t-32.5 -91.5q-29 -58 -72 -106t-98 -82q-50 -31 -106 -47.5t-116 -16.5q-53 0 -98 13t-81 36q-66 43 -98 114 q-28 62 -28 136q0 56 15 108.5t44 100.5q56 94 151 154q51 32 108 49.5t118 17.5h1042l-1181 -1444h-211l1073 1307h-463q8 -11 16 -28.5t14.5 -37.5t10.5 -42t4 -42z" />
<glyph unicode="&#x26;" horiz-adv-x="1446" d="M915 1198q0 23 -8.5 42.5t-22.5 33.5q-17 17 -39 25t-48 8q-28 0 -54 -11t-48 -31q-25 -23 -40.5 -55.5t-15.5 -72.5q0 -44 15.5 -88.5t50.5 -94.5q26 9 53 22q23 11 50 29.5t50 44.5q25 28 41 64t16 84zM543 688q-58 -22 -108 -58.5t-82 -87.5q-19 -31 -29.5 -67 t-10.5 -78q0 -39 13.5 -73.5t37.5 -61.5q30 -34 75 -53t100 -19q58 0 110.5 18t108.5 60zM1147 1214q0 -53 -17 -101t-46 -93q-23 -35 -52.5 -66t-64.5 -60q-42 -34 -87.5 -62.5t-93.5 -51.5l166 -340q74 74 128 158q25 39 46.5 80t38.5 86l215 -64q-36 -72 -72 -133.5 t-75 -117.5q-37 -53 -78 -100.5t-90 -92.5q11 -10 27.5 -17.5t35.5 -13t38 -8t34 -2.5q29 0 62 4.5t75 13.5l-39 -215q-21 -7 -48 -12q-23 -5 -56 -8.5t-76 -3.5q-41 0 -76 7t-66 19q-67 27 -110 70q-46 -29 -89.5 -49t-89.5 -34q-48 -14 -99 -20.5t-111 -6.5q-70 0 -134 18 t-119 51q-44 26 -79.5 61.5t-60.5 78.5q-23 40 -36 84.5t-13 93.5q0 45 8 85t24 77q20 47 50.5 87.5t70.5 76.5q55 50 124.5 91t148.5 76q-35 57 -55.5 122.5t-20.5 125.5q0 51 13.5 97t38.5 87q28 46 67.5 83.5t87.5 63.5q46 25 97.5 38.5t105.5 13.5q65 0 122.5 -14 t104.5 -42q57 -35 91 -89.5t34 -131.5z" />
<glyph unicode="'" horiz-adv-x="496" d="M446 977h-180l39 487h264z" />
<glyph unicode="(" horiz-adv-x="770" d="M428 -410q-106 89 -179 186t-118 202q-39 91 -57.5 185t-18.5 191q0 45 3.5 89t11.5 89q20 125 68.5 248.5t129.5 241.5q81 120 197 230.5t272 211.5h185q-141 -106 -235 -229.5t-154 -257.5q-49 -108 -78.5 -218.5t-48.5 -219.5q-13 -76 -20 -149.5t-7 -145.5 q0 -79 10 -155.5t32 -151.5q27 -91 73 -176.5t118 -170.5h-184z" />
<glyph unicode=")" horiz-adv-x="770" d="M-152 -410q153 130 251.5 268.5t158.5 284.5q40 97 66 195t43 201q12 72 19 146t7 149q0 93 -14 183t-46 176q-28 74 -71 141.5t-106 129.5h184q97 -78 166.5 -163.5t115.5 -176.5q50 -99 72.5 -201t22.5 -208q0 -45 -4.5 -90.5t-12.5 -92.5q-20 -118 -63.5 -233.5 t-115.5 -228.5q-83 -131 -204 -251.5t-286 -228.5h-183z" />
<glyph unicode="*" horiz-adv-x="827" d="M600 801l-59 182l-62 -182l-67 -92l-193 137l70 96l153 113h-190l-109 35l72 227l111 -37l153 -113l-59 181v116h237v-114l-57 -183l154 113l110 37l72 -227l-109 -37h-190l154 -111l69 -96l-192 -137z" />
<glyph unicode="+" d="M1106 758v-248h-356v-356h-248v356h-357v248h357v356h248v-356h356z" />
<glyph unicode="," horiz-adv-x="516" d="M-29 -240q46 32 82 64.5t60.5 62t37.5 54.5t13 43q0 12 -2.5 20.5t-7.5 18.5q-51 22 -76 58q-27 39 -27 89q0 32 14 61t37 50q23 20 51.5 31.5t61.5 11.5q35 0 64 -12.5t52 -34.5q25 -24 39.5 -57.5t14.5 -72.5q0 -47 -8.5 -89t-25.5 -81q-38 -88 -113 -164.5 t-181 -156.5z" />
<glyph unicode="-" horiz-adv-x="653" d="M25 315l43 250h546l-43 -250h-546z" />
<glyph unicode="." horiz-adv-x="516" d="M41 158q0 35 13 65t36 53t53.5 35.5t65.5 12.5q38 0 71 -16t56 -42q19 -22 30 -49.5t11 -58.5q0 -35 -13.5 -66t-36.5 -54t-53 -35.5t-65 -12.5q-38 0 -69.5 14t-54.5 39q-20 23 -32 52t-12 63z" />
<glyph unicode="/" horiz-adv-x="1116" d="M420 0h-236l594 1464h236z" />
<glyph unicode="0" d="M403 461q0 -112 32 -173t93 -61q66 0 117 28t89 76q38 47 64.5 108.5t44.5 130.5q14 55 23.5 112t15 112.5t7.5 107t2 95.5q0 95 -33 146q-33 53 -102 53q-64 0 -114.5 -35t-88.5 -92q-46 -69 -76 -159t-47 -181q-14 -78 -20.5 -147.5t-6.5 -120.5zM88 424q0 103 12 210 t39 212q33 129 91.5 243t146.5 198q78 73 178 115t231 42q130 0 217 -40q90 -41 140 -122q61 -101 61 -266q0 -109 -10 -220.5t-34 -217.5q-27 -119 -73.5 -224t-119.5 -186q-78 -88 -189.5 -138t-263.5 -50q-72 0 -130.5 14.5t-106.5 42.5q-90 52 -137 145q-26 51 -39 112 t-13 130z" />
<glyph unicode="1" d="M727 0h-324l179 946q-34 -17 -71 -35t-74 -35.5t-72 -33.5t-64 -29l45 303q155 68 267 138q138 86 214 180h170z" />
<glyph unicode="2" d="M557 264h512l-51 -264h-987v104l676 764q38 42 60.5 71t34.5 50t15.5 38.5t3.5 37.5q0 48 -26 80q-19 24 -50 36.5t-71 12.5q-39 0 -69 -9t-56 -26q-29 -20 -54.5 -49t-54.5 -70l-223 144q25 48 59.5 88.5t79.5 73.5q64 47 143 72q83 26 179 26q64 0 124 -9t114 -29 q58 -22 104.5 -56t75.5 -83q20 -35 31.5 -76t11.5 -91q0 -56 -12.5 -106.5t-38 -100t-65 -101.5t-93.5 -112z" />
<glyph unicode="3" d="M1104 1094q0 -52 -17.5 -103t-48.5 -97q-29 -43 -67.5 -78.5t-83.5 -61.5q71 -46 107 -113t36 -156q0 -126 -37 -219q-55 -138 -192 -210q-146 -76 -387 -76q-127 0 -233 53q-39 20 -75 46.5t-69 59.5l153 260q31 -46 64 -79t68 -55q32 -20 64.5 -30t62.5 -10 q107 0 174 50q42 31 64 79.5t22 114.5q0 61 -47 100q-34 29 -92 44.5t-140 15.5l47 250q160 0 233 54q64 46 64 136q0 59 -36 92t-105 33q-20 0 -42.5 -5t-48.5 -16q-52 -23 -108 -73l-155 186q81 83 187 122q96 36 212 36q64 0 123 -12t110 -35q48 -23 86.5 -56t64.5 -78 q20 -35 31 -77t11 -92z" />
<glyph unicode="4" d="M768 934h-6l-367 -359h307zM950 336l-63 -336h-293l63 336h-645l29 168l965 930h149l-160 -859h146l-45 -239h-146z" />
<glyph unicode="5" d="M1112 1169h-512q-4 -23 -8 -44t-7.5 -42t-7 -43.5t-8.5 -48.5q25 6 50 8t53 2q87 0 167 -34q87 -36 146 -105q38 -45 59 -99.5t21 -117.5q0 -84 -10 -156t-30 -135q-73 -227 -272 -315q-133 -59 -319 -59q-111 0 -201 37q-82 34 -151 98l131 272q24 -29 55.5 -55.5 t64.5 -47.5q35 -22 68.5 -35t61.5 -13q48 0 88 14t72 40q37 29 63.5 70.5t42.5 90.5q23 72 23 151q0 41 -14 71t-39 50q-23 20 -54.5 29.5t-66.5 9.5q-53 0 -106 -28q-55 -29 -110 -87l-147 70l123 706h819z" />
<glyph unicode="6" d="M420 375q0 -71 34 -106q36 -38 105 -38q51 0 90 22t68 58q34 43 51.5 98.5t17.5 112.5q0 64 -29 102q-17 22 -42 34t-58 12q-54 0 -94.5 -19t-69.5 -51q-37 -42 -55 -100t-18 -125zM1073 1272q-63 -22 -125 -64.5t-137 -99.5q-60 -45 -106 -91t-87 -97q17 3 38 3.5 t44 0.5q98 0 179 -29q103 -36 164 -116q33 -44 51 -99t18 -123q0 -73 -17 -142t-49 -132q-34 -66 -82.5 -121t-110.5 -96q-65 -43 -142 -67t-164 -24q-131 0 -223 37q-108 44 -164 137q-58 97 -58 252q0 167 61 326q64 168 197 332q130 159 272.5 256t303.5 135z" />
<glyph unicode="7" d="M123 0q56 107 135 242t183 300q85 134 186 286t219 323h-625l49 272h1018v-135q-123 -166 -231 -326.5t-205 -318.5q-101 -165 -188.5 -325t-165.5 -318h-375z" />
<glyph unicode="8" d="M586 1047q0 -42 30 -77q31 -38 97 -69q37 31 64.5 59.5t44.5 54.5q28 43 28 81q0 20 -9 36.5t-24 27.5q-17 13 -39 19.5t-43 6.5q-87 0 -123 -48q-26 -35 -26 -91zM772 459q0 50 -29 93q-34 51 -108 89q-54 -13 -102 -43t-82 -73q-26 -33 -41 -72.5t-15 -83.5 q0 -29 10.5 -51t28.5 -39q22 -20 52 -30.5t63 -10.5q96 0 155 51q32 29 50 71.5t18 98.5zM1174 1124q0 -51 -16.5 -102.5t-46.5 -99.5q-30 -49 -72 -91t-91 -71q84 -67 121 -146q33 -69 33 -149q0 -123 -38 -217q-48 -118 -159 -184q-141 -84 -385 -84q-57 0 -111 9t-102 27 q-50 19 -91 47t-72 66q-33 42 -51.5 93.5t-18.5 115.5q0 46 8 88.5t23 83.5q35 92 102 163q68 73 162 122q-60 55 -86.5 116t-26.5 136q0 54 15.5 101t43.5 88q38 55 94 96.5t123 67.5q55 22 114 33t118 11q56 0 109 -10.5t101 -30.5q45 -20 83 -48t65 -66 q25 -35 38.5 -75.5t13.5 -89.5z" />
<glyph unicode="9" d="M489 897q0 -83 41 -119q33 -28 86 -28q63 0 108 22t74 60q31 40 45.5 93.5t14.5 116.5q0 68 -32 105q-34 39 -105 39q-65 0 -110.5 -28.5t-74.5 -76.5q-23 -38 -35 -85.5t-12 -98.5zM197 150q53 17 116.5 52.5t126.5 83.5q68 51 128.5 106.5t99.5 105.5q-20 -3 -45 -3.5 t-48 -0.5q-77 0 -143.5 22t-120.5 62q-69 52 -109 129t-40 172q0 126 41 231q29 75 76.5 135t112.5 104q69 46 154 70.5t187 24.5q141 0 239 -53q55 -29 95.5 -72t66.5 -98q46 -98 46 -224q0 -85 -18.5 -171t-53.5 -171q-31 -74 -73 -145.5t-95 -140.5q-115 -144 -262 -245 q-153 -105 -336 -159z" />
<glyph unicode=":" horiz-adv-x="516" d="M125 754q0 35 13 65.5t36 53.5t53.5 36t65.5 13q38 0 70.5 -16t55.5 -42q20 -23 31 -50.5t11 -59.5q0 -34 -12.5 -63.5t-35.5 -52.5t-53.5 -36.5t-66.5 -13.5q-37 0 -67.5 13.5t-53.5 36.5q-22 23 -34.5 52.5t-12.5 63.5zM43 158q0 35 13.5 66t37.5 54q23 22 52.5 34 t64.5 12q37 0 69 -14.5t55 -39.5q20 -22 32 -51t12 -61q0 -38 -16 -71.5t-43 -56.5q-22 -19 -49.5 -29.5t-59.5 -10.5q-37 0 -68 14t-54 37q-22 23 -34 52.5t-12 64.5z" />
<glyph unicode=";" horiz-adv-x="516" d="M-33 -240q46 32 82 64.5t60.5 62t37.5 54.5t13 43q0 12 -2.5 20.5t-7.5 18.5q-51 22 -76 58q-27 39 -27 89q0 31 12.5 58.5t34.5 48.5q23 22 52.5 34.5t64.5 12.5t65 -12.5t53 -35.5q25 -24 38.5 -57.5t13.5 -71.5q0 -63 -15.5 -117t-45.5 -105q-42 -72 -109.5 -136.5 t-157.5 -132.5zM133 754q0 35 12.5 64.5t34.5 52.5q23 24 54 37.5t67 13.5q35 0 66.5 -14t54.5 -38q22 -23 34.5 -52.5t12.5 -63.5t-12.5 -63.5t-35.5 -52.5t-53.5 -36.5t-66.5 -13.5q-38 0 -69.5 14t-54.5 39q-20 23 -32 51.5t-12 61.5z" />
<glyph unicode="&#x3c;" d="M1081 154l-960 358v244l960 358v-248l-663 -235l663 -228v-249z" />
<glyph unicode="=" d="M1100 492v-248h-961v248h961zM1100 1024v-248h-961v248h961z" />
<glyph unicode="&#x3e;" d="M182 403l664 228l-664 235v248l961 -358v-244l-961 -358v249z" />
<glyph unicode="?" horiz-adv-x="928" d="M244 158q0 37 14.5 69t40.5 55q22 20 51 31t62 11q37 0 69.5 -14.5t55.5 -40.5q20 -22 31.5 -50.5t11.5 -60.5q0 -34 -12.5 -63.5t-34.5 -52.5q-23 -24 -54 -38t-67 -14q-38 0 -69.5 14t-54.5 38q-21 23 -32.5 52t-11.5 64zM311 444q-6 22 -10 45t-4 48q0 75 31.5 141 t81.5 123q21 26 62 66t99 96q65 58 94 111t29 100q0 41 -30 65q-39 31 -119 31q-45 0 -103 -23q-29 -11 -58.5 -27.5t-57.5 -39.5l-78 200q34 23 73.5 42t84.5 33q52 17 107.5 26.5t113.5 9.5q71 0 130 -16.5t104 -48.5q48 -35 75 -85.5t27 -117.5q0 -58 -14.5 -107.5 t-42.5 -94.5q-32 -53 -80.5 -101t-110.5 -97q-54 -43 -91.5 -78.5t-63.5 -72.5q-20 -29 -32.5 -60t-19.5 -69q-3 -16 -4.5 -29t-1.5 -29l2 -41h-193z" />
<glyph unicode="@" horiz-adv-x="1579" d="M950 471q-93 -90 -223 -90q-127 0 -200 73q-32 32 -50 77.5t-18 103.5q0 60 14.5 117.5t41.5 110.5q32 63 79 114t106 87q51 31 107.5 47.5t118.5 16.5q44 0 112 -17q36 -9 77.5 -23.5t88.5 -34.5q-34 -125 -53.5 -204.5t-24.5 -111.5t-6.5 -59.5t-1.5 -48.5 q0 -72 51 -72q33 0 61 11t51 30t41.5 45.5t31.5 56.5q25 56 36 117.5t11 114.5q0 54 -11.5 101t-32.5 88q-30 57 -76.5 99.5t-106.5 68.5q-91 40 -199 40q-116 0 -214 -33t-178 -93q-76 -57 -132.5 -135t-91.5 -172q-24 -66 -37 -137t-13 -147q0 -120 46 -215 q53 -109 156 -171q53 -32 116.5 -49t136.5 -17q48 0 102 8t106 25q48 16 91 39t72 55l116 -144q-42 -36 -99 -65t-121 -49q-75 -24 -150.5 -36.5t-139.5 -12.5q-89 0 -169 18.5t-150 53.5q-69 35 -125.5 85t-98.5 114q-45 70 -69.5 155t-24.5 184t17.5 190t50.5 176 q63 161 177.5 283.5t271.5 192.5q85 38 178 57.5t196 19.5q100 0 189 -20.5t164 -62.5q71 -39 124.5 -95.5t86.5 -131.5q23 -51 35 -109t12 -125q0 -64 -12.5 -129.5t-36.5 -127.5q-27 -70 -69 -130t-98 -104q-49 -38 -107.5 -59.5t-127.5 -21.5q-130 0 -205 78zM920 975 q-57 0 -102 -32.5t-76 -81.5t-47.5 -106.5t-16.5 -107.5q0 -96 82 -96q38 0 68.5 15.5t53.5 41t38 59t22 68.5q9 40 20 93.5t23 121.5q-14 14 -30.5 19.5t-34.5 5.5z" />
<glyph unicode="A" horiz-adv-x="1257" d="M750 963h-9l-243 -443h319zM895 0l-43 291h-483l-168 -291h-305l888 1483h117l299 -1483h-305z" />
<glyph unicode="B" horiz-adv-x="1208" d="M518 913h82q42 0 81 6t73 19q61 23 94 68q17 23 26 51.5t9 64.5q0 57 -56 84q-53 25 -149 25h-21.5t-20 -0.5t-25.5 -1t-38 -2.5zM393 246q23 -2 35.5 -2h26.5q40 0 81.5 3t81.5 10.5t76 20.5t66 32q42 27 67 68t25 101q0 110 -73 164q-75 55 -218 55h-44.5t-39.5 -2z M1178 1114q0 -38 -10.5 -75t-30.5 -72q-26 -47 -63.5 -86.5t-80.5 -65.5q32 -24 58.5 -58.5t46.5 -73.5q23 -45 36 -93t13 -90q0 -82 -16 -147.5t-47 -117.5q-34 -57 -83 -98t-111 -70q-100 -46 -226.5 -62.5t-268.5 -16.5q-65 0 -156.5 4t-187.5 10l266 1456 q96 13 173.5 20t136.5 7q157 0 269 -30q143 -38 213 -124q69 -85 69 -217z" />
<glyph unicode="C" horiz-adv-x="1255" d="M1161 1145q-61 43 -127 66q-63 22 -131 22q-78 0 -144 -28.5t-121 -76.5q-56 -49 -98.5 -113.5t-71.5 -137.5t-44.5 -148.5t-15.5 -146.5q0 -70 17.5 -131.5t52.5 -108.5t88.5 -73.5t127.5 -26.5q100 0 185 30q102 36 184 115l-4 -278q-78 -64 -182 -97 q-105 -32 -236 -32q-75 0 -141 16t-123 46q-129 70 -199 201q-35 66 -53.5 142t-18.5 162q0 119 23 233.5t68 217.5q50 115 124 209.5t174 161.5q88 59 192 91.5t226 32.5q88 0 167 -16q81 -16 161 -50z" />
<glyph unicode="D" horiz-adv-x="1294" d="M395 262h54q88 0 162 21.5t134 62.5q69 45 118.5 110.5t81.5 145.5q27 67 40.5 141.5t13.5 153.5q0 48 -10.5 88.5t-30.5 75.5q-45 80 -128 123q-84 43 -189 43q-17 0 -34.5 -1.5t-45.5 -4.5zM51 0l264 1458q84 13 156 21t129 8q84 0 159.5 -10t144.5 -31 q85 -26 153.5 -68.5t119.5 -103.5q59 -71 91 -165.5t32 -219.5q0 -130 -26 -244t-77 -211q-58 -112 -144 -196.5t-198 -141.5q-94 -47 -202 -71.5t-233 -24.5h-369z" />
<glyph unicode="E" horiz-adv-x="1214" d="M1227 1202h-656l-53 -289h471l-45 -249h-471l-74 -404h648l-52 -260h-944l266 1464h959z" />
<glyph unicode="F" horiz-adv-x="1198" d="M1255 1202h-684l-53 -289h502l-45 -249h-502l-123 -664h-299l271 1464h983z" />
<glyph unicode="G" horiz-adv-x="1384" d="M1214 143q-102 -69 -222 -110q-154 -53 -335 -53q-87 0 -163.5 20t-141.5 58q-67 39 -119 95.5t-87 126.5q-29 60 -44.5 127.5t-15.5 143.5q0 113 17.5 214.5t51.5 192.5q50 132 133 235t198 172q100 60 222 92t267 32q115 0 200 -28q44 -14 79.5 -34.5t64.5 -46.5 l-88 -247q-38 23 -74 39.5t-71 28.5q-80 26 -150 26q-92 0 -169 -26t-140 -73q-66 -50 -114 -118.5t-78 -150.5q-23 -63 -34.5 -131t-11.5 -140q0 -176 101 -266q43 -39 103 -59.5t136 -20.5q59 0 116.5 16.5t106.5 48.5l47 248h-198l47 254h489z" />
<glyph unicode="H" horiz-adv-x="1389" d="M1169 0h-297l123 664h-524l-123 -664h-297l266 1464h299l-102 -551h526l101 551h299z" />
<glyph unicode="I" horiz-adv-x="569" d="M342 0h-295l268 1464h293z" />
<glyph unicode="J" horiz-adv-x="1022" d="M240 367q0 -28 7 -50t19 -39q31 -40 80 -40q47 0 81.5 6.5t60.5 26.5q17 14 29.5 34.5t20.5 52.5q5 17 8.5 34.5l8 40t10 53t13.5 73.5l165 905h291l-166 -915q-20 -110 -46.5 -197t-64.5 -153q-37 -64 -86.5 -108.5t-118.5 -70.5q-102 -40 -257 -40q-107 0 -186 44 q-70 39 -106 112q-14 29 -22 63.5t-8 74.5q0 19 1.5 41.5t5.5 51.5h260z" />
<glyph unicode="K" horiz-adv-x="1331" d="M821 817l361 -817h-326l-264 590l-174 -191l-76 -399h-291l268 1464h291l-104 -585h6l541 585h354z" />
<glyph unicode="L" horiz-adv-x="1081" d="M991 0h-940l268 1464h297l-221 -1204h643z" />
<glyph unicode="M" horiz-adv-x="1610" d="M1186 0l-25 686h-2l-389 -696h-117l-137 704h-2l-272 -694h-285l545 1464h170l141 -843h2l447 843h174l39 -1464h-289z" />
<glyph unicode="N" horiz-adv-x="1352" d="M1124 -8h-125l-499 864h-6l-152 -856h-291l268 1464h144l487 -833h6l148 833h293z" />
<glyph unicode="O" horiz-adv-x="1438" d="M410 575q0 -66 13 -126.5t42 -108.5q28 -45 72 -71.5t108 -26.5q75 0 136.5 22.5t112.5 63.5q56 45 97 106.5t70 133.5q33 84 49 175t16 179q0 161 -75 237q-68 70 -195 70q-67 0 -123.5 -25t-104.5 -69q-58 -53 -100 -126t-69 -154q-24 -72 -36.5 -144.5t-12.5 -135.5z M106 549q0 100 17 199t50 193q43 122 112.5 226t165.5 179q86 67 191.5 105t231.5 38q128 0 227.5 -33t169.5 -98q76 -70 115 -173.5t39 -242.5q0 -120 -19 -232t-57 -213q-38 -100 -94 -185t-131 -151q-97 -85 -223.5 -133t-286.5 -48q-124 0 -217.5 42t-157.5 117 q-66 78 -99.5 182.5t-33.5 227.5z" />
<glyph unicode="P" horiz-adv-x="1194" d="M489 772q29 -5 56.5 -6.5t50.5 -1.5q69 0 131.5 14.5t110.5 46.5q45 31 71.5 78.5t26.5 116.5q0 99 -54 150q-58 55 -182 55q-26 0 -56.5 -3t-72.5 -10zM350 0h-299l275 1458q120 13 200 19t125 6q201 0 334 -53q116 -47 179 -132q73 -100 73 -258q0 -83 -19.5 -151.5 t-55.5 -125.5q-38 -60 -91.5 -105.5t-119.5 -77.5q-77 -37 -165.5 -55.5t-183.5 -18.5q-35 0 -74 2t-84 8z" />
<glyph unicode="Q" horiz-adv-x="1438" d="M410 575q0 -81 17 -148t55 -112q29 -35 69 -54t94 -19q14 0 30 1q14 1 30 2t32 3q-15 30 -37 54t-50 43q-29 19 -63 33t-73 25l121 209q60 -20 107 -45.5t85 -58.5q33 -29 60 -63.5t51 -79.5q41 42 74 100t57 127q27 78 42 162t15 166q0 148 -62 225q-67 84 -206 84 q-69 0 -127 -25t-106 -70q-51 -46 -89 -108t-65 -133q-30 -78 -45.5 -160.5t-15.5 -157.5zM614 -20q-81 0 -149 19t-124 54q-58 36 -101.5 87t-73.5 114q-60 128 -60 291q0 102 17 202.5t52 195.5q42 117 108 217t156 175q88 73 196.5 114.5t238.5 41.5q94 0 172 -18.5 t141 -53.5q113 -63 173 -179q65 -122 65 -298q0 -103 -13.5 -201.5t-42.5 -189.5q-24 -76 -57 -144.5t-78 -128.5q-47 -63 -105 -113.5t-128 -86.5q11 -49 33.5 -80.5t56.5 -49.5q32 -17 72.5 -25t89.5 -11l-86 -225q-68 4 -130 23t-114 56t-90.5 92.5t-60.5 133.5 q-2 0 -18 -2t-39 -4t-50 -4t-51 -2z" />
<glyph unicode="R" horiz-adv-x="1278" d="M506 842q28 -2 45 -2h33q171 0 259 52q91 54 91 163q0 49 -17.5 79t-49.5 47q-40 22 -97.5 27.5t-122.5 5.5h-6t-12 -0.5t-21.5 -2t-34.5 -3.5zM1225 1112q0 -59 -12.5 -114.5t-35.5 -106.5q-20 -43 -47.5 -81t-62.5 -70q-40 -36 -88.5 -61.5t-106.5 -39.5l324 -639h-330 l-272 590q-28 0 -58 0.5t-73 3.5q-28 -147 -56.5 -297.5t-54.5 -296.5h-301l266 1462q42 2 75.5 3t68.5 3q39 3 77 5t70.5 3.5t58 2t40.5 0.5q72 0 142 -9.5t133 -31.5q51 -18 93.5 -44.5t74.5 -63.5q35 -41 55 -94.5t20 -123.5z" />
<glyph unicode="S" horiz-adv-x="1026" d="M938 1133q-67 49 -128 72q-57 22 -112 22q-110 0 -164 -42q-51 -39 -51 -116q0 -32 31.5 -74t87.5 -90l148 -123q45 -39 85 -78t70 -85q28 -43 44 -92.5t16 -112.5q0 -65 -15.5 -118.5t-44.5 -98.5q-37 -58 -91 -99.5t-121 -68.5q-63 -25 -133 -37t-142 -12 q-95 0 -193 23q-97 23 -190 67l94 297q73 -57 154 -86q77 -27 157 -27q40 0 80.5 8.5t72.5 27.5q31 18 50 46t19 67q0 38 -28.5 74t-88.5 84l-152 121q-48 38 -88 80.5t-69 91.5q-24 42 -38 88.5t-14 99.5q0 69 16 126.5t45 106.5q32 54 79 95t106 68q54 26 116 38.5 t130 12.5q51 0 108.5 -6t110.5 -17q41 -8 75.5 -18t57.5 -21z" />
<glyph unicode="T" horiz-adv-x="1280" d="M1370 1202h-448l-220 -1202h-294l217 1202h-451l45 262h1200z" />
<glyph unicode="U" horiz-adv-x="1356" d="M1223 459q-16 -84 -50 -152.5t-84 -124.5q-47 -52 -105.5 -91t-125.5 -65q-60 -23 -126 -34.5t-136 -11.5q-72 0 -140 13.5t-127 42.5q-49 23 -89 57t-68 79q-24 39 -37.5 86t-13.5 104q0 29 2.5 57.5t7.5 57.5l180 987h303l-186 -991q-6 -24 -6 -51q0 -76 43 -122 q53 -58 160 -58q82 0 147 31q53 25 91 72q49 62 67 151l184 968h295z" />
<glyph unicode="V" horiz-adv-x="1399" d="M696 -10h-164l-294 1474h313l162 -886h4l475 886h324z" />
<glyph unicode="W" horiz-adv-x="1896" d="M1294 -10h-127l-151 803h-4l-437 -803h-126l-207 1474h297l110 -798h4l416 798h137l131 -792h4l388 792h311z" />
<glyph unicode="X" horiz-adv-x="1346" d="M868 739l346 -739h-321l-219 481h-2l-363 -481h-348l592 772l-279 692h304l178 -456h2l364 456h346z" />
<glyph unicode="Y" horiz-adv-x="1401" d="M872 645h-2l-118 -645h-293l121 655l-344 809h307l221 -530h4l406 530h344z" />
<glyph unicode="Z" horiz-adv-x="1251" d="M504 260h569l-49 -260h-961v111l754 1091h-569l45 262h940v-110z" />
<glyph unicode="[" horiz-adv-x="707" d="M-4 -390l305 1854h496l-37 -223h-236l-233 -1407h235l-37 -224h-493z" />
<glyph unicode="\" horiz-adv-x="1116" d="M178 1464h236l594 -1464h-236z" />
<glyph unicode="]" horiz-adv-x="707" d="M-74 -390l37 224h234l233 1407h-235l36 223h496l-307 -1854h-494z" />
<glyph unicode="^" horiz-adv-x="1382" d="M944 877l-194 389l-197 -394h-264l352 592h223l348 -587h-268z" />
<glyph unicode="_" horiz-adv-x="1024" d="M0 -334v230h1024v-230h-1024z" />
<glyph unicode="`" horiz-adv-x="446" d="M217 1098l-186 366h260l123 -366h-197z" />
<glyph unicode="a" horiz-adv-x="1028" d="M635 412q-20 3 -36 3.5t-24 0.5q-58 0 -103 -8t-76 -25q-30 -17 -46 -44t-16 -65q0 -43 31 -71q26 -23 67 -23q55 0 104 26q45 23 70 62zM952 129q-12 -29 -35 -58t-55 -52q-25 -17 -53.5 -28t-60.5 -11q-29 0 -52.5 8t-40.5 22q-21 17 -33.5 39t-17.5 47 q-19 -23 -42.5 -43.5t-53.5 -36.5q-32 -17 -71.5 -26.5t-88.5 -9.5q-84 0 -152 42q-27 17 -49.5 39t-38.5 50q-34 57 -34 129q0 36 5.5 67t16.5 59q20 50 52.5 87t75.5 64q38 24 82 40.5t91 26.5q46 10 93 14t92 4q6 0 16.5 -0.5t22.5 -1t23.5 -1t19.5 -1.5l2 18 q0 55 -39 82q-36 25 -101 25q-58 0 -121 -20q-28 -9 -56 -20.5t-54 -25.5l-64 195q32 14 69.5 26t78.5 21q48 11 95 17t89 6q59 0 106.5 -5.5t85.5 -17.5q95 -30 134 -104q31 -59 31 -150q0 -28 -5 -58t-10 -59l-31 -168q-2 -13 -4.5 -30.5t-4.5 -34t-3.5 -31t-1.5 -22.5 q0 -33 7 -54.5t19.5 -34t29 -17.5t34.5 -5z" />
<glyph unicode="b" horiz-adv-x="1028" d="M516 711q-34 0 -64 -13.5t-61 -44.5q-17 -105 -34.5 -205t-37.5 -208q26 -47 105 -47q55 0 99.5 15.5t79.5 44.5q52 43 80 111q26 66 26 144q0 102 -50 154q-48 49 -143 49zM428 -20q-69 0 -115 20q-23 10 -41.5 23.5t-33.5 33.5h-5l-55 -57h-186q40 106 70.5 204.5 t46.5 180.5q20 118 41 236.5t43 240.5q27 153 53.5 303.5t52.5 298.5h240l-101 -569q41 14 78 20.5t80 6.5q76 0 139 -23q57 -20 100 -57.5t72 -88.5q58 -99 58 -235q0 -113 -43 -213q-29 -69 -76 -126.5t-108 -100.5q-66 -47 -144 -72.5t-166 -25.5z" />
<glyph unicode="c" horiz-adv-x="854" d="M782 637q-54 35 -100 55.5t-88 20.5q-52 0 -94.5 -14.5t-75.5 -40.5t-57 -62t-38 -79q-22 -65 -22 -142q0 -38 12 -72t35 -60q20 -22 46.5 -35t60.5 -13q54 0 127 30q35 14 74 34.5t83 47.5l-34 -268q-35 -14 -69 -25t-69 -19q-69 -15 -139 -15q-62 0 -115.5 13.5 t-98.5 39.5q-80 46 -122 125q-43 80 -43 188q0 67 11 128.5t32 117.5q32 83 84.5 149t126.5 110q57 34 125 52.5t148 18.5q71 0 131.5 -16t117.5 -48z" />
<glyph unicode="d" horiz-adv-x="1028" d="M590 725q-38 0 -71 -9t-61 -26q-38 -23 -65.5 -57.5t-46.5 -77.5q-35 -82 -35 -180q0 -108 49 -151q35 -31 97 -31q77 0 130 67q54 69 81 203l41 209q-20 23 -48 38t-71 15zM836 0h-201l-41 49h-2q-32 -28 -83.5 -48.5t-117.5 -20.5q-95 0 -166 38q-78 41 -122 120 q-23 42 -35.5 93t-12.5 111q0 136 43 251q32 85 85.5 151t128.5 110q57 33 126 50.5t150 17.5q13 0 32 -2.5t41 -6.5t45 -10t44 -14q26 143 53 287.5t53 287.5h242z" />
<glyph unicode="e" horiz-adv-x="954" d="M494 193q21 0 52.5 9.5t66.5 26.5q37 18 72 42.5t58 52.5l-26 -291q-27 -11 -55.5 -20.5t-60.5 -16.5q-71 -16 -159 -16q-53 0 -99.5 11.5t-87.5 32.5q-94 50 -146 143q-26 48 -40 103t-14 117q0 73 15.5 137.5t44.5 121.5q41 78 104.5 136.5t146.5 93.5q109 46 238 46 q74 0 143.5 -15.5t117.5 -56.5q33 -28 52 -67.5t19 -96.5q0 -42 -10 -77.5t-27 -66.5q-33 -58 -90 -97t-126 -62q-51 -17 -105 -25t-107 -8q-40 0 -78 4t-82 15q-1 -38 6.5 -70.5t29.5 -56.5q20 -23 55.5 -36t91.5 -13zM602 729q-43 0 -77 -11t-62 -29q-38 -24 -64 -57 t-43 -65h4q22 -5 41.5 -6.5t42.5 -1.5q22 0 47.5 1t51.5 4.5t51 9.5t45 16q23 12 38 30.5t15 45.5q0 24 -21 43.5t-69 19.5z" />
<glyph unicode="f" horiz-adv-x="649" d="M813 1241q-40 19 -73.5 28t-53.5 9q-23 0 -45 -7t-40 -24q-14 -13 -24.5 -33t-15.5 -49l-45 -264h213l-45 -205h-205l-131 -735q-6 -54 -23.5 -97.5t-44.5 -78.5q-44 -56 -111 -88q-42 -20 -89 -30t-98 -11l-54 168q30 6 58.5 20.5t51.5 34.5t38 44.5t20 51.5l129 721 h-137l45 205h127l55 289q12 61 33.5 106.5t51.5 79.5q26 29 56 48.5t65 32.5q38 14 79.5 20t87.5 6q42 0 88 -10.5t86 -36.5z" />
<glyph unicode="g" horiz-adv-x="926" d="M285 -27q-13 -7 -32.5 -19.5t-37.5 -28.5t-30.5 -34.5t-12.5 -37.5q0 -38 30 -57q34 -23 105 -23q51 0 104.5 13t98.5 34q48 22 78 49.5t30 54.5q0 34 -21.5 46t-47.5 12zM506 735q-42 0 -80 -18t-64 -50q-20 -24 -31.5 -54.5t-11.5 -65.5q0 -60 39 -93q36 -30 93 -30 q38 0 71.5 14t57.5 39q25 26 39 60.5t14 76.5q0 51 -29 82q-36 39 -98 39zM270 -410q-74 0 -138.5 17t-111.5 49q-38 27 -60.5 64t-22.5 85q0 31 9 58.5t24 52.5q23 36 55 64.5t65 46.5q-20 18 -34.5 43.5t-14.5 56.5q0 26 7 47.5t21 40.5q16 21 39.5 41t55.5 43 q-44 32 -64 88.5t-20 124.5q0 42 8.5 80t23.5 73q26 59 68.5 106t97.5 81t118.5 52t131.5 18q72 0 124.5 -13t86.5 -35l129 136l115 -127l-154 -90q20 -31 34 -64t14 -80q0 -62 -17 -117t-49 -103q-55 -82 -147 -132q-54 -29 -117 -44t-135 -15q-21 0 -40 1t-33 3 q-17 2 -32 4q-21 -14 -32 -28t-11 -25q0 -16 12 -22.5t33 -6.5q42 0 84.5 3.5t83.5 7.5t80 7.5t76 3.5q53 0 96 -10.5t73 -33.5q29 -22 44.5 -54.5t15.5 -79.5q0 -57 -19.5 -107.5t-54.5 -94.5q-41 -51 -99 -91.5t-127 -68.5q-68 -27 -142 -41.5t-150 -14.5z" />
<glyph unicode="h" horiz-adv-x="1012" d="M823 0h-252l105 555q2 12 3 26.5t1 22.5q0 56 -36 84q-29 23 -75 23q-23 0 -45 -4t-43 -14t-43 -25.5t-47 -38.5l-115 -629h-249l258 1464h250l-103 -587q26 10 50.5 18t48.5 14q26 6 52 9.5t52 3.5q78 0 139 -26q33 -14 60 -35t47 -49q51 -71 51 -177q0 -23 -1.5 -46.5 t-6.5 -47.5z" />
<glyph unicode="i" horiz-adv-x="565" d="M344 0h-250l129 696h-104l45 205h348zM258 1325q0 31 11 58t30 48q22 25 53 39.5t66 14.5t64.5 -13.5t51.5 -36.5q20 -22 32 -50t12 -60q0 -30 -10.5 -56.5t-28.5 -47.5q-22 -26 -53.5 -41t-67.5 -15q-32 0 -60 12t-50 32q-23 22 -36.5 51.5t-13.5 64.5z" />
<glyph unicode="j" horiz-adv-x="672" d="M395 -37q-15 -78 -42 -135.5t-66 -99.5q-37 -39 -83.5 -65t-104.5 -42q-60 -17 -131 -23.5t-154 -7.5l10 222q65 0 112.5 3t79.5 11q54 12 86.5 47t44.5 100l140 723h-113l51 205h348zM328 1325q0 32 12 60.5t32 50.5q22 23 51.5 36t63.5 13q35 0 65 -13.5t52 -37.5 q20 -22 31.5 -49.5t11.5 -59.5t-12 -60t-32 -50q-22 -23 -51.5 -36.5t-64.5 -13.5t-65.5 14.5t-52.5 38.5q-41 44 -41 107z" />
<glyph unicode="k" horiz-adv-x="936" d="M616 0l-278 362h-2l-64 -362h-245l252 1464h245l-137 -802h2l332 319l174 -150l-360 -339l374 -492h-293z" />
<glyph unicode="l" horiz-adv-x="555" d="M45 129q0 10 1.5 26t3.5 34t5 35.5t6 31.5l250 1208h244l-236 -1140q-5 -25 -7.5 -46t-2.5 -38q0 -60 25 -84.5t65 -24.5l2 -2q-14 -39 -36 -66t-49 -44q-35 -22 -71.5 -30.5t-68.5 -8.5q-55 0 -89 31q-42 39 -42 118z" />
<glyph unicode="m" horiz-adv-x="1491" d="M1292 0h-248l103 563q3 16 4.5 37.5t1.5 32.5q0 33 -20 53q-25 27 -80 27q-22 0 -45 -7.5t-44 -18.5q-20 -11 -37 -25.5t-28 -28.5l-117 -633h-247l104 565q5 23 8.5 43t3.5 37q0 30 -21 48q-25 20 -73 20q-23 0 -47 -7t-47 -18t-42 -26.5t-30 -32.5l-117 -629h-247 l118 645q4 14 6.5 32.5t2.5 41.5q0 42 -8.5 81.5t-20.5 84.5l233 39l21 -78q53 36 112 55q30 10 61 15.5t62 5.5q88 0 150 -22q55 -19 96 -58q29 19 59.5 33.5t63.5 25.5q66 21 143 21q100 0 163 -31q52 -25 83 -73q39 -60 39 -154q0 -17 -2.5 -41.5t-7.5 -42.5z" />
<glyph unicode="n" horiz-adv-x="1014" d="M934 649q0 -21 -3.5 -52t-8.5 -60l-101 -537h-250l97 520q2 13 4 28.5t3.5 30.5t2 27.5t0.5 20.5q0 41 -29 64q-30 22 -82 22q-50 0 -100 -25q-20 -11 -39 -24.5t-37 -32.5l-117 -631h-247l123 670q2 8 3 19t1 24q0 37 -7 79.5t-18 92.5l238 43l16 -76q60 36 118 52 q65 18 142 18q107 0 173 -35q63 -35 93 -100q25 -56 25 -138z" />
<glyph unicode="o" horiz-adv-x="1016" d="M309 360q0 -88 37 -129q36 -41 107 -41q42 0 76.5 13t61.5 36q33 28 56 68t37 86q12 40 17.5 81.5t5.5 82.5q0 84 -39 123q-35 35 -103 35q-47 0 -84.5 -17t-66.5 -46q-26 -26 -46 -60.5t-33 -72.5t-19.5 -79t-6.5 -80zM55 348q0 137 52 255q32 72 80 131t111 102 q61 42 134 64t158 22q195 0 292 -108q83 -92 83 -251q0 -86 -20 -165t-58 -148q-32 -58 -76.5 -106.5t-99.5 -83.5q-60 -38 -130.5 -59t-152.5 -21q-89 0 -159 25t-118 74q-47 48 -71.5 115t-24.5 154z" />
<glyph unicode="p" horiz-adv-x="1018" d="M311 225q17 -17 40.5 -22.5t54.5 -5.5q95 0 165 34q76 38 113 117q35 74 35 191q0 38 -12.5 68t-35.5 52t-55 34t-71 12q-18 0 -40 -6t-43.5 -16t-41.5 -22.5t-33 -25.5zM975 575q0 -83 -17 -158.5t-49 -141.5q-32 -64 -76.5 -117t-102.5 -91q-63 -42 -138.5 -64.5 t-163.5 -22.5q-20 0 -41.5 2.5t-42.5 7.5q-20 5 -38 10t-34 12h-2l-71 -402h-246l186 1006q5 26 8 53t3 50q0 35 -6 76t-15 88l238 41q8 -17 13.5 -33.5t8.5 -32.5q27 17 56 29t58 20q57 15 109 15q106 0 185 -32q47 -20 82 -51t58 -76q38 -76 38 -188z" />
<glyph unicode="q" horiz-adv-x="1036" d="M723 676q-22 17 -49.5 26t-59.5 9q-76 0 -138 -31q-40 -20 -70.5 -50.5t-51.5 -69.5q-43 -80 -43 -181q0 -83 45 -131q48 -51 138 -51q43 0 77.5 9t65.5 27zM774 -390h-250l74 410q-45 -20 -88 -30t-92 -10q-65 0 -119 15t-98 43q-80 53 -118 145q-14 35 -21 73.5 t-7 83.5q0 70 13 134.5t38 122.5q30 69 76 127t106 100q66 47 147 72.5t175 25.5q20 0 46.5 -4t55.5 -12t57.5 -19.5t51.5 -26.5q20 19 42 30.5t48 14.5h133q-30 -71 -51 -147t-35 -154z" />
<glyph unicode="r" horiz-adv-x="748" d="M719 647q-32 34 -70 50t-76 16q-29 0 -55 -9.5t-49 -26.5q-39 -29 -65.5 -72.5t-34.5 -90.5l-97 -514h-245l163 901h211l17 -61q23 21 54.5 37t65.5 27q29 9 58.5 13.5t54.5 4.5q19 0 54 -4t92 -17z" />
<glyph unicode="s" horiz-adv-x="797" d="M657 623q-56 50 -102.5 75t-101.5 25q-34 0 -61 -16t-27 -50q0 -18 19.5 -36t59.5 -39q34 -17 69 -35t67 -37q52 -31 85 -81.5t33 -113.5q0 -78 -31 -140q-20 -43 -52.5 -76t-73.5 -57q-54 -32 -117.5 -47t-132.5 -15q-77 0 -158 26q-76 24 -151 70l129 223 q58 -55 112 -82q50 -24 96 -24q26 0 49 6.5t40 19.5q16 12 25 29.5t9 40.5q0 8 -2.5 15t-9 14t-18.5 15.5t-31 18.5q-45 25 -83.5 44.5t-61.5 31.5q-60 32 -92.5 87t-32.5 120q0 36 7.5 67t21.5 57q20 38 51 66.5t69 48.5q48 25 104.5 36.5t114.5 11.5q40 0 74 -3.5 t69 -11.5q32 -8 67.5 -20.5t80.5 -30.5z" />
<glyph unicode="t" horiz-adv-x="676" d="M649 696h-246l-84 -346q-6 -23 -8 -40.5t-2 -33.5q0 -69 82 -69q22 0 63 12.5t103 38.5v-229q-53 -20 -112 -29q-34 -5 -70.5 -7.5t-77.5 -2.5q-52 0 -95.5 17.5t-75.5 49.5q-35 34 -54 81t-19 102q0 18 2.5 36t5.5 33l97 387h-105l45 205h101l57 285h260l-65 -285h237z " />
<glyph unicode="u" horiz-adv-x="1014" d="M811 0h-219l-14 49q-29 -14 -59.5 -26.5t-63.5 -22.5q-32 -9 -65 -14.5t-66 -5.5q-46 0 -84 11t-69 31q-27 18 -48 42.5t-35 55.5q-25 54 -25 130q0 17 3 42.5t6 45.5l102 563h248l-100 -563q-4 -16 -5.5 -31t-1.5 -26q0 -47 30 -68q26 -18 71 -18q37 0 71.5 10.5 t63.5 31.5q35 25 59 64.5t33 93.5l84 506h250z" />
<glyph unicode="v" horiz-adv-x="954" d="M432 -10h-100l-283 911h258l139 -481h5l288 481h283z" />
<glyph unicode="w" horiz-adv-x="1339" d="M899 -10h-98l-148 467h-2l-311 -467h-100l-185 911h254l80 -434h2l277 444h98l137 -452h2l236 442h262z" />
<glyph unicode="x" horiz-adv-x="997" d="M647 451l264 -451h-297l-137 250l-221 -250h-305l403 473l-241 428h282l131 -242h2l197 242h313z" />
<glyph unicode="y" horiz-adv-x="977" d="M506 -141q-47 -94 -126 -155q-33 -26 -70.5 -46t-81.5 -34q-52 -17 -111 -25.5t-125 -8.5v238q62 0 114 9t92 29q72 35 93 99l18 60q-52 213 -107 437t-108 439h256l123 -526h2l254 526h275z" />
<glyph unicode="z" horiz-adv-x="922" d="M420 217h389l-41 -217h-741v96l483 586h-404l39 219h748v-98z" />
<glyph unicode="{" horiz-adv-x="993" d="M555 -410q-76 0 -140 20t-109 62q-34 32 -53.5 75.5t-19.5 100.5q0 52 20.5 105.5t45.5 107.5t45.5 106.5t20.5 102.5q0 29 -9 56t-27 50q-21 27 -53 45t-75 23l26 162q61 8 108 35t78 65q24 31 37 66.5t13 73.5q0 28 -4 62.5t-8.5 69.5t-8.5 68t-4 58q1 72 28 131 t73 104q60 60 144.5 92.5t178.5 32.5h80l-35 -209h-57q-32 0 -56.5 -13t-41.5 -36q-18 -24 -26.5 -56.5t-8.5 -68.5q0 -25 3 -48.5t7 -47t7 -47.5t3 -51q0 -51 -19.5 -107t-57.5 -108q-32 -45 -76.5 -83.5t-98.5 -64.5q31 -15 57 -43t46 -63q22 -39 34.5 -82.5t12.5 -81.5 q0 -48 -18 -94t-39.5 -91t-39.5 -90t-18 -90q0 -40 19 -64q24 -28 71 -28h58l-35 -207h-78z" />
<glyph unicode="|" horiz-adv-x="1382" d="M649 -410v1874h248v-1874h-248z" />
<glyph unicode="}" horiz-adv-x="993" d="M477 1462q72 0 134 -18.5t107 -56.5q38 -32 59.5 -77.5t21.5 -105.5q0 -51 -20.5 -105t-45 -107.5t-45 -106.5t-20.5 -103q0 -62 40 -110q21 -25 51.5 -42t71.5 -22l-26 -162q-55 -7 -99.5 -29.5t-75.5 -56.5q-29 -32 -45 -71.5t-16 -81.5q0 -28 4 -62.5t8.5 -70 t8.5 -68.5t4 -57q-1 -78 -33 -142t-86 -111q-60 -52 -139 -80t-166 -28h-80l35 209h57q32 0 56 13t41 36q18 24 27 56.5t9 68.5q0 25 -3 49t-7 47t-7 47.5t-3 51.5q0 52 21 109t59 110q32 44 75 81t97 62q-31 15 -56.5 42.5t-45.5 61.5q-23 40 -35.5 84t-12.5 83 q0 48 18 93.5t39.5 90.5t39.5 90t18 90q0 49 -26 72q-23 20 -64 20h-57l34 207h78z" />
<glyph unicode="~" horiz-adv-x="1382" d="M254 471q11 60 34 119t61 102q27 30 62.5 48t80.5 18q54 0 104.5 -12t96 -26t86 -26t73.5 -12q23 0 41.5 17t28.5 59h186q-20 -81 -43.5 -142t-63.5 -97q-26 -23 -61 -35.5t-84 -12.5q-46 0 -97 11.5t-98.5 25.5t-85.5 25.5t-59 11.5q-18 0 -39.5 -17t-34.5 -57h-188z " />
<glyph unicode="&#xa1;" horiz-adv-x="752" d="M244 754q0 36 14 67t37 54q23 22 52.5 34.5t64.5 12.5t65.5 -13t53.5 -36t36 -53.5t13 -65.5t-13 -64.5t-36 -52.5t-53.5 -36t-65.5 -13q-36 0 -66.5 13t-53.5 36t-35.5 52.5t-12.5 64.5zM459 444q-1 -83 -0.5 -144.5t1 -107.5t1 -80t0 -63.5t-3.5 -57.5t-8 -61l-56 -322 h-317l55 322q6 33 13 61t16 57.5t21.5 63.5t29 80t38 107.5t48.5 144.5h162z" />
<glyph unicode="&#xa2;" d="M901 1079h121l-82 -143q55 -22 98 -59l-120 -158q-16 17 -34.5 30t-41.5 21l-273 -467q47 -18 103 -18q49 0 99 18.5t101 56.5l50 -167q-48 -25 -85 -41t-72 -25.5t-73 -13.5t-86 -4q-38 0 -73 4.5t-64 15.5l-63 -111h-123l90 156q-64 48 -93 122q-21 56 -21 124 q0 47 11 108q13 72 40.5 133.5t69.5 112.5q50 61 115.5 103.5t143.5 64.5q75 21 158 21h17.5t16.5 -2zM729 784q-106 -8 -167 -78q-56 -63 -77 -178q-7 -32 -7 -64q0 -45 16 -83z" />
<glyph unicode="&#xa3;" d="M1024 1157q-48 33 -95 48q-44 14 -83 14q-96 0 -155 -57q-43 -43 -64 -116q-11 -40 -17 -88t-6 -108h219l-39 -209h-180q-2 -55 -17 -122t-40 -131q-21 -54 -47.5 -101.5t-55.5 -77.5q25 -4 56 -8t65 -8t70 -6.5t70 -2.5q74 0 136 35q67 38 117 115l162 -170 q-26 -53 -68.5 -93t-99.5 -66q-56 -26 -122 -39t-140 -13q-64 0 -120 10.5t-120 21.5q-40 7 -85.5 11t-100.5 4q-38 0 -91.5 -4t-121.5 -12l-61 198q18 8 39.5 15t44.5 18q68 31 113.5 68.5t74.5 86.5q32 52 48.5 118.5t25.5 152.5h-184l34 209h148q1 92 15 168t40 139 q32 77 79.5 132.5t110.5 91.5q57 33 125 49t146 16q35 0 75.5 -4.5t80.5 -14.5q45 -11 85.5 -27t69.5 -38z" />
<glyph unicode="&#xa5;" horiz-adv-x="1401" d="M309 588h232l12 67l-344 809h307l221 -530h2l408 530h344l-645 -819h-2l-10 -57h229l-31 -166h-229l-23 -123h232l-31 -166h-231l-25 -133h-293l25 133h-230l31 166h229l23 123h-231z" />
<glyph unicode="&#xa6;" d="M504 741v723h207v-723h-207zM504 -198v724h207v-724h-207z" />
<glyph unicode="&#xa7;" d="M254 319q55 -59 122 -85q65 -25 140 -25q92 0 145 35q26 17 40 41.5t14 56.5q0 45 -43.5 74t-134.5 51q-75 17 -127.5 44t-87.5 62q-31 31 -44.5 66t-13.5 72q0 35 9 67.5t26 61.5q32 57 86 96q-57 63 -57 162q0 18 2.5 38t5.5 40q15 82 67 146q32 39 73.5 69.5 t90.5 51.5q48 21 101 31.5t108 10.5q102 0 186 -29q91 -31 158 -92l-147 -213q-12 20 -32.5 41.5t-48.5 38.5q-26 17 -57 27t-67 10q-43 0 -75 -10.5t-53 -28.5q-40 -35 -40 -88q0 -26 13.5 -41.5t36 -25.5t51 -17.5t57.5 -16.5q85 -21 142 -52.5t89 -69.5q20 -29 29.5 -62 t9.5 -74q0 -70 -27 -130q-28 -62 -81 -105q35 -32 52 -73t17 -89q0 -29 -6 -59q-12 -64 -40 -119q-31 -60 -77.5 -101.5t-105.5 -69.5q-62 -29 -133.5 -42.5t-147.5 -13.5q-116 0 -206 30q-86 28 -152 86zM573 858q-27 -15 -40 -37.5t-13 -50.5q0 -31 21 -57q9 -11 25 -20 t41.5 -19t61 -20.5t83.5 -24.5q2 -1 6 10t8.5 26t8 31.5t3.5 26.5q0 15 -4.5 31.5t-19.5 33.5q-20 20 -66 39t-115 31z" />
<glyph unicode="&#xa8;" horiz-adv-x="649" d="M514 1415q28 0 52 -11t43 -30q18 -19 29 -44t11 -54q0 -58 -39 -97q-18 -18 -42.5 -29t-53.5 -11q-60 0 -99 39q-19 19 -29.5 44t-10.5 54q0 31 12 57t32 45q19 17 43 27t52 10zM139 1415q27 0 51 -10.5t42 -28.5q20 -19 31 -45t11 -55t-11 -55t-31 -45 q-18 -17 -41.5 -27t-51.5 -10q-31 0 -57 11.5t-45 31.5q-17 18 -27 42t-10 52q0 61 41 100q19 18 44 28.5t54 10.5z" />
<glyph unicode="&#xa9;" horiz-adv-x="772" d="M147 1122q0 72 26 134.5t71 111.5q51 54 119.5 85.5t146.5 31.5q75 0 140 -28t115 -78t78.5 -116t28.5 -141q0 -76 -30 -143t-81 -117q-49 -48 -113.5 -75t-137.5 -27t-136.5 26.5t-112.5 72.5q-53 50 -83.5 117.5t-30.5 145.5zM236 1122q0 -58 22.5 -108t60.5 -88 q37 -36 85.5 -57t105.5 -21q54 0 100.5 18.5t82.5 51.5q42 38 66.5 90.5t24.5 113.5q0 49 -16 92.5t-45 78.5q-38 47 -93.5 74.5t-119.5 27.5q-56 0 -104 -20t-85 -55q-39 -38 -62 -88.5t-23 -109.5zM627 1309l-27 -74q-37 27 -86 27q-27 0 -45.5 -13t-29.5 -33.5t-16 -45.5 t-5 -50q0 -24 5.5 -48t17.5 -43t30.5 -30.5t44.5 -11.5q23 0 43 12t39 35l47 -65q-58 -58 -135 -58q-44 0 -77 17.5t-55 46.5t-33 67.5t-11 81.5q0 40 12 78.5t35 68.5t56.5 48t76.5 18q32 0 61 -6.5t52 -21.5z" />
<glyph unicode="&#xaa;" horiz-adv-x="733" d="M559 1112q-15 2 -27 2h-18q-85 0 -130.5 -23.5t-45.5 -78.5q0 -28 18 -49t54 -21q18 0 37 4.5t36 13t31 21t23 27.5zM791 905q-9 -20 -26 -42t-40 -39q-18 -13 -39.5 -21t-44.5 -8q-35 0 -60 17q-18 12 -29 30.5t-15 38.5q-29 -35 -74.5 -60.5t-114.5 -25.5 q-38 0 -72.5 12.5t-61.5 35.5q-31 26 -49 61.5t-18 80.5q0 51 15.5 90.5t41.5 68.5q29 32 67.5 53t82.5 33q41 11 83 16t83 5q8 0 27.5 -1t32.5 -3l2 15q0 77 -103 77q-42 0 -86 -13.5t-84 -33.5l-47 142q25 11 54 19.5t61 15.5q33 8 66.5 12t62.5 4q105 0 163 -26 q51 -23 74 -66t23 -111q0 -20 -3.5 -42t-6.5 -44l-23 -123q-3 -20 -6.5 -46.5t-3.5 -39.5q0 -24 5.5 -39.5t14.5 -25t20.5 -13.5t24.5 -4h3z" />
<glyph unicode="&#xab;" horiz-adv-x="1098" d="M82 381l24 147l469 351l-45 -273l-219 -157l170 -140l-43 -270zM543 381l24 147l467 351l-45 -273l-219 -157l170 -140l-43 -270z" />
<glyph unicode="&#xac;" horiz-adv-x="1073" d="M961 887v-488h-142v346h-696v142h838z" />
<glyph unicode="&#xae;" horiz-adv-x="772" d="M152 1122q0 75 27.5 139.5t76.5 114.5q50 51 116.5 80t141.5 29q81 0 150 -32.5t120 -88.5q44 -48 68.5 -110.5t24.5 -131.5q0 -68 -23.5 -128.5t-65.5 -108.5q-51 -58 -121.5 -91.5t-152.5 -33.5q-77 0 -143.5 29.5t-116.5 80.5q-48 49 -75 113.5t-27 138.5zM240 1122 q0 -54 19.5 -101.5t53.5 -84.5q38 -41 89.5 -64.5t111.5 -23.5q61 0 113.5 24.5t90.5 66.5q32 37 51 83.5t19 99.5q0 54 -19.5 101t-52.5 84q-38 42 -90 66t-112 24t-110.5 -23t-88.5 -63q-35 -37 -55 -85.5t-20 -103.5zM596 920l-98 165h-33v-165h-84v413h113 q153 0 153 -121q0 -75 -69 -110l110 -182h-92zM494 1257h-29v-100h40.5t24.5 2q33 6 33 49q0 26 -17 37.5t-52 11.5z" />
<glyph unicode="&#xaf;" horiz-adv-x="678" d="M-10 1245l24 164h674l-26 -164h-672z" />
<glyph unicode="&#xb0;" horiz-adv-x="729" d="M250 1206q0 48 18 90.5t50 74.5q34 35 78.5 55t95.5 20t96 -21.5t79 -56.5q30 -32 48 -73.5t18 -88.5q0 -45 -16 -85t-45 -72q-33 -38 -79.5 -60t-100.5 -22q-51 0 -95.5 19.5t-77.5 53.5q-32 32 -50.5 75t-18.5 91zM383 1206q0 -41 27 -71q15 -17 36.5 -27t45.5 -10 q23 0 44 9.5t36 26.5q13 14 20.5 32.5t7.5 39.5q0 24 -9 44.5t-26 35.5q-14 14 -33 21.5t-40 7.5q-23 0 -43 -9t-35 -24q-14 -15 -22.5 -34.5t-8.5 -41.5z" />
<glyph unicode="&#xb1;" horiz-adv-x="1382" d="M1171 248v-248h-960v248h960zM1171 758v-248h-356v-213h-248v213h-356v248h356v356h248v-356h356z" />
<glyph unicode="&#xb2;" horiz-adv-x="750" d="M90 578l10 57l365 389q30 32 54.5 60.5t41.5 56.5q25 42 25 82q0 34 -23 52.5t-69 18.5q-40 0 -79 -23q-21 -13 -43 -32.5t-44 -46.5l-125 100q35 37 71.5 65t77.5 47q84 40 189 40q61 0 112.5 -13t86.5 -42q28 -23 43.5 -54.5t15.5 -74.5q0 -38 -7.5 -71t-26 -67.5 t-50.5 -74t-80 -91.5l-217 -225h344l-27 -153h-645z" />
<glyph unicode="&#xb3;" horiz-adv-x="750" d="M225 805q12 -21 29 -38t37 -29t41 -18.5t39 -6.5q35 0 65.5 10.5t53.5 30.5q20 18 31 43.5t11 58.5q0 42 -29 68q-35 32 -100 32h-51l27 148h45q33 0 60 7.5t47 23.5q19 15 29.5 36.5t10.5 49.5q0 34 -24 54.5t-68 20.5q-14 0 -33.5 -4t-41.5 -13t-45 -22.5t-44 -33.5 l-67 127q33 23 69.5 41t76.5 31q33 11 67 16.5t69 5.5q109 0 175 -43q77 -51 77 -148q0 -71 -37 -127q-38 -55 -112 -94q55 -25 82 -66q26 -39 26 -96q0 -46 -10.5 -84t-30.5 -70q-23 -38 -58 -65t-79 -46q-48 -20 -103.5 -30t-115.5 -10q-71 0 -132 23q-62 24 -114 71z" />
<glyph unicode="&#xb4;" horiz-adv-x="446" d="M473 1464l-305 -366h-195l240 366h260z" />
<glyph unicode="&#xb5;" horiz-adv-x="965" d="M152 901h251l-102 -557q-3 -12 -3.5 -23t-0.5 -22q0 -104 106 -104q26 0 54 5t54 20t48.5 43.5t38.5 76.5l104 561h256l-167 -901h-203l-21 55q-26 -16 -48 -28t-45.5 -19.5t-50 -11.5t-61.5 -4q-40 0 -72.5 10t-49.5 23l-80 -415h-244z" />
<glyph unicode="&#xb6;" d="M684 -250l287 1591h-158l-287 -1591h-153l157 868q-147 0 -218 77q-66 72 -66 212q0 32 3 68.5t11 77.5q13 73 41.5 144.5t74.5 129.5q48 61 114 99t151 38h506l-309 -1714h-154z" />
<glyph unicode="&#xb7;" horiz-adv-x="559" d="M123 721q0 42 16.5 79t45.5 65q27 26 63 41.5t76 15.5q44 0 82 -18t66 -48q26 -27 40 -62t14 -73q0 -42 -16 -78.5t-42 -64.5q-28 -29 -65 -45.5t-79 -16.5q-39 0 -73 14t-61 39q-31 29 -49 68t-18 84z" />
<glyph unicode="&#xb8;" horiz-adv-x="319" d="M0 -301q41 1 73.5 6t55.5 16q45 22 45 66q0 20 -14 32.5t-51 12.5l18 119h14q80 0 127 -45q41 -39 41 -103q0 -53 -19.5 -91.5t-56.5 -64.5q-41 -29 -99.5 -43t-133.5 -14v109z" />
<glyph unicode="&#xb9;" horiz-adv-x="750" d="M340 563l102 578q-24 -12 -51 -26t-54.5 -28t-53.5 -27t-47 -24l32 181q53 21 100.5 45.5t90.5 50.5q40 25 75 52t66 58h98l-153 -860h-205z" />
<glyph unicode="&#xba;" horiz-adv-x="743" d="M348 1073q0 -64 29 -95q25 -28 76 -28q42 0 74 17.5t54 46.5q31 41 44.5 96t13.5 109q0 57 -25 85q-25 29 -79 29q-44 0 -77 -20t-56 -53q-27 -38 -40.5 -88.5t-13.5 -98.5zM162 1065q0 109 44 200q25 53 62.5 95.5t86.5 71.5q42 26 91.5 39.5t106.5 13.5q104 0 170 -42 q56 -35 82 -97q22 -51 22 -123q0 -123 -53 -223q-49 -94 -136 -148q-43 -27 -94 -42t-110 -15q-92 0 -156 38q-51 29 -82 85q-34 62 -34 147z" />
<glyph unicode="&#xbb;" horiz-adv-x="1098" d="M43 39l43 270l219 140l-170 157l45 273l352 -351l-24 -147zM502 39l43 270l219 140l-170 157l45 273l354 -351l-24 -147z" />
<glyph unicode="&#xbc;" horiz-adv-x="1843" d="M520 0h-198l1044 1423h197zM336 563l102 578q-24 -12 -51.5 -26t-54.5 -28t-53 -27l-48 -24l33 181q104 42 190 95q80 49 142 111h98l-153 -860h-205zM1415 553q-25 -23 -54 -49t-59 -53t-60.5 -53.5t-57.5 -51.5h192zM1550 201l-37 -201h-198l37 201h-420l18 100 l615 559h104l-94 -514h94l-24 -145h-95z" />
<glyph unicode="&#xbd;" horiz-adv-x="1843" d="M455 0h-199l1044 1423h197zM289 563l102 578l-207 -105l33 181q107 44 193 97q39 25 74 52t65 57h98l-153 -860h-205zM1010 0l10 57l366 389q59 60 90 107t31 94q0 32 -22.5 51t-69.5 19q-40 0 -81 -25t-85 -78l-123 101q73 77 155 114q81 37 181 37q58 0 108 -11.5 t85 -37.5q32 -23 49.5 -56.5t17.5 -80.5q0 -35 -7.5 -66.5t-24.5 -65.5q-19 -36 -51 -76.5t-83 -92.5l-215 -225h345l-29 -154h-647z" />
<glyph unicode="&#xbe;" horiz-adv-x="1843" d="M1454 553q-25 -23 -54 -49t-59 -53t-59.5 -53.5t-56.5 -51.5h192zM1589 201l-37 -201h-198l37 201h-420l18 100l615 559h104l-92 -514h94l-27 -145h-94zM580 0h-199l1044 1423h197zM274 805q12 -21 29 -38t37 -29t41 -18.5t39 -6.5q33 0 62.5 9t52.5 28q22 18 34.5 44.5 t12.5 61.5q0 45 -33 72q-17 14 -42 21t-54 7h-52l27 148h45q34 0 62 8t48 25q38 32 38 84q0 34 -24.5 54.5t-68.5 20.5q-15 0 -34.5 -4t-41 -13t-44 -23t-43.5 -33l-68 127q32 22 68.5 40t75.5 31q69 23 139 23q128 0 194 -58q57 -49 57 -133q0 -68 -34 -122 q-38 -59 -115 -99q60 -27 87 -72q22 -38 22 -90q0 -45 -10.5 -83t-30.5 -69q-26 -42 -66 -71.5t-91 -48.5q-90 -33 -200 -33q-69 0 -126 21q-66 23 -120 73z" />
<glyph unicode="&#xbf;" horiz-adv-x="752" d="M393 754q0 38 15 70.5t41 55.5q23 20 51.5 31t60.5 11q34 0 64 -12.5t53 -35.5t37 -54t14 -66q0 -36 -14 -67.5t-39 -54.5q-23 -20 -52 -32t-63 -12q-35 0 -65.5 12.5t-53.5 34.5q-23 23 -36 53.5t-13 65.5zM629 457q8 -10 14 -26.5t6 -41.5q0 -83 -53 -160 q-29 -42 -73 -83.5t-103 -84.5q-39 -29 -66 -51t-43 -42t-23 -40.5t-7 -46.5q0 -43 37 -65q17 -10 40.5 -15.5t55.5 -5.5q51 0 115 22q33 11 65 28t61 40l70 -194q-38 -26 -83.5 -45t-96.5 -32q-48 -12 -98 -18t-101 -6q-72 0 -135.5 14.5t-109.5 46.5q-41 29 -64 71 t-23 102q0 62 22.5 108.5t57.5 84.5q27 29 58.5 53.5t65 47.5t66 46.5t60.5 48.5q42 38 68 83t26 107v24t-2 30h193z" />
<glyph unicode="&#xc0;" horiz-adv-x="1257" d="M750 963h-9l-243 -443h319zM895 0l-43 291h-483l-168 -291h-305l888 1483h117l299 -1483h-305zM795 1540l-186 366h260l123 -366h-197z" />
<glyph unicode="&#xc1;" horiz-adv-x="1257" d="M750 963h-9l-243 -443h319zM895 0l-43 291h-483l-168 -291h-305l888 1483h117l299 -1483h-305zM1190 1906l-305 -366h-195l240 366h260z" />
<glyph unicode="&#xc2;" horiz-adv-x="1257" d="M750 963h-9l-243 -443h319zM895 0l-43 291h-483l-168 -291h-305l888 1483h117l299 -1483h-305zM987 1540l-94 159l-160 -159h-232l357 366h141l250 -366h-262z" />
<glyph unicode="&#xc3;" horiz-adv-x="1257" d="M750 963h-9l-243 -443h319zM895 0l-43 291h-483l-168 -291h-305l888 1483h117l299 -1483h-305zM1203 1783q-29 -68 -62.5 -117t-71.5 -79q-61 -47 -131 -47q-40 0 -67.5 12t-51 26t-47 26t-55.5 12q-34 0 -58.5 -18t-41.5 -58h-141q12 44 38 89.5t62 81.5q32 32 69.5 52 t79.5 20q45 0 75 -11.5t54.5 -26t48.5 -26t58 -11.5q35 0 57 16t37 59h148z" />
<glyph unicode="&#xc4;" horiz-adv-x="1257" d="M750 963h-9l-243 -443h319zM895 0l-43 291h-483l-168 -291h-305l888 1483h117l299 -1483h-305zM1053 1814q28 0 52 -11t43 -30q18 -19 29 -44t11 -54q0 -58 -39 -97q-18 -18 -42.5 -29t-53.5 -11q-60 0 -99 39q-19 19 -29.5 44t-10.5 54q0 31 12 57t32 45q19 17 43 27 t52 10zM678 1814q27 0 51 -10.5t42 -28.5q20 -19 31 -45t11 -55t-11 -55t-31 -45q-18 -17 -41.5 -27t-51.5 -10q-31 0 -57 11.5t-45 31.5q-17 18 -27 42t-10 52q0 61 41 100q19 18 44 28.5t54 10.5z" />
<glyph unicode="&#xc5;" horiz-adv-x="1257" d="M750 963h-9l-243 -443h319zM895 0l-43 291h-483l-168 -291h-305l888 1483h117l299 -1483h-305zM872 1958q45 0 83.5 -17.5t67.5 -46.5q28 -29 44 -66t16 -79q0 -43 -15.5 -80.5t-43.5 -66.5q-29 -30 -68 -47t-84 -17q-47 0 -87 18.5t-69 50.5q-26 29 -40.5 65t-14.5 77 q0 45 17.5 83.5t48.5 67.5q29 27 66 42.5t79 15.5zM872 1649q22 0 41 9t33 23q27 29 27 68q0 37 -24 64q-14 16 -34 25.5t-43 9.5q-40 0 -68 -25q-16 -14 -25 -32.5t-9 -41.5q0 -43 32 -72q14 -13 32 -20.5t38 -7.5z" />
<glyph unicode="&#xc6;" horiz-adv-x="1960" d="M967 950h-4l-347 -430h275zM850 291h-418l-229 -291h-309l1167 1464h960l-49 -262h-655l-53 -289h471l-45 -249h-471l-74 -404h647l-51 -260h-944z" />
<glyph unicode="&#xc7;" horiz-adv-x="1255" d="M1146 1145q-61 43 -127 66q-63 22 -131 22q-78 0 -144 -28.5t-121 -76.5q-56 -49 -98.5 -113.5t-71.5 -137.5t-44.5 -148.5t-15.5 -146.5q0 -70 17.5 -131.5t52.5 -108.5t88.5 -73.5t127.5 -26.5q100 0 185 30q102 36 184 115l-4 -278q-78 -64 -182 -97 q-105 -32 -236 -32q-75 0 -141 16t-123 46q-129 70 -199 201q-35 66 -53.5 142t-18.5 162q0 119 23 233.5t68 217.5q50 115 124 209.5t174 161.5q88 59 192 91.5t226 32.5q88 0 167 -16q81 -16 161 -50zM451 -301q41 1 73.5 6t55.5 16q45 22 45 66q0 20 -14 32.5t-51 12.5 l18 119h14q80 0 127 -45q41 -39 41 -103q0 -53 -19.5 -91.5t-56.5 -64.5q-41 -29 -99.5 -43t-133.5 -14v109z" />
<glyph unicode="&#xc8;" horiz-adv-x="1214" d="M1229 1202h-656l-53 -289h471l-45 -249h-471l-74 -404h648l-52 -260h-944l266 1464h959zM768 1540l-186 366h260l123 -366h-197z" />
<glyph unicode="&#xc9;" horiz-adv-x="1214" d="M1227 1202h-656l-53 -289h471l-45 -249h-471l-74 -404h648l-52 -260h-944l266 1464h959zM1128 1906l-305 -366h-195l240 366h260z" />
<glyph unicode="&#xca;" horiz-adv-x="1214" d="M1229 1202h-656l-53 -289h471l-45 -249h-471l-74 -404h648l-52 -260h-944l266 1464h959zM922 1540l-94 159l-160 -159h-232l357 366h141l250 -366h-262z" />
<glyph unicode="&#xcb;" horiz-adv-x="1214" d="M1229 1202h-656l-53 -289h471l-45 -249h-471l-74 -404h648l-52 -260h-944l266 1464h959zM1006 1816q28 0 52 -11t43 -30q18 -19 29 -44t11 -54q0 -58 -39 -97q-18 -18 -42.5 -29t-53.5 -11q-60 0 -99 39q-19 19 -29.5 44t-10.5 54q0 31 12 57t32 45q19 17 43 27t52 10z M631 1816q27 0 51 -10.5t42 -28.5q20 -19 31 -45t11 -55t-11 -55t-31 -45q-18 -17 -41.5 -27t-51.5 -10q-31 0 -57 11.5t-45 31.5q-17 18 -27 42t-10 52q0 61 41 100q19 18 44 28.5t54 10.5z" />
<glyph unicode="&#xcc;" horiz-adv-x="569" d="M339 0h-295l268 1464h293zM446 1540l-186 366h260l123 -366h-197z" />
<glyph unicode="&#xcd;" horiz-adv-x="569" d="M339 0h-295l268 1464h293zM825 1906l-305 -366h-195l240 366h260z" />
<glyph unicode="&#xce;" horiz-adv-x="569" d="M339 0h-295l268 1464h293zM602 1540l-94 159l-160 -159h-232l357 366h141l250 -366h-262z" />
<glyph unicode="&#xcf;" horiz-adv-x="569" d="M339 0h-295l268 1464h293zM674 1816q28 0 52 -11t43 -30q18 -19 29 -44t11 -54q0 -58 -39 -97q-18 -18 -42.5 -29t-53.5 -11q-60 0 -99 39q-19 19 -29.5 44t-10.5 54q0 31 12 57t32 45q19 17 43 27t52 10zM299 1816q27 0 51 -10.5t42 -28.5q20 -19 31 -45t11 -55t-11 -55 t-31 -45q-18 -17 -41.5 -27t-51.5 -10q-31 0 -57 11.5t-45 31.5q-17 18 -27 42t-10 52q0 61 41 100q19 18 44 28.5t54 10.5z" />
<glyph unicode="&#xd0;" horiz-adv-x="1294" d="M449 895h278l-39 -223h-278l-78 -439q32 -3 53.5 -3.5t38.5 -0.5q66 0 125 11.5t111 33.5q56 23 102.5 56.5t85.5 75.5q43 47 75 102.5t54 118.5q45 128 45 276q0 60 -16.5 112t-47.5 94q-60 81 -161 121q-81 32 -176 32q-26 0 -52.5 -3t-58.5 -8zM84 895h131l102 569 q69 11 134.5 18t128.5 7q82 0 156.5 -10t141.5 -31q113 -35 198 -100.5t134 -168.5q29 -60 43.5 -130.5t14.5 -155.5q0 -224 -76 -403q-55 -131 -145.5 -229.5t-213.5 -161.5q-94 -48 -204 -73.5t-236 -25.5h-342l123 672h-131z" />
<glyph unicode="&#xd1;" horiz-adv-x="1352" d="M1109 -8h-125l-499 864h-6l-152 -856h-291l268 1464h144l487 -833h6l148 833h293zM1217 1783q-29 -68 -62.5 -117t-71.5 -79q-61 -47 -131 -47q-40 0 -67.5 12t-51 26t-47 26t-55.5 12q-34 0 -58.5 -18t-41.5 -58h-141q12 44 38 89.5t62 81.5q32 32 69.5 52t79.5 20 q45 0 75 -11.5t54.5 -26t48.5 -26t58 -11.5q35 0 57 16t37 59h148z" />
<glyph unicode="&#xd2;" horiz-adv-x="1438" d="M410 575q0 -66 13 -126.5t42 -108.5q28 -45 72 -71.5t108 -26.5q75 0 136.5 22.5t112.5 63.5q56 45 97 106.5t70 133.5q33 84 49 175t16 179q0 161 -75 237q-68 70 -195 70q-67 0 -123.5 -25t-104.5 -69q-58 -53 -100 -126t-69 -154q-24 -72 -36.5 -144.5t-12.5 -135.5z M106 549q0 100 17 199t50 193q43 122 112.5 226t165.5 179q86 67 191.5 105t231.5 38q128 0 227.5 -33t169.5 -98q76 -70 115 -173.5t39 -242.5q0 -120 -19 -232t-57 -213q-38 -100 -94 -185t-131 -151q-97 -85 -223.5 -133t-286.5 -48q-124 0 -217.5 42t-157.5 117 q-66 78 -99.5 182.5t-33.5 227.5zM872 1540l-186 366h260l123 -366h-197z" />
<glyph unicode="&#xd3;" horiz-adv-x="1438" d="M410 575q0 -66 13 -126.5t42 -108.5q28 -45 72 -71.5t108 -26.5q75 0 136.5 22.5t112.5 63.5q56 45 97 106.5t70 133.5q33 84 49 175t16 179q0 161 -75 237q-68 70 -195 70q-67 0 -123.5 -25t-104.5 -69q-58 -53 -100 -126t-69 -154q-24 -72 -36.5 -144.5t-12.5 -135.5z M106 549q0 100 17 199t50 193q43 122 112.5 226t165.5 179q86 67 191.5 105t231.5 38q128 0 227.5 -33t169.5 -98q76 -70 115 -173.5t39 -242.5q0 -120 -19 -232t-57 -213q-38 -100 -94 -185t-131 -151q-97 -85 -223.5 -133t-286.5 -48q-124 0 -217.5 42t-157.5 117 q-66 78 -99.5 182.5t-33.5 227.5zM1261 1906l-305 -366h-195l240 366h260z" />
<glyph unicode="&#xd4;" horiz-adv-x="1438" d="M410 575q0 -66 13 -126.5t42 -108.5q28 -45 72 -71.5t108 -26.5q75 0 136.5 22.5t112.5 63.5q56 45 97 106.5t70 133.5q33 84 49 175t16 179q0 161 -75 237q-68 70 -195 70q-67 0 -123.5 -25t-104.5 -69q-58 -53 -100 -126t-69 -154q-24 -72 -36.5 -144.5t-12.5 -135.5z M106 549q0 100 17 199t50 193q43 122 112.5 226t165.5 179q86 67 191.5 105t231.5 38q128 0 227.5 -33t169.5 -98q76 -70 115 -173.5t39 -242.5q0 -120 -19 -232t-57 -213q-38 -100 -94 -185t-131 -151q-97 -85 -223.5 -133t-286.5 -48q-124 0 -217.5 42t-157.5 117 q-66 78 -99.5 182.5t-33.5 227.5zM1030 1540l-94 159l-160 -159h-232l357 366h141l250 -366h-262z" />
<glyph unicode="&#xd5;" horiz-adv-x="1438" d="M410 575q0 -66 13 -126.5t42 -108.5q28 -45 72 -71.5t108 -26.5q75 0 136.5 22.5t112.5 63.5q56 45 97 106.5t70 133.5q33 84 49 175t16 179q0 161 -75 237q-68 70 -195 70q-67 0 -123.5 -25t-104.5 -69q-58 -53 -100 -126t-69 -154q-24 -72 -36.5 -144.5t-12.5 -135.5z M106 549q0 100 17 199t50 193q43 122 112.5 226t165.5 179q86 67 191.5 105t231.5 38q128 0 227.5 -33t169.5 -98q76 -70 115 -173.5t39 -242.5q0 -120 -19 -232t-57 -213q-38 -100 -94 -185t-131 -151q-97 -85 -223.5 -133t-286.5 -48q-124 0 -217.5 42t-157.5 117 q-66 78 -99.5 182.5t-33.5 227.5zM1301 1783q-29 -68 -62.5 -117t-71.5 -79q-61 -47 -131 -47q-40 0 -67.5 12t-51 26t-47 26t-55.5 12q-34 0 -58.5 -18t-41.5 -58h-141q12 44 38 89.5t62 81.5q32 32 69.5 52t79.5 20q45 0 75 -11.5t54.5 -26t48.5 -26t58 -11.5q35 0 57 16 t37 59h148z" />
<glyph unicode="&#xd6;" horiz-adv-x="1438" d="M1092 1816q28 0 52 -11t43 -30q18 -19 29 -44t11 -54q0 -58 -39 -97q-18 -18 -42.5 -29t-53.5 -11q-60 0 -99 39q-19 19 -29.5 44t-10.5 54q0 31 12 57t32 45q19 17 43 27t52 10zM717 1816q27 0 51 -10.5t42 -28.5q20 -19 31 -45t11 -55t-11 -55t-31 -45 q-18 -17 -41.5 -27t-51.5 -10q-31 0 -57 11.5t-45 31.5q-17 18 -27 42t-10 52q0 61 41 100q19 18 44 28.5t54 10.5zM410 575q0 -66 13 -126.5t42 -108.5q28 -45 72 -71.5t108 -26.5q75 0 136.5 22.5t112.5 63.5q56 45 97 106.5t70 133.5q33 84 49 175t16 179q0 161 -75 237 q-68 70 -195 70q-67 0 -123.5 -25t-104.5 -69q-58 -53 -100 -126t-69 -154q-24 -72 -36.5 -144.5t-12.5 -135.5zM106 549q0 100 17 199t50 193q43 122 112.5 226t165.5 179q86 67 191.5 105t231.5 38q128 0 227.5 -33t169.5 -98q76 -70 115 -173.5t39 -242.5 q0 -120 -19 -232t-57 -213q-38 -100 -94 -185t-131 -151q-97 -85 -223.5 -133t-286.5 -48q-124 0 -217.5 42t-157.5 117q-66 78 -99.5 182.5t-33.5 227.5z" />
<glyph unicode="&#xd7;" d="M1116 328l-174 -176l-305 305l-303 -303l-176 176l303 303l-305 305l176 176l305 -305l305 307l174 -176l-305 -307z" />
<glyph unicode="&#xd8;" horiz-adv-x="1438" d="M1126 922q0 18 -3 40t-5 39l-608 -716q25 -20 59 -31.5t76 -11.5q85 0 152.5 28.5t121.5 78.5q55 51 94.5 120t65.5 147q24 75 35.5 153t11.5 153zM410 575q0 -30 3 -63.5t9 -62.5l614 722q-32 28 -78 43t-102 15q-70 0 -128.5 -27t-106.5 -74q-57 -55 -98.5 -129 t-67.5 -155q-23 -69 -34 -138.5t-11 -130.5zM1346 1268q37 -62 56 -136q23 -87 23 -190q0 -133 -23 -256t-70 -232q-44 -103 -108.5 -187.5t-151.5 -147.5q-91 -66 -205 -102.5t-253 -36.5q-42 0 -80.5 5.5t-74.5 16.5q-38 11 -72.5 26t-67.5 35l-67 -83l-211 20l162 188 q-23 35 -40.5 74t-29.5 82q-27 95 -27 205q0 111 20 220t61 210q46 116 116.5 214t166.5 167q84 61 184.5 95t219.5 34q113 0 208 -29q41 -12 76 -28.5t67 -36.5l78 90l210 -21z" />
<glyph unicode="&#xd9;" horiz-adv-x="1356" d="M1223 459q-16 -84 -50 -152.5t-84 -124.5q-47 -52 -105.5 -91t-125.5 -65q-60 -23 -126 -34.5t-136 -11.5q-72 0 -140 13.5t-127 42.5q-49 23 -89 57t-68 79q-24 39 -37.5 86t-13.5 104q0 29 2.5 57.5t7.5 57.5l180 987h303l-186 -991q-6 -24 -6 -51q0 -76 43 -122 q53 -58 160 -58q82 0 147 31q53 25 91 72q49 62 67 151l184 968h295zM852 1540l-186 366h260l123 -366h-197z" />
<glyph unicode="&#xda;" horiz-adv-x="1356" d="M1223 459q-16 -84 -50 -152.5t-84 -124.5q-47 -52 -105.5 -91t-125.5 -65q-60 -23 -126 -34.5t-136 -11.5q-72 0 -140 13.5t-127 42.5q-49 23 -89 57t-68 79q-24 39 -37.5 86t-13.5 104q0 29 2.5 57.5t7.5 57.5l180 987h303l-186 -991q-6 -24 -6 -51q0 -76 43 -122 q53 -58 160 -58q82 0 147 31q53 25 91 72q49 62 67 151l184 968h295zM1231 1906l-305 -366h-195l240 366h260z" />
<glyph unicode="&#xdb;" horiz-adv-x="1356" d="M1223 459q-16 -84 -50 -152.5t-84 -124.5q-47 -52 -105.5 -91t-125.5 -65q-60 -23 -126 -34.5t-136 -11.5q-72 0 -140 13.5t-127 42.5q-49 23 -89 57t-68 79q-24 39 -37.5 86t-13.5 104q0 29 2.5 57.5t7.5 57.5l180 987h303l-186 -991q-6 -24 -6 -51q0 -76 43 -122 q53 -58 160 -58q82 0 147 31q53 25 91 72q49 62 67 151l184 968h295zM971 1540l-94 159l-160 -159h-232l357 366h141l250 -366h-262z" />
<glyph unicode="&#xdc;" horiz-adv-x="1356" d="M1223 459q-16 -84 -50 -152.5t-84 -124.5q-47 -52 -105.5 -91t-125.5 -65q-60 -23 -126 -34.5t-136 -11.5q-72 0 -140 13.5t-127 42.5q-49 23 -89 57t-68 79q-24 39 -37.5 86t-13.5 104q0 29 2.5 57.5t7.5 57.5l180 987h303l-186 -991q-6 -24 -6 -51q0 -76 43 -122 q53 -58 160 -58q82 0 147 31q53 25 91 72q49 62 67 151l184 968h295zM1094 1816q28 0 52 -11t43 -30q18 -19 29 -44t11 -54q0 -58 -39 -97q-18 -18 -42.5 -29t-53.5 -11q-60 0 -99 39q-19 19 -29.5 44t-10.5 54q0 31 12 57t32 45q19 17 43 27t52 10zM719 1816q27 0 51 -10.5 t42 -28.5q20 -19 31 -45t11 -55t-11 -55t-31 -45q-18 -17 -41.5 -27t-51.5 -10q-31 0 -57 11.5t-45 31.5q-17 18 -27 42t-10 52q0 61 41 100q19 18 44 28.5t54 10.5z" />
<glyph unicode="&#xdd;" horiz-adv-x="1401" d="M872 645h-2l-118 -645h-293l121 655l-344 809h307l221 -530h4l406 530h344zM1264 1906l-305 -366h-195l240 366h260z" />
<glyph unicode="&#xde;" horiz-adv-x="1194" d="M420 549q29 -3 56 -5.5t50 -2.5q46 0 89 6.5t81 20.5t70 36t55 51t36 67t13 85q0 56 -16 100t-49 74q-59 53 -166 53q-26 0 -56.5 -3t-72.5 -9zM1171 827q0 -76 -16.5 -141t-48.5 -120q-46 -81 -118 -138.5t-163 -92.5q-67 -26 -141 -39t-152 -13q-34 0 -72.5 2t-84.5 8 l-51 -293h-299l274 1464h297l-33 -174q146 0 255 -28q182 -46 271 -164q82 -109 82 -271z" />
<glyph unicode="&#xdf;" horiz-adv-x="1182" d="M530 209q25 -6 41.5 -9t34.5 -3q84 0 146 54q51 45 77 116q23 63 23 139q0 73 -35 123q-12 17 -42 46t-81 73q-44 38 -68 66t-24 65q0 47 26.5 78.5t73.5 66.5q60 42 86 88q21 38 21 84q0 48 -34 71q-30 21 -87 21q-47 0 -79.5 -23t-54.5 -61.5t-36 -89.5t-24 -108 l-183 -1006q-14 -75 -35.5 -134t-50.5 -104t-64.5 -77t-78.5 -52q-47 -23 -101 -33t-114 -10q-2 40 -5 76q-2 31 -4 61t-3 46q45 5 77.5 24t56.5 46q29 33 45.5 74t24.5 83l197 1102q11 66 36 124t62 107q32 42 71 76t87 57q88 43 190 43q78 0 147 -14.5t120 -49.5 q41 -29 64.5 -71t23.5 -102q0 -39 -7 -73t-21 -65q-16 -36 -40.5 -68.5t-56.5 -64.5q-23 -23 -37 -36.5t-16 -24.5v-2q0 -9 13.5 -20t45.5 -29q89 -50 134 -129q46 -80 46 -191q0 -75 -14.5 -146t-42.5 -136q-29 -67 -72 -122.5t-100 -97.5t-124.5 -64.5t-148.5 -22.5 q-42 0 -83.5 8.5t-86.5 23.5z" />
<glyph unicode="&#xe0;" horiz-adv-x="1028" d="M635 412q-20 3 -36 3.5t-24 0.5q-58 0 -103 -8t-76 -25q-30 -17 -46 -44t-16 -65q0 -43 31 -71q26 -23 67 -23q55 0 104 26q45 23 70 62zM952 129q-12 -29 -35 -58t-55 -52q-25 -17 -53.5 -28t-60.5 -11q-29 0 -52.5 8t-40.5 22q-21 17 -33.5 39t-17.5 47 q-19 -23 -42.5 -43.5t-53.5 -36.5q-32 -17 -71.5 -26.5t-88.5 -9.5q-84 0 -152 42q-27 17 -49.5 39t-38.5 50q-34 57 -34 129q0 36 5.5 67t16.5 59q20 50 52.5 87t75.5 64q38 24 82 40.5t91 26.5q46 10 93 14t92 4q6 0 16.5 -0.5t22.5 -1t23.5 -1t19.5 -1.5l2 18 q0 55 -39 82q-36 25 -101 25q-58 0 -121 -20q-28 -9 -56 -20.5t-54 -25.5l-64 195q32 14 69.5 26t78.5 21q48 11 95 17t89 6q59 0 106.5 -5.5t85.5 -17.5q95 -30 134 -104q31 -59 31 -150q0 -28 -5 -58t-10 -59l-31 -168q-2 -13 -4.5 -30.5t-4.5 -34t-3.5 -31t-1.5 -22.5 q0 -33 7 -54.5t19.5 -34t29 -17.5t34.5 -5zM592 1098l-186 366h260l123 -366h-197z" />
<glyph unicode="&#xe1;" horiz-adv-x="1028" d="M635 412q-20 3 -36 3.5t-24 0.5q-58 0 -103 -8t-76 -25q-30 -17 -46 -44t-16 -65q0 -43 31 -71q26 -23 67 -23q55 0 104 26q45 23 70 62zM952 129q-12 -29 -35 -58t-55 -52q-25 -17 -53.5 -28t-60.5 -11q-29 0 -52.5 8t-40.5 22q-21 17 -33.5 39t-17.5 47 q-19 -23 -42.5 -43.5t-53.5 -36.5q-32 -17 -71.5 -26.5t-88.5 -9.5q-84 0 -152 42q-27 17 -49.5 39t-38.5 50q-34 57 -34 129q0 36 5.5 67t16.5 59q20 50 52.5 87t75.5 64q38 24 82 40.5t91 26.5q46 10 93 14t92 4q6 0 16.5 -0.5t22.5 -1t23.5 -1t19.5 -1.5l2 18 q0 55 -39 82q-36 25 -101 25q-58 0 -121 -20q-28 -9 -56 -20.5t-54 -25.5l-64 195q32 14 69.5 26t78.5 21q48 11 95 17t89 6q59 0 106.5 -5.5t85.5 -17.5q95 -30 134 -104q31 -59 31 -150q0 -28 -5 -58t-10 -59l-31 -168q-2 -13 -4.5 -30.5t-4.5 -34t-3.5 -31t-1.5 -22.5 q0 -33 7 -54.5t19.5 -34t29 -17.5t34.5 -5zM1005 1464l-305 -366h-195l240 366h260z" />
<glyph unicode="&#xe2;" horiz-adv-x="1028" d="M635 412q-20 3 -36 3.5t-24 0.5q-58 0 -103 -8t-76 -25q-30 -17 -46 -44t-16 -65q0 -43 31 -71q26 -23 67 -23q55 0 104 26q45 23 70 62zM952 129q-12 -29 -35 -58t-55 -52q-25 -17 -53.5 -28t-60.5 -11q-29 0 -52.5 8t-40.5 22q-21 17 -33.5 39t-17.5 47 q-19 -23 -42.5 -43.5t-53.5 -36.5q-32 -17 -71.5 -26.5t-88.5 -9.5q-84 0 -152 42q-27 17 -49.5 39t-38.5 50q-34 57 -34 129q0 36 5.5 67t16.5 59q20 50 52.5 87t75.5 64q38 24 82 40.5t91 26.5q46 10 93 14t92 4q6 0 16.5 -0.5t22.5 -1t23.5 -1t19.5 -1.5l2 18 q0 55 -39 82q-36 25 -101 25q-58 0 -121 -20q-28 -9 -56 -20.5t-54 -25.5l-64 195q32 14 69.5 26t78.5 21q48 11 95 17t89 6q59 0 106.5 -5.5t85.5 -17.5q95 -30 134 -104q31 -59 31 -150q0 -28 -5 -58t-10 -59l-31 -168q-2 -13 -4.5 -30.5t-4.5 -34t-3.5 -31t-1.5 -22.5 q0 -33 7 -54.5t19.5 -34t29 -17.5t34.5 -5zM756 1098l-94 159l-160 -159h-232l357 366h141l250 -366h-262z" />
<glyph unicode="&#xe3;" horiz-adv-x="1028" d="M635 412q-20 3 -36 3.5t-24 0.5q-58 0 -103 -8t-76 -25q-30 -17 -46 -44t-16 -65q0 -43 31 -71q26 -23 67 -23q55 0 104 26q45 23 70 62zM952 129q-12 -29 -35 -58t-55 -52q-25 -17 -53.5 -28t-60.5 -11q-29 0 -52.5 8t-40.5 22q-21 17 -33.5 39t-17.5 47 q-19 -23 -42.5 -43.5t-53.5 -36.5q-32 -17 -71.5 -26.5t-88.5 -9.5q-84 0 -152 42q-27 17 -49.5 39t-38.5 50q-34 57 -34 129q0 36 5.5 67t16.5 59q20 50 52.5 87t75.5 64q38 24 82 40.5t91 26.5q46 10 93 14t92 4q6 0 16.5 -0.5t22.5 -1t23.5 -1t19.5 -1.5l2 18 q0 55 -39 82q-36 25 -101 25q-58 0 -121 -20q-28 -9 -56 -20.5t-54 -25.5l-64 195q32 14 69.5 26t78.5 21q48 11 95 17t89 6q59 0 106.5 -5.5t85.5 -17.5q95 -30 134 -104q31 -59 31 -150q0 -28 -5 -58t-10 -59l-31 -168q-2 -13 -4.5 -30.5t-4.5 -34t-3.5 -31t-1.5 -22.5 q0 -33 7 -54.5t19.5 -34t29 -17.5t34.5 -5zM985 1427q-29 -68 -62.5 -117t-71.5 -79q-61 -47 -131 -47q-40 0 -67.5 12t-51 26t-47 26t-55.5 12q-34 0 -58.5 -18t-41.5 -58h-141q12 44 38 89.5t62 81.5q32 32 69.5 52t79.5 20q45 0 75 -11.5t54.5 -26t48.5 -26t58 -11.5 q35 0 57 16t37 59h148z" />
<glyph unicode="&#xe4;" horiz-adv-x="1028" d="M635 412q-20 3 -36 3.5t-24 0.5q-58 0 -103 -8t-76 -25q-30 -17 -46 -44t-16 -65q0 -43 31 -71q26 -23 67 -23q55 0 104 26q45 23 70 62zM952 129q-12 -29 -35 -58t-55 -52q-25 -17 -53.5 -28t-60.5 -11q-29 0 -52.5 8t-40.5 22q-21 17 -33.5 39t-17.5 47 q-19 -23 -42.5 -43.5t-53.5 -36.5q-32 -17 -71.5 -26.5t-88.5 -9.5q-84 0 -152 42q-27 17 -49.5 39t-38.5 50q-34 57 -34 129q0 36 5.5 67t16.5 59q20 50 52.5 87t75.5 64q38 24 82 40.5t91 26.5q46 10 93 14t92 4q6 0 16.5 -0.5t22.5 -1t23.5 -1t19.5 -1.5l2 18 q0 55 -39 82q-36 25 -101 25q-58 0 -121 -20q-28 -9 -56 -20.5t-54 -25.5l-64 195q32 14 69.5 26t78.5 21q48 11 95 17t89 6q59 0 106.5 -5.5t85.5 -17.5q95 -30 134 -104q31 -59 31 -150q0 -28 -5 -58t-10 -59l-31 -168q-2 -13 -4.5 -30.5t-4.5 -34t-3.5 -31t-1.5 -22.5 q0 -33 7 -54.5t19.5 -34t29 -17.5t34.5 -5zM856 1415q28 0 52 -11t43 -30q18 -19 29 -44t11 -54q0 -58 -39 -97q-18 -18 -42.5 -29t-53.5 -11q-60 0 -99 39q-19 19 -29.5 44t-10.5 54q0 31 12 57t32 45q19 17 43 27t52 10zM481 1415q27 0 51 -10.5t42 -28.5q20 -19 31 -45 t11 -55t-11 -55t-31 -45q-18 -17 -41.5 -27t-51.5 -10q-31 0 -57 11.5t-45 31.5q-17 18 -27 42t-10 52q0 61 41 100q19 18 44 28.5t54 10.5z" />
<glyph unicode="&#xe5;" horiz-adv-x="1028" d="M635 412q-20 3 -36 3.5t-24 0.5q-58 0 -103 -8t-76 -25q-30 -17 -46 -44t-16 -65q0 -43 31 -71q26 -23 67 -23q55 0 104 26q45 23 70 62zM952 129q-12 -29 -35 -58t-55 -52q-25 -17 -53.5 -28t-60.5 -11q-29 0 -52.5 8t-40.5 22q-21 17 -33.5 39t-17.5 47 q-19 -23 -42.5 -43.5t-53.5 -36.5q-32 -17 -71.5 -26.5t-88.5 -9.5q-84 0 -152 42q-27 17 -49.5 39t-38.5 50q-34 57 -34 129q0 36 5.5 67t16.5 59q20 50 52.5 87t75.5 64q38 24 82 40.5t91 26.5q46 10 93 14t92 4q6 0 16.5 -0.5t22.5 -1t23.5 -1t19.5 -1.5l2 18 q0 55 -39 82q-36 25 -101 25q-58 0 -121 -20q-28 -9 -56 -20.5t-54 -25.5l-64 195q32 14 69.5 26t78.5 21q48 11 95 17t89 6q59 0 106.5 -5.5t85.5 -17.5q95 -30 134 -104q31 -59 31 -150q0 -28 -5 -58t-10 -59l-31 -168q-2 -13 -4.5 -30.5t-4.5 -34t-3.5 -31t-1.5 -22.5 q0 -33 7 -54.5t19.5 -34t29 -17.5t34.5 -5zM647 1544q45 0 83.5 -17.5t67.5 -46.5q28 -29 44 -66t16 -79q0 -43 -15.5 -80.5t-43.5 -66.5q-29 -30 -68 -47t-84 -17q-47 0 -87 18.5t-69 50.5q-26 29 -40.5 65t-14.5 77q0 45 17.5 83.5t48.5 67.5q29 27 66 42.5t79 15.5z M647 1235q22 0 41 9t33 23q27 29 27 68q0 37 -24 64q-14 16 -34 25.5t-43 9.5q-40 0 -68 -25q-16 -14 -25 -32.5t-9 -41.5q0 -43 32 -72q14 -13 32 -20.5t38 -7.5z" />
<glyph unicode="&#xe6;" horiz-adv-x="1518" d="M1059 193q25 0 64 13t80 36q31 17 58.5 38t47.5 44l-27 -291q-53 -23 -120 -37q-36 -8 -74 -12t-80 -4q-59 0 -112 15t-96 42q-77 48 -106 123q-66 -78 -127 -118q-54 -36 -107 -49t-112 -13q-34 0 -65.5 7.5t-60.5 21.5q-31 15 -57 36.5t-46 49.5q-21 31 -33 67t-12 78 q0 62 15.5 110.5t43.5 86.5q38 52 94 84.5t125 51.5q58 16 121.5 22.5t128.5 6.5q12 0 29 -1t33 -3l2 18q0 107 -140 107q-55 0 -115 -18.5t-116 -47.5l-64 195q35 15 78 28t88 23q43 9 85.5 14t80.5 5q62 0 109 -5.5t83 -17.5q62 -20 103 -63q28 19 61.5 35t72.5 27 q40 11 84 17.5t93 6.5q48 0 95 -6.5t89 -21.5q37 -14 67 -35.5t50 -53.5q31 -48 31 -119q0 -54 -15.5 -97.5t-43.5 -78.5q-33 -42 -79.5 -72.5t-101.5 -50.5q-54 -19 -111 -28t-114 -9q-40 0 -78 4t-81 15q-2 -11 -3.5 -20.5t-1.5 -18.5q0 -58 38 -93q23 -21 59 -32.5 t90 -11.5zM635 412q-20 3 -36 3.5t-24 0.5q-65 0 -113.5 -10t-79.5 -32q-48 -34 -48 -100q0 -34 20 -60q13 -16 32.5 -25t45.5 -9q28 0 56 7.5t53 21.5q20 11 37 26t28 33zM1167 729q-42 0 -76 -10.5t-61 -27.5q-38 -24 -64.5 -58t-43.5 -66h4q21 -5 41 -6.5t43 -1.5 q19 0 42 1t46.5 3.5t46.5 7t43 12.5q30 12 49.5 31.5t19.5 51.5q0 24 -20 42q-11 9 -28 15t-42 6z" />
<glyph unicode="&#xe7;" horiz-adv-x="854" d="M782 637q-54 35 -100 55.5t-88 20.5q-52 0 -94.5 -14.5t-75.5 -40.5t-57 -62t-38 -79q-22 -65 -22 -142q0 -38 12 -72t35 -60q20 -22 46.5 -35t60.5 -13q54 0 127 30q35 14 74 34.5t83 47.5l-34 -268q-35 -14 -69 -25t-69 -19q-69 -15 -139 -15q-62 0 -115.5 13.5 t-98.5 39.5q-80 46 -122 125q-43 80 -43 188q0 67 11 128.5t32 117.5q32 83 84.5 149t126.5 110q57 34 125 52.5t148 18.5q71 0 131.5 -16t117.5 -48zM236 -301q41 1 73.5 6t55.5 16q45 22 45 66q0 20 -14 32.5t-51 12.5l18 119h14q80 0 127 -45q41 -39 41 -103 q0 -53 -19.5 -91.5t-56.5 -64.5q-41 -29 -99.5 -43t-133.5 -14v109z" />
<glyph unicode="&#xe8;" horiz-adv-x="954" d="M494 193q21 0 52.5 9.5t66.5 26.5q37 18 72 42.5t58 52.5l-26 -291q-27 -11 -55.5 -20.5t-60.5 -16.5q-71 -16 -159 -16q-53 0 -99.5 11.5t-87.5 32.5q-94 50 -146 143q-26 48 -40 103t-14 117q0 73 15.5 137.5t44.5 121.5q41 78 104.5 136.5t146.5 93.5q109 46 238 46 q74 0 143.5 -15.5t117.5 -56.5q33 -28 52 -67.5t19 -96.5q0 -42 -10 -77.5t-27 -66.5q-33 -58 -90 -97t-126 -62q-51 -17 -105 -25t-107 -8q-40 0 -78 4t-82 15q-1 -38 6.5 -70.5t29.5 -56.5q20 -23 55.5 -36t91.5 -13zM602 729q-43 0 -77 -11t-62 -29q-38 -24 -64 -57 t-43 -65h4q22 -5 41.5 -6.5t42.5 -1.5q22 0 47.5 1t51.5 4.5t51 9.5t45 16q23 12 38 30.5t15 45.5q0 24 -21 43.5t-69 19.5zM543 1098l-186 366h260l123 -366h-197z" />
<glyph unicode="&#xe9;" horiz-adv-x="954" d="M494 193q21 0 52.5 9.5t66.5 26.5q37 18 72 42.5t58 52.5l-26 -291q-27 -11 -55.5 -20.5t-60.5 -16.5q-71 -16 -159 -16q-53 0 -99.5 11.5t-87.5 32.5q-94 50 -146 143q-26 48 -40 103t-14 117q0 73 15.5 137.5t44.5 121.5q41 78 104.5 136.5t146.5 93.5q109 46 238 46 q74 0 143.5 -15.5t117.5 -56.5q33 -28 52 -67.5t19 -96.5q0 -42 -10 -77.5t-27 -66.5q-33 -58 -90 -97t-126 -62q-51 -17 -105 -25t-107 -8q-40 0 -78 4t-82 15q-1 -38 6.5 -70.5t29.5 -56.5q20 -23 55.5 -36t91.5 -13zM602 729q-43 0 -77 -11t-62 -29q-38 -24 -64 -57 t-43 -65h4q22 -5 41.5 -6.5t42.5 -1.5q22 0 47.5 1t51.5 4.5t51 9.5t45 16q23 12 38 30.5t15 45.5q0 24 -21 43.5t-69 19.5zM1001 1464l-305 -366h-195l240 366h260z" />
<glyph unicode="&#xea;" horiz-adv-x="954" d="M494 193q21 0 52.5 9.5t66.5 26.5q37 18 72 42.5t58 52.5l-26 -291q-27 -11 -55.5 -20.5t-60.5 -16.5q-71 -16 -159 -16q-53 0 -99.5 11.5t-87.5 32.5q-94 50 -146 143q-26 48 -40 103t-14 117q0 73 15.5 137.5t44.5 121.5q41 78 104.5 136.5t146.5 93.5q109 46 238 46 q74 0 143.5 -15.5t117.5 -56.5q33 -28 52 -67.5t19 -96.5q0 -42 -10 -77.5t-27 -66.5q-33 -58 -90 -97t-126 -62q-51 -17 -105 -25t-107 -8q-40 0 -78 4t-82 15q-1 -38 6.5 -70.5t29.5 -56.5q20 -23 55.5 -36t91.5 -13zM602 729q-43 0 -77 -11t-62 -29q-38 -24 -64 -57 t-43 -65h4q22 -5 41.5 -6.5t42.5 -1.5q22 0 47.5 1t51.5 4.5t51 9.5t45 16q23 12 38 30.5t15 45.5q0 24 -21 43.5t-69 19.5zM744 1098l-94 159l-160 -159h-232l357 366h141l250 -366h-262z" />
<glyph unicode="&#xeb;" horiz-adv-x="954" d="M494 193q21 0 52.5 9.5t66.5 26.5q37 18 72 42.5t58 52.5l-26 -291q-27 -11 -55.5 -20.5t-60.5 -16.5q-71 -16 -159 -16q-53 0 -99.5 11.5t-87.5 32.5q-94 50 -146 143q-26 48 -40 103t-14 117q0 73 15.5 137.5t44.5 121.5q41 78 104.5 136.5t146.5 93.5q109 46 238 46 q74 0 143.5 -15.5t117.5 -56.5q33 -28 52 -67.5t19 -96.5q0 -42 -10 -77.5t-27 -66.5q-33 -58 -90 -97t-126 -62q-51 -17 -105 -25t-107 -8q-40 0 -78 4t-82 15q-1 -38 6.5 -70.5t29.5 -56.5q20 -23 55.5 -36t91.5 -13zM602 729q-43 0 -77 -11t-62 -29q-38 -24 -64 -57 t-43 -65h4q22 -5 41.5 -6.5t42.5 -1.5q22 0 47.5 1t51.5 4.5t51 9.5t45 16q23 12 38 30.5t15 45.5q0 24 -21 43.5t-69 19.5zM840 1415q28 0 52 -11t43 -30q18 -19 29 -44t11 -54q0 -58 -39 -97q-18 -18 -42.5 -29t-53.5 -11q-60 0 -99 39q-19 19 -29.5 44t-10.5 54 q0 31 12 57t32 45q19 17 43 27t52 10zM465 1415q27 0 51 -10.5t42 -28.5q20 -19 31 -45t11 -55t-11 -55t-31 -45q-18 -17 -41.5 -27t-51.5 -10q-31 0 -57 11.5t-45 31.5q-17 18 -27 42t-10 52q0 61 41 100q19 18 44 28.5t54 10.5z" />
<glyph unicode="&#xec;" horiz-adv-x="565" d="M350 0h-262l129 696h-115l45 205h371zM311 1098l-186 366h260l123 -366h-197z" />
<glyph unicode="&#xed;" horiz-adv-x="565" d="M350 0h-262l129 696h-115l45 205h371zM752 1464l-305 -366h-195l240 366h260z" />
<glyph unicode="&#xee;" horiz-adv-x="565" d="M350 0h-262l129 696h-115l45 205h371zM496 1098l-94 159l-160 -159h-232l357 366h141l250 -366h-262z" />
<glyph unicode="&#xef;" horiz-adv-x="565" d="M350 0h-262l129 696h-115l45 205h371zM602 1415q28 0 52 -11t43 -30q18 -19 29 -44t11 -54q0 -58 -39 -97q-18 -18 -42.5 -29t-53.5 -11q-60 0 -99 39q-19 19 -29.5 44t-10.5 54q0 31 12 57t32 45q19 17 43 27t52 10zM227 1415q27 0 51 -10.5t42 -28.5q20 -19 31 -45 t11 -55t-11 -55t-31 -45q-18 -17 -41.5 -27t-51.5 -10q-31 0 -57 11.5t-45 31.5q-17 18 -27 42t-10 52q0 61 41 100q19 18 44 28.5t54 10.5z" />
<glyph unicode="&#xf0;" horiz-adv-x="987" d="M541 715q-38 0 -73 -13t-64 -37q-35 -29 -60 -70.5t-40 -94.5q-9 -32 -14 -67t-5 -73q0 -94 44 -136q35 -34 99 -34q45 0 82.5 15.5t66.5 44.5t50 68t35 85q20 72 20 150q0 84 -34 122q-33 40 -107 40zM948 623q0 -142 -41 -267q-35 -103 -96.5 -183.5t-151.5 -130.5 q-54 -30 -118 -46t-138 -16q-72 0 -129 15t-101 44q-42 27 -71 66t-46 87q-25 69 -25 160q0 119 40 225q30 81 82 147t121 113q61 41 133.5 63t155.5 22q23 0 50 -2.5t49 -6.5h6q-14 38 -33 77.5t-42 77.5q-21 35 -43 66t-42 52l-199 -94l-35 92l160 78l-184 202h303 l86 -100l182 86l37 -88l-164 -80q60 -79 107 -158t80 -161q32 -81 49.5 -165t17.5 -175z" />
<glyph unicode="&#xf1;" horiz-adv-x="973" d="M906 649q0 -21 -3.5 -52t-8.5 -60l-101 -537h-250l97 520q2 13 4 28.5t3.5 30.5t2 27.5t0.5 20.5q0 41 -29 64q-30 22 -82 22q-50 0 -100 -25q-20 -11 -39 -24.5t-37 -32.5l-117 -631h-247l123 670q2 8 3 19t1 24q0 37 -7 79.5t-18 92.5l238 43l16 -76q60 36 118 52 q65 18 142 18q107 0 173 -35q63 -35 93 -100q25 -56 25 -138zM973 1427q-29 -68 -62.5 -117t-71.5 -79q-61 -47 -131 -47q-40 0 -67.5 12t-51 26t-47 26t-55.5 12q-34 0 -58.5 -18t-41.5 -58h-141q12 44 38 89.5t62 81.5q32 32 69.5 52t79.5 20q45 0 75 -11.5t54.5 -26 t48.5 -26t58 -11.5q35 0 57 16t37 59h148z" />
<glyph unicode="&#xf2;" horiz-adv-x="1016" d="M309 360q0 -88 37 -129q36 -41 107 -41q42 0 76.5 13t61.5 36q33 28 56 68t37 86q12 40 17.5 81.5t5.5 82.5q0 84 -39 123q-35 35 -103 35q-47 0 -84.5 -17t-66.5 -46q-26 -26 -46 -60.5t-33 -72.5t-19.5 -79t-6.5 -80zM55 348q0 137 52 255q32 72 80 131t111 102 q61 42 134 64t158 22q195 0 292 -108q83 -92 83 -251q0 -86 -20 -165t-58 -148q-32 -58 -76.5 -106.5t-99.5 -83.5q-60 -38 -130.5 -59t-152.5 -21q-89 0 -159 25t-118 74q-47 48 -71.5 115t-24.5 154zM559 1098l-186 366h260l123 -366h-197z" />
<glyph unicode="&#xf3;" horiz-adv-x="1016" d="M309 360q0 -88 37 -129q36 -41 107 -41q42 0 76.5 13t61.5 36q33 28 56 68t37 86q12 40 17.5 81.5t5.5 82.5q0 84 -39 123q-35 35 -103 35q-47 0 -84.5 -17t-66.5 -46q-26 -26 -46 -60.5t-33 -72.5t-19.5 -79t-6.5 -80zM55 348q0 137 52 255q32 72 80 131t111 102 q61 42 134 64t158 22q195 0 292 -108q83 -92 83 -251q0 -86 -20 -165t-58 -148q-32 -58 -76.5 -106.5t-99.5 -83.5q-60 -38 -130.5 -59t-152.5 -21q-89 0 -159 25t-118 74q-47 48 -71.5 115t-24.5 154zM967 1464l-305 -366h-195l240 366h260z" />
<glyph unicode="&#xf4;" horiz-adv-x="1016" d="M309 360q0 -88 37 -129q36 -41 107 -41q42 0 76.5 13t61.5 36q33 28 56 68t37 86q12 40 17.5 81.5t5.5 82.5q0 84 -39 123q-35 35 -103 35q-47 0 -84.5 -17t-66.5 -46q-26 -26 -46 -60.5t-33 -72.5t-19.5 -79t-6.5 -80zM55 348q0 137 52 255q32 72 80 131t111 102 q61 42 134 64t158 22q195 0 292 -108q83 -92 83 -251q0 -86 -20 -165t-58 -148q-32 -58 -76.5 -106.5t-99.5 -83.5q-60 -38 -130.5 -59t-152.5 -21q-89 0 -159 25t-118 74q-47 48 -71.5 115t-24.5 154zM721 1098l-94 159l-160 -159h-232l357 366h141l250 -366h-262z" />
<glyph unicode="&#xf5;" horiz-adv-x="1016" d="M309 360q0 -88 37 -129q36 -41 107 -41q42 0 76.5 13t61.5 36q33 28 56 68t37 86q12 40 17.5 81.5t5.5 82.5q0 84 -39 123q-35 35 -103 35q-47 0 -84.5 -17t-66.5 -46q-26 -26 -46 -60.5t-33 -72.5t-19.5 -79t-6.5 -80zM55 348q0 137 52 255q32 72 80 131t111 102 q61 42 134 64t158 22q195 0 292 -108q83 -92 83 -251q0 -86 -20 -165t-58 -148q-32 -58 -76.5 -106.5t-99.5 -83.5q-60 -38 -130.5 -59t-152.5 -21q-89 0 -159 25t-118 74q-47 48 -71.5 115t-24.5 154zM955 1427q-29 -68 -62.5 -117t-71.5 -79q-61 -47 -131 -47 q-40 0 -67.5 12t-51 26t-47 26t-55.5 12q-34 0 -58.5 -18t-41.5 -58h-141q12 44 38 89.5t62 81.5q32 32 69.5 52t79.5 20q45 0 75 -11.5t54.5 -26t48.5 -26t58 -11.5q35 0 57 16t37 59h148z" />
<glyph unicode="&#xf6;" horiz-adv-x="1016" d="M309 360q0 -88 37 -129q36 -41 107 -41q42 0 76.5 13t61.5 36q33 28 56 68t37 86q12 40 17.5 81.5t5.5 82.5q0 84 -39 123q-35 35 -103 35q-47 0 -84.5 -17t-66.5 -46q-26 -26 -46 -60.5t-33 -72.5t-19.5 -79t-6.5 -80zM55 348q0 137 52 255q32 72 80 131t111 102 q61 42 134 64t158 22q195 0 292 -108q83 -92 83 -251q0 -86 -20 -165t-58 -148q-32 -58 -76.5 -106.5t-99.5 -83.5q-60 -38 -130.5 -59t-152.5 -21q-89 0 -159 25t-118 74q-47 48 -71.5 115t-24.5 154zM844 1415q28 0 52 -11t43 -30q18 -19 29 -44t11 -54q0 -58 -39 -97 q-18 -18 -42.5 -29t-53.5 -11q-60 0 -99 39q-19 19 -29.5 44t-10.5 54q0 31 12 57t32 45q19 17 43 27t52 10zM469 1415q27 0 51 -10.5t42 -28.5q20 -19 31 -45t11 -55t-11 -55t-31 -45q-18 -17 -41.5 -27t-51.5 -10q-31 0 -57 11.5t-45 31.5q-17 18 -27 42t-10 52 q0 61 41 100q19 18 44 28.5t54 10.5z" />
<glyph unicode="&#xf7;" horiz-adv-x="1382" d="M1171 758v-248h-960v248h960zM537 305q0 35 14 64.5t37 50.5q20 18 46 28.5t56 10.5q29 0 56 -10.5t47 -30.5q23 -21 36 -50.5t13 -62.5q0 -30 -11.5 -57t-31.5 -47q-21 -22 -49 -34.5t-60 -12.5q-30 0 -56 10t-46 27q-24 21 -37.5 50t-13.5 64zM537 961q0 29 10 55 t27 46q21 24 51 38t65 14q30 0 57.5 -12t48.5 -32q21 -21 33.5 -49t12.5 -60q0 -34 -14 -63.5t-38 -50.5q-20 -18 -45.5 -28t-54.5 -10q-30 0 -56 10.5t-46 27.5q-24 21 -37.5 50t-13.5 64z" />
<glyph unicode="&#xf8;" horiz-adv-x="1024" d="M436 190q40 0 73.5 12t59.5 33q30 24 51.5 57.5t36.5 71.5q17 46 25 95.5t8 97.5v6l-338 -352q17 -11 37.5 -16t46.5 -5zM293 360v-23t2 -22l352 369q-35 31 -98 31q-42 0 -75.5 -13.5t-61.5 -36.5t-49 -55.5t-36 -69.5q-17 -43 -25.5 -89t-8.5 -91zM893 776 q55 -85 55 -213q0 -84 -19.5 -161.5t-55.5 -145.5q-41 -75 -100 -133.5t-137 -94.5q-50 -23 -105.5 -35.5t-118.5 -12.5q-134 0 -226 57l-53 -57l-139 20l110 115q-65 89 -65 233q0 76 16.5 146.5t47.5 133.5q34 68 83 123.5t112 94.5q59 36 128 56t147 20q75 0 134.5 -16.5 t105.5 -47.5l61 64l140 -21z" />
<glyph unicode="&#xf9;" horiz-adv-x="1014" d="M811 0h-219l-14 49q-29 -14 -59.5 -26.5t-63.5 -22.5q-32 -9 -65 -14.5t-66 -5.5q-46 0 -84 11t-69 31q-27 18 -48 42.5t-35 55.5q-25 54 -25 130q0 17 3 42.5t6 45.5l102 563h248l-100 -563q-4 -16 -5.5 -31t-1.5 -26q0 -47 30 -68q26 -18 71 -18q37 0 71.5 10.5 t63.5 31.5q35 25 59 64.5t33 93.5l84 506h250zM530 1098l-186 366h260l123 -366h-197z" />
<glyph unicode="&#xfa;" horiz-adv-x="1014" d="M811 0h-219l-14 49q-29 -14 -59.5 -26.5t-63.5 -22.5q-32 -9 -65 -14.5t-66 -5.5q-46 0 -84 11t-69 31q-27 18 -48 42.5t-35 55.5q-25 54 -25 130q0 17 3 42.5t6 45.5l102 563h248l-100 -563q-4 -16 -5.5 -31t-1.5 -26q0 -47 30 -68q26 -18 71 -18q37 0 71.5 10.5 t63.5 31.5q35 25 59 64.5t33 93.5l84 506h250zM960 1464l-305 -366h-195l240 366h260z" />
<glyph unicode="&#xfb;" horiz-adv-x="1014" d="M811 0h-219l-14 49q-29 -14 -59.5 -26.5t-63.5 -22.5q-32 -9 -65 -14.5t-66 -5.5q-46 0 -84 11t-69 31q-27 18 -48 42.5t-35 55.5q-25 54 -25 130q0 17 3 42.5t6 45.5l102 563h248l-100 -563q-4 -16 -5.5 -31t-1.5 -26q0 -47 30 -68q26 -18 71 -18q37 0 71.5 10.5 t63.5 31.5q35 25 59 64.5t33 93.5l84 506h250zM721 1098l-94 159l-160 -159h-232l357 366h141l250 -366h-262z" />
<glyph unicode="&#xfc;" horiz-adv-x="1014" d="M811 0h-219l-14 49q-29 -14 -59.5 -26.5t-63.5 -22.5q-32 -9 -65 -14.5t-66 -5.5q-46 0 -84 11t-69 31q-27 18 -48 42.5t-35 55.5q-25 54 -25 130q0 17 3 42.5t6 45.5l102 563h248l-100 -563q-4 -16 -5.5 -31t-1.5 -26q0 -47 30 -68q26 -18 71 -18q37 0 71.5 10.5 t63.5 31.5q35 25 59 64.5t33 93.5l84 506h250zM813 1415q28 0 52 -11t43 -30q18 -19 29 -44t11 -54q0 -58 -39 -97q-18 -18 -42.5 -29t-53.5 -11q-60 0 -99 39q-19 19 -29.5 44t-10.5 54q0 31 12 57t32 45q19 17 43 27t52 10zM438 1415q27 0 51 -10.5t42 -28.5 q20 -19 31 -45t11 -55t-11 -55t-31 -45q-18 -17 -41.5 -27t-51.5 -10q-31 0 -57 11.5t-45 31.5q-17 18 -27 42t-10 52q0 61 41 100q19 18 44 28.5t54 10.5z" />
<glyph unicode="&#xfd;" horiz-adv-x="977" d="M506 -141q-47 -94 -126 -155q-33 -26 -70.5 -46t-81.5 -34q-52 -17 -111 -25.5t-125 -8.5v238q62 0 114 9t92 29q72 35 93 99l18 60q-52 213 -107 437t-108 439h256l123 -526h2l254 526h275zM917 1464l-305 -366h-195l240 366h260z" />
<glyph unicode="&#xfe;" horiz-adv-x="1036" d="M307 225q17 -17 40 -22.5t54 -5.5q103 0 174 38q66 35 100 104q40 80 40 200q0 77 -43 120q-22 22 -54.5 34t-76.5 12q-53 0 -92.5 -22t-65.5 -48zM971 575q0 -148 -53 -271q-32 -74 -80 -134t-112 -103q-63 -42 -138 -64.5t-164 -22.5q-40 0 -78 7t-80 21l-71 -398h-246 l323 1854h248l-104 -598q60 32 114 44t105 12q106 0 181 -42q84 -46 123 -136q32 -73 32 -169z" />
<glyph unicode="&#xff;" horiz-adv-x="977" d="M506 -141q-47 -94 -126 -155q-33 -26 -70.5 -46t-81.5 -34q-52 -17 -111 -25.5t-125 -8.5v238q62 0 114 9t92 29q72 35 93 99l18 60q-52 213 -107 437t-108 439h256l123 -526h2l254 526h275zM774 1415q28 0 52 -11t43 -30q18 -19 29 -44t11 -54q0 -58 -39 -97 q-18 -18 -42.5 -29t-53.5 -11q-60 0 -99 39q-19 19 -29.5 44t-10.5 54q0 31 12 57t32 45q19 17 43 27t52 10zM399 1415q27 0 51 -10.5t42 -28.5q20 -19 31 -45t11 -55t-11 -55t-31 -45q-18 -17 -41.5 -27t-51.5 -10q-31 0 -57 11.5t-45 31.5q-17 18 -27 42t-10 52 q0 61 41 100q19 18 44 28.5t54 10.5z" />
<glyph unicode="&#x131;" horiz-adv-x="565" d="M350 0h-262l129 696h-115l45 205h371z" />
<glyph unicode="&#x141;" horiz-adv-x="1081" d="M18 748l156 69l119 647h297l-92 -485l217 98v-190l-254 -119l-92 -508h643l-47 -260h-940l110 604l-117 -49v193z" />
<glyph unicode="&#x142;" horiz-adv-x="555" d="M182 846l129 618h244l-102 -491l153 71v-192l-196 -92l-91 -436q-5 -25 -7.5 -46t-2.5 -38q0 -60 25 -84.5t65 -24.5l2 -2q-13 -38 -34.5 -64.5t-47.5 -43.5q-35 -23 -73 -32t-70 -9q-61 0 -94 35q-37 39 -37 114q0 10 1.5 26t3.5 34t5 35.5t6 31.5l78 379l-170 -80v193z " />
<glyph unicode="&#x152;" horiz-adv-x="1972" d="M379 575q0 -41 4.5 -80.5t15.5 -75.5q12 -40 31 -73.5t48 -57.5q26 -22 59.5 -34t76.5 -12q70 0 129.5 17.5t106.5 55.5l156 859q-69 55 -181 55q-63 0 -117 -22.5t-99 -60.5q-55 -48 -96.5 -113t-70.5 -140q-32 -81 -47.5 -163.5t-15.5 -154.5zM1968 1202h-655l-53 -289 h471l-45 -249h-472l-73 -404h647l-51 -260h-953q-48 -11 -98 -15.5t-102 -4.5q-86 0 -157 21t-128 59q-55 37 -96.5 87.5t-69.5 113.5q-29 63 -43 135.5t-14 152.5q0 128 27 254t81 238q50 105 121 191.5t165 147.5q79 51 172 80t202 29q116 0 207 -25h966z" />
<glyph unicode="&#x153;" horiz-adv-x="1577" d="M1104 193q22 0 56.5 11t72.5 30q35 18 67 41t54 49l-27 -291q-29 -12 -60.5 -22t-66.5 -17t-71.5 -10.5t-75.5 -3.5q-48 0 -90.5 9.5t-80.5 26.5q-36 17 -66.5 40.5t-55.5 52.5q-56 -50 -126 -82q-50 -23 -105 -35t-117 -12q-117 0 -202 44q-78 41 -121 116 q-24 42 -37 94t-13 114q0 153 64 281q34 68 83 123t112 94q59 36 128 56t147 20q97 0 171 -28.5t122 -82.5q72 56 165 84q42 13 88 20t95 7q50 0 97 -6.5t89 -22.5q35 -13 63 -33t48 -49q17 -25 26 -56t9 -69q0 -54 -16 -98.5t-45 -80.5q-31 -39 -74 -67.5t-94 -48.5 q-56 -21 -116 -31t-120 -10q-40 0 -78 4t-81 15q-1 -39 7 -72.5t31 -57.5q20 -21 55 -33.5t89 -12.5zM293 360q0 -87 38 -130q36 -40 105 -40q45 0 81 15t64 41q29 26 48.5 61t33.5 76q14 42 20.5 86.5t6.5 87.5q0 75 -32 115q-34 43 -109 43q-38 0 -69.5 -11t-57.5 -31 q-30 -23 -53 -55t-39 -70q-19 -45 -28 -93t-9 -95zM1212 729q-50 0 -90.5 -15t-72.5 -38.5t-55 -52t-38 -56.5h5q21 -5 46 -6.5t48 -1.5q34 0 77 3t81 14t64 32.5t26 57.5q0 24 -21.5 43.5t-69.5 19.5z" />
<glyph unicode="&#x160;" horiz-adv-x="1026" d="M925 1133q-67 49 -128 72q-57 22 -112 22q-110 0 -164 -42q-51 -39 -51 -116q0 -32 31.5 -74t87.5 -90l148 -123q45 -39 85 -78t70 -85q28 -43 44 -92.5t16 -112.5q0 -65 -15.5 -118.5t-44.5 -98.5q-37 -58 -91 -99.5t-121 -68.5q-63 -25 -133 -37t-142 -12 q-95 0 -193 23q-97 23 -190 67l94 297q73 -57 154 -86q77 -27 157 -27q40 0 80.5 8.5t72.5 27.5q31 18 50 46t19 67q0 38 -28.5 74t-88.5 84l-152 121q-48 38 -88 80.5t-69 91.5q-24 42 -38 88.5t-14 99.5q0 69 16 126.5t45 106.5q32 54 79 95t106 68q54 26 116 38.5 t130 12.5q51 0 108.5 -6t110.5 -17q41 -8 75.5 -18t57.5 -21zM1081 1906l-368 -366h-142l-239 366h233l107 -159l147 159h262z" />
<glyph unicode="&#x161;" horiz-adv-x="797" d="M657 623q-56 50 -102.5 75t-101.5 25q-34 0 -61 -16t-27 -50q0 -18 19.5 -36t59.5 -39q34 -17 69 -35t67 -37q52 -31 85 -81.5t33 -113.5q0 -78 -31 -140q-20 -43 -52.5 -76t-73.5 -57q-54 -32 -117.5 -47t-132.5 -15q-77 0 -158 26q-76 24 -151 70l129 223 q58 -55 112 -82q50 -24 96 -24q26 0 49 6.5t40 19.5q16 12 25 29.5t9 40.5q0 8 -2.5 15t-9 14t-18.5 15.5t-31 18.5q-45 25 -83.5 44.5t-61.5 31.5q-60 32 -92.5 87t-32.5 120q0 36 7.5 67t21.5 57q20 38 51 66.5t69 48.5q48 25 104.5 36.5t114.5 11.5q40 0 74 -3.5 t69 -11.5q32 -8 67.5 -20.5t80.5 -30.5zM925 1464l-368 -366h-142l-239 366h233l107 -159l147 159h262z" />
<glyph unicode="&#x178;" horiz-adv-x="1401" d="M872 645h-2l-118 -645h-293l121 655l-344 809h307l221 -530h4l406 530h344zM1073 1816q28 0 52 -11t43 -30q18 -19 29 -44t11 -54q0 -58 -39 -97q-18 -18 -42.5 -29t-53.5 -11q-60 0 -99 39q-19 19 -29.5 44t-10.5 54q0 31 12 57t32 45q19 17 43 27t52 10zM698 1816 q27 0 51 -10.5t42 -28.5q20 -19 31 -45t11 -55t-11 -55t-31 -45q-18 -17 -41.5 -27t-51.5 -10q-31 0 -57 11.5t-45 31.5q-17 18 -27 42t-10 52q0 61 41 100q19 18 44 28.5t54 10.5z" />
<glyph unicode="&#x17d;" horiz-adv-x="1251" d="M504 260h569l-49 -260h-961v111l754 1091h-569l45 262h940v-110zM1220 1906l-368 -366h-142l-239 366h233l107 -159l147 159h262z" />
<glyph unicode="&#x17e;" horiz-adv-x="922" d="M420 217h389l-41 -217h-741v96l483 586h-404l39 219h748v-98zM964 1464l-368 -366h-142l-239 366h233l107 -159l147 159h262z" />
<glyph unicode="&#x192;" d="M1044 1239q-45 23 -79 31t-54 8q-18 0 -36.5 -4.5t-34.5 -17.5q-17 -13 -29 -35t-18 -56l-45 -264h198l-26 -205h-205l-127 -735q-12 -96 -57 -161q-23 -34 -54.5 -59.5t-69.5 -42.5q-45 -21 -96 -31t-106 -11l-53 168q30 6 59 22t52 38q22 21 36.5 44.5t19.5 46.5 l130 721h-123l30 205h125l54 289q8 54 26.5 96.5t44.5 74.5q27 33 61.5 56t75.5 38t86 21.5t93 6.5q43 0 86.5 -11t85.5 -38z" />
<glyph unicode="&#x2c6;" horiz-adv-x="754" d="M459 1098l-94 159l-160 -159h-232l357 366h141l250 -366h-262z" />
<glyph unicode="&#x2c7;" horiz-adv-x="754" d="M780 1464l-368 -366h-142l-239 366h233l107 -159l147 159h262z" />
<glyph unicode="&#x2d8;" horiz-adv-x="715" d="M741 1464q-12 -74 -52 -138t-99 -113t-129.5 -77t-145.5 -28q-70 0 -124.5 22.5t-91.5 62.5q-35 38 -54 90.5t-19 114.5q0 16 1.5 32.5t3.5 33.5h202q-3 -18 -3 -36q0 -32 9.5 -56.5t26.5 -41.5q15 -15 35.5 -23.5t44.5 -8.5q60 0 111 37q30 22 51.5 54.5t28.5 74.5h204z " />
<glyph unicode="&#x2d9;" horiz-adv-x="276" d="M139 1415q31 0 57 -13t45 -36q15 -18 24 -41t9 -49q0 -29 -10.5 -54t-29.5 -44q-18 -18 -42 -28.5t-53 -10.5q-32 0 -59 12t-46 33q-34 37 -34 92q0 61 41 100q19 18 44 28.5t54 10.5z" />
<glyph unicode="&#x2da;" horiz-adv-x="446" d="M225 1544q45 0 83.5 -17.5t67.5 -46.5q28 -29 44 -66t16 -79q0 -43 -15.5 -80.5t-43.5 -66.5q-29 -30 -68 -47t-84 -17q-47 0 -87 18.5t-69 50.5q-26 29 -40.5 65t-14.5 77q0 45 17.5 83.5t48.5 67.5q29 27 66 42.5t79 15.5zM225 1235q22 0 41 9t33 23q27 29 27 68 q0 37 -24 64q-14 16 -34 25.5t-43 9.5q-40 0 -68 -25q-16 -14 -25 -32.5t-9 -41.5q0 -43 32 -72q14 -13 32 -20.5t38 -7.5z" />
<glyph unicode="&#x2db;" horiz-adv-x="465" d="M393 -233l66 -142q-48 -17 -92 -26t-86 -9q-62 0 -115 21t-91 60q-30 32 -47.5 74t-17.5 93q0 84 46 152q26 38 65.5 71.5t93.5 63.5l57 -162q-57 -29 -78 -59q-20 -29 -20 -70q0 -20 8 -36.5t21 -28.5q17 -17 39.5 -25t42.5 -8q56 0 108 31z" />
<glyph unicode="&#x2dc;" horiz-adv-x="692" d="M709 1427q-29 -68 -62.5 -117t-71.5 -79q-61 -47 -131 -47q-40 0 -67.5 12t-51 26t-47 26t-55.5 12q-34 0 -58.5 -18t-41.5 -58h-141q12 44 38 89.5t62 81.5q32 32 69.5 52t79.5 20q45 0 75 -11.5t54.5 -26t48.5 -26t58 -11.5q35 0 57 16t37 59h148z" />
<glyph unicode="&#x2dd;" horiz-adv-x="774" d="M799 1464l-305 -366h-197l242 366h260zM473 1464l-305 -366h-195l240 366h260z" />
<glyph unicode="&#x2013;" horiz-adv-x="854" d="M31 315l43 250h747l-43 -250h-747z" />
<glyph unicode="&#x2014;" horiz-adv-x="1712" d="M31 315l43 250h1605l-43 -250h-1605z" />
<glyph unicode="&#x2018;" horiz-adv-x="752" d="M692 1364q-97 -70 -144.5 -117t-47.5 -88q0 -14 3.5 -23t8.5 -20q57 -22 88 -66q31 -43 31 -102q0 -34 -14 -63.5t-37 -52.5q-26 -26 -61 -41t-75 -15q-38 0 -71 13.5t-59 36.5q-29 27 -46.5 65.5t-17.5 83.5q0 65 12 117t37 99q20 38 48.5 73.5t65.5 70.5t82 71.5 t99 76.5z" />
<glyph unicode="&#x2019;" horiz-adv-x="752" d="M242 897q48 35 84 64t60 53.5t36 45.5t12 42q0 14 -3.5 23t-8.5 20q-59 24 -89 68t-30 100q0 34 14 64.5t38 53.5q26 25 60.5 39.5t73.5 14.5q43 0 80 -16t63 -45q25 -26 38.5 -61.5t13.5 -76.5q0 -65 -12.5 -118t-37.5 -100q-20 -38 -48.5 -73t-65.5 -70t-82 -71 t-98 -76z" />
<glyph unicode="&#x201a;" horiz-adv-x="752" d="M66 -227q97 70 144.5 116.5t47.5 87.5q0 14 -3.5 23t-8.5 20q-55 22 -86 64q-33 45 -33 104q0 35 14 65t38 53q26 25 60.5 39.5t73.5 14.5q42 0 78 -15.5t62 -42.5q26 -26 40.5 -62t14.5 -78q0 -63 -15.5 -114t-38.5 -97q-20 -39 -47.5 -75t-63.5 -72t-80.5 -73 t-98.5 -77z" />
<glyph unicode="&#x201c;" d="M1149 1364q-97 -70 -145 -117t-48 -88q0 -14 4 -23t9 -20q27 -11 47.5 -26t35.5 -35q35 -46 35 -107q0 -36 -15.5 -68t-41.5 -55t-59 -36t-70 -13q-40 0 -75 14.5t-61 40.5q-27 27 -42.5 63.5t-15.5 80.5q0 74 15.5 132.5t47.5 109.5q42 68 112.5 130.5t168.5 135.5z M678 1364q-97 -70 -145 -117t-48 -88q0 -14 4 -23t9 -20q48 -19 78 -55q40 -48 40 -113q0 -36 -16 -68.5t-43 -55.5q-26 -23 -58.5 -35.5t-68.5 -12.5q-37 0 -69 12t-58 35q-31 27 -49 66t-18 86q0 66 12.5 119.5t38.5 101.5q20 38 48.5 72.5t65.5 69t81.5 70.5t97.5 75z " />
<glyph unicode="&#x201d;" d="M246 897q48 35 84 64t60 53.5t36 45.5t12 42q0 14 -3.5 23t-8.5 20q-53 21 -84 61q-35 46 -35 107q0 36 16 68t42 55t59 36t70 13q43 0 80 -17t63 -46q24 -26 37.5 -60.5t13.5 -75.5q0 -69 -14 -125t-43 -105q-21 -36 -49 -69.5t-64 -67t-79.5 -68.5t-94.5 -73zM717 897 q48 35 84 64t60 53.5t36 45.5t12 42q0 14 -3.5 23t-8.5 20q-60 24 -91 71q-28 41 -28 97q0 36 15.5 67.5t41.5 54.5t59 36.5t71 13.5t71 -13t59 -37q29 -27 46.5 -65.5t17.5 -83.5q0 -68 -13.5 -122.5t-40.5 -102.5q-41 -73 -113.5 -139t-176.5 -144z" />
<glyph unicode="&#x201e;" d="M76 -227q97 70 144.5 116.5t47.5 87.5q0 14 -3.5 23t-8.5 20q-56 22 -87 66q-32 46 -32 102q0 36 16 68.5t42 55.5t59 35.5t70 12.5q39 0 73.5 -14t60.5 -40q28 -27 44 -63.5t16 -80.5q0 -56 -12 -101.5t-30 -87.5q-19 -43 -46.5 -82t-65 -77t-85 -77.5t-105.5 -82.5z M547 -227q97 70 144.5 116.5t47.5 87.5q0 14 -3.5 23t-8.5 20q-59 24 -89 68t-30 100q0 38 16 70.5t44 55.5q26 22 58.5 34t68.5 12q39 0 73.5 -14t60.5 -39q28 -27 44 -64t16 -81q0 -57 -11 -104t-30 -89t-47 -80.5t-65.5 -76t-85 -76.5t-105.5 -82z" />
<glyph unicode="&#x2020;" horiz-adv-x="1026" d="M492 940h-326v221h326v303h239v-303h324v-221h-324v-1038h-239v1038z" />
<glyph unicode="&#x2021;" horiz-adv-x="1026" d="M113 512h325v428h-325v221h325v303h240v-303h323v-221h-323v-428h323v-221h-323v-389h-240v389h-325v221z" />
<glyph unicode="&#x2022;" horiz-adv-x="1073" d="M291 573q0 52 19.5 97.5t53.5 80.5q35 36 82 57t101 21q51 0 96.5 -19t80.5 -53q35 -35 56 -82.5t21 -101.5q0 -51 -19 -95t-51 -79q-35 -37 -82.5 -58.5t-101.5 -21.5q-57 0 -106 23t-84 61q-31 34 -48.5 77t-17.5 93z" />
<glyph unicode="&#x2026;" horiz-adv-x="1503" d="M334 131q0 -32 -12 -59.5t-33 -48.5q-20 -20 -47 -31.5t-58 -11.5q-35 0 -64 14.5t-49 38.5q-17 20 -26.5 45t-9.5 53q0 31 11 58t31 47q20 21 47.5 33t59.5 12q30 0 56.5 -10.5t46.5 -29.5q22 -20 34.5 -48.5t12.5 -61.5zM836 131q0 -30 -11 -57.5t-31 -47.5 q-20 -21 -48 -33.5t-60 -12.5q-29 0 -55.5 11t-46.5 31q-22 21 -34.5 49t-12.5 60q0 33 12.5 61t34.5 48q20 19 46 30t56 11q32 0 60.5 -12.5t48.5 -33.5q20 -20 30.5 -46.5t10.5 -57.5zM1339 131q0 -30 -12 -57.5t-32 -47.5q-21 -21 -48 -33.5t-59 -12.5q-28 0 -53 10.5 t-45 27.5q-24 21 -38 50.5t-14 62.5q0 31 12 58t32 47q20 21 47.5 33t58.5 12q33 0 61.5 -13t49.5 -36q19 -20 29.5 -46t10.5 -55z" />
<glyph unicode="&#x2030;" horiz-adv-x="2507" d="M643 1118q0 57 -34 91q-32 34 -93 34q-38 0 -70.5 -15.5t-57.5 -41.5q-26 -28 -41 -64t-15 -75q0 -30 9 -54.5t26 -41.5q34 -36 92 -36q40 0 73.5 16.5t58.5 45.5q24 28 38 64.5t14 76.5zM858 1157q0 -57 -14 -109t-40 -100q-28 -51 -68.5 -94t-90.5 -74t-106 -48 t-117 -17q-53 0 -97 12.5t-80 35.5q-62 39 -96 106q-32 64 -32 145q0 51 13.5 99.5t37.5 93.5q30 55 73.5 100t97.5 77q48 29 102.5 44.5t111.5 15.5h999l-1181 -1444h-211l1073 1307h-420q8 -11 16 -28.5t14.5 -37.5t10.5 -42t4 -42zM2175 383q0 50 -28 84q-33 41 -99 41 q-38 0 -70 -15t-57 -41q-26 -28 -41.5 -64.5t-15.5 -76.5q0 -58 33 -94q16 -17 39 -27t53 -10q42 0 76.5 17.5t59.5 46.5q23 28 36.5 63.5t13.5 75.5zM2388 418q0 -60 -15.5 -114.5t-44.5 -102.5q-29 -49 -68 -89t-87 -69q-50 -30 -105.5 -46.5t-115.5 -16.5 q-75 0 -133.5 24.5t-97.5 68.5q-72 80 -72 203q0 59 17 114.5t48 105.5q31 49 73 89t93 69q47 26 98.5 40.5t106.5 14.5q65 0 118 -19.5t92 -54.5q45 -39 69 -95t24 -122zM1360 383q0 29 -9 52.5t-27 40.5q-16 15 -39 23.5t-52 8.5q-53 0 -95 -28q-43 -28 -68 -78 q-21 -42 -21 -91q0 -57 32.5 -94t92.5 -37q24 0 46 6.5t42 17.5q45 26 70 71q28 48 28 108zM1573 418q0 -66 -19.5 -127t-54.5 -113q-59 -86 -151 -140q-48 -28 -101 -43t-110 -15q-72 0 -129 22.5t-96 63.5q-78 80 -78 210q0 57 15.5 109.5t43.5 100.5q32 54 77.5 97.5 t100.5 73.5q45 25 95 38.5t104 13.5q71 0 128 -23.5t97 -65.5q38 -39 58 -90.5t20 -111.5z" />
<glyph unicode="&#x2039;" horiz-adv-x="676" d="M98 381l25 147l469 351l-45 -273l-219 -157l170 -140l-43 -270z" />
<glyph unicode="&#x203a;" horiz-adv-x="676" d="M43 39l43 270l219 140l-170 157l45 273l352 -351l-24 -147z" />
<glyph unicode="&#x2044;" horiz-adv-x="512" d="M-27 0h-188l856 1464h186z" />
<glyph unicode="&#x20ac;" d="M997 813h-524q-11 -40 -18.5 -79.5t-12.5 -80.5h496l-59 -151h-441q6 -91 42 -158q38 -72 111 -109q58 -28 132 -28q51 0 97 8t87 23q82 31 144 94v-248q-54 -53 -148 -78q-96 -26 -227 -26q-77 0 -142.5 18t-119.5 52q-115 71 -173 198q-53 112 -53 254h-108v151h117 q5 42 8.5 81t15.5 79h-141v152h186q56 151 152 259q103 115 246 172q124 50 270 50q81 0 153.5 -15.5t135.5 -44.5l-88 -231q-92 64 -211 64q-75 0 -138 -19q-69 -21 -127 -70q-69 -59 -124 -165h514z" />
<glyph unicode="&#x2122;" horiz-adv-x="1026" d="M608 1364h-153v-426h-115v426h-158v100h426v-100zM745 1464l105 -325l104 325h86l90 -524h-112l-47 260l-84 -264h-76l-86 268l-45 -264h-113l86 524h92z" />
<glyph unicode="&#x2212;" d="M1102 758v-248h-961v248h961z" />
<glyph unicode="&#x2260;" horiz-adv-x="1382" d="M590 154h-248l70 151h-201v248h317l76 162h-393v248h510l72 151h247l-71 -151h202v-248h-319l-76 -162h395v-248h-512z" />
<glyph unicode="&#x2264;" horiz-adv-x="1382" d="M1171 297l-960 297v244l960 297v-248l-688 -174l688 -166v-250zM1171 248v-248h-960v248h960z" />
<glyph unicode="&#x2265;" horiz-adv-x="1382" d="M211 547l688 166l-688 174v248l960 -297v-244l-960 -297v250zM1171 248v-248h-960v248h960z" />
<glyph unicode="&#x25fc;" horiz-adv-x="900" d="M0 900h900v-900h-900v900z" />
<glyph unicode="&#xfb01;" horiz-adv-x="1057" d="M901 0h-250l129 696h-301l-127 -735q-6 -49 -22 -90t-39 -74q-25 -35 -58 -61t-72 -43q-41 -18 -86 -27t-93 -10l-54 168q31 6 60.5 21t52.5 36q22 20 36 44t19 50l129 721h-137l45 205h125l57 289q11 56 32 99t50 76q30 35 68 58.5t81 37.5q38 13 79 18.5t84 5.5 q60 0 111 -8.5t93 -21.5t73.5 -28t51.5 -28l-30 -199q-20 10 -51 21t-68 22t-77.5 18t-80.5 7q-39 0 -69.5 -11.5t-53.5 -31.5q-40 -38 -53 -105l-41 -219h555z" />
<glyph unicode="&#xfb02;" horiz-adv-x="1161" d="M1008 129q-14 -44 -40.5 -72t-57.5 -45q-34 -18 -68 -25t-60 -7q-35 0 -58.5 10.5t-38.5 27.5q-20 22 -27 52t-7 59q0 50 13.5 122t31.5 159l176 837q-45 17 -85 24t-72 7q-30 0 -55 -5t-44 -16q-21 -13 -34.5 -35t-20.5 -57l-45 -264h213l-45 -205h-205l-131 -735 q-6 -51 -22 -93t-41 -76t-56.5 -58.5t-69.5 -41.5q-40 -18 -84.5 -26.5t-92.5 -9.5l-54 168q31 6 60 21t52 36q22 20 36.5 44t19.5 50l129 721h-137l45 205h127l55 289q11 57 31.5 102t49.5 78q53 60 130 88q38 14 81 20.5t89 6.5q32 0 66 -3.5t68.5 -7t68 -7t64.5 -3.5h198 l-211 -1026q-9 -43 -15.5 -73t-11 -52t-6.5 -39t-2 -34q0 -57 23.5 -83t67.5 -26z" />
</font>
</defs>
</svg>
