<?xml version="1.0" standalone="no"?>
<!DOCTYPE svg PUBLIC "-//W3C//DTD SVG 1.1//EN" "http://www.w3.org/Graphics/SVG/1.1/DTD/svg11.dtd" >
<svg xmlns="http://www.w3.org/2000/svg">
<metadata></metadata>
<defs>
<font id="citisansregular" horiz-adv-x="1157" >
<font-face units-per-em="2048" ascent="1638" descent="-410" />
<missing-glyph horiz-adv-x="432" />
<glyph unicode=" "  horiz-adv-x="432" />
<glyph unicode="&#x09;" horiz-adv-x="432" />
<glyph unicode="&#xa0;" horiz-adv-x="432" />
<glyph unicode="!" horiz-adv-x="643" d="M305 242q26 0 49.5 -9.5t40.5 -26.5t27 -39.5t10 -49.5q0 -24 -8.5 -45t-22.5 -38q-17 -20 -42 -32t-54 -12q-26 0 -48.5 9.5t-39.5 26.5q-18 17 -28.5 40.5t-10.5 50.5q0 25 8.5 46.5t23.5 38.5q17 19 41.5 29.5t53.5 10.5zM600 1464l-59 -370q-16 -94 -57.5 -269.5 t-121.5 -429.5h-55q3 257 16.5 428t28.5 271l60 370h188z" />
<glyph unicode="&#x22;" horiz-adv-x="516" d="M553 1059h-92l31 405h165zM254 1059h-92l31 405h165z" />
<glyph unicode="#" d="M956 958l-104 -413h166v-111h-195l-121 -434h-112l121 434h-318q-32 -112 -61 -217.5t-60 -216.5h-112l116 434h-163v111h190l107 413h-181v111h207l99 395h118l-100 -395h319q25 103 49 197.5t50 197.5h114l-100 -395h180v-111h-209zM526 958l-106 -413h319l107 413 h-320z" />
<glyph unicode="$" d="M483 1044q0 -55 26 -95q14 -21 35.5 -38t49.5 -32l70 421q-44 -11 -78 -36.5t-57 -60.5q-23 -34 -34.5 -74.5t-11.5 -84.5zM809 453q0 37 -10.5 65t-30 50.5t-47 40.5t-62.5 36l-84 -473q37 7 70 23t61 39q42 36 67 81q17 31 26.5 65.5t9.5 72.5zM971 473 q0 -56 -12.5 -107.5t-35.5 -97.5q-47 -93 -133 -157q-50 -36 -110.5 -59.5t-130.5 -31.5l-29 -159h-106l28 153q-26 0 -68 7.5t-87 19.5q-43 11 -80 26t-55 29q1 2 3 5t10 17.5t25 44.5t48 85q17 -17 43 -30.5t57 -24.5q32 -11 65.5 -18.5t65.5 -10.5l94 532h-2l-55 27 q-108 51 -155 129q-40 65 -40 156q0 58 15 112.5t42 103.5q43 76 113 132q45 35 97.5 59t113.5 33h4l27 149h106l-26 -145h4q47 -1 84 -6t68 -14t58 -21t52 -27l-74 -141q-21 17 -45 28.5t-51 19.5q-28 8 -58.5 13t-62.5 7l-86 -486l64 -30q43 -22 77.5 -47t60.5 -55 q42 -48 62 -112q15 -49 15 -108z" />
<glyph unicode="%" horiz-adv-x="1757" d="M1661 414q0 -56 -14.5 -107.5t-40.5 -97.5q-28 -51 -69 -93t-90.5 -72.5t-106 -47t-115.5 -16.5q-69 0 -123.5 20.5t-93.5 57.5q-42 39 -64 94.5t-22 121.5q0 54 14 105.5t40 98.5q30 54 73 98.5t97 75.5q48 27 100.5 42t109.5 15q73 0 131.5 -25t99.5 -70 q35 -39 54.5 -90t19.5 -110v0zM836 1149q0 -63 -17.5 -120t-49.5 -107t-75 -90t-95 -67q-45 -24 -95 -37t-103 -13q-51 0 -95.5 12t-79.5 35q-66 41 -100 111q-30 62 -30 141q0 55 15 106.5t42 98.5q29 49 69 89.5t88 70.5q50 31 106 48t116 17h1035l-1200 -1444h-160 l1130 1339h-565q12 -12 23.5 -31t20.5 -43t14.5 -53.5t5.5 -62.5zM696 1137q0 38 -10.5 70.5t-32.5 56.5q-23 27 -59 42t-84 15q-60 0 -110.5 -24.5t-87.5 -66.5q-35 -40 -54.5 -91.5t-19.5 -108.5q0 -85 47 -137q24 -26 59 -40.5t80 -14.5q60 0 109.5 24t85.5 66t56.5 95.5 t20.5 113.5zM1522 397q0 38 -10 70t-30 57q-24 29 -60.5 45.5t-86.5 16.5q-38 0 -72 -10t-63 -28q-32 -20 -58 -48t-44 -62q-37 -68 -37 -147q0 -90 55 -142q23 -23 56 -35t75 -12q39 0 74 10.5t65 30.5q32 21 58.5 50t44.5 64q16 32 24.5 67t8.5 73z" />
<glyph unicode="&#x26;" horiz-adv-x="1446" d="M682 932l98 47q60 29 99.5 61t61.5 67q17 27 24.5 55.5t7.5 58.5q0 63 -39 97t-113 34q-49 0 -88 -16.5t-66 -44.5q-28 -29 -42.5 -66.5t-14.5 -79.5t14.5 -82t32.5 -82zM592 733q-97 -44 -171 -90.5t-117 -109.5q-23 -35 -35.5 -75t-12.5 -91q0 -52 17 -93t49 -70 q38 -35 94.5 -53t126.5 -18q73 0 142 24q80 27 155 85zM1124 1241q0 -51 -13.5 -95t-36.5 -82q-34 -54 -84 -96.5t-109 -76.5l-140 -80l226 -459h2q38 42 68 80.5t54 78.5q28 46 50 95t45 107l160 -19q-31 -72 -60.5 -133t-64.5 -117q-35 -57 -76 -108.5t-94 -106.5 q25 -43 64 -63q35 -19 83 -19q15 0 26.5 0.5t21.5 2t20.5 3.5t25.5 5l-26 -150q-8 -3 -24 -7q-14 -3 -37.5 -5t-59.5 -2q-37 0 -67.5 7t-56.5 21q-32 17 -59.5 41.5t-54.5 57.5h-2q-57 -40 -111.5 -68t-110.5 -45q-90 -28 -194 -28q-50 0 -97.5 9t-91.5 27q-50 20 -91.5 50 t-72.5 71q-30 40 -47 88t-17 105q0 100 37 180q24 52 62 96.5t89 86.5q54 44 120.5 84t145.5 81q-13 28 -26.5 60t-24.5 66.5t-18.5 70.5t-7.5 71q0 54 13.5 101.5t39.5 88.5q29 45 70 79.5t92 57.5q42 18 89 28t99 10q118 0 192 -63q38 -32 59 -79t21 -108z" />
<glyph unicode="'" horiz-adv-x="348" d="M330 1059h-92l28 405h166z" />
<glyph unicode="(" horiz-adv-x="991" d="M528 541q0 -109 13.5 -214t42.5 -208q38 -140 104.5 -271t165.5 -258h-129q-104 108 -182.5 230t-130.5 254q-45 113 -67.5 229t-22.5 232q0 114 22 225.5t64 220.5q51 131 130.5 252.5t186.5 230.5h129q-100 -110 -165.5 -233.5t-103.5 -256.5q-30 -107 -43.5 -215.5 t-13.5 -217.5z" />
<glyph unicode=")" horiz-adv-x="991" d="M772 535q0 -111 -21 -221.5t-62 -219.5q-51 -137 -131.5 -264.5t-188.5 -239.5h-129q94 120 158.5 244.5t103.5 256.5q32 109 47.5 221t15.5 229q0 122 -17 243t-55 239q-38 119 -100 230t-153 211h129q92 -94 163.5 -197t122.5 -214q57 -125 87 -255t30 -263z" />
<glyph unicode="*" horiz-adv-x="504" d="M446 1153l191 -145l-96 -82l-129 202l-121 -202l-107 82l193 141l-248 39l64 131l204 -125l-57 270h141l-55 -270l215 125l41 -131z" />
<glyph unicode="+" d="M649 700h363v-135h-363v-360h-141v360h-363v135h363v361h141v-361z" />
<glyph unicode="," horiz-adv-x="471" d="M0 -258q100 71 140 131t40 107q0 12 -3 28t-15 35q-27 8 -45 34q-17 23 -17 50t10 48.5t27 35.5q17 15 39 23t45 8q32 0 55 -10.5t37 -27.5q25 -31 25 -81q0 -86 -44 -171q-37 -71 -103.5 -136t-161.5 -119z" />
<glyph unicode="-" horiz-adv-x="600" d="M59 393l27 172h487l-26 -172h-488z" />
<glyph unicode="." horiz-adv-x="471" d="M201 242q28 0 53 -11t42 -31q32 -35 32 -83q0 -54 -38 -90q-17 -17 -40 -27t-49 -10t-48.5 9.5t-39.5 26.5q-18 17 -28.5 40.5t-10.5 50.5q0 57 41 93q35 32 86 32z" />
<glyph unicode="/" horiz-adv-x="1174" d="M334 0h-162l674 1464h155z" />
<glyph unicode="0" d="M301 434q0 -159 57 -236q51 -69 148 -69q77 0 137 32t107 87q59 70 97 167t61 203q23 109 32.5 215t9.5 191q0 137 -56 205q-54 65 -159 65q-71 0 -127.5 -32.5t-101.5 -87.5q-61 -75 -101 -178t-64 -212q-22 -99 -31 -191.5t-9 -158.5zM119 397q0 116 13.5 239t44.5 241 q30 115 78 216.5t120 179.5q73 79 170.5 125t224.5 46q175 0 265 -93q98 -101 98 -311q0 -116 -11.5 -237t-38.5 -237q-27 -113 -70.5 -213.5t-109.5 -179.5q-73 -88 -175.5 -140.5t-240.5 -52.5q-90 0 -156.5 27.5t-111.5 76.5q-52 57 -76 136.5t-24 176.5z" />
<glyph unicode="1" d="M461 0l196 1096q-34 -17 -71.5 -35.5t-76.5 -38t-77.5 -39t-73.5 -37.5q7 48 14 86t13 82q73 35 135.5 68t116.5 67q72 46 126 92t91 95h41l-258 -1436h-176z" />
<glyph unicode="2" d="M127 0v88l483 598q53 66 100 123.5t81.5 109.5t54.5 100.5t20 96.5q0 39 -17 68t-45 49q-33 23 -76 34t-87 11q-67 0 -127 -30q-33 -17 -62.5 -41.5t-52.5 -57.5l-139 88q57 98 156 152q50 26 110.5 40.5t132.5 14.5q54 0 103 -7.5t92 -23.5q48 -18 86 -46t64 -67 q23 -34 35 -76.5t12 -95.5q0 -51 -12.5 -100t-36.5 -100q-34 -72 -88 -146t-123 -159l-375 -449h561l-33 -174h-817z" />
<glyph unicode="3" d="M176 242q20 -23 50 -43t64 -34q36 -15 74 -23.5t70 -8.5q73 0 134.5 21t107.5 60q51 43 79.5 105t28.5 140q0 54 -18 94t-52 69q-38 32 -93 47.5t-125 16.5l24 143q87 2 153.5 24t110.5 64q34 33 52 78.5t18 104.5q0 44 -14 78t-40 59q-60 57 -169 57q-28 0 -57 -6.5 t-57 -17.5t-54 -25t-47 -28l-80 106q60 60 155 92q87 29 187 29q112 0 194 -42q81 -40 124 -114q40 -69 40 -162q0 -103 -58 -193q-38 -60 -97.5 -105.5t-135.5 -67.5q57 -17 98.5 -46.5t69.5 -69.5q52 -75 52 -177q0 -148 -58 -255q-60 -107 -176 -166q-64 -32 -145.5 -49 t-184.5 -17q-98 0 -175 30q-73 30 -130 88z" />
<glyph unicode="4" d="M831 1065l-557 -557h457zM891 369l-68 -369h-178l64 369h-666l18 102l965 965h51l-164 -928h152l-27 -139h-147z" />
<glyph unicode="5" d="M971 598q0 -97 -16.5 -181t-49.5 -154q-32 -66 -77.5 -118.5t-108.5 -88.5q-63 -37 -141.5 -56.5t-174.5 -19.5q-41 0 -82.5 7t-80.5 21q-38 13 -70.5 32t-56.5 42l73 147q57 -50 119 -76q57 -24 115 -24q57 0 105.5 13t88.5 37q45 26 77.5 65t54.5 87q42 95 42 216 q0 57 -17 106.5t-52 87.5q-31 33 -75 52.5t-101 19.5q-69 0 -123 -19.5t-94 -54.5h-86l120 684h703l-29 -149h-534l-64 -369q50 34 98.5 45t102.5 11q81 0 149 -34q89 -44 137 -133q23 -42 35.5 -91t12.5 -105z" />
<glyph unicode="6" d="M322 358q0 -108 57 -168q62 -65 176 -65q53 0 96.5 17.5t78.5 47.5t60 70t42 86q14 39 21 79.5t7 80.5q0 49 -13.5 89t-39.5 69q-29 32 -69 49.5t-91 17.5q-52 0 -95.5 -11.5t-78.5 -33.5q-39 -24 -67.5 -58.5t-47.5 -77.5q-18 -42 -27 -90.5t-9 -101.5zM969 1339 q-100 -46 -184 -108t-153 -134q-67 -70 -118.5 -145t-87.5 -151l8 -6q53 42 119 66q32 11 65.5 17.5t69.5 6.5q115 0 198 -47q73 -41 113 -111q22 -38 33.5 -83.5t11.5 -98.5q0 -77 -19 -152t-54 -141q-32 -60 -75.5 -110t-99.5 -86q-55 -36 -119.5 -56t-137.5 -20 q-199 0 -300 107q-98 103 -98 298q0 99 21 195.5t61 190.5q49 115 123 219.5t169 195.5q85 81 182 145.5t206 110.5z" />
<glyph unicode="7" d="M221 0q188 386 762 1253h-686q8 44 15.5 85.5t15.5 84.5h909v-65q-251 -358 -454.5 -699.5t-352.5 -658.5h-209z" />
<glyph unicode="8" d="M698 860q46 8 91.5 35t78.5 67q26 31 41 67.5t15 78.5q0 48 -17.5 82.5t-45.5 57.5q-29 23 -64.5 34.5t-71.5 11.5q-50 0 -91 -16t-70 -45t-45.5 -68t-16.5 -86q0 -34 13.5 -65t36.5 -58q28 -33 65 -57.5t75 -38.5h6zM631 711q-42 -7 -82.5 -27t-78.5 -50 q-34 -27 -62.5 -59.5t-49.5 -68.5q-21 -35 -33 -72t-12 -72q0 -57 21.5 -102t57.5 -75q33 -27 75 -41.5t88 -14.5q79 0 135.5 21t93.5 63q35 39 51.5 95t16.5 128q0 38 -13.5 77t-42.5 76q-26 34 -65.5 65t-93.5 57h-6zM1104 1151q0 -40 -11 -81.5t-31 -81.5 q-17 -35 -42 -67.5t-54 -60.5q-32 -30 -69.5 -52.5t-79.5 -35.5q51 -26 91 -63.5t69 -83.5q27 -43 42 -90t15 -95q0 -144 -54 -243q-56 -104 -165 -158q-120 -59 -293 -59q-53 0 -102 9.5t-93 29.5q-91 40 -143 114q-26 38 -40.5 83t-14.5 99q0 105 41 196q36 80 103 146 q42 41 92.5 73.5t111.5 55.5v2q-34 20 -62.5 51.5t-49.5 70.5q-22 40 -34 83t-12 84q0 57 13.5 105.5t39.5 88.5q52 81 144 125q49 23 106.5 35.5t120.5 12.5q70 0 133 -19t112 -54q54 -38 85 -93.5t31 -126.5z" />
<glyph unicode="9" d="M926 1065q0 77 -31 133q-25 45 -70 70q-54 30 -133 30q-48 0 -88.5 -14.5t-73.5 -40.5q-38 -29 -65.5 -69t-45.5 -86q-16 -41 -24 -84.5t-8 -85.5q0 -55 17 -98.5t48 -72.5q28 -26 65.5 -40.5t82.5 -14.5q54 0 98 12t79 35q39 25 67.5 60t47.5 80q17 42 25.5 88.5 t8.5 97.5zM279 84q100 47 184 109.5t153 134.5q66 69 117.5 144.5t87.5 150.5l-8 6q-49 -41 -114.5 -65.5t-139.5 -24.5q-107 0 -187 41q-81 41 -124 116q-22 38 -33.5 83.5t-11.5 99.5q0 126 49 242q29 71 75.5 130.5t106.5 103.5q58 42 126.5 65.5t148.5 23.5 q134 0 225 -50q86 -48 129 -138q43 -87 43 -218q0 -101 -22.5 -200.5t-64.5 -195.5q-45 -102 -109 -195.5t-145 -176.5q-90 -91 -195.5 -164t-225.5 -124z" />
<glyph unicode=":" horiz-adv-x="471" d="M295 922q28 0 52 -10.5t41 -28.5q16 -17 25 -38.5t9 -47.5t-10 -49.5t-27 -40.5t-40.5 -27t-49.5 -10t-49 10t-40 27t-27.5 40.5t-10.5 49.5q0 27 10 49.5t27 39.5t40 26.5t50 9.5zM209 242q27 0 50.5 -10t40.5 -27t26.5 -39.5t9.5 -48.5q0 -27 -10.5 -51t-29.5 -41 q-17 -16 -39 -25.5t-48 -9.5t-49 10t-40 27t-27.5 40.5t-10.5 49.5q0 28 10.5 51t28.5 40q17 16 39.5 25t48.5 9z" />
<glyph unicode=";" horiz-adv-x="471" d="M307 922q27 0 50.5 -10.5t40.5 -27.5t26.5 -39t9.5 -48t-10.5 -49.5t-27.5 -40.5t-40 -27t-49 -10t-48.5 9.5t-39.5 26.5q-18 17 -28.5 40.5t-10.5 50.5t10 50t28 40q17 17 40 26t49 9zM338 123q0 -88 -47 -176q-38 -70 -103 -133.5t-159 -116.5l-29 45q100 71 140 131 t40 107q0 12 -3 28t-15 35q-21 6 -39 26q-11 12 -17 27t-6 31q0 26 9 46.5t24 34.5q17 17 40.5 25.5t47.5 8.5q34 0 57.5 -11t37.5 -31q22 -31 22 -77z" />
<glyph unicode="&#x3c;" d="M1012 217l-867 356v125l867 353v-154l-688 -262l688 -262v-156z" />
<glyph unicode="=" d="M1012 537v-136h-867v136h867zM1012 864v-135h-867v135h867z" />
<glyph unicode="&#x3e;" d="M1047 573l-867 -352v154l688 262l-688 262v156l867 -357v-125z" />
<glyph unicode="?" horiz-adv-x="844" d="M330 242q50 0 86 -33q19 -17 30 -40.5t11 -51.5q0 -27 -11 -51t-29 -41q-17 -17 -39.5 -26t-47.5 -9q-27 0 -51.5 10.5t-41.5 29.5q-16 17 -25 39t-9 48t9 48.5t26 39.5t40.5 27t51.5 10zM872 1239q0 -85 -40 -167q-39 -77 -111 -142l-174 -160q-63 -57 -97 -131 q-37 -80 -40 -174v-29h-113q-12 47 -12 94q0 51 11.5 94t34.5 83q26 47 64.5 90.5t89.5 89.5l72 65q43 40 71 74t45 69q25 54 25 122q0 72 -47 110q-46 37 -135 37q-24 0 -50 -4t-52 -12q-56 -17 -103 -54q-9 34 -19.5 61.5t-23.5 61.5q53 34 130 54q78 20 175 20 q90 0 159 -33q32 -15 58.5 -36.5t44.5 -50.5q37 -55 37 -132z" />
<glyph unicode="@" horiz-adv-x="1507" d="M1528 918q0 -61 -11 -124.5t-33 -123.5q-23 -62 -56.5 -116t-78.5 -96q-47 -42 -104.5 -66.5t-128.5 -24.5q-26 0 -59 6.5t-63 20.5q-27 12 -48 30.5t-31 42.5q-12 -22 -37 -41.5t-56 -34.5q-34 -17 -69 -26t-63 -9q-112 0 -177 62q-30 29 -46 70t-16 94q0 57 13.5 111 t39.5 105q28 55 68 101t90 81t107 54t120 19q44 0 69 -3.5t47.5 -11t50.5 -20.5t77 -31q-42 -180 -62 -283.5t-20 -128.5q0 -102 82 -102q45 0 80 16.5t62 45.5q34 36 55.5 85.5t33.5 103.5q18 83 18 159q0 128 -55 224q-28 50 -67.5 88t-90.5 65q-102 55 -233 55 q-88 0 -167.5 -22.5t-149.5 -64.5q-85 -50 -152.5 -122.5t-115.5 -161.5q-48 -88 -73.5 -185.5t-25.5 -199.5q0 -151 64 -258q31 -53 76 -91.5t102 -64.5q50 -22 106.5 -33.5t122.5 -11.5q115 0 211 31q99 31 182 98l96 -73q-56 -48 -118.5 -82t-131.5 -56 q-123 -38 -262 -38q-87 0 -163 16t-142 47q-72 35 -128 87t-93 122q-32 60 -48.5 131.5t-16.5 155.5q0 100 21 196t61 185q51 114 129.5 209.5t179.5 164.5q99 68 214 106t244 38q180 0 314 -70q63 -33 112 -80t83 -109q29 -55 45 -120t16 -141zM981 913q-42 45 -98 45 q-38 0 -71.5 -14t-62.5 -38q-36 -30 -63 -72t-45 -88q-15 -39 -23 -78t-8 -74q0 -71 36 -103q27 -24 77 -24q35 0 68.5 14t60.5 37q28 24 47 56.5t27 68.5z" />
<glyph unicode="A" horiz-adv-x="1305" d="M821 1133h-8l-371 -693h480zM985 0l-45 315h-565l-174 -315h-191l858 1485h25l289 -1485h-197z" />
<glyph unicode="B" horiz-adv-x="1202" d="M449 891q46 -3 90.5 -5.5t70.5 -2.5q109 0 184 25q92 30 136 97q41 62 41 152q0 95 -78 140q-70 40 -205 40q-34 0 -74 -2.5t-96 -7.5zM311 150q71 -13 144 -13q51 0 104 5.5t104 19.5q61 16 114 43t91 69q32 35 51 81t19 104q0 101 -45 167q-20 29 -48.5 51t-65.5 38 q-88 37 -216 37q-29 0 -64 -2t-81 -9zM1110 481q0 -64 -10.5 -117t-30.5 -98q-35 -78 -94.5 -129.5t-139.5 -83.5q-92 -37 -205 -51t-239 -14q-52 0 -119 2t-161 8l260 1468q71 11 138 16t124 5q91 0 165.5 -11t133.5 -32q102 -38 154 -106q57 -75 57 -187q0 -39 -12 -80.5 t-35 -79.5q-19 -32 -43.5 -61.5t-54.5 -51.5q-29 -22 -62 -35.5t-68 -15.5v-6q97 -18 155 -76q48 -48 69 -121q18 -63 18 -143z" />
<glyph unicode="C" horiz-adv-x="1143" d="M1130 1284q-20 13 -43.5 23t-52.5 16q-57 12 -133 12q-81 0 -151.5 -27t-131.5 -75q-84 -66 -146 -160t-101 -200q-29 -78 -43.5 -157t-14.5 -151q0 -112 26 -198q35 -111 113 -167q87 -63 230 -63q80 0 155 24q45 14 89 37.5t86 57.5l-15 -172q-60 -54 -152 -79 q-91 -25 -218 -25q-75 0 -137.5 15t-114.5 43q-117 63 -178 187q-32 63 -47 139t-15 162q0 136 29.5 268.5t86.5 250.5q51 105 122.5 191.5t165.5 146.5q80 51 172.5 79.5t201.5 28.5q40 0 77.5 -3.5t72.5 -9.5q67 -12 115 -30z" />
<glyph unicode="D" horiz-adv-x="1255" d="M279 168q42 -5 76.5 -7.5t62.5 -2.5q94 0 174 22.5t147 64.5q84 52 145.5 128.5t102.5 170.5q36 84 54 177t18 192q0 63 -15 118t-44 102t-69 83.5t-90 62.5q-101 52 -227 52q-35 0 -70.5 -3.5t-70.5 -14.5zM80 0l258 1466q60 11 118.5 17t116.5 6q100 0 188 -15t163 -47 q78 -33 139 -84t103 -123q37 -63 56 -142.5t19 -176.5q0 -137 -27.5 -256t-81.5 -221q-51 -97 -122 -173.5t-163 -131.5q-97 -58 -213 -88.5t-251 -30.5h-303z" />
<glyph unicode="E" horiz-adv-x="1098" d="M467 1307l-78 -439h492l-27 -147h-489l-101 -563h674l-27 -158h-850l258 1464h865l-31 -157h-686z" />
<glyph unicode="F" horiz-adv-x="1075" d="M477 1307l-78 -439h525l-27 -147h-524l-127 -721h-174l262 1464h889l-31 -157h-715z" />
<glyph unicode="G" horiz-adv-x="1384" d="M1214 1243q-29 22 -61 37t-66 26q-67 21 -145 21q-100 0 -184.5 -27t-154.5 -75q-83 -57 -143.5 -138.5t-98.5 -180.5q-30 -77 -45 -160.5t-15 -170.5q0 -147 48 -245q44 -89 126 -137q98 -56 250 -56q88 0 160 25q73 25 137 78h2l63 364h-204l26 148h371l-113 -627 q-93 -67 -211 -103q-138 -42 -305 -42t-280 55q-124 60 -188 187q-62 124 -62 317q0 128 24 244t70 219q53 116 132.5 209t185.5 157q94 57 205.5 87t242.5 30q60 0 108 -5.5t86 -17.5q57 -18 91 -49z" />
<glyph unicode="H" horiz-adv-x="1339" d="M938 0l127 721h-690l-127 -721h-170l258 1464h172l-105 -596h687l106 596h172l-262 -1464h-168z" />
<glyph unicode="I" horiz-adv-x="500" d="M92 0l258 1464h170l-260 -1464h-168z" />
<glyph unicode="J" horiz-adv-x="977" d="M150 293q-3 -80 51 -123q41 -33 102 -33q88 0 146 24q32 14 56.5 35t43.5 50q32 50 50.5 121t35.5 165l166 932h166l-162 -917q-20 -112 -45 -202.5t-64 -159.5q-27 -48 -62.5 -84.5t-83.5 -62.5q-104 -58 -280 -58q-82 0 -142 30q-57 28 -90 83q-17 29 -26.5 65.5 t-9.5 79.5q0 3 0.5 10.5t1.5 16t2 16.5t2 12h142z" />
<glyph unicode="K" horiz-adv-x="1180" d="M887 0l-291 698h-8l-266 -303l-72 -395h-166l258 1464h166l-139 -802h6l706 802h197l-547 -630l356 -834h-200z" />
<glyph unicode="L" horiz-adv-x="1036" d="M100 0l258 1464h172l-231 -1306h670l-25 -158h-844z" />
<glyph unicode="M" horiz-adv-x="1559" d="M1282 0l-35 961h-8l-514 -981h-25l-178 970h-4l-348 -950h-156l525 1464h67l176 -1061h9l532 1061h76l49 -1464h-166z" />
<glyph unicode="N" horiz-adv-x="1307" d="M1022 -20l-600 1089h-8l-181 -1069h-163l258 1464h51l592 -1042h4l176 1042h164l-262 -1484h-31z" />
<glyph unicode="O" horiz-adv-x="1380" d="M315 563q0 -57 7 -112t24 -104t43.5 -89.5t65.5 -69.5q34 -24 77 -37.5t97 -13.5q96 0 173.5 30.5t139.5 84.5q69 60 117 140.5t80 173.5q32 91 46.5 187t14.5 187q0 126 -36 210q-37 86 -111 131q-79 48 -201 48q-75 0 -139.5 -26.5t-119.5 -72.5q-74 -63 -128.5 -152 t-89.5 -188q-30 -85 -45 -169.5t-15 -157.5zM135 535q0 119 23.5 239.5t70.5 232.5q45 105 109 194.5t149 154.5q78 60 173.5 94.5t207.5 34.5q175 0 292 -66q115 -65 169 -189q49 -110 49 -269q0 -136 -23.5 -265t-71.5 -244q-50 -118 -125.5 -213.5t-180.5 -158.5 q-79 -48 -173 -74t-206 -26q-78 0 -141.5 20t-114.5 55q-52 36 -90.5 86.5t-64.5 112.5q-26 63 -39 133.5t-13 147.5z" />
<glyph unicode="P" horiz-adv-x="1112" d="M379 737q71 -32 186 -32q60 0 115.5 9t103.5 29q49 20 88.5 49.5t66.5 70.5q24 36 37 81t13 100q0 102 -41 169q-32 53 -93 83q-72 35 -179 35q-47 0 -93.5 -6t-99.5 -20zM250 0h-174l268 1466q88 10 160.5 14.5t120.5 4.5q184 0 305 -48q119 -46 179 -139t60 -233 q0 -85 -21.5 -155.5t-59.5 -127.5t-91 -99t-117 -71q-69 -31 -146.5 -46t-162.5 -15q-51 0 -103.5 7t-111.5 20h-4z" />
<glyph unicode="Q" horiz-adv-x="1380" d="M315 563q0 -54 6.5 -105t20.5 -98q14 -48 37.5 -87.5t57.5 -69.5q35 -31 82.5 -48.5t109.5 -17.5q35 0 64 2.5t46 7.5q-6 21 -25 46.5t-50 51.5q-30 25 -70.5 47.5t-91.5 37.5l86 135q51 -18 96.5 -42.5t87.5 -56.5q72 -57 131 -145h2q48 35 87 78q43 49 76 106 q35 60 60 127t41 138q16 69 23.5 137t7.5 133q0 135 -42 223q-38 82 -116 125q-75 41 -190 41q-77 0 -142.5 -28.5t-121.5 -76.5q-72 -63 -125.5 -151.5t-88.5 -186.5q-29 -84 -44 -167t-15 -156zM942 61q11 -57 34 -93t56 -59q34 -23 77 -33t95 -13l-57 -156q-78 7 -139 26 t-106 55q-45 35 -74.5 87.5t-47.5 126.5q-22 -6 -45 -10t-46 -7q-25 -3 -48 -4t-43 -1q-76 0 -139.5 19t-114.5 54q-55 38 -95 91.5t-66 119.5q-24 60 -36 128.5t-12 142.5q0 124 25.5 248.5t76.5 239.5q48 106 115.5 196t156.5 153q75 54 164.5 83.5t194.5 29.5 q78 0 144.5 -14t121.5 -40q123 -59 184 -180q60 -117 60 -290q0 -69 -7.5 -145.5t-24.5 -157.5q-21 -97 -59 -193.5t-99 -183.5q-46 -64 -103 -117q-63 -59 -143 -103z" />
<glyph unicode="R" horiz-adv-x="1192" d="M406 811q95 -12 161 -12q53 0 105 7t100 23t89 40.5t70 59.5q26 32 41 72t15 91q0 48 -12 83.5t-35 61.5q-20 23 -47 39t-60 27q-42 14 -92.5 19t-107.5 5q-19 0 -52 -2t-85 -10zM856 0l-233 639q-21 0 -49 0.5t-60.5 2t-68 3.5t-70.5 4l-115 -649h-174l258 1466 q11 0 22.5 1t26.5 1q35 0 75.5 2t81 4.5t77.5 4.5t65 2q80 0 146.5 -15t120.5 -41q99 -49 153 -132q53 -82 53 -181q0 -119 -50 -213q-44 -85 -125 -143q-86 -62 -206 -86l267 -670h-195z" />
<glyph unicode="S" horiz-adv-x="985" d="M162 209q26 -18 63 -31t77 -22q39 -8 77 -12.5t70 -4.5q82 0 145 27q34 14 60.5 35.5t44.5 51.5q14 25 22 55t8 65q0 48 -14.5 85.5t-40.5 70.5q-31 40 -75 75.5t-95 75.5q-48 38 -81.5 64.5t-57.5 47.5t-41 39t-33 39q-28 42 -47 91.5t-19 111.5t13.5 114t38.5 97 q29 50 70.5 87.5t94.5 63.5q102 50 232 50q108 0 178 -9q35 -5 60.5 -11.5t43.5 -14.5q-6 -25 -13 -47t-15 -45q-6 -19 -11.5 -36t-11.5 -36q-21 11 -48 19t-55.5 13.5t-56 8t-47.5 2.5q-51 0 -93.5 -7t-76.5 -22q-60 -26 -92 -77q-30 -48 -30 -121q0 -47 22 -93.5t66 -84.5 q20 -17 64 -51t106 -80q61 -46 110 -93.5t81 -104.5q26 -45 40 -96.5t14 -113.5q0 -63 -14.5 -115.5t-40.5 -95.5q-29 -48 -71 -83t-94 -59q-57 -26 -124 -39t-139 -13q-33 0 -76.5 5t-88.5 14q-42 8 -81.5 19t-68.5 25z" />
<glyph unicode="T" horiz-adv-x="1190" d="M815 1307l-229 -1307h-170l227 1307h-469l25 157h1132l-26 -157h-490z" />
<glyph unicode="U" horiz-adv-x="1327" d="M346 1464h176l-180 -999q-3 -16 -4.5 -34t-1.5 -34q0 -42 9 -76.5t26 -63.5q35 -60 101 -91q61 -29 140 -29q100 0 179 38q81 38 135 110q57 77 75 180l183 999h170l-180 -1015q-13 -69 -40 -129.5t-66 -111.5q-42 -54 -94.5 -96.5t-115.5 -71.5t-132 -44.5t-142 -15.5 q-68 0 -130.5 13t-116.5 40q-44 22 -79.5 53.5t-59.5 73.5q-21 36 -32.5 79.5t-11.5 94.5q0 23 2.5 52t7.5 58z" />
<glyph unicode="V" horiz-adv-x="1202" d="M551 -10h-74l-284 1474h184l196 -1120h9l571 1120h188z" />
<glyph unicode="W" horiz-adv-x="1745" d="M1180 -10h-35l-178 1030h-9l-530 -1030h-37l-196 1474h170l127 -1042h8l524 1042h41l154 -1036h8l487 1036h182z" />
<glyph unicode="X" horiz-adv-x="1141" d="M834 0l-254 592h-9l-436 -592h-186l561 768l-272 696h170l210 -561h9l438 561h190l-565 -714l338 -750h-194z" />
<glyph unicode="Y" horiz-adv-x="1167" d="M694 662l-116 -662h-166l116 651l-333 813h174l262 -661h2l487 661h185z" />
<glyph unicode="Z" horiz-adv-x="1126" d="M88 0v35l827 1272h-626l28 157h857v-41l-814 -1265h633l-26 -158h-879z" />
<glyph unicode="[" horiz-adv-x="573" d="M-16 -390l333 1854h361l-27 -145h-192l-283 -1563h193l-27 -146h-358z" />
<glyph unicode="\" horiz-adv-x="1174" d="M195 1464h155l633 -1464h-162z" />
<glyph unicode="]" horiz-adv-x="573" d="M-70 -390l27 146h190l283 1563h-192l26 145h361l-336 -1854h-359z" />
<glyph unicode="^" d="M928 877l-236 430l-237 -435h-142l332 592h100q39 -69 81 -143.5t84 -150t83.5 -150t79.5 -143.5h-145z" />
<glyph unicode="_" horiz-adv-x="1024" d="M1024 -268h-1024v127h1024v-127z" />
<glyph unicode="`" horiz-adv-x="377" d="M227 1112l-198 352h176l141 -352h-119z" />
<glyph unicode="a" horiz-adv-x="909" d="M637 444q-32 5 -66.5 8t-72.5 3q-79 0 -141 -22q-33 -11 -60 -29t-47 -43q-39 -48 -39 -119q0 -24 8.5 -47t25.5 -41.5t43.5 -29.5t63.5 -11q66 0 126 27t120 79zM825 655q0 -24 -2 -52.5t-8 -57.5l-55 -305q-5 -23 -7.5 -45t-2.5 -39q0 -23 6.5 -36t18.5 -19t28 -7.5 t35 -1.5l2 -2q-16 -31 -35 -51.5t-39 -33.5q-22 -14 -42.5 -19.5t-37.5 -5.5q-43 0 -70 25q-17 16 -25 39.5t-7 49.5q-24 -25 -53 -46t-64 -36t-73 -23.5t-83 -8.5q-41 0 -75 9t-62 25q-29 17 -51.5 39.5t-38.5 48.5q-19 32 -28 66.5t-9 69.5q0 52 14 94t40 77 q31 42 74 71.5t94 49.5q53 20 109 29.5t107 9.5q34 0 82 -4.5t90 -13.5q4 18 4.5 31t0.5 28q0 93 -52 138q-44 38 -125 38q-39 0 -71.5 -5.5t-61.5 -15.5q-31 -11 -58.5 -25.5t-53.5 -32.5l-35 127q29 19 66 35t79 28q40 11 80 18t76 7q96 0 166 -26t110 -83q43 -63 43 -158 z" />
<glyph unicode="b" horiz-adv-x="965" d="M260 221q2 -5 4 -15t10 -24q19 -28 54 -47.5t73 -19.5q85 0 157 43q45 26 80.5 65t61.5 88q25 48 38.5 102.5t13.5 112.5q0 42 -7.5 79.5t-24.5 69.5q-13 25 -30.5 45t-41.5 34q-25 15 -57 23.5t-71 8.5q-47 0 -96 -28.5t-84 -93.5zM924 524q0 -69 -16.5 -134t-46.5 -123 q-33 -64 -80.5 -116.5t-106.5 -90.5t-126.5 -59t-141.5 -21q-69 0 -117 27.5t-76 80.5h-2l-70 -88h-108q25 71 48 163.5t40 188.5l194 1112h166l-112 -624h2q20 18 39.5 33.5t44.5 26.5q23 11 50.5 16.5t65.5 5.5q60 0 109 -15t89 -42q37 -25 65 -59.5t48 -76.5 q42 -90 42 -205z" />
<glyph unicode="c" horiz-adv-x="797" d="M760 741q-28 22 -72.5 33.5t-95.5 11.5t-95 -13.5t-80 -39.5q-45 -30 -77 -74t-54 -97q-20 -49 -30 -101.5t-10 -106.5q0 -64 26 -118q24 -53 71 -84q45 -31 106 -31q60 0 117 16q32 9 62.5 22.5t59.5 33.5l-18 -160q-26 -11 -53.5 -20.5t-56.5 -16.5q-33 -8 -68 -12 t-70 -4q-104 0 -179 40q-39 20 -68.5 50.5t-50.5 68.5q-44 82 -44 195q0 81 16 157.5t48 144.5q32 70 80.5 126.5t112.5 94.5q51 31 112 48t131 17q133 0 208 -43z" />
<glyph unicode="d" horiz-adv-x="965" d="M752 662q-11 31 -29 54.5t-41 39.5q-21 15 -45 22.5t-47 7.5q-54 0 -99 -15t-83 -43q-43 -32 -74.5 -76t-51.5 -97q-19 -48 -28.5 -100t-9.5 -105q0 -117 51 -177q49 -58 145 -58q43 0 79.5 16.5t66.5 45.5q27 25 48 57.5t38 67.5q28 62 39 126zM655 0l-2 102h-2 q-23 -28 -49 -50t-58 -37q-72 -35 -161 -35q-49 0 -90 10.5t-75 30.5q-71 42 -107 118q-37 79 -37 180q0 84 17 163.5t49 149.5q30 66 73 119.5t100 92.5q54 37 119 57.5t141 20.5q63 0 118.5 -24t86.5 -75h2q29 164 58.5 320.5t58.5 320.5h154l-254 -1464h-142z" />
<glyph unicode="e" horiz-adv-x="930" d="M442 514q31 0 65 2.5t68 9.5q42 9 77.5 25t59.5 43q33 36 33 90q0 48 -30 73q-35 31 -115 31q-102 0 -182 -63q-38 -31 -69 -76t-52 -106q14 -8 35 -14q18 -5 45 -10t65 -5zM905 700q0 -52 -15 -94.5t-42 -76.5q-30 -38 -72 -66t-92 -46q-49 -18 -102 -27t-105 -9 q-54 0 -93.5 7.5t-65.5 16.5q-31 11 -52 23q-3 -20 -5.5 -40.5t-2.5 -37.5q0 -81 32 -136q28 -48 79 -73q52 -26 125 -26q47 0 102 19q26 9 52 23t50 31l-16 -163q-34 -11 -67 -19t-64 -14q-61 -12 -113 -12q-121 0 -200 49q-77 48 -113 140q-33 84 -33 206q0 76 18 146.5 t52 132.5q33 60 79.5 110t104.5 85q57 35 122 54t138 19q38 0 75.5 -5.5t71.5 -16.5q38 -14 70 -35.5t52 -53.5q14 -23 22 -50t8 -61z" />
<glyph unicode="f" horiz-adv-x="633" d="M813 1337q-29 11 -52.5 16t-43.5 5q-32 0 -61.5 -10.5t-53.5 -32.5q-26 -23 -44.5 -58t-27.5 -83l-51 -273h211l-16 -125h-213l-137 -835q-13 -79 -58 -141q-43 -58 -108 -95q-71 -40 -154 -49l-16 98q26 4 53 19.5t51 41.5q23 24 41 56t27 70l143 835h-129l23 125h122 l60 291q11 54 31 97t48 77q51 62 124 92q66 27 145 27q35 0 64.5 -7t54.5 -18z" />
<glyph unicode="g" horiz-adv-x="870" d="M823 643q0 -56 -15.5 -105.5t-41.5 -92.5q-28 -45 -65.5 -80.5t-80.5 -61.5q-48 -29 -99.5 -44t-102.5 -15q-30 0 -49.5 1t-31.5 3q-14 2 -22 4q-31 -14 -53 -32t-22 -44q0 -18 16.5 -30.5t50.5 -12.5q66 0 142.5 5t164.5 5q44 0 80 -10.5t61 -33.5q44 -39 44 -113 q0 -53 -17.5 -100t-48.5 -89q-36 -48 -87 -86t-113 -65t-130 -41.5t-137 -14.5q-57 0 -108 12t-91 35q-42 25 -67 62t-25 88q0 39 13 70.5t36 58.5q25 29 58 54.5t70 49.5q-14 10 -26.5 20.5t-22.5 23t-15.5 28t-5.5 35.5q0 28 10 50.5t27 42.5q20 23 48 42.5t58 38.5 q-26 17 -47 41.5t-35 53.5q-30 60 -30 130q0 51 13.5 96t36.5 87q28 49 68.5 89t88.5 68q46 27 96.5 41.5t101.5 14.5q63 0 111.5 -16t77.5 -38l92 99l71 -93l-98 -71q17 -32 34 -72t17 -88zM506 791q-31 0 -58.5 -8t-51.5 -22q-26 -17 -48 -40.5t-36 -52.5 q-29 -58 -29 -129q0 -87 44 -128q37 -34 103 -34q32 0 60 8.5t53 23.5q54 34 84 95q28 58 28 131q0 68 -33 109q-38 47 -116 47zM281 -4q-15 -5 -39.5 -22t-47.5 -42q-21 -23 -36 -51.5t-15 -60.5q0 -46 32 -74q20 -17 50.5 -26t75.5 -9q44 0 87 8t82 24q40 16 72.5 38.5 t54.5 50.5q34 43 34 94q0 23 -10 38t-25.5 24t-35 12.5t-38.5 3.5z" />
<glyph unicode="h" horiz-adv-x="965" d="M625 0l92 514q8 40 12 71.5t4 45.5q0 78 -40 118q-39 39 -118 39q-27 0 -59.5 -11t-64.5 -29q-29 -16 -55 -35.5t-44 -38.5l-119 -674h-163l256 1464h157l-108 -659q24 27 56.5 48.5t68.5 36.5q37 16 74 24t69 8q86 0 146 -36q53 -31 81 -87q29 -58 29 -137q0 -20 -3 -51 t-9 -66l-96 -545h-166z" />
<glyph unicode="i" horiz-adv-x="530" d="M412 1485q49 0 79 -35q14 -15 21.5 -35t7.5 -43q0 -48 -32 -80q-30 -32 -76 -32q-23 0 -43.5 9t-35.5 26q-14 15 -22 34.5t-8 42.5t9 43.5t24 36.5q15 15 34.5 24t41.5 9zM121 0l137 776h-78l27 125h227l-158 -901h-155z" />
<glyph unicode="j" horiz-adv-x="637" d="M532 1485q41 0 71 -27q17 -16 27.5 -38t10.5 -48t-9.5 -47.5t-26.5 -36.5q-14 -13 -33 -20.5t-40 -7.5q-24 0 -44.5 9t-35.5 26q-28 31 -28 77q0 23 8.5 43.5t22.5 35.5q15 16 34.5 25t42.5 9zM-117 -268q75 0 133 16t100 45q40 28 64.5 67t34.5 87l158 829h-80l26 125 h230l-172 -944q-13 -72 -36 -126t-56 -95q-60 -73 -157 -108q-54 -19 -116.5 -28t-136.5 -10z" />
<glyph unicode="k" horiz-adv-x="874" d="M371 401h-2l-64 -61l-57 -340h-154l250 1464h150l-154 -929h2l408 387l94 -88l-357 -338l349 -496h-183z" />
<glyph unicode="l" horiz-adv-x="555" d="M367 1464h159l-247 -1253q-5 -20 -5 -35q0 -42 23 -63t63 -21v-2q-31 -49 -65 -75q-24 -19 -47.5 -27t-46.5 -8q-42 0 -67 23q-30 29 -30 93q0 33 7 68z" />
<glyph unicode="m" horiz-adv-x="1438" d="M1102 0l96 535q2 13 4.5 27.5t4 28.5t2.5 26.5t1 21.5q0 78 -42 114q-37 33 -109 33q-28 0 -56.5 -9t-54.5 -25q-54 -32 -82 -82l-121 -670h-165l106 584q2 12 4.5 26t4 26t2.5 21.5t1 12.5q0 55 -39 85q-40 31 -118 31q-35 0 -66 -12t-57 -30q-24 -17 -43 -36.5 t-33 -37.5l-119 -670h-164l117 659q3 17 3.5 36.5t0.5 43.5q0 47 -4 85.5t-12 66.5l158 29q8 -32 12 -61.5t4 -55.5q20 29 48.5 50.5t61.5 35.5q38 17 79 25t79 8q47 0 86 -5.5t71 -19.5q70 -29 99 -96q20 29 53.5 52t72.5 39q38 15 75.5 22.5t69.5 7.5q90 0 146 -31 q50 -27 75 -75q28 -54 28 -130q0 -9 -1 -23t-2.5 -30t-4 -32t-4.5 -28l-104 -573h-164z" />
<glyph unicode="n" horiz-adv-x="946" d="M616 0l97 526q6 34 9 64.5t3 52.5q0 63 -29 98q-37 45 -123 45q-28 0 -60.5 -11t-64.5 -28q-29 -16 -54.5 -35t-43.5 -38l-119 -674h-161l120 684q7 25 7 59q0 42 -5.5 79.5t-11.5 68.5l152 31l24 -134q27 32 56.5 56t63.5 41q74 37 173 37q79 0 134 -27q50 -25 79 -74 q35 -59 35 -149q0 -22 -4.5 -57.5t-9.5 -63.5l-95 -551h-172z" />
<glyph unicode="o" horiz-adv-x="930" d="M229 342q0 -123 55 -181q48 -50 138 -50q55 0 99 19.5t79 54.5q39 38 65.5 90.5t43.5 110.5q14 48 20 95t6 92q0 117 -54 171q-47 47 -138 47q-51 0 -92.5 -17t-74.5 -46q-39 -35 -67.5 -82.5t-46.5 -101.5q-17 -51 -25 -103t-8 -99zM61 332q0 74 15 144.5t44 136.5 q30 69 74.5 126t103.5 99q56 39 122.5 61.5t144.5 22.5q116 0 194 -45q74 -42 111 -121q35 -75 35 -176q0 -70 -12.5 -139.5t-38.5 -134.5q-26 -67 -66.5 -125t-95.5 -102q-58 -47 -131 -73t-162 -26q-109 0 -186 43q-76 42 -116 127q-36 77 -36 182z" />
<glyph unicode="p" horiz-adv-x="965" d="M252 178q8 -15 26 -27t39.5 -20.5t43.5 -13t38 -4.5q65 0 116.5 15t93.5 44q41 28 71 67t50 87q42 102 42 233q0 109 -54 168q-55 61 -159 61q-29 0 -59 -8t-59 -22q-35 -17 -63 -38.5t-42 -41.5zM147 -390h-161l186 1027q6 32 8 63t2 62q0 32 -2 65.5t-8 65.5l160 27 l16 -115q21 29 53 51t68 37q35 14 70.5 21.5t64.5 7.5q124 0 203 -44q71 -40 106 -119q31 -71 31 -177q0 -145 -52 -273q-29 -69 -71.5 -128t-99.5 -103q-60 -47 -134.5 -72.5t-162.5 -25.5q-63 0 -114 18q-50 17 -83 47z" />
<glyph unicode="q" horiz-adv-x="965" d="M762 719q-31 32 -71.5 50.5t-94.5 18.5q-51 0 -94.5 -13.5t-80.5 -37.5q-48 -32 -84.5 -77.5t-59.5 -101.5q-20 -47 -29.5 -97t-9.5 -101q0 -118 62 -182q61 -63 171 -63q59 0 106.5 16t86.5 47zM561 -390l82 439q-45 -34 -105 -51q-64 -18 -147 -18q-46 0 -86 11t-75 31 q-79 46 -122 131q-40 78 -40 171q0 75 15 146.5t44 136.5q34 75 85 137t119 104q56 35 121 54.5t140 19.5q70 0 128 -30q20 -11 39 -24t36 -30h6l43 65h135q-28 -83 -45 -149.5t-25 -114.5l-188 -1029h-160z" />
<glyph unicode="r" horiz-adv-x="721" d="M705 752q-49 36 -117 36q-29 0 -56 -8.5t-52 -24.5q-32 -20 -59.5 -48.5t-47.5 -61.5q-38 -61 -49 -125l-93 -520h-161l159 901h144l2 -102h6q26 37 54 59.5t58 36.5q37 17 77.5 22t88.5 5q25 0 89 -11z" />
<glyph unicode="s" horiz-adv-x="700" d="M94 203q12 -15 37 -30t53.5 -27.5t58 -20.5t50.5 -8q36 0 68.5 10.5t56.5 31.5q23 20 36 47t13 62t-28 63t-87 61l-121 68q-26 14 -45 34t-33 43q-14 25 -22 51.5t-8 54.5q0 45 13 83t36 69t55 54.5t69 39.5q77 33 165 33q48 0 109 -16t130 -48l-71 -147q-38 35 -82.5 55 t-93.5 20q-27 0 -53.5 -7t-48.5 -21q-25 -15 -40.5 -38t-15.5 -54q0 -37 20.5 -60.5t71.5 -52.5q14 -8 36.5 -21t45.5 -26q26 -15 55 -31q56 -29 85.5 -77t29.5 -105q0 -54 -14.5 -98.5t-41.5 -80.5q-54 -72 -149 -106q-79 -28 -172 -28q-74 0 -135.5 18t-118.5 53z" />
<glyph unicode="t" horiz-adv-x="553" d="M201 776h-107l29 125h100l51 260h160l-55 -260h250l-27 -125h-248l-90 -436q-6 -28 -12 -60.5t-6 -66.5q0 -45 28 -64q17 -11 42.5 -15.5t60.5 -4.5q62 0 131 29l-6 -140q-17 -5 -36 -9.5t-42 -8.5q-26 -5 -57.5 -7.5t-71.5 -2.5q-58 0 -102 17t-72 52q-19 24 -29 56.5 t-10 74.5q0 20 6 55t14 77z" />
<glyph unicode="u" horiz-adv-x="965" d="M360 901l-106 -573q-3 -17 -3.5 -35.5t-0.5 -32.5q0 -75 42 -110q37 -31 107 -31q53 0 108 25q29 14 56 33.5t50 42.5q26 28 43 60.5t22 67.5l102 553h162l-166 -901h-141l4 129h-2q-50 -75 -136 -113q-81 -36 -194 -36q-81 0 -135 40q-23 17 -40.5 40.5t-28.5 54.5 q-17 48 -17 108q0 20 2.5 41t5.5 47l107 590h159z" />
<glyph unicode="v" horiz-adv-x="848" d="M395 -10h-51l-260 911h168l160 -618h4l342 618h182z" />
<glyph unicode="w" horiz-adv-x="1288" d="M838 -12l-164 583h-2l-355 -583h-47l-168 913h162l101 -575h2l338 583h36l162 -585h2l283 577h166l-467 -913h-49z" />
<glyph unicode="x" horiz-adv-x="868" d="M594 0l-158 317h-2l-248 -317h-192l371 467l-226 434h187l147 -313h4l223 313h213l-358 -444q62 -113 124 -228.5t122 -228.5h-207z" />
<glyph unicode="y" horiz-adv-x="854" d="M21 -231q73 1 124 9t88 30q17 10 32.5 29t29.5 43.5t26.5 52.5t22.5 55l-268 913h168l200 -692h2l302 692h174l-463 -1046q-42 -92 -94 -143q-29 -28 -61.5 -46.5t-70.5 -29.5q-45 -14 -97 -19t-115 -7v159z" />
<glyph unicode="z" horiz-adv-x="823" d="M285 143h448l-26 -143h-697v43l551 717h-463l25 141h702v-45z" />
<glyph unicode="{" horiz-adv-x="752" d="M530 1098q0 -34 3 -59.5t6.5 -47.5t6.5 -44.5t3 -51.5q0 -62 -19 -113.5t-53 -95.5q-38 -48 -90 -87t-115 -71q38 -15 71.5 -44t58.5 -67q23 -35 36 -76.5t13 -86.5t-19 -96t-41.5 -104t-41.5 -107t-19 -105q0 -71 34 -108q36 -39 115 -39h45l-14 -98h-66q-72 0 -137 21 t-108 69q-25 28 -39.5 66t-14.5 87q0 47 22.5 101t49.5 111.5t49.5 115.5t22.5 113q0 85 -35 137q-22 32 -57.5 51.5t-85.5 30.5l10 61q58 6 110.5 38t89.5 85q28 40 44 89.5t16 107.5q0 43 -4 75t-9.5 61.5t-9.5 60.5t-4 73q0 63 25 114.5t67 90.5q57 53 134.5 80.5 t156.5 27.5h68l-17 -98h-45q-48 0 -90.5 -18.5t-71.5 -58.5q-24 -32 -37.5 -79t-13.5 -112z" />
<glyph unicode="|" horiz-adv-x="1073" d="M481 -391v1855h127v-1855h-127z" />
<glyph unicode="}" horiz-adv-x="752" d="M305 1464q67 0 128.5 -18t104.5 -59q31 -29 48.5 -70t17.5 -96q0 -47 -22.5 -101t-49 -111.5t-49 -115.5t-22.5 -113q0 -83 32 -133q22 -34 58.5 -54.5t87.5 -31.5l-10 -61q-34 -4 -66.5 -17t-61.5 -34t-53 -49t-42 -63q-17 -34 -27 -73t-10 -84q0 -43 4 -75t9 -61.5 t9 -61t4 -72.5q0 -59 -21 -106.5t-57 -85.5q-57 -59 -138.5 -90t-166.5 -31h-67l16 98h45q47 0 87.5 16.5t69.5 52.5q26 32 41 81t15 118q0 34 -3 59.5t-6 47.5t-6 44.5t-3 51.5q0 60 18.5 111t50.5 94q37 49 90 89t117 72q-39 16 -72.5 45.5t-58.5 68.5q-22 35 -34.5 75.5 t-12.5 85.5t19 95.5t41.5 104t41.5 107.5t19 105q0 71 -34 108q-36 39 -116 39h-45l15 98h65z" />
<glyph unicode="~" horiz-adv-x="1073" d="M905 705q-10 -63 -31.5 -109.5t-50.5 -75.5q-45 -43 -98 -43q-48 0 -100.5 12t-101.5 27t-91 27t-70 12q-74 0 -114 -78h-76q2 51 21 98.5t53 80.5q23 23 52 36t64 13q53 0 102 -12.5t94 -27.5t86 -27.5t77 -12.5q86 0 117 80h67z" />
<glyph unicode="&#xa1;" horiz-adv-x="752" d="M442 922q28 0 52 -10.5t41 -29.5q16 -17 25 -38t9 -47q0 -28 -11 -52.5t-30 -41.5q-36 -33 -86 -33q-29 0 -54.5 12.5t-42.5 33.5q-14 17 -22 37.5t-8 43.5q0 25 8.5 46t23.5 38q17 19 41.5 30t53.5 11zM430 506q1 -111 -1 -197.5t-6 -155t-10 -123t-14 -100.5l-55 -320 h-188l55 320q8 47 20 101.5t31 123t46.5 154.5t66.5 197h55z" />
<glyph unicode="&#xa2;" horiz-adv-x="1073" d="M920 870l-35 -143q-72 66 -160 90l-168 -586q5 -2 9 -2h9q67 0 130 18t122 52l-18 -149q-31 -12 -63 -20.5t-66 -14.5q-32 -5 -64.5 -8t-66.5 -3h-29l-74 -256h-114l84 279q-49 6 -92 35.5t-75 74.5q-34 48 -53.5 104.5t-19.5 111.5q0 69 13 131.5t38 116.5 q29 61 71 109.5t99 82.5q55 33 121 50.5t144 17.5l75 256h103l-78 -269q92 -27 158 -78zM621 819q-46 -4 -84 -21.5t-69 -46.5t-54 -66.5t-37 -79.5q-13 -37 -19 -75.5t-6 -76.5q0 -30 7.5 -60t21.5 -55.5t33 -45.5t41 -30z" />
<glyph unicode="&#xa3;" horiz-adv-x="1083" d="M344 694h-180l26 150h152q0 115 13 207.5t42 163.5q50 119 151 175q98 54 253 54q35 0 76.5 -6t81.5 -17q36 -10 67 -23t51 -28l-92 -149q-36 26 -82 41q-25 8 -52 12t-56 4q-44 0 -80.5 -8t-65.5 -26q-55 -33 -85 -104q-36 -85 -36 -233v-63h213l-24 -150h-187 q0 -56 -11 -128t-31 -144t-47.5 -135.5t-61.5 -102.5q26 -16 58 -29t69 -22q77 -20 164 -20q35 0 72.5 9.5t74.5 28.5q32 17 61.5 40.5t51.5 52.5l110 -115q-28 -42 -71 -75.5t-93 -57.5q-55 -27 -110.5 -41t-99.5 -14q-57 0 -103.5 10t-90.5 22q-45 12 -90.5 22.5 t-100.5 10.5q-32 0 -73.5 -3t-92.5 -11l-29 151q6 2 28 17.5t54 44.5q37 32 69 85.5t56 116.5q24 62 37.5 126t13.5 118v43z" />
<glyph unicode="&#xa5;" d="M281 623h241l6 32l-340 809h181l268 -657h8l506 657h178l-629 -809l-6 -32h242l-21 -119h-243l-23 -127h242l-21 -119h-241l-47 -258h-172l47 258h-242l21 119h241l23 127h-240z" />
<glyph unicode="&#xa6;" horiz-adv-x="1073" d="M518 -195v721h127v-721h-127zM518 743v721h127v-721h-127z" />
<glyph unicode="&#xa7;" horiz-adv-x="930" d="M862 788q0 -75 -32 -133q-32 -60 -103 -120q90 -77 90 -179q0 -36 -8.5 -71t-22.5 -67t-33 -60.5t-39 -49.5q-30 -32 -66.5 -54.5t-78.5 -38.5q-48 -18 -100 -26.5t-109 -8.5q-109 0 -192 26q-73 23 -125 66l92 155q39 -42 99 -66q64 -26 145 -26q116 0 179 41 q33 22 55 57.5t22 79.5q0 42 -34 73q-29 28 -85 54t-143 60q-50 20 -90.5 44.5t-67.5 56.5q-20 23 -30.5 51t-10.5 63q0 38 11.5 70t31.5 59q23 31 53.5 55.5t67.5 44.5h-2q-17 12 -34 30t-30 43q-11 22 -18.5 50t-7.5 63q0 60 19.5 115.5t57.5 99.5q30 34 68.5 60t83.5 44 q89 36 184 36q45 0 91.5 -8t87.5 -22q33 -11 59.5 -25.5t42.5 -30.5l-84 -160q-37 45 -93 71q-28 13 -57.5 20t-60.5 7q-97 0 -153 -37q-32 -20 -51 -54t-19 -75t33 -73q24 -23 65 -42.5t101 -41.5q74 -29 122.5 -55.5t76.5 -56.5q42 -46 42 -114zM444 901q-1 3 -19 -5.5 t-38.5 -26t-37.5 -44t-17 -59.5q0 -40 30 -68.5t76 -48.5q17 -8 43.5 -17.5t55.5 -19.5q18 -6 40.5 -14.5t45.5 -17.5h8q26 34 44.5 73.5t18.5 79.5q0 71 -78 105q-9 5 -20.5 8t-22.5 8q-23 8 -52.5 18.5t-74.5 28.5h-2z" />
<glyph unicode="&#xa8;" horiz-adv-x="557" d="M449 1419q22 0 41.5 -10t33.5 -26q12 -14 19.5 -31t7.5 -35q0 -22 -9 -41t-24 -33q-14 -14 -32 -21.5t-37 -7.5q-20 0 -38 7t-32 18q-17 14 -27 34.5t-10 43.5q0 20 8.5 38.5t22.5 32.5t33.5 22.5t42.5 8.5zM113 1419q20 0 39 -9t33 -23t22 -32t8 -38q0 -23 -10 -42.5 t-26 -33.5q-14 -12 -31 -19.5t-35 -7.5q-23 0 -42.5 8t-33.5 22t-22.5 32.5t-8.5 40.5q0 39 27 68q14 16 35 25t45 9z" />
<glyph unicode="&#xa9;" horiz-adv-x="930" d="M205 1122q0 70 25.5 132.5t70.5 111.5q51 55 119.5 87t146.5 32q80 0 149 -32.5t120 -89.5q44 -49 69 -110.5t25 -130.5q0 -66 -23 -126t-65 -108q-51 -59 -122 -93.5t-153 -34.5q-68 0 -129 24t-109 66q-57 51 -90.5 121t-33.5 151zM870 1122q0 61 -22 114t-60 94 q-42 45 -98.5 70t-122.5 25t-123.5 -26.5t-99.5 -72.5q-38 -41 -59 -93t-21 -111q0 -67 27.5 -125t74.5 -100q41 -36 92 -57t109 -21q75 0 137.5 33t104.5 88q29 38 45 84.5t16 97.5zM707 948q-28 -28 -62 -40.5t-76 -12.5q-48 0 -83.5 18.5t-59 50t-34.5 73t-11 87.5 q0 45 12.5 86.5t37 74t60.5 52t82 19.5q77 0 115 -25l-20 -51q-30 20 -93 20q-35 0 -59.5 -16t-40 -41.5t-22.5 -58t-7 -64.5t7.5 -62.5t23.5 -54.5t41 -38.5t60 -14.5q62 0 94 43z" />
<glyph unicode="&#xaa;" horiz-adv-x="928" d="M718 1094q-28 4 -57.5 6t-61.5 2t-62.5 -4t-57.5 -13q-57 -18 -92 -59q-33 -39 -33 -97q0 -20 7 -39t22 -34t37.5 -24t53.5 -9q57 0 108 22t103 65zM879 1266q0 -20 -2 -43t-7 -47l-48 -249q-3 -19 -5.5 -37t-2.5 -32q0 -19 5.5 -29.5t15.5 -15.5t24 -6t30 -1l2 -2 q-14 -26 -30.5 -42.5t-33.5 -27.5t-34.5 -15.5t-32.5 -4.5q-38 0 -61 20q-29 29 -27 73q-20 -20 -45 -37.5t-55 -29.5q-29 -12 -62 -19t-71 -7q-35 0 -64 7.5t-53 20.5q-25 14 -44 32t-33 40q-16 26 -23.5 54.5t-7.5 56.5q0 43 12 77.5t34 63.5q26 33 63 57t81 41 q45 17 92.5 24.5t91.5 7.5q14 0 32.5 -1t38 -3t39 -4.5t37.5 -6.5q3 15 3.5 25.5t0.5 22.5q0 77 -45 113q-37 32 -106 32q-34 0 -61 -5t-53 -13t-49 -20.5t-46 -26.5l-30 104q50 30 123 52q35 9 69 14.5t65 5.5q84 0 141 -21q32 -11 54.5 -28t39.5 -40q18 -26 28 -58t10 -72 z" />
<glyph unicode="&#xab;" horiz-adv-x="1073" d="M150 391l18 111l385 274l-27 -153l-254 -183l197 -164l-25 -151zM563 391l19 111l385 274l-27 -153l-254 -183l197 -164l-25 -151z" />
<glyph unicode="&#xac;" horiz-adv-x="1073" d="M961 887v-488h-142v346h-696v142h838z" />
<glyph unicode="&#xae;" horiz-adv-x="932" d="M948 1124q0 -71 -25.5 -133.5t-70.5 -111.5q-50 -54 -119 -86.5t-147 -32.5q-72 0 -136 26t-113 72q-54 51 -85 119.5t-31 146.5q0 73 28 137.5t76 114.5q51 51 117.5 81t143.5 30q69 0 130.5 -25t109.5 -69q56 -51 89 -120t33 -149zM889 1124q0 68 -27 126t-74 100 q-41 36 -92 56.5t-110 20.5q-65 0 -121.5 -25t-98.5 -69q-39 -42 -62 -95t-23 -114q0 -64 24.5 -119.5t66.5 -97.5t96.5 -65t117.5 -23q67 0 124.5 27t99.5 73q37 41 58 93t21 112zM698 905l-114 191h-64v-191h-63v447h114q160 0 160 -125q0 -85 -86 -121l123 -201h-70z M520 1296v-147q5 0 14.5 -1t26.5 -1q27 0 47 2t33.5 10t20 23.5t6.5 42.5q0 71 -97 71h-51z" />
<glyph unicode="&#xaf;" horiz-adv-x="678" d="M-2 1235l18 129h668l-20 -129h-666z" />
<glyph unicode="&#xb0;" horiz-adv-x="672" d="M508 989q-45 0 -83 15t-69 41q-37 32 -58.5 76.5t-21.5 97.5q0 45 16 83.5t44 68.5q32 34 76.5 53.5t95.5 19.5q38 0 72 -10.5t63 -30.5q44 -30 70 -78t26 -106q0 -43 -14 -80.5t-39 -67.5q-32 -38 -78 -60t-100 -22zM508 1356q-29 0 -53.5 -10.5t-43.5 -29.5 t-29.5 -43.5t-10.5 -53.5t10.5 -53.5t28.5 -43.5q19 -19 44 -30t54 -11q60 0 97 39q19 19 29.5 44.5t10.5 54.5q0 27 -9 51t-26 42q-19 20 -45 32t-57 12z" />
<glyph unicode="&#xb1;" d="M1012 127v-127h-867v127h867zM649 700h355v-135h-355v-360h-139v360h-356v135h356v361h139v-361z" />
<glyph unicode="&#xb2;" horiz-adv-x="924" d="M881 1296q0 -31 -6.5 -60t-20.5 -58q-19 -39 -50.5 -80.5t-78.5 -91.5l-266 -283h389l-19 -105h-598l5 29l385 406q30 32 53 60.5t38.5 55.5t23 54t7.5 55q0 41 -27 66q-32 30 -95 30q-47 0 -100 -27t-93 -73l-66 84q32 32 63.5 56t66.5 40q66 31 147 31q112 0 177 -53 q31 -25 48 -59t17 -77z" />
<glyph unicode="&#xb3;" horiz-adv-x="930" d="M846 1307q0 -42 -16.5 -80.5t-42.5 -70.5t-60 -55t-70 -34q71 -23 107 -71q35 -47 35 -111q0 -52 -15 -96t-43 -79q-46 -60 -125 -92q-82 -34 -184 -34q-32 0 -63 6t-58.5 16t-50.5 24t-39 29l82 101q26 -32 63 -49t87 -17q51 0 92 13t70 40q51 48 51 134q0 57 -42 93 q-22 18 -53.5 28t-72.5 10h-11l19 102h6q101 0 151 52q42 44 42 118q0 52 -36 76q-34 22 -100 22q-42 0 -78 -12.5t-65 -38.5l-41 86q35 37 88 55q53 19 127 19q52 0 98 -13.5t80 -39.5q32 -23 50 -56t18 -75z" />
<glyph unicode="&#xb4;" horiz-adv-x="369" d="M-25 1112l250 352h176l-299 -352h-127z" />
<glyph unicode="&#xb5;" horiz-adv-x="965" d="M207 901h160l-119 -600q-11 -58 -7.5 -97t29.5 -61q30 -26 101 -26q35 0 74.5 10t77.5 28q43 20 79.5 50t56.5 67l125 629h160l-178 -901h-113l-22 121h-2q-25 -32 -56 -58t-71 -43q-32 -14 -70.5 -22t-83.5 -8q-42 0 -84 12.5t-69 34.5l-84 -427h-158z" />
<glyph unicode="&#xb6;" horiz-adv-x="1432" d="M821 -254l291 1620h-182l-291 -1620h-135l164 907q-163 0 -235 78q-61 65 -61 192q0 30 3.5 64t10.5 72q14 76 45 149.5t80 131.5q47 56 109.5 90t141.5 34h504l-310 -1718h-135z" />
<glyph unicode="&#xb7;" horiz-adv-x="752" d="M424 791q26 0 48 -8.5t41 -23.5q25 -20 39.5 -48.5t14.5 -61.5q0 -29 -12.5 -55t-32.5 -46q-20 -18 -44.5 -29t-53.5 -11q-30 0 -55.5 11.5t-45.5 31.5q-19 20 -29.5 45t-10.5 53t10.5 52.5t28.5 44.5q20 21 46 33t56 12z" />
<glyph unicode="&#xb8;" horiz-adv-x="319" d="M6 -311q52 1 95 7.5t69 25.5q15 11 23.5 26.5t8.5 37.5q0 31 -18.5 49t-58.5 18l14 98q71 0 113 -33q47 -36 47 -109q0 -54 -19 -95t-54 -68q-37 -29 -90.5 -43t-121.5 -13z" />
<glyph unicode="&#xb9;" horiz-adv-x="924" d="M770 1462l-154 -860h-135l117 651q-25 -12 -51 -26.5t-55 -28.5l-27 -13.5t-30.5 -15.5t-30 -15.5t-23.5 -12.5l20 112q44 20 88 43.5t89 51.5q48 31 83 57t66 57h43z" />
<glyph unicode="&#xba;" horiz-adv-x="940" d="M254 1004q0 69 12 132t36 117q26 60 66 107t95 79q45 26 99 40t118 14q134 0 210 -71q39 -37 60 -90.5t21 -123.5q0 -67 -10.5 -129t-32.5 -116q-23 -57 -58 -103.5t-84 -79.5q-47 -32 -104.5 -48.5t-128.5 -16.5t-128 21.5t-96 62.5q-36 37 -55.5 88.5t-19.5 116.5z M403 1014q0 -38 11 -72.5t33 -60.5t53.5 -42t70.5 -16q44 0 78.5 15.5t61.5 41.5q32 32 53.5 74.5t34.5 90.5q11 40 15.5 80t4.5 77q0 87 -35 131q-39 49 -122 49q-45 0 -80 -12.5t-63 -35.5q-32 -26 -54.5 -63t-36.5 -80q-14 -42 -19.5 -87t-5.5 -90z" />
<glyph unicode="&#xbb;" horiz-adv-x="1073" d="M104 125l25 151l254 164l-197 183l27 153l295 -274l-19 -111zM518 125l25 151l254 164l-197 183l27 153l295 -274l-19 -111z" />
<glyph unicode="&#xbc;" horiz-adv-x="1667" d="M399 602h-135l117 651q-25 -12 -51 -26.5t-54 -28.5q-12 -6 -27.5 -13.5t-30.5 -15.5t-29 -15.5t-23 -12.5l18 112q45 20 88.5 43.5t89.5 51.5q47 31 82.5 57t67.5 57h43zM332 0h-154l1161 1464h154zM1452 332h96l-16 -92h-96l-43 -240h-123l43 240h-434l12 67l614 576 h47zM1386 643l-337 -311h280z" />
<glyph unicode="&#xbd;" horiz-adv-x="1667" d="M1546 676q0 -69 -38 -136.5t-119 -152.5l-267 -283h389l-18 -104h-598l6 29l383 405q62 66 93.5 117.5t31.5 107.5q0 42 -29 68q-15 14 -38.5 21.5t-55.5 7.5q-45 0 -95 -25q-27 -14 -52 -32.5t-45 -43.5l-68 84q34 34 67.5 58.5t70.5 40.5q63 28 139 28q83 0 141 -29 q49 -25 76 -66q26 -41 26 -95zM301 0h-154l1162 1464h153zM293 602l117 651l-105 -55q-12 -6 -27.5 -13.5t-31 -15.5t-29 -15.5l-22.5 -12.5l18 112q45 20 88.5 44t89.5 53q47 29 82.5 55t67.5 57h43l-156 -860h-135z" />
<glyph unicode="&#xbe;" horiz-adv-x="1667" d="M1575 1464l-1161 -1464h-154l1161 1464h154zM737 1309q0 -38 -13 -73.5t-36 -66.5q-27 -37 -64 -64t-75 -38q68 -22 105 -70q17 -23 26.5 -51.5t9.5 -60.5q0 -50 -14.5 -92t-40.5 -77q-48 -62 -121 -95q-82 -37 -182 -37q-32 0 -64.5 6t-62 16t-53.5 24t-39 29l82 101 q52 -66 149 -66q46 0 88.5 13.5t72.5 41.5q23 22 36.5 52t13.5 69q0 58 -44 97q-23 20 -53.5 32.5t-68.5 12.5h-10l18 102h6q90 0 140.5 41.5t50.5 120.5q0 51 -36 78q-36 28 -99 28q-32 0 -70 -13t-72 -38l-41 86q47 35 106 54.5t116 19.5q52 0 97 -13t77 -38 q30 -23 47.5 -56t17.5 -75zM1438 240l-43 -240h-123l43 240h-434l12 67l614 576h47l-100 -551h96l-16 -92h-96zM1389 643l-338 -311h280z" />
<glyph unicode="&#xbf;" horiz-adv-x="752" d="M543 557q8 -23 12 -46.5t4 -45.5q0 -41 -9.5 -74.5t-26.5 -65.5q-26 -47 -67.5 -89.5t-95.5 -90.5l-67 -61q-45 -42 -74.5 -74t-45.5 -67q-19 -39 -19 -93q0 -67 49 -96q24 -14 58 -20t79 -6q49 0 97 13q29 8 56 21t50 31q11 -32 20.5 -68t20.5 -67q-60 -35 -143 -53 q-70 -15 -160 -15t-160 32q-68 30 -107 89q-16 25 -25 53.5t-9 61.5q0 39 10 75t28 70q20 36 47 69t62 64l172 148q58 49 90 112q15 29 24.5 59t14.5 62q2 7 2 17.5v25.5v29h113zM477 922q28 0 52 -10.5t41 -28.5q16 -17 25 -38.5t9 -47.5q0 -28 -11 -52t-30 -41 q-17 -16 -39 -25t-47 -9q-26 0 -49 10t-40 27t-27.5 40.5t-10.5 49.5q0 28 10.5 51.5t29.5 40.5q17 15 39 24t48 9z" />
<glyph unicode="&#xc0;" horiz-adv-x="1305" d="M791 1133h-8l-371 -693h480zM955 0l-45 315h-565l-174 -315h-191l858 1485h25l289 -1485h-197zM825 1540l-198 352h176l141 -352h-119z" />
<glyph unicode="&#xc1;" horiz-adv-x="1305" d="M791 1133h-8l-371 -693h480zM955 0l-45 315h-565l-174 -315h-191l858 1485h25l289 -1485h-197zM727 1540l250 352h176l-299 -352h-127z" />
<glyph unicode="&#xc2;" horiz-adv-x="1305" d="M791 1133h-8l-371 -693h480zM955 0l-45 315h-565l-174 -315h-191l858 1485h25l289 -1485h-197zM1042 1540l-168 223l-229 -223h-125l282 352h185l174 -352h-119z" />
<glyph unicode="&#xc3;" horiz-adv-x="1305" d="M791 1133h-8l-371 -693h480zM955 0l-45 315h-565l-174 -315h-191l858 1485h25l289 -1485h-197zM1175 1749q-47 -112 -108 -164q-54 -45 -119 -45q-40 0 -71.5 12t-58.5 27t-51.5 27t-49.5 12q-72 0 -121 -78h-88q11 39 34.5 79.5t56.5 72.5q27 26 58.5 41.5t65.5 15.5 q51 0 84 -12t58.5 -27t48 -27t52.5 -12q42 0 71.5 20t49.5 58h88z" />
<glyph unicode="&#xc4;" horiz-adv-x="1305" d="M791 1133h-8l-371 -693h480zM955 0l-45 315h-565l-174 -315h-191l858 1485h25l289 -1485h-197zM1037 1745q22 0 41.5 -10t33.5 -26q12 -14 19.5 -31t7.5 -35q0 -22 -9 -41t-24 -33q-14 -14 -32 -21.5t-37 -7.5q-20 0 -38 7t-32 18q-17 14 -27 34.5t-10 43.5 q0 20 8.5 38.5t22.5 32.5t33.5 22.5t42.5 8.5zM701 1745q20 0 39 -9t33 -23t22 -32t8 -38q0 -23 -10 -42.5t-26 -33.5q-14 -12 -31 -19.5t-35 -7.5q-23 0 -42.5 8t-33.5 22t-22.5 32.5t-8.5 40.5q0 39 27 68q14 16 35 25t45 9z" />
<glyph unicode="&#xc5;" horiz-adv-x="1305" d="M791 1133h-8l-371 -693h480zM955 0l-45 315h-565l-174 -315h-191l858 1485h25l289 -1485h-197zM870 1957q46 0 86 -18t69 -50q26 -28 41 -63.5t15 -76.5q0 -43 -15.5 -80.5t-43.5 -66.5q-29 -29 -68 -46.5t-84 -17.5q-43 0 -80.5 15.5t-66.5 43.5q-30 29 -47 68t-17 84 q0 48 20.5 88.5t54.5 69.5q28 23 63 36.5t73 13.5zM870 1648q40 0 69 27q32 29 32 74q0 20 -7 36.5t-19 29.5q-29 32 -75 32q-47 0 -77 -33q-25 -27 -25 -65q0 -44 32 -73q14 -13 32 -20.5t38 -7.5z" />
<glyph unicode="&#xc6;" horiz-adv-x="1898" d="M1083 1133h-8l-534 -693h420zM940 315h-496l-243 -315h-191l1131 1464h864l-31 -157h-686l-78 -439h492l-27 -147h-489l-101 -563h674l-26 -158h-850z" />
<glyph unicode="&#xc7;" horiz-adv-x="1143" d="M1132 1284q-20 13 -43.5 23t-52.5 16q-57 12 -133 12q-81 0 -151.5 -27t-131.5 -75q-84 -66 -146 -160t-101 -200q-29 -78 -43.5 -157t-14.5 -151q0 -112 26 -198q35 -111 113 -167q87 -63 230 -63q80 0 155 24q45 14 89 37.5t86 57.5l-15 -172q-60 -54 -152 -79 q-91 -25 -218 -25q-75 0 -137.5 15t-114.5 43q-117 63 -178 187q-32 63 -47 139t-15 162q0 136 29.5 268.5t86.5 250.5q51 105 122.5 191.5t165.5 146.5q80 51 172.5 79.5t201.5 28.5q40 0 77.5 -3.5t72.5 -9.5q67 -12 115 -30zM432 -311q52 1 95 7.5t69 25.5 q15 11 23.5 26.5t8.5 37.5q0 31 -18.5 49t-58.5 18l14 98q71 0 113 -33q47 -36 47 -109q0 -54 -19 -95t-54 -68q-37 -29 -90.5 -43t-121.5 -13z" />
<glyph unicode="&#xc8;" horiz-adv-x="1098" d="M467 1307l-78 -439h492l-27 -147h-489l-101 -563h674l-27 -158h-850l258 1464h865l-31 -157h-686zM725 1540l-198 352h176l141 -352h-119z" />
<glyph unicode="&#xc9;" horiz-adv-x="1098" d="M467 1307l-78 -439h492l-27 -147h-489l-101 -563h674l-27 -158h-850l258 1464h865l-31 -157h-686zM669 1540l250 352h176l-299 -352h-127z" />
<glyph unicode="&#xca;" horiz-adv-x="1098" d="M467 1307l-78 -439h492l-27 -147h-489l-101 -563h674l-27 -158h-850l258 1464h865l-31 -157h-686zM971 1540l-168 223l-229 -223h-125l282 352h185l174 -352h-119z" />
<glyph unicode="&#xcb;" horiz-adv-x="1098" d="M467 1307l-78 -439h492l-27 -147h-489l-101 -563h674l-27 -158h-850l258 1464h865l-31 -157h-686zM947 1745q22 0 41.5 -10t33.5 -26q12 -14 19.5 -31t7.5 -35q0 -22 -9 -41t-24 -33q-14 -14 -32 -21.5t-37 -7.5q-20 0 -38 7t-32 18q-17 14 -27 34.5t-10 43.5 q0 20 8.5 38.5t22.5 32.5t33.5 22.5t42.5 8.5zM611 1745q20 0 39 -9t33 -23t22 -32t8 -38q0 -23 -10 -42.5t-26 -33.5q-14 -12 -31 -19.5t-35 -7.5q-23 0 -42.5 8t-33.5 22t-22.5 32.5t-8.5 40.5q0 39 27 68q14 16 35 25t45 9z" />
<glyph unicode="&#xcc;" horiz-adv-x="500" d="M92 0l258 1464h170l-260 -1464h-168zM448 1540l-198 352h176l141 -352h-119z" />
<glyph unicode="&#xcd;" horiz-adv-x="500" d="M92 0l258 1464h170l-260 -1464h-168zM331 1540l250 352h176l-299 -352h-127z" />
<glyph unicode="&#xce;" horiz-adv-x="500" d="M92 0l258 1464h170l-260 -1464h-168zM651 1540l-168 223l-229 -223h-125l282 352h185l174 -352h-119z" />
<glyph unicode="&#xcf;" horiz-adv-x="500" d="M92 0l258 1464h170l-260 -1464h-168zM625 1745q22 0 41.5 -10t33.5 -26q12 -14 19.5 -31t7.5 -35q0 -22 -9 -41t-24 -33q-14 -14 -32 -21.5t-37 -7.5q-20 0 -38 7t-32 18q-17 14 -27 34.5t-10 43.5q0 20 8.5 38.5t22.5 32.5t33.5 22.5t42.5 8.5zM289 1745q20 0 39 -9 t33 -23t22 -32t8 -38q0 -23 -10 -42.5t-26 -33.5q-14 -12 -31 -19.5t-35 -7.5q-23 0 -42.5 8t-33.5 22t-22.5 32.5t-8.5 40.5q0 39 27 68q14 16 35 25t45 9z" />
<glyph unicode="&#xd0;" horiz-adv-x="1255" d="M1241 901q0 -142 -30 -265t-87 -227q-48 -87 -113 -157t-147 -122q-100 -63 -220 -96.5t-261 -33.5h-303l123 702h-168l26 160h170l107 604q60 11 118.5 17t116.5 6q99 0 185.5 -14.5t161.5 -45.5q79 -32 140.5 -83t103.5 -122q38 -64 57.5 -144t19.5 -179zM395 862h258 l-26 -160h-258l-90 -534q42 -5 76.5 -7.5t62.5 -2.5q109 0 199 30.5t163 84.5q75 56 129.5 132.5t89.5 168.5q30 78 45 163t15 176q0 66 -16.5 123t-47.5 105q-54 84 -144 133q-51 28 -111 42.5t-126 14.5q-35 0 -70.5 -3.5t-70.5 -14.5z" />
<glyph unicode="&#xd1;" horiz-adv-x="1307" d="M1022 -20l-600 1089h-8l-181 -1069h-163l258 1464h51l592 -1042h4l176 1042h164l-262 -1484h-31zM1163 1749q-47 -112 -108 -164q-54 -45 -119 -45q-40 0 -71.5 12t-58.5 27t-51.5 27t-49.5 12q-72 0 -121 -78h-88q11 39 34.5 79.5t56.5 72.5q27 26 58.5 41.5t65.5 15.5 q51 0 84 -12t58.5 -27t48 -27t52.5 -12q42 0 71.5 20t49.5 58h88z" />
<glyph unicode="&#xd2;" horiz-adv-x="1380" d="M315 563q0 -57 7 -112t24 -104t43.5 -89.5t65.5 -69.5q34 -24 77 -37.5t97 -13.5q96 0 173.5 30.5t139.5 84.5q69 60 117 140.5t80 173.5q32 91 46.5 187t14.5 187q0 126 -36 210q-37 86 -111 131q-79 48 -201 48q-75 0 -139.5 -26.5t-119.5 -72.5q-74 -63 -128.5 -152 t-89.5 -188q-30 -85 -45 -169.5t-15 -157.5zM135 535q0 119 23.5 239.5t70.5 232.5q45 105 109 194.5t149 154.5q78 60 173.5 94.5t207.5 34.5q175 0 292 -66q115 -65 169 -189q49 -110 49 -269q0 -136 -23.5 -265t-71.5 -244q-50 -118 -125.5 -213.5t-180.5 -158.5 q-79 -48 -173 -74t-206 -26q-78 0 -141.5 20t-114.5 55q-52 36 -90.5 86.5t-64.5 112.5q-26 63 -39 133.5t-13 147.5zM901 1540l-198 352h176l141 -352h-119z" />
<glyph unicode="&#xd3;" horiz-adv-x="1380" d="M315 563q0 -57 7 -112t24 -104t43.5 -89.5t65.5 -69.5q34 -24 77 -37.5t97 -13.5q96 0 173.5 30.5t139.5 84.5q69 60 117 140.5t80 173.5q32 91 46.5 187t14.5 187q0 126 -36 210q-37 86 -111 131q-79 48 -201 48q-75 0 -139.5 -26.5t-119.5 -72.5q-74 -63 -128.5 -152 t-89.5 -188q-30 -85 -45 -169.5t-15 -157.5zM135 535q0 119 23.5 239.5t70.5 232.5q45 105 109 194.5t149 154.5q78 60 173.5 94.5t207.5 34.5q175 0 292 -66q115 -65 169 -189q49 -110 49 -269q0 -136 -23.5 -265t-71.5 -244q-50 -118 -125.5 -213.5t-180.5 -158.5 q-79 -48 -173 -74t-206 -26q-78 0 -141.5 20t-114.5 55q-52 36 -90.5 86.5t-64.5 112.5q-26 63 -39 133.5t-13 147.5zM784 1540l250 352h176l-299 -352h-127z" />
<glyph unicode="&#xd4;" horiz-adv-x="1380" d="M315 563q0 -57 7 -112t24 -104t43.5 -89.5t65.5 -69.5q34 -24 77 -37.5t97 -13.5q96 0 173.5 30.5t139.5 84.5q69 60 117 140.5t80 173.5q32 91 46.5 187t14.5 187q0 126 -36 210q-37 86 -111 131q-79 48 -201 48q-75 0 -139.5 -26.5t-119.5 -72.5q-74 -63 -128.5 -152 t-89.5 -188q-30 -85 -45 -169.5t-15 -157.5zM135 535q0 119 23.5 239.5t70.5 232.5q45 105 109 194.5t149 154.5q78 60 173.5 94.5t207.5 34.5q175 0 292 -66q115 -65 169 -189q49 -110 49 -269q0 -136 -23.5 -265t-71.5 -244q-50 -118 -125.5 -213.5t-180.5 -158.5 q-79 -48 -173 -74t-206 -26q-78 0 -141.5 20t-114.5 55q-52 36 -90.5 86.5t-64.5 112.5q-26 63 -39 133.5t-13 147.5zM1092 1540l-168 223l-229 -223h-125l282 352h185l174 -352h-119z" />
<glyph unicode="&#xd5;" horiz-adv-x="1380" d="M315 563q0 -57 7 -112t24 -104t43.5 -89.5t65.5 -69.5q34 -24 77 -37.5t97 -13.5q96 0 173.5 30.5t139.5 84.5q69 60 117 140.5t80 173.5q32 91 46.5 187t14.5 187q0 126 -36 210q-37 86 -111 131q-79 48 -201 48q-75 0 -139.5 -26.5t-119.5 -72.5q-74 -63 -128.5 -152 t-89.5 -188q-30 -85 -45 -169.5t-15 -157.5zM135 535q0 119 23.5 239.5t70.5 232.5q45 105 109 194.5t149 154.5q78 60 173.5 94.5t207.5 34.5q175 0 292 -66q115 -65 169 -189q49 -110 49 -269q0 -136 -23.5 -265t-71.5 -244q-50 -118 -125.5 -213.5t-180.5 -158.5 q-79 -48 -173 -74t-206 -26q-78 0 -141.5 20t-114.5 55q-52 36 -90.5 86.5t-64.5 112.5q-26 63 -39 133.5t-13 147.5zM1249 1749q-47 -112 -108 -164q-54 -45 -119 -45q-40 0 -71.5 12t-58.5 27t-51.5 27t-49.5 12q-72 0 -121 -78h-88q11 39 34.5 79.5t56.5 72.5 q27 26 58.5 41.5t65.5 15.5q51 0 84 -12t58.5 -27t48 -27t52.5 -12q42 0 71.5 20t49.5 58h88z" />
<glyph unicode="&#xd6;" horiz-adv-x="1380" d="M315 563q0 -57 7 -112t24 -104t43.5 -89.5t65.5 -69.5q34 -24 77 -37.5t97 -13.5q96 0 173.5 30.5t139.5 84.5q69 60 117 140.5t80 173.5q32 91 46.5 187t14.5 187q0 126 -36 210q-37 86 -111 131q-79 48 -201 48q-75 0 -139.5 -26.5t-119.5 -72.5q-74 -63 -128.5 -152 t-89.5 -188q-30 -85 -45 -169.5t-15 -157.5zM135 535q0 119 23.5 239.5t70.5 232.5q45 105 109 194.5t149 154.5q78 60 173.5 94.5t207.5 34.5q175 0 292 -66q115 -65 169 -189q49 -110 49 -269q0 -136 -23.5 -265t-71.5 -244q-50 -118 -125.5 -213.5t-180.5 -158.5 q-79 -48 -173 -74t-206 -26q-78 0 -141.5 20t-114.5 55q-52 36 -90.5 86.5t-64.5 112.5q-26 63 -39 133.5t-13 147.5zM1092 1745q22 0 41.5 -10t33.5 -26q12 -14 19.5 -31t7.5 -35q0 -22 -9 -41t-24 -33q-14 -14 -32 -21.5t-37 -7.5q-20 0 -38 7t-32 18q-17 14 -27 34.5 t-10 43.5q0 20 8.5 38.5t22.5 32.5t33.5 22.5t42.5 8.5zM756 1745q20 0 39 -9t33 -23t22 -32t8 -38q0 -23 -10 -42.5t-26 -33.5q-14 -12 -31 -19.5t-35 -7.5q-23 0 -42.5 8t-33.5 22t-22.5 32.5t-8.5 40.5q0 39 27 68q14 16 35 25t45 9z" />
<glyph unicode="&#xd7;" d="M1038 967l-338 -336l334 -334l-84 -84l-334 334l-331 -334l-86 88l331 332l-333 334l84 84l333 -334l336 336z" />
<glyph unicode="&#xd8;" horiz-adv-x="1380" d="M1200 940q0 46 -4.5 87.5t-15.5 76.5l-764 -883q42 -43 100 -65q52 -19 113 -19q80 0 146.5 21.5t123.5 60.5q85 59 144.5 149.5t95.5 196.5q32 92 46.5 188t14.5 187zM315 563q0 -56 7 -109.5t22 -101.5l766 883q-42 46 -109 71q-62 23 -149 23q-73 0 -136.5 -25 t-117.5 -70q-74 -61 -129 -149t-90 -185q-32 -88 -48 -175t-16 -162zM135 535q0 109 20 219t59 214q45 117 112.5 217t160.5 171q78 60 173.5 94.5t207.5 34.5q119 0 213 -32q84 -28 146 -83l82 94h184l-178 -207q29 -57 46 -130q17 -77 17 -166q0 -140 -24.5 -272 t-75.5 -249q-50 -114 -123.5 -205.5t-175.5 -153.5q-79 -48 -174 -74.5t-207 -26.5q-45 0 -84.5 6.5t-75.5 18.5q-79 28 -139 83l-76 -88h-184l174 201q-35 61 -55 140q-23 94 -23 194z" />
<glyph unicode="&#xd9;" horiz-adv-x="1327" d="M346 1464h176l-180 -999q-3 -16 -4.5 -34t-1.5 -34q0 -42 9 -76.5t26 -63.5q35 -60 101 -91q61 -29 140 -29q100 0 179 38q81 38 135 110q57 77 75 180l183 999h170l-180 -1015q-13 -69 -40 -129.5t-66 -111.5q-42 -54 -94.5 -96.5t-115.5 -71.5t-132 -44.5t-142 -15.5 q-68 0 -130.5 13t-116.5 40q-44 22 -79.5 53.5t-59.5 73.5q-21 36 -32.5 79.5t-11.5 94.5q0 23 2.5 52t7.5 58zM850 1540l-198 352h176l141 -352h-119z" />
<glyph unicode="&#xda;" horiz-adv-x="1327" d="M346 1464h176l-180 -999q-3 -16 -4.5 -34t-1.5 -34q0 -42 9 -76.5t26 -63.5q35 -60 101 -91q61 -29 140 -29q100 0 179 38q81 38 135 110q57 77 75 180l183 999h170l-180 -1015q-13 -69 -40 -129.5t-66 -111.5q-42 -54 -94.5 -96.5t-115.5 -71.5t-132 -44.5t-142 -15.5 q-68 0 -130.5 13t-116.5 40q-44 22 -79.5 53.5t-59.5 73.5q-21 36 -32.5 79.5t-11.5 94.5q0 23 2.5 52t7.5 58zM751 1540l250 352h176l-299 -352h-127z" />
<glyph unicode="&#xdb;" horiz-adv-x="1327" d="M346 1464h176l-180 -999q-3 -16 -4.5 -34t-1.5 -34q0 -42 9 -76.5t26 -63.5q35 -60 101 -91q61 -29 140 -29q100 0 179 38q81 38 135 110q57 77 75 180l183 999h170l-180 -1015q-13 -69 -40 -129.5t-66 -111.5q-42 -54 -94.5 -96.5t-115.5 -71.5t-132 -44.5t-142 -15.5 q-68 0 -130.5 13t-116.5 40q-44 22 -79.5 53.5t-59.5 73.5q-21 36 -32.5 79.5t-11.5 94.5q0 23 2.5 52t7.5 58zM1065 1540l-168 223l-229 -223h-125l282 352h185l174 -352h-119z" />
<glyph unicode="&#xdc;" horiz-adv-x="1327" d="M346 1464h176l-180 -999q-3 -16 -4.5 -34t-1.5 -34q0 -42 9 -76.5t26 -63.5q35 -60 101 -91q61 -29 140 -29q100 0 179 38q81 38 135 110q57 77 75 180l183 999h170l-180 -1015q-13 -69 -40 -129.5t-66 -111.5q-42 -54 -94.5 -96.5t-115.5 -71.5t-132 -44.5t-142 -15.5 q-68 0 -130.5 13t-116.5 40q-44 22 -79.5 53.5t-59.5 73.5q-21 36 -32.5 79.5t-11.5 94.5q0 23 2.5 52t7.5 58zM1039 1745q22 0 41.5 -10t33.5 -26q12 -14 19.5 -31t7.5 -35q0 -22 -9 -41t-24 -33q-14 -14 -32 -21.5t-37 -7.5q-20 0 -38 7t-32 18q-17 14 -27 34.5t-10 43.5 q0 20 8.5 38.5t22.5 32.5t33.5 22.5t42.5 8.5zM703 1745q20 0 39 -9t33 -23t22 -32t8 -38q0 -23 -10 -42.5t-26 -33.5q-14 -12 -31 -19.5t-35 -7.5q-23 0 -42.5 8t-33.5 22t-22.5 32.5t-8.5 40.5q0 39 27 68q14 16 35 25t45 9z" />
<glyph unicode="&#xdd;" horiz-adv-x="1167" d="M694 662l-116 -662h-166l116 651l-333 813h174l262 -661h2l487 661h185zM641 1540l250 352h176l-299 -352h-127z" />
<glyph unicode="&#xde;" horiz-adv-x="1112" d="M338 502q37 -17 83 -25t103 -8q61 0 117.5 10t106.5 30q48 20 87 50t65 72q48 74 48 178q0 119 -55 189q-42 53 -109 76q-62 22 -149 22q-47 0 -94 -6.5t-101 -20.5zM1128 829q0 -94 -25 -169.5t-71 -135.5q-40 -53 -94 -92t-119 -65t-138 -39t-151 -13q-51 0 -104 7.5 t-115 19.5l-61 -342h-174l268 1464h162l-35 -219q31 2 62 3t51 1q193 0 316 -52q116 -49 173 -143q55 -93 55 -225z" />
<glyph unicode="&#xdf;" horiz-adv-x="1118" d="M1014 1257q0 -38 -8 -72t-23 -66q-18 -39 -45.5 -74.5t-60.5 -69.5q-23 -22 -37.5 -38.5t-14.5 -27.5q0 -14 4.5 -21t12.5 -14q10 -9 24 -22.5t30 -28.5t32.5 -30.5t29.5 -28.5q27 -27 48 -62.5t35 -75.5q26 -76 26 -155q0 -63 -15 -124t-44 -116q-25 -48 -58 -89 t-74 -73q-52 -42 -114.5 -65.5t-134.5 -23.5q-39 0 -72 4.5t-57 15.5q14 34 26 61q11 23 20 44t11 26q9 -8 24.5 -13t41.5 -5q67 0 123 31q54 30 92 82q34 48 52.5 108t18.5 129q0 38 -10.5 74t-33.5 73q-23 36 -58.5 75t-87.5 85q-26 23 -43 43t-17 49q0 15 6.5 30t17 28.5 t22.5 25.5t24 23q34 32 58.5 61t40.5 58.5t24 60t8 65.5q0 29 -9.5 54t-31.5 42q-18 14 -46 22.5t-66 8.5q-42 0 -78.5 -12.5t-66.5 -40.5q-32 -29 -54 -75.5t-33 -112.5l-199 -1157q-8 -46 -24 -83.5t-39 -67.5t-50.5 -52.5t-59.5 -39.5q-35 -19 -72 -29.5t-74 -14.5 l-16 98q30 7 56.5 23.5t48.5 39.5q26 28 43 62t24 70l204 1171q13 72 42 133t73 109q56 60 127 93q77 36 172 36q68 0 124.5 -17.5t94.5 -52.5q32 -29 49 -69.5t17 -94.5z" />
<glyph unicode="&#xe0;" horiz-adv-x="909" d="M637 444q-32 5 -66.5 8t-72.5 3q-79 0 -141 -22q-33 -11 -60 -29t-47 -43q-39 -48 -39 -119q0 -24 8.5 -47t25.5 -41.5t43.5 -29.5t63.5 -11q66 0 126 27t120 79zM825 655q0 -24 -2 -52.5t-8 -57.5l-55 -305q-5 -23 -7.5 -45t-2.5 -39q0 -23 6.5 -36t18.5 -19t28 -7.5 t35 -1.5l2 -2q-16 -31 -35 -51.5t-39 -33.5q-22 -14 -42.5 -19.5t-37.5 -5.5q-43 0 -70 25q-17 16 -25 39.5t-7 49.5q-24 -25 -53 -46t-64 -36t-73 -23.5t-83 -8.5q-41 0 -75 9t-62 25q-29 17 -51.5 39.5t-38.5 48.5q-19 32 -28 66.5t-9 69.5q0 52 14 94t40 77 q31 42 74 71.5t94 49.5q53 20 109 29.5t107 9.5q34 0 82 -4.5t90 -13.5q4 18 4.5 31t0.5 28q0 93 -52 138q-44 38 -125 38q-39 0 -71.5 -5.5t-61.5 -15.5q-31 -11 -58.5 -25.5t-53.5 -32.5l-35 127q29 19 66 35t79 28q40 11 80 18t76 7q96 0 166 -26t110 -83q43 -63 43 -158 zM559 1112l-198 352h176l141 -352h-119z" />
<glyph unicode="&#xe1;" horiz-adv-x="909" d="M637 444q-32 5 -66.5 8t-72.5 3q-79 0 -141 -22q-33 -11 -60 -29t-47 -43q-39 -48 -39 -119q0 -24 8.5 -47t25.5 -41.5t43.5 -29.5t63.5 -11q66 0 126 27t120 79zM825 655q0 -24 -2 -52.5t-8 -57.5l-55 -305q-5 -23 -7.5 -45t-2.5 -39q0 -23 6.5 -36t18.5 -19t28 -7.5 t35 -1.5l2 -2q-16 -31 -35 -51.5t-39 -33.5q-22 -14 -42.5 -19.5t-37.5 -5.5q-43 0 -70 25q-17 16 -25 39.5t-7 49.5q-24 -25 -53 -46t-64 -36t-73 -23.5t-83 -8.5q-41 0 -75 9t-62 25q-29 17 -51.5 39.5t-38.5 48.5q-19 32 -28 66.5t-9 69.5q0 52 14 94t40 77 q31 42 74 71.5t94 49.5q53 20 109 29.5t107 9.5q34 0 82 -4.5t90 -13.5q4 18 4.5 31t0.5 28q0 93 -52 138q-44 38 -125 38q-39 0 -71.5 -5.5t-61.5 -15.5q-31 -11 -58.5 -25.5t-53.5 -32.5l-35 127q29 19 66 35t79 28q40 11 80 18t76 7q96 0 166 -26t110 -83q43 -63 43 -158 zM460 1112l250 352h176l-299 -352h-127z" />
<glyph unicode="&#xe2;" horiz-adv-x="909" d="M637 444q-32 5 -66.5 8t-72.5 3q-79 0 -141 -22q-33 -11 -60 -29t-47 -43q-39 -48 -39 -119q0 -24 8.5 -47t25.5 -41.5t43.5 -29.5t63.5 -11q66 0 126 27t120 79zM825 655q0 -24 -2 -52.5t-8 -57.5l-55 -305q-5 -23 -7.5 -45t-2.5 -39q0 -23 6.5 -36t18.5 -19t28 -7.5 t35 -1.5l2 -2q-16 -31 -35 -51.5t-39 -33.5q-22 -14 -42.5 -19.5t-37.5 -5.5q-43 0 -70 25q-17 16 -25 39.5t-7 49.5q-24 -25 -53 -46t-64 -36t-73 -23.5t-83 -8.5q-41 0 -75 9t-62 25q-29 17 -51.5 39.5t-38.5 48.5q-19 32 -28 66.5t-9 69.5q0 52 14 94t40 77 q31 42 74 71.5t94 49.5q53 20 109 29.5t107 9.5q34 0 82 -4.5t90 -13.5q4 18 4.5 31t0.5 28q0 93 -52 138q-44 38 -125 38q-39 0 -71.5 -5.5t-61.5 -15.5q-31 -11 -58.5 -25.5t-53.5 -32.5l-35 127q29 19 66 35t79 28q40 11 80 18t76 7q96 0 166 -26t110 -83q43 -63 43 -158 zM739 1112l-168 223l-229 -223h-125l282 352h185l174 -352h-119z" />
<glyph unicode="&#xe3;" horiz-adv-x="909" d="M637 444q-32 5 -66.5 8t-72.5 3q-79 0 -141 -22q-33 -11 -60 -29t-47 -43q-39 -48 -39 -119q0 -24 8.5 -47t25.5 -41.5t43.5 -29.5t63.5 -11q66 0 126 27t120 79zM825 655q0 -24 -2 -52.5t-8 -57.5l-55 -305q-5 -23 -7.5 -45t-2.5 -39q0 -23 6.5 -36t18.5 -19t28 -7.5 t35 -1.5l2 -2q-16 -31 -35 -51.5t-39 -33.5q-22 -14 -42.5 -19.5t-37.5 -5.5q-43 0 -70 25q-17 16 -25 39.5t-7 49.5q-24 -25 -53 -46t-64 -36t-73 -23.5t-83 -8.5q-41 0 -75 9t-62 25q-29 17 -51.5 39.5t-38.5 48.5q-19 32 -28 66.5t-9 69.5q0 52 14 94t40 77 q31 42 74 71.5t94 49.5q53 20 109 29.5t107 9.5q34 0 82 -4.5t90 -13.5q4 18 4.5 31t0.5 28q0 93 -52 138q-44 38 -125 38q-39 0 -71.5 -5.5t-61.5 -15.5q-31 -11 -58.5 -25.5t-53.5 -32.5l-35 127q29 19 66 35t79 28q40 11 80 18t76 7q96 0 166 -26t110 -83q43 -63 43 -158 zM901 1407q-47 -112 -108 -164q-54 -45 -119 -45q-40 0 -71.5 12t-58.5 27t-51.5 27t-49.5 12q-72 0 -121 -78h-88q11 39 34.5 79.5t56.5 72.5q27 26 58.5 41.5t65.5 15.5q51 0 84 -12t58.5 -27t48 -27t52.5 -12q42 0 71.5 20t49.5 58h88z" />
<glyph unicode="&#xe4;" horiz-adv-x="909" d="M637 444q-32 5 -66.5 8t-72.5 3q-79 0 -141 -22q-33 -11 -60 -29t-47 -43q-39 -48 -39 -119q0 -24 8.5 -47t25.5 -41.5t43.5 -29.5t63.5 -11q66 0 126 27t120 79zM825 655q0 -24 -2 -52.5t-8 -57.5l-55 -305q-5 -23 -7.5 -45t-2.5 -39q0 -23 6.5 -36t18.5 -19t28 -7.5 t35 -1.5l2 -2q-16 -31 -35 -51.5t-39 -33.5q-22 -14 -42.5 -19.5t-37.5 -5.5q-43 0 -70 25q-17 16 -25 39.5t-7 49.5q-24 -25 -53 -46t-64 -36t-73 -23.5t-83 -8.5q-41 0 -75 9t-62 25q-29 17 -51.5 39.5t-38.5 48.5q-19 32 -28 66.5t-9 69.5q0 52 14 94t40 77 q31 42 74 71.5t94 49.5q53 20 109 29.5t107 9.5q34 0 82 -4.5t90 -13.5q4 18 4.5 31t0.5 28q0 93 -52 138q-44 38 -125 38q-39 0 -71.5 -5.5t-61.5 -15.5q-31 -11 -58.5 -25.5t-53.5 -32.5l-35 127q29 19 66 35t79 28q40 11 80 18t76 7q96 0 166 -26t110 -83q43 -63 43 -158 zM742 1419q22 0 41.5 -10t33.5 -26q12 -14 19.5 -31t7.5 -35q0 -22 -9 -41t-24 -33q-14 -14 -32 -21.5t-37 -7.5q-20 0 -38 7t-32 18q-17 14 -27 34.5t-10 43.5q0 20 8.5 38.5t22.5 32.5t33.5 22.5t42.5 8.5zM406 1419q20 0 39 -9t33 -23t22 -32t8 -38q0 -23 -10 -42.5 t-26 -33.5q-14 -12 -31 -19.5t-35 -7.5q-23 0 -42.5 8t-33.5 22t-22.5 32.5t-8.5 40.5q0 39 27 68q14 16 35 25t45 9z" />
<glyph unicode="&#xe5;" horiz-adv-x="909" d="M637 444q-32 5 -66.5 8t-72.5 3q-79 0 -141 -22q-33 -11 -60 -29t-47 -43q-39 -48 -39 -119q0 -24 8.5 -47t25.5 -41.5t43.5 -29.5t63.5 -11q66 0 126 27t120 79zM825 655q0 -24 -2 -52.5t-8 -57.5l-55 -305q-5 -23 -7.5 -45t-2.5 -39q0 -23 6.5 -36t18.5 -19t28 -7.5 t35 -1.5l2 -2q-16 -31 -35 -51.5t-39 -33.5q-22 -14 -42.5 -19.5t-37.5 -5.5q-43 0 -70 25q-17 16 -25 39.5t-7 49.5q-24 -25 -53 -46t-64 -36t-73 -23.5t-83 -8.5q-41 0 -75 9t-62 25q-29 17 -51.5 39.5t-38.5 48.5q-19 32 -28 66.5t-9 69.5q0 52 14 94t40 77 q31 42 74 71.5t94 49.5q53 20 109 29.5t107 9.5q34 0 82 -4.5t90 -13.5q4 18 4.5 31t0.5 28q0 93 -52 138q-44 38 -125 38q-39 0 -71.5 -5.5t-61.5 -15.5q-31 -11 -58.5 -25.5t-53.5 -32.5l-35 127q29 19 66 35t79 28q40 11 80 18t76 7q96 0 166 -26t110 -83q43 -63 43 -158 zM594 1511q46 0 86 -18t69 -50q26 -28 41 -63.5t15 -76.5q0 -43 -15.5 -80.5t-43.5 -66.5q-29 -29 -68 -46.5t-84 -17.5q-43 0 -80.5 15.5t-66.5 43.5q-30 29 -47 68t-17 84q0 48 20.5 88.5t54.5 69.5q28 23 63 36.5t73 13.5zM594 1202q40 0 69 27q32 29 32 74q0 20 -7 36.5 t-19 29.5q-29 32 -75 32q-47 0 -77 -33q-25 -27 -25 -65q0 -44 32 -73q14 -13 32 -20.5t38 -7.5z" />
<glyph unicode="&#xe6;" horiz-adv-x="1481" d="M971 514q32 0 68 3t71 11q32 7 60 18.5t50 28.5q25 19 39.5 45.5t14.5 63.5q0 104 -146 104q-99 0 -179 -60.5t-124 -184.5q14 -8 35 -14q18 -5 45.5 -10t65.5 -5zM635 236q-6 26 -8 53.5t-1 53.5q1 21 2.5 39.5t3.5 32.5q3 16 5 29q-32 5 -66.5 8t-72.5 3 q-89 0 -159 -29q-63 -26 -97 -75q-31 -46 -31 -109q0 -25 8.5 -49t27.5 -42q17 -17 43.5 -27.5t61.5 -10.5t74 10.5t78 28.5q35 17 68.5 38t62.5 46zM1434 700q0 -54 -16 -97t-45 -78t-67.5 -61t-83.5 -44q-51 -20 -106 -29.5t-110 -9.5q-54 0 -93.5 7.5t-65.5 16.5 q-31 11 -52 23q-3 -20 -6 -40.5t-3 -37.5q0 -82 32 -137q29 -51 84 -75q51 -23 120 -23q49 0 100 18q53 18 105 55l-17 -163q-32 -11 -64 -19t-62 -14q-64 -12 -117 -12q-83 0 -145 22q-46 16 -84 46q-44 35 -68 85q-22 -20 -46.5 -40.5t-52.5 -37.5q-42 -28 -97 -48 q-36 -13 -76 -20t-87 -7q-41 0 -75 9t-63 26q-32 18 -55 43.5t-39 54.5t-24 61t-8 64q0 53 14.5 95t40.5 77q30 41 72.5 69.5t91.5 48.5q54 21 110.5 31t108.5 10q34 0 82 -4.5t90 -13.5q4 18 4.5 31t0.5 28q0 42 -10 74.5t-32 55.5q-44 46 -135 46q-76 0 -135 -21 q-30 -11 -57 -25.5t-53 -32.5l-35 127q27 17 60.5 32t71.5 27q43 14 86.5 21.5t82.5 7.5q109 0 182 -33q74 -33 109 -101q66 61 145 95q44 19 92 29t101 10q38 0 74.5 -5t69.5 -16q35 -12 65.5 -31t51.5 -47q18 -24 28 -54.5t10 -68.5z" />
<glyph unicode="&#xe7;" horiz-adv-x="797" d="M760 741q-28 22 -72.5 33.5t-95.5 11.5t-95 -13.5t-80 -39.5q-45 -30 -77 -74t-54 -97q-20 -49 -30 -101.5t-10 -106.5q0 -64 26 -118q24 -53 71 -84q45 -31 106 -31q60 0 117 16q32 9 62.5 22.5t59.5 33.5l-18 -160q-26 -11 -53.5 -20.5t-56.5 -16.5q-33 -8 -68 -12 t-70 -4q-104 0 -179 40q-39 20 -68.5 50.5t-50.5 68.5q-44 82 -44 195q0 81 16 157.5t48 144.5q32 70 80.5 126.5t112.5 94.5q51 31 112 48t131 17q133 0 208 -43zM209 -311q52 1 95 7.5t69 25.5q15 11 23.5 26.5t8.5 37.5q0 31 -18.5 49t-58.5 18l14 98q71 0 113 -33 q47 -36 47 -109q0 -54 -19 -95t-54 -68q-37 -29 -90.5 -43t-121.5 -13z" />
<glyph unicode="&#xe8;" horiz-adv-x="930" d="M442 514q31 0 65 2.5t68 9.5q42 9 77.5 25t59.5 43q33 36 33 90q0 48 -30 73q-35 31 -115 31q-102 0 -182 -63q-38 -31 -69 -76t-52 -106q14 -8 35 -14q18 -5 45 -10t65 -5zM905 700q0 -52 -15 -94.5t-42 -76.5q-30 -38 -72 -66t-92 -46q-49 -18 -102 -27t-105 -9 q-54 0 -93.5 7.5t-65.5 16.5q-31 11 -52 23q-3 -20 -5.5 -40.5t-2.5 -37.5q0 -81 32 -136q28 -48 79 -73q52 -26 125 -26q47 0 102 19q26 9 52 23t50 31l-16 -163q-34 -11 -67 -19t-64 -14q-61 -12 -113 -12q-121 0 -200 49q-77 48 -113 140q-33 84 -33 206q0 76 18 146.5 t52 132.5q33 60 79.5 110t104.5 85q57 35 122 54t138 19q38 0 75.5 -5.5t71.5 -16.5q38 -14 70 -35.5t52 -53.5q14 -23 22 -50t8 -61zM604 1112l-198 352h176l141 -352h-119z" />
<glyph unicode="&#xe9;" horiz-adv-x="930" d="M442 514q31 0 65 2.5t68 9.5q42 9 77.5 25t59.5 43q33 36 33 90q0 48 -30 73q-35 31 -115 31q-102 0 -182 -63q-38 -31 -69 -76t-52 -106q14 -8 35 -14q18 -5 45 -10t65 -5zM905 700q0 -52 -15 -94.5t-42 -76.5q-30 -38 -72 -66t-92 -46q-49 -18 -102 -27t-105 -9 q-54 0 -93.5 7.5t-65.5 16.5q-31 11 -52 23q-3 -20 -5.5 -40.5t-2.5 -37.5q0 -81 32 -136q28 -48 79 -73q52 -26 125 -26q47 0 102 19q26 9 52 23t50 31l-16 -163q-34 -11 -67 -19t-64 -14q-61 -12 -113 -12q-121 0 -200 49q-77 48 -113 140q-33 84 -33 206q0 76 18 146.5 t52 132.5q33 60 79.5 110t104.5 85q57 35 122 54t138 19q38 0 75.5 -5.5t71.5 -16.5q38 -14 70 -35.5t52 -53.5q14 -23 22 -50t8 -61zM516 1112l250 352h176l-299 -352h-127z" />
<glyph unicode="&#xea;" horiz-adv-x="930" d="M442 514q31 0 65 2.5t68 9.5q42 9 77.5 25t59.5 43q33 36 33 90q0 48 -30 73q-35 31 -115 31q-102 0 -182 -63q-38 -31 -69 -76t-52 -106q14 -8 35 -14q18 -5 45 -10t65 -5zM905 700q0 -52 -15 -94.5t-42 -76.5q-30 -38 -72 -66t-92 -46q-49 -18 -102 -27t-105 -9 q-54 0 -93.5 7.5t-65.5 16.5q-31 11 -52 23q-3 -20 -5.5 -40.5t-2.5 -37.5q0 -81 32 -136q28 -48 79 -73q52 -26 125 -26q47 0 102 19q26 9 52 23t50 31l-16 -163q-34 -11 -67 -19t-64 -14q-61 -12 -113 -12q-121 0 -200 49q-77 48 -113 140q-33 84 -33 206q0 76 18 146.5 t52 132.5q33 60 79.5 110t104.5 85q57 35 122 54t138 19q38 0 75.5 -5.5t71.5 -16.5q38 -14 70 -35.5t52 -53.5q14 -23 22 -50t8 -61zM803 1112l-168 223l-229 -223h-125l282 352h185l174 -352h-119z" />
<glyph unicode="&#xeb;" horiz-adv-x="930" d="M442 514q31 0 65 2.5t68 9.5q42 9 77.5 25t59.5 43q33 36 33 90q0 48 -30 73q-35 31 -115 31q-102 0 -182 -63q-38 -31 -69 -76t-52 -106q14 -8 35 -14q18 -5 45 -10t65 -5zM905 700q0 -52 -15 -94.5t-42 -76.5q-30 -38 -72 -66t-92 -46q-49 -18 -102 -27t-105 -9 q-54 0 -93.5 7.5t-65.5 16.5q-31 11 -52 23q-3 -20 -5.5 -40.5t-2.5 -37.5q0 -81 32 -136q28 -48 79 -73q52 -26 125 -26q47 0 102 19q26 9 52 23t50 31l-16 -163q-34 -11 -67 -19t-64 -14q-61 -12 -113 -12q-121 0 -200 49q-77 48 -113 140q-33 84 -33 206q0 76 18 146.5 t52 132.5q33 60 79.5 110t104.5 85q57 35 122 54t138 19q38 0 75.5 -5.5t71.5 -16.5q38 -14 70 -35.5t52 -53.5q14 -23 22 -50t8 -61zM818 1419q22 0 41.5 -10t33.5 -26q12 -14 19.5 -31t7.5 -35q0 -22 -9 -41t-24 -33q-14 -14 -32 -21.5t-37 -7.5q-20 0 -38 7t-32 18 q-17 14 -27 34.5t-10 43.5q0 20 8.5 38.5t22.5 32.5t33.5 22.5t42.5 8.5zM482 1419q20 0 39 -9t33 -23t22 -32t8 -38q0 -23 -10 -42.5t-26 -33.5q-14 -12 -31 -19.5t-35 -7.5q-23 0 -42.5 8t-33.5 22t-22.5 32.5t-8.5 40.5q0 39 27 68q14 16 35 25t45 9z" />
<glyph unicode="&#xec;" horiz-adv-x="530" d="M117 0l135 768h-119l29 133h276l-157 -901h-164zM342 1112l-198 352h176l141 -352h-119z" />
<glyph unicode="&#xed;" horiz-adv-x="530" d="M117 0l135 768h-119l29 133h276l-157 -901h-164zM229 1112l250 352h176l-299 -352h-127z" />
<glyph unicode="&#xee;" horiz-adv-x="530" d="M117 0l135 768h-119l29 133h276l-157 -901h-164zM563 1112l-168 223l-229 -223h-125l282 352h185l174 -352h-119z" />
<glyph unicode="&#xef;" horiz-adv-x="530" d="M117 0l135 768h-119l29 133h276l-157 -901h-164zM553 1419q22 0 41.5 -10t33.5 -26q12 -14 19.5 -31t7.5 -35q0 -22 -9 -41t-24 -33q-14 -14 -32 -21.5t-37 -7.5q-20 0 -38 7t-32 18q-17 14 -27 34.5t-10 43.5q0 20 8.5 38.5t22.5 32.5t33.5 22.5t42.5 8.5zM217 1419 q20 0 39 -9t33 -23t22 -32t8 -38q0 -23 -10 -42.5t-26 -33.5q-14 -12 -31 -19.5t-35 -7.5q-23 0 -42.5 8t-33.5 22t-22.5 32.5t-8.5 40.5q0 39 27 68q14 16 35 25t45 9z" />
<glyph unicode="&#xf0;" horiz-adv-x="930" d="M901 616q0 -74 -12 -147t-37 -141q-28 -77 -71.5 -142t-103.5 -113q-56 -44 -124.5 -68.5t-153.5 -24.5q-86 0 -150 27t-106 77q-77 91 -77 246q0 94 19 172.5t53 144.5q38 73 90 126.5t112 88.5q52 30 107 45t110 15q23 0 42 -2t36 -5.5t34 -8.5t36 -11q-13 44 -31 91.5 t-38.5 93.5t-43 86.5t-45.5 70.5l-191 -92l-28 65l180 88q-32 50 -66 89.5t-71 76.5h211q14 -18 30.5 -40.5t40.5 -53.5l185 92l28 -67l-178 -86q47 -86 91.5 -181t76.5 -204q20 -72 32.5 -148t12.5 -160zM545 793q-76 0 -148 -49q-35 -24 -65.5 -59.5t-53.5 -83.5 q-25 -51 -39 -116t-14 -143q0 -56 12 -98.5t38 -71.5q50 -57 147 -57q48 0 88 15.5t74 43.5q35 29 62.5 70t47.5 90q21 54 32 115t11 124q0 54 -11 93.5t-33 66.5q-48 60 -148 60z" />
<glyph unicode="&#xf1;" horiz-adv-x="946" d="M616 0l97 526q6 34 9 64.5t3 52.5q0 63 -29 98q-37 45 -123 45q-28 0 -60.5 -11t-64.5 -28q-29 -16 -54.5 -35t-43.5 -38l-119 -674h-161l120 684q7 25 7 59q0 42 -5.5 79.5t-11.5 68.5l152 31l24 -134q27 32 56.5 56t63.5 41q74 37 173 37q79 0 134 -27q50 -25 79 -74 q35 -59 35 -149q0 -22 -4.5 -57.5t-9.5 -63.5l-95 -551h-172zM972 1407q-47 -112 -108 -164q-54 -45 -119 -45q-40 0 -71.5 12t-58.5 27t-51.5 27t-49.5 12q-72 0 -121 -78h-88q11 39 34.5 79.5t56.5 72.5q27 26 58.5 41.5t65.5 15.5q51 0 84 -12t58.5 -27t48 -27t52.5 -12 q42 0 71.5 20t49.5 58h88z" />
<glyph unicode="&#xf2;" horiz-adv-x="930" d="M229 342q0 -123 55 -181q48 -50 138 -50q55 0 99 19.5t79 54.5q39 38 65.5 90.5t43.5 110.5q14 48 20 95t6 92q0 117 -54 171q-47 47 -138 47q-51 0 -92.5 -17t-74.5 -46q-39 -35 -67.5 -82.5t-46.5 -101.5q-17 -51 -25 -103t-8 -99zM61 332q0 74 15 144.5t44 136.5 q30 69 74.5 126t103.5 99q56 39 122.5 61.5t144.5 22.5q116 0 194 -45q74 -42 111 -121q35 -75 35 -176q0 -70 -12.5 -139.5t-38.5 -134.5q-26 -67 -66.5 -125t-95.5 -102q-58 -47 -131 -73t-162 -26q-109 0 -186 43q-76 42 -116 127q-36 77 -36 182zM600 1112l-198 352h176 l141 -352h-119z" />
<glyph unicode="&#xf3;" horiz-adv-x="930" d="M229 342q0 -123 55 -181q48 -50 138 -50q55 0 99 19.5t79 54.5q39 38 65.5 90.5t43.5 110.5q14 48 20 95t6 92q0 117 -54 171q-47 47 -138 47q-51 0 -92.5 -17t-74.5 -46q-39 -35 -67.5 -82.5t-46.5 -101.5q-17 -51 -25 -103t-8 -99zM61 332q0 74 15 144.5t44 136.5 q30 69 74.5 126t103.5 99q56 39 122.5 61.5t144.5 22.5q116 0 194 -45q74 -42 111 -121q35 -75 35 -176q0 -70 -12.5 -139.5t-38.5 -134.5q-26 -67 -66.5 -125t-95.5 -102q-58 -47 -131 -73t-162 -26q-109 0 -186 43q-76 42 -116 127q-36 77 -36 182zM518 1112l250 352h176 l-299 -352h-127z" />
<glyph unicode="&#xf4;" horiz-adv-x="930" d="M229 342q0 -123 55 -181q48 -50 138 -50q55 0 99 19.5t79 54.5q39 38 65.5 90.5t43.5 110.5q14 48 20 95t6 92q0 117 -54 171q-47 47 -138 47q-51 0 -92.5 -17t-74.5 -46q-39 -35 -67.5 -82.5t-46.5 -101.5q-17 -51 -25 -103t-8 -99zM61 332q0 74 15 144.5t44 136.5 q30 69 74.5 126t103.5 99q56 39 122.5 61.5t144.5 22.5q116 0 194 -45q74 -42 111 -121q35 -75 35 -176q0 -70 -12.5 -139.5t-38.5 -134.5q-26 -67 -66.5 -125t-95.5 -102q-58 -47 -131 -73t-162 -26q-109 0 -186 43q-76 42 -116 127q-36 77 -36 182zM790 1112l-168 223 l-229 -223h-125l282 352h185l174 -352h-119z" />
<glyph unicode="&#xf5;" horiz-adv-x="930" d="M229 342q0 -123 55 -181q48 -50 138 -50q55 0 99 19.5t79 54.5q39 38 65.5 90.5t43.5 110.5q14 48 20 95t6 92q0 117 -54 171q-47 47 -138 47q-51 0 -92.5 -17t-74.5 -46q-39 -35 -67.5 -82.5t-46.5 -101.5q-17 -51 -25 -103t-8 -99zM61 332q0 74 15 144.5t44 136.5 q30 69 74.5 126t103.5 99q56 39 122.5 61.5t144.5 22.5q116 0 194 -45q74 -42 111 -121q35 -75 35 -176q0 -70 -12.5 -139.5t-38.5 -134.5q-26 -67 -66.5 -125t-95.5 -102q-58 -47 -131 -73t-162 -26q-109 0 -186 43q-76 42 -116 127q-36 77 -36 182zM946 1407 q-47 -112 -108 -164q-54 -45 -119 -45q-40 0 -71.5 12t-58.5 27t-51.5 27t-49.5 12q-72 0 -121 -78h-88q11 39 34.5 79.5t56.5 72.5q27 26 58.5 41.5t65.5 15.5q51 0 84 -12t58.5 -27t48 -27t52.5 -12q42 0 71.5 20t49.5 58h88z" />
<glyph unicode="&#xf6;" horiz-adv-x="930" d="M229 342q0 -123 55 -181q48 -50 138 -50q55 0 99 19.5t79 54.5q39 38 65.5 90.5t43.5 110.5q14 48 20 95t6 92q0 117 -54 171q-47 47 -138 47q-51 0 -92.5 -17t-74.5 -46q-39 -35 -67.5 -82.5t-46.5 -101.5q-17 -51 -25 -103t-8 -99zM61 332q0 74 15 144.5t44 136.5 q30 69 74.5 126t103.5 99q56 39 122.5 61.5t144.5 22.5q116 0 194 -45q74 -42 111 -121q35 -75 35 -176q0 -70 -12.5 -139.5t-38.5 -134.5q-26 -67 -66.5 -125t-95.5 -102q-58 -47 -131 -73t-162 -26q-109 0 -186 43q-76 42 -116 127q-36 77 -36 182zM789 1419 q22 0 41.5 -10t33.5 -26q12 -14 19.5 -31t7.5 -35q0 -22 -9 -41t-24 -33q-14 -14 -32 -21.5t-37 -7.5q-20 0 -38 7t-32 18q-17 14 -27 34.5t-10 43.5q0 20 8.5 38.5t22.5 32.5t33.5 22.5t42.5 8.5zM453 1419q20 0 39 -9t33 -23t22 -32t8 -38q0 -23 -10 -42.5t-26 -33.5 q-14 -12 -31 -19.5t-35 -7.5q-23 0 -42.5 8t-33.5 22t-22.5 32.5t-8.5 40.5q0 39 27 68q14 16 35 25t45 9z" />
<glyph unicode="&#xf7;" d="M604 1053q46 0 76 -32q14 -14 21.5 -32.5t7.5 -40.5q0 -23 -9.5 -43.5t-26.5 -34.5q-14 -12 -31.5 -19t-37.5 -7q-23 0 -43 9t-34 24q-14 14 -21.5 32.5t-7.5 38.5q0 47 31 76q14 14 33 21.5t42 7.5zM604 422q22 0 40.5 -7.5t32.5 -21.5t23 -33.5t9 -42.5q0 -45 -32 -75 q-14 -14 -33 -21.5t-40 -7.5q-41 0 -69 25q-17 14 -27 35t-10 44q0 45 30 75t76 30zM1028 692v-119h-850v119h850z" />
<glyph unicode="&#xf8;" horiz-adv-x="1024" d="M737 573q0 38 -6 68l-422 -500q45 -26 113 -26q48 0 87 14.5t71 40.5q42 33 71 80.5t49 101.5t28.5 111t8.5 110zM225 342q0 -60 13 -100l432 514q-25 18 -56 27.5t-71 9.5q-50 0 -91 -17t-75 -46q-38 -33 -66 -78.5t-47 -96.5q-20 -54 -29.5 -108.5t-9.5 -104.5z M123 106q-27 44 -42 99q-15 57 -15 127q0 78 16.5 152.5t48.5 142.5q33 70 81 127.5t111 97.5q52 33 112.5 51.5t129.5 18.5q62 0 112.5 -13.5t88.5 -38.5l43 52h158l-115 -138q24 -39 36 -88q13 -51 13 -116q0 -69 -13.5 -138.5t-39.5 -133.5q-29 -72 -72.5 -132.5 t-103.5 -105.5q-56 -42 -124 -66t-149 -24q-57 0 -103.5 11.5t-84.5 33.5l-37 -45h-158z" />
<glyph unicode="&#xf9;" horiz-adv-x="965" d="M360 901l-106 -573q-3 -17 -3.5 -35.5t-0.5 -32.5q0 -75 42 -110q37 -31 107 -31q53 0 108 25q29 14 56 33.5t50 42.5q26 28 43 60.5t22 67.5l102 553h162l-166 -901h-141l4 129h-2q-50 -75 -136 -113q-81 -36 -194 -36q-81 0 -135 40q-23 17 -40.5 40.5t-28.5 54.5 q-17 48 -17 108q0 20 2.5 41t5.5 47l107 590h159zM604 1112l-198 352h176l141 -352h-119z" />
<glyph unicode="&#xfa;" horiz-adv-x="965" d="M360 901l-106 -573q-3 -17 -3.5 -35.5t-0.5 -32.5q0 -75 42 -110q37 -31 107 -31q53 0 108 25q29 14 56 33.5t50 42.5q26 28 43 60.5t22 67.5l102 553h162l-166 -901h-141l4 129h-2q-50 -75 -136 -113q-81 -36 -194 -36q-81 0 -135 40q-23 17 -40.5 40.5t-28.5 54.5 q-17 48 -17 108q0 20 2.5 41t5.5 47l107 590h159zM510 1112l250 352h176l-299 -352h-127z" />
<glyph unicode="&#xfb;" horiz-adv-x="965" d="M360 901l-106 -573q-3 -17 -3.5 -35.5t-0.5 -32.5q0 -75 42 -110q37 -31 107 -31q53 0 108 25q29 14 56 33.5t50 42.5q26 28 43 60.5t22 67.5l102 553h162l-166 -901h-141l4 129h-2q-50 -75 -136 -113q-81 -36 -194 -36q-81 0 -135 40q-23 17 -40.5 40.5t-28.5 54.5 q-17 48 -17 108q0 20 2.5 41t5.5 47l107 590h159zM801 1112l-168 223l-229 -223h-125l282 352h185l174 -352h-119z" />
<glyph unicode="&#xfc;" horiz-adv-x="965" d="M360 901l-106 -573q-3 -17 -3.5 -35.5t-0.5 -32.5q0 -75 42 -110q37 -31 107 -31q53 0 108 25q29 14 56 33.5t50 42.5q26 28 43 60.5t22 67.5l102 553h162l-166 -901h-141l4 129h-2q-50 -75 -136 -113q-81 -36 -194 -36q-81 0 -135 40q-23 17 -40.5 40.5t-28.5 54.5 q-17 48 -17 108q0 20 2.5 41t5.5 47l107 590h159zM783 1419q22 0 41.5 -10t33.5 -26q12 -14 19.5 -31t7.5 -35q0 -22 -9 -41t-24 -33q-14 -14 -32 -21.5t-37 -7.5q-20 0 -38 7t-32 18q-17 14 -27 34.5t-10 43.5q0 20 8.5 38.5t22.5 32.5t33.5 22.5t42.5 8.5zM447 1419 q20 0 39 -9t33 -23t22 -32t8 -38q0 -23 -10 -42.5t-26 -33.5q-14 -12 -31 -19.5t-35 -7.5q-23 0 -42.5 8t-33.5 22t-22.5 32.5t-8.5 40.5q0 39 27 68q14 16 35 25t45 9z" />
<glyph unicode="&#xfd;" horiz-adv-x="854" d="M21 -231q73 1 124 9t88 30q17 10 32.5 29t29.5 43.5t26.5 52.5t22.5 55l-268 913h168l200 -692h2l302 692h174l-463 -1046q-42 -92 -94 -143q-29 -28 -61.5 -46.5t-70.5 -29.5q-45 -14 -97 -19t-115 -7v159zM393 1112l250 352h176l-299 -352h-127z" />
<glyph unicode="&#xfe;" horiz-adv-x="965" d="M233 178q9 -15 28.5 -26.5t43 -19.5t47 -12.5t39.5 -4.5q62 0 112 14t91 40q45 29 77 70.5t53 93.5q20 51 30 108t10 120q0 116 -63 171q-56 50 -166 50q-21 0 -51.5 -9t-62.5 -23q-34 -15 -62.5 -34t-41.5 -38zM928 582q0 -76 -14.5 -148.5t-42.5 -138.5t-69.5 -122 t-96.5 -98q-59 -45 -131.5 -70t-159.5 -25q-17 0 -45.5 4t-59.5 13q-29 8 -55 19.5t-43 28.5l-74 -435h-151l313 1854h152l-113 -663q19 23 47 43t60 35q38 18 77.5 28.5t71.5 10.5q122 0 199 -44q71 -41 104 -117q31 -71 31 -175z" />
<glyph unicode="&#xff;" horiz-adv-x="854" d="M21 -231q73 1 124 9t88 30q17 10 32.5 29t29.5 43.5t26.5 52.5t22.5 55l-268 913h168l200 -692h2l302 692h174l-463 -1046q-42 -92 -94 -143q-29 -28 -61.5 -46.5t-70.5 -29.5q-45 -14 -97 -19t-115 -7v159zM685 1419q22 0 41.5 -10t33.5 -26q12 -14 19.5 -31t7.5 -35 q0 -22 -9 -41t-24 -33q-14 -14 -32 -21.5t-37 -7.5q-20 0 -38 7t-32 18q-17 14 -27 34.5t-10 43.5q0 20 8.5 38.5t22.5 32.5t33.5 22.5t42.5 8.5zM349 1419q20 0 39 -9t33 -23t22 -32t8 -38q0 -23 -10 -42.5t-26 -33.5q-14 -12 -31 -19.5t-35 -7.5q-23 0 -42.5 8t-33.5 22 t-22.5 32.5t-8.5 40.5q0 39 27 68q14 16 35 25t45 9z" />
<glyph unicode="&#x131;" horiz-adv-x="530" d="M117 0l135 768h-119l29 133h276l-157 -901h-164z" />
<glyph unicode="&#x141;" horiz-adv-x="1036" d="M944 0h-844l121 690l-168 -61v141l195 74l110 620h172l-96 -546l244 90v-142l-272 -104l-107 -604h670z" />
<glyph unicode="&#x142;" horiz-adv-x="555" d="M608 983v-141l-221 -84l-108 -547q-5 -20 -5 -35q0 -42 23 -63t63 -21v-2q-38 -60 -79.5 -85t-79.5 -25q-40 0 -64 21q-33 30 -33 95q0 33 7 68l102 528l-164 -63v141l195 74l123 620h159l-110 -555z" />
<glyph unicode="&#x152;" horiz-adv-x="1823" d="M1909 1464l-31 -157h-686l-78 -439h492l-27 -147h-489l-101 -563h674l-27 -158h-850q-45 -9 -91 -14.5t-97 -5.5q-73 0 -133.5 17.5t-110.5 49.5q-56 36 -97 87t-68 115q-27 63 -40.5 135.5t-13.5 150.5q0 115 21.5 232t66.5 226q42 105 104.5 195t144.5 157 q81 66 179.5 103t216.5 37q48 0 92 -5.5t84 -15.5h865zM315 563q0 -54 6.5 -106.5t21.5 -100.5q17 -52 43.5 -95t67.5 -72q34 -25 77 -38.5t98 -13.5q52 0 98.5 9.5t89.5 27.5l199 1126q-72 29 -164 29q-78 0 -143.5 -28.5t-121.5 -76.5q-70 -62 -122 -147.5t-87 -180.5 q-32 -87 -47.5 -173t-15.5 -160z" />
<glyph unicode="&#x153;" horiz-adv-x="1550" d="M889 428q-3 -20 -5.5 -40.5t-2.5 -37.5q0 -72 27 -123q27 -52 81 -80q55 -28 135 -28q100 0 197 69l-16 -161q-69 -22 -127 -34.5t-109 -12.5q-101 0 -174 35q-91 43 -135 143q-31 -39 -67.5 -71t-80.5 -55q-47 -25 -100 -38.5t-113 -13.5q-107 0 -184 43 q-68 38 -106 110q-43 83 -43 199q0 78 17 154t50 145q34 70 83 128t112 97q51 32 110 49t127 17q123 0 202 -51q65 -42 99 -115q52 58 118 97q53 32 115 50q32 10 67 14.5t71 4.5q44 0 85.5 -7t77.5 -22q31 -14 56 -33t42 -47q30 -47 30 -113q0 -54 -17 -98.5t-46 -79.5 t-68.5 -60t-84.5 -42q-51 -19 -104.5 -28t-107.5 -9q-60 0 -111 11t-94 34h-6zM225 342q0 -108 46 -166q49 -61 151 -61q48 0 88 15t72 42q38 31 66 74.5t47 94.5q21 57 31.5 117t10.5 115q0 103 -44 159q-48 61 -150 61q-46 0 -84.5 -14t-70.5 -39q-41 -32 -71 -77t-50 -97 q-22 -56 -32 -114t-10 -110zM922 543q31 -13 68.5 -20t82.5 -7q29 0 61 2.5t64 8.5q38 7 72 20t59 34q22 19 34.5 44t12.5 59q0 53 -37.5 78.5t-109.5 25.5q-51 0 -91 -12t-72 -32q-38 -24 -64 -54.5t-43 -59.5q-10 -17 -17 -33t-12 -28q-5 -14 -8 -26z" />
<glyph unicode="&#x160;" horiz-adv-x="985" d="M162 209q26 -18 63 -31t77 -22q39 -8 77 -12.5t70 -4.5q82 0 145 27q34 14 60.5 35.5t44.5 51.5q14 25 22 55t8 65q0 48 -14.5 85.5t-40.5 70.5q-31 40 -75 75.5t-95 75.5q-48 38 -81.5 64.5t-57.5 47.5t-41 39t-33 39q-28 42 -47 91.5t-19 111.5t13.5 114t38.5 97 q29 50 70.5 87.5t94.5 63.5q102 50 232 50q108 0 178 -9q35 -5 60.5 -11.5t43.5 -14.5q-6 -25 -13 -47t-15 -45q-6 -19 -11.5 -36t-11.5 -36q-21 11 -48 19t-55.5 13.5t-56 8t-47.5 2.5q-51 0 -93.5 -7t-76.5 -22q-60 -26 -92 -77q-30 -48 -30 -121q0 -47 22 -93.5t66 -84.5 q20 -17 64 -51t106 -80q61 -46 110 -93.5t81 -104.5q26 -45 40 -96.5t14 -113.5q0 -63 -14.5 -115.5t-40.5 -95.5q-29 -48 -71 -83t-94 -59q-57 -26 -124 -39t-139 -13q-33 0 -76.5 5t-88.5 14q-42 8 -81.5 19t-68.5 25zM1081 1892l-285 -352h-184l-174 352h119l168 -223 l229 223h127z" />
<glyph unicode="&#x161;" horiz-adv-x="700" d="M94 203q12 -15 37 -30t53.5 -27.5t58 -20.5t50.5 -8q36 0 68.5 10.5t56.5 31.5q23 20 36 47t13 62t-28 63t-87 61l-121 68q-26 14 -45 34t-33 43q-14 25 -22 51.5t-8 54.5q0 45 13 83t36 69t55 54.5t69 39.5q77 33 165 33q48 0 109 -16t130 -48l-71 -147q-38 35 -82.5 55 t-93.5 20q-27 0 -53.5 -7t-48.5 -21q-25 -15 -40.5 -38t-15.5 -54q0 -37 20.5 -60.5t71.5 -52.5q14 -8 36.5 -21t45.5 -26q26 -15 55 -31q56 -29 85.5 -77t29.5 -105q0 -54 -14.5 -98.5t-41.5 -80.5q-54 -72 -149 -106q-79 -28 -172 -28q-74 0 -135.5 18t-118.5 53z M844 1464l-285 -352h-184l-174 352h119l168 -223l229 223h127z" />
<glyph unicode="&#x178;" horiz-adv-x="1167" d="M694 662l-116 -662h-166l116 651l-333 813h174l262 -661h2l487 661h185zM928 1745q22 0 41.5 -10t33.5 -26q12 -14 19.5 -31t7.5 -35q0 -22 -9 -41t-24 -33q-14 -14 -32 -21.5t-37 -7.5q-20 0 -38 7t-32 18q-17 14 -27 34.5t-10 43.5q0 20 8.5 38.5t22.5 32.5t33.5 22.5 t42.5 8.5zM592 1745q20 0 39 -9t33 -23t22 -32t8 -38q0 -23 -10 -42.5t-26 -33.5q-14 -12 -31 -19.5t-35 -7.5q-23 0 -42.5 8t-33.5 22t-22.5 32.5t-8.5 40.5q0 39 27 68q14 16 35 25t45 9z" />
<glyph unicode="&#x17d;" horiz-adv-x="1126" d="M88 0v35l827 1272h-626l28 157h857v-41l-814 -1265h633l-26 -158h-879zM1124 1892l-285 -352h-184l-174 352h119l168 -223l229 223h127z" />
<glyph unicode="&#x17e;" horiz-adv-x="823" d="M285 143h448l-26 -143h-697v43l551 717h-463l25 141h702v-45zM868 1464l-285 -352h-184l-174 352h119l168 -223l229 223h127z" />
<glyph unicode="&#x192;" horiz-adv-x="821" d="M840 1335q-32 13 -57 18t-44 5q-72 0 -118 -52q-41 -44 -64 -132q-1 -5 -5 -25.5t-9 -49t-11.5 -61t-11.5 -61.5t-9 -50t-5 -26h211l-15 -108h-213l-139 -852q-7 -45 -24.5 -82t-43.5 -69q-20 -25 -45 -45t-54 -37q-74 -41 -160 -52l-17 98q30 5 60.5 21t55.5 45 q20 23 35 53t21 68l146 852h-129l20 108h123q2 7 6 30t10 53t12.5 64t13 64t11 52t6.5 28q19 100 71 167q52 68 133 100q34 14 71 20t78 6q37 0 67.5 -7t54.5 -18z" />
<glyph unicode="&#x2c6;" horiz-adv-x="682" d="M514 1112l-168 223l-229 -223h-125l282 352h185l174 -352h-119z" />
<glyph unicode="&#x2c7;" horiz-adv-x="680" d="M688 1464l-285 -352h-184l-174 352h119l168 -223l229 223h127z" />
<glyph unicode="&#x2d8;" horiz-adv-x="670" d="M692 1454q-11 -69 -50 -130t-96 -106q-54 -42 -118 -66t-131 -24q-72 0 -126 24.5t-89 67.5q-36 45 -50 104.5t-3 129.5h141q-6 -39 3.5 -70.5t31.5 -54.5q21 -21 51 -33t66 -12q38 0 73.5 10.5t65.5 30.5q35 23 58 55t30 74h143z" />
<glyph unicode="&#x2d9;" horiz-adv-x="252" d="M125 1419q23 0 43.5 -9t37.5 -24q17 -16 27.5 -37.5t10.5 -45.5t-9 -45.5t-25 -37.5q-17 -17 -38.5 -26.5t-46.5 -9.5q-24 0 -45.5 9.5t-37.5 26.5t-25 38t-9 45q0 51 35 84q16 15 37 23.5t45 8.5z" />
<glyph unicode="&#x2da;" horiz-adv-x="446" d="M225 1511q46 0 86 -18t69 -50q26 -28 41 -63.5t15 -76.5q0 -43 -15.5 -80.5t-43.5 -66.5q-29 -29 -68 -46.5t-84 -17.5q-43 0 -80.5 15.5t-66.5 43.5q-30 29 -47 68t-17 84q0 48 20.5 88.5t54.5 69.5q28 23 63 36.5t73 13.5zM225 1202q40 0 69 27q32 29 32 74 q0 20 -7 36.5t-19 29.5q-29 32 -75 32q-47 0 -77 -33q-25 -27 -25 -65q0 -44 32 -73q14 -13 32 -20.5t38 -7.5z" />
<glyph unicode="&#x2db;" horiz-adv-x="465" d="M420 -375q-23 -8 -45 -13.5t-43 -10.5q-25 -5 -48 -8t-46 -3q-51 0 -94.5 14.5t-75.5 42.5q-30 27 -47 64.5t-17 85.5q0 100 59 177q32 43 80.5 80t112.5 71l33 -162q-32 -16 -54 -30.5t-37 -31.5q-29 -32 -29 -81q0 -20 9 -36t22.5 -26.5t30.5 -16t33 -5.5q58 0 113 31z " />
<glyph unicode="&#x2dc;" horiz-adv-x="639" d="M653 1407q-47 -112 -108 -164q-54 -45 -119 -45q-40 0 -71.5 12t-58.5 27t-51.5 27t-49.5 12q-72 0 -121 -78h-88q11 39 34.5 79.5t56.5 72.5q27 26 58.5 41.5t65.5 15.5q51 0 84 -12t58.5 -27t48 -27t52.5 -12q42 0 71.5 20t49.5 58h88z" />
<glyph unicode="&#x2dd;" horiz-adv-x="678" d="M-25 1112l250 352h176l-299 -352h-127zM274 1112l252 352h176l-299 -352h-129z" />
<glyph unicode="&#x2013;" horiz-adv-x="752" d="M57 399l27 160h645l-27 -160h-645z" />
<glyph unicode="&#x2014;" horiz-adv-x="1503" d="M41 399l27 160h1396l-26 -160h-1397z" />
<glyph unicode="&#x2018;" horiz-adv-x="752" d="M672 1440q-43 -34 -73 -62.5t-49.5 -54t-29.5 -50t-14 -50.5q-2 -8 -2 -14.5v-14.5q0 -37 18 -72q66 -37 66 -92q0 -57 -37 -92q-18 -17 -43.5 -27t-56.5 -10q-29 0 -51 9t-37 25q-19 20 -28 47.5t-9 57.5q0 54 11.5 101t32.5 89q41 81 111.5 144t161.5 117z" />
<glyph unicode="&#x2019;" horiz-adv-x="752" d="M301 952q43 34 73 62.5t49.5 54t29.5 50t14 50.5q2 8 2 14.5v14.5q0 38 -18 72q-66 37 -66 92q0 57 39 93q18 17 43 26.5t55 9.5q32 0 55.5 -10.5t38.5 -29.5q17 -20 24 -45.5t7 -53.5q0 -57 -12.5 -105.5t-35.5 -92.5q-42 -78 -111.5 -139t-157.5 -114z" />
<glyph unicode="&#x201a;" horiz-adv-x="752" d="M109 -279q43 34 72.5 62.5t49 54.5t29.5 50.5t14 50.5q2 8 2 14v14q0 38 -18 72q-65 36 -65 92t38 92q18 17 43 27t56 10q32 0 55 -10.5t38 -28.5q17 -20 24.5 -45.5t7.5 -54.5q0 -55 -11.5 -102.5t-33.5 -89.5q-41 -81 -112 -143t-161 -116z" />
<glyph unicode="&#x201c;" horiz-adv-x="1073" d="M1040 1440q-43 -34 -72.5 -62.5t-49 -54t-30 -50t-14.5 -50.5q-2 -8 -2 -14.5v-14.5q0 -36 19 -72q65 -36 65 -92t-38 -92q-18 -17 -43 -27t-56 -10q-32 0 -55 11t-38 29q-17 20 -24.5 45.5t-7.5 53.5q0 41 6.5 77.5t18.5 69.5q18 49 46.5 91t66.5 79.5t83.5 70.5 t96.5 63zM672 1440q-43 -34 -73 -62.5t-49.5 -54t-29.5 -50t-14 -50.5q-2 -8 -2 -14.5v-14.5q0 -37 18 -72q66 -37 66 -92q0 -60 -42 -96q-38 -33 -95 -33q-30 0 -52.5 9t-37.5 26q-19 20 -27 47.5t-8 56.5q0 78 24 144q18 49 46.5 91.5t66.5 80t83.5 71t96.5 64.5z" />
<glyph unicode="&#x201d;" horiz-adv-x="1073" d="M274 952q43 34 73 62.5t49.5 54t29.5 50t14 50.5q2 8 2 14.5v14.5q0 38 -18 72q-66 37 -66 92q0 27 10 50.5t27 40.5q38 38 101 38q33 0 57 -11.5t39 -31.5t22 -44.5t7 -51.5q0 -54 -11 -99.5t-31 -87.5q-41 -82 -113 -146t-163 -118zM643 952q43 34 73 62.5t49.5 54 t29.5 50t14 50.5q2 8 2 14.5v14.5q0 38 -18 72q-66 37 -66 92q0 57 39 93q18 17 43 26.5t55 9.5q33 0 57 -11.5t39 -31.5t22 -44.5t7 -51.5q0 -58 -13 -107.5t-37 -94.5q-42 -77 -111 -137t-156 -112z" />
<glyph unicode="&#x201e;" horiz-adv-x="1073" d="M109 -279q43 34 72.5 62.5t49 54.5t29.5 50.5t14 50.5q2 8 2 14v14q0 38 -18 72q-65 36 -65 92q0 49 30 84q18 21 45 33t62 12q29 0 51 -9t37 -25q19 -20 28 -47.5t9 -57.5q0 -54 -11.5 -101t-32.5 -89q-41 -81 -112 -144t-162 -117zM477 -279q43 34 73 62.5t49.5 54.5 t29.5 50.5t14 50.5q2 8 2 14v14q0 38 -18 72q-66 37 -66 92q0 60 41 96q38 33 96 33q32 0 55.5 -11t38.5 -29q17 -20 24 -45.5t7 -53.5q0 -55 -11.5 -102.5t-32.5 -89.5q-41 -81 -112 -143t-161 -116z" />
<glyph unicode="&#x2020;" horiz-adv-x="1004" d="M535 1028h-377v117h377v319h133v-319h376v-117h-376v-1126h-133v1126z" />
<glyph unicode="&#x2021;" horiz-adv-x="1004" d="M993 442v-116h-377v-424h-133v424h-377v116h377v586h-377v117h377v319h133v-319h377v-117h-377v-586h377z" />
<glyph unicode="&#x2022;" horiz-adv-x="1073" d="M543 805q51 0 94 -20t75 -55q29 -32 45.5 -72t16.5 -85q0 -48 -18 -89t-49 -73q-32 -32 -74 -50.5t-90 -18.5q-51 0 -96 21t-77 56q-28 31 -43.5 70t-15.5 84q0 50 19.5 93t53.5 75q32 29 72.5 46.5t86.5 17.5z" />
<glyph unicode="&#x2026;" horiz-adv-x="1503" d="M1350 121q0 -32 -12.5 -58.5t-34.5 -46.5q-19 -17 -43 -26.5t-52 -9.5q-61 0 -100 41q-19 20 -30 45.5t-11 54.5t10 53.5t28 43.5q19 20 45.5 31t57.5 11q33 0 60.5 -12.5t47.5 -34.5q16 -18 25 -41.5t9 -50.5zM356 121q0 -29 -10 -53.5t-28 -43.5q-19 -20 -45.5 -32 t-57.5 -12q-54 0 -92 33q-23 20 -36 48t-13 60q0 59 39 98q19 19 45 30t57 11q32 0 59 -12t46 -32q36 -38 36 -95zM856 121q0 -30 -11 -55.5t-31 -45.5q-19 -19 -44.5 -29.5t-54.5 -10.5t-54.5 10.5t-44.5 28.5q-20 20 -31.5 46t-11.5 56q0 31 11.5 56.5t31.5 44.5 q19 18 44.5 28t54.5 10q31 0 57.5 -11t45.5 -31q18 -19 28 -43.5t10 -53.5z" />
<glyph unicode="&#x2030;" horiz-adv-x="2515" d="M836 1149q0 -58 -15.5 -111.5t-43.5 -101.5q-34 -57 -82.5 -102.5t-108.5 -74.5q-43 -21 -89.5 -32.5t-95.5 -11.5q-54 0 -99.5 13t-82.5 38q-62 42 -95 113q-28 62 -28 135q0 56 15.5 108t43.5 100q29 48 68 88t87 69q50 31 106 48t116 17h994l-1200 -1444h-160 l1130 1339h-524q12 -12 23.5 -31t20.5 -43t14.5 -53.5t5.5 -62.5zM696 1137q0 79 -44 128q-23 26 -58.5 41t-83.5 15q-35 0 -66.5 -8.5t-59.5 -24.5q-35 -20 -62.5 -49.5t-47.5 -65.5q-17 -32 -26.5 -68.5t-9.5 -74.5q0 -83 46 -135q24 -27 59 -42t81 -15q71 0 128 34 q35 20 62 50t46 66q17 33 26.5 70.5t9.5 78.5zM2419 414q0 -67 -20.5 -128t-56.5 -113q-35 -51 -82.5 -90t-104.5 -65q-41 -18 -84.5 -28t-88.5 -10q-101 0 -175 46q-61 39 -95 103q-33 63 -33 145q0 57 15.5 111t44.5 102q33 57 81 102.5t107 74.5q43 22 89.5 33.5 t97.5 11.5q50 0 93 -11.5t78 -33.5q65 -39 100 -108q34 -65 34 -142zM2279 397q0 85 -49 137q-23 25 -57.5 38.5t-79.5 13.5q-38 0 -72.5 -10t-63.5 -28q-36 -23 -64.5 -56t-46.5 -73q-27 -58 -27 -128q0 -41 12 -75t35 -59q24 -26 58.5 -40.5t80.5 -14.5q40 0 75.5 11 t66.5 31q65 43 101 117q31 64 31 136zM1579 414q0 -66 -20 -126t-55 -112q-33 -49 -77.5 -88t-98.5 -65q-88 -43 -185 -43q-90 0 -157 35q-68 36 -107 102t-39 157q0 64 19 124t54 112q32 48 75.5 87t94.5 65q44 23 92 35t99 12q46 0 86 -10.5t75 -29.5q30 -17 55 -39.5 t43 -51.5q46 -71 46 -164zM1440 397q0 84 -48 135q-24 26 -58.5 40t-80.5 14q-45 0 -83.5 -13.5t-70.5 -37.5q-30 -22 -53 -51t-39 -64q-28 -62 -28 -129q0 -84 47 -134q24 -26 59 -40.5t80 -14.5q38 0 72 10t63 28q64 40 101 107q18 33 28.5 71t10.5 79z" />
<glyph unicode="&#x2039;" horiz-adv-x="752" d="M195 391l18 111l385 274l-27 -153l-254 -183l197 -164l-25 -151z" />
<glyph unicode="&#x203a;" horiz-adv-x="752" d="M150 125l24 151l254 164l-197 183l27 153l295 -274l-18 -111z" />
<glyph unicode="&#x2044;" horiz-adv-x="512" d="M-96 0h-152l910 1464h151z" />
<glyph unicode="&#x20ac;" horiz-adv-x="1073" d="M891 786h-442q-7 -29 -12.5 -59t-8.5 -59h424l-41 -152h-389q0 -119 31 -197q34 -88 109 -131q63 -36 155 -36q74 0 142 31q68 32 132 96v-191q-45 -49 -120 -77q-83 -31 -199 -31q-79 0 -143 20.5t-115 58.5q-49 36 -84.5 86t-58.5 110q-23 58 -33 123.5t-9 137.5h-137 v152h146q3 31 7 61t9 57h-162v152h201q39 152 124 267q47 63 106 111t130 80q112 50 244 50q73 0 140 -16q70 -16 139 -50l-93 -155q-34 26 -83.5 38.5t-114.5 12.5q-42 0 -83 -12t-79 -33q-42 -23 -78 -55t-65 -70q-30 -39 -51.5 -81.5t-32.5 -86.5h436z" />
<glyph unicode="&#x2122;" horiz-adv-x="877" d="M987 958h-67l-56 345l-102 -349h-41l-107 353l-53 -349h-65l75 506h54l114 -393l117 393h53zM518 1403h-151v-447h-70v447h-152v61h373v-61z" />
<glyph unicode="&#x2212;" d="M1014 700v-135h-867v135h867z" />
<glyph unicode="&#x2260;" d="M807 864h205v-137h-295l-131 -190h426v-136h-514l-127 -194h-150l129 194h-205v136h297l127 190h-424v137h517l124 195h148z" />
<glyph unicode="&#x2264;" d="M1012 127v-127h-867v127h867zM1012 211l-867 364v121l867 359v-156l-682 -264l682 -264v-160z" />
<glyph unicode="&#x2265;" d="M1012 127v-127h-867v127h867zM145 371l682 264l-682 264v156l867 -359v-121l-867 -364v160z" />
<glyph unicode="&#x25fc;" horiz-adv-x="900" d="M0 900h900v-900h-900v900z" />
<glyph unicode="&#xfb01;" horiz-adv-x="1024" d="M938 1305l-39 13t-54 15q-28 6 -60 10.5t-68 4.5q-28 0 -54 -8t-49 -25q-32 -23 -55 -64t-35 -102l-45 -248h477l-157 -901h-156l137 776h-319l-137 -835q-8 -45 -24.5 -82t-41.5 -69q-18 -23 -40 -42t-47 -35q-37 -23 -79.5 -37.5t-87.5 -19.5l-16 98q24 4 49.5 18 t48.5 37q25 25 44.5 58.5t29.5 73.5l143 835h-129l23 125h122l60 291q10 48 27.5 88.5t41.5 72.5q29 38 65.5 65t80.5 44q63 23 133 23q33 0 65 -4.5t64 -12.5t62 -16.5t59 -17.5z" />
<glyph unicode="&#xfb02;" horiz-adv-x="1024" d="M379 1192q11 53 31 96.5t47 77.5q46 56 109 87q67 32 145 32q31 0 60.5 -3.5l59 -7t60.5 -7t65 -3.5h103l-217 -1097q-17 -85 -26 -129.5t-9 -63.5q0 -24 7.5 -39.5t20 -25t28 -13.5t30.5 -4v-2q-36 -58 -81 -86q-37 -24 -79 -24q-43 0 -68 27q-28 31 -28 87q0 28 4.5 60 t15.5 86l215 1091q-29 8 -67.5 14.5t-87.5 6.5q-70 0 -120 -50q-24 -24 -42 -60t-27 -85l-49 -256h211l-16 -125h-213l-137 -835q-7 -41 -21.5 -75.5t-36.5 -64.5q-40 -55 -96 -89q-74 -45 -166 -56l-16 98q51 8 99 56q25 25 44 58t29 73l143 835h-129l23 125h122z" />
</font>
</defs>
</svg>
