<?xml version="1.0" standalone="no"?>
<!DOCTYPE svg PUBLIC "-//W3C//DTD SVG 1.1//EN" "http://www.w3.org/Graphics/SVG/1.1/DTD/svg11.dtd" >
<svg xmlns="http://www.w3.org/2000/svg">
<metadata></metadata>
<defs>
<font id="citisansregular" horiz-adv-x="1157" >
<font-face units-per-em="2048" ascent="1638" descent="-410" />
<missing-glyph horiz-adv-x="432" />
<glyph unicode=" "  horiz-adv-x="432" />
<glyph unicode="&#x09;" horiz-adv-x="432" />
<glyph unicode="&#xa0;" horiz-adv-x="432" />
<glyph unicode="!" horiz-adv-x="643" d="M283 260q28 0 52 -10.5t43 -28.5q18 -18 29 -42t11 -52q0 -26 -9 -49t-25 -41q-19 -22 -45 -34.5t-56 -12.5q-29 0 -54 11.5t-44 31.5q-17 19 -27.5 43t-10.5 51q0 29 11 53t30 42q18 17 42.5 27.5t52.5 10.5zM283 383q3 252 17 425.5t30 272.5l63 383h207l-63 -383 q-16 -96 -59 -269.5t-124 -428.5h-71z" />
<glyph unicode="&#x22;" horiz-adv-x="516" d="M279 1059h-123l30 405h199zM578 1059h-123l30 405h199z" />
<glyph unicode="#" d="M952 946l-98 -391h160v-129h-193l-119 -426h-127l119 426h-297l-118 -426h-129l116 426h-155v129h188l98 391h-172v129h205l96 389h131l-96 -389h297l96 389h127l-96 -389h174v-129h-207zM528 946l-98 -391h297l98 391h-297z" />
<glyph unicode="$" horiz-adv-x="1073" d="M631 1298q-12 -2 -25 -6q-11 -3 -26 -8.5t-32 -13.5q-32 -16 -65.5 -42.5t-54.5 -69.5q-10 -20 -16 -45t-6 -54q0 -42 15 -72t36 -50q17 -16 34 -26.5t31 -17.5q17 -8 33 -12zM565 180q10 1 22 5q11 3 24.5 7t28.5 11q26 11 54.5 29t52.5 46t40 66t16 90q0 37 -12 63.5 t-33 47.5t-49.5 38t-63.5 35zM395 -10q-23 0 -63 5.5t-86 16.5q-50 12 -100 29t-85 39l101 170q21 -14 49 -26.5t60 -23.5q37 -13 76.5 -22t78.5 -14l92 512l-78 33q-116 50 -173 125q-56 74 -56 178q0 57 15 107.5t41 95.5q29 48 67.5 87.5t86.5 70.5q54 35 115 57t123 30 l25 135h137l-24 -129q43 -2 80.5 -8.5t70.5 -16.5q34 -10 63.5 -22.5t55.5 -27.5l-88 -170q-17 13 -42 26.5t-54 24.5q-26 11 -55 17.5t-60 8.5l-86 -473l78 -41q100 -51 154 -113q35 -41 53 -88t18 -106q0 -63 -17 -120t-48 -108q-29 -49 -69.5 -90.5t-88.5 -73.5 q-52 -34 -113 -57q-28 -10 -56.5 -17t-57.5 -11l-35 -184h-138z" />
<glyph unicode="%" horiz-adv-x="1757" d="M670 1130q0 72 -41 116q-21 22 -51.5 34t-71.5 12q-68 0 -124 -36q-53 -33 -84 -91q-34 -60 -34 -131q0 -73 42 -120q21 -23 51.5 -35.5t70.5 -12.5q34 0 65 9.5t57 26.5q28 18 50.5 42.5t38.5 55.5q31 60 31 130zM1661 414q0 -61 -17 -116.5t-47 -104.5q-33 -54 -80 -96 t-103 -71q-44 -22 -91.5 -34t-97.5 -12q-72 0 -129 22.5t-96 63.5q-38 39 -58 92t-20 116q0 60 17 116.5t48 106.5q32 52 77.5 94t99.5 71q44 23 92.5 35t99.5 12q48 0 89 -11t76 -31q32 -19 57.5 -44t43.5 -57q19 -33 29 -71.5t10 -80.5zM1495 393q0 71 -42 116 q-21 23 -52 35.5t-72 12.5q-66 0 -119 -34q-27 -17 -48.5 -40t-37.5 -52q-34 -60 -34 -132t38 -116q21 -25 52 -38.5t73 -13.5q66 0 120 34q57 35 90 97q32 59 32 131zM836 1149q0 -60 -16.5 -115t-45.5 -104q-64 -106 -173 -164q-46 -25 -96 -38t-104 -13q-66 0 -119.5 20 t-92.5 55q-45 41 -69 98t-24 126q0 53 13.5 102.5t37.5 94.5q58 109 167 173q48 29 103 44.5t115 15.5h904l98 -64l-1147 -1380h-180l1120 1327h-549q12 -12 23 -31t18.5 -43t12 -51t4.5 -53z" />
<glyph unicode="&#x26;" horiz-adv-x="1446" d="M696 930l88 45q39 19 72.5 42t56.5 51q23 27 35.5 57.5t12.5 64.5q0 32 -9 57t-25 43q-21 23 -51.5 35t-66.5 12q-38 0 -73 -13.5t-61 -41.5q-23 -24 -37.5 -59t-14.5 -80q0 -26 5.5 -51t14.5 -50q8 -21 17 -41t20 -40zM596 719q-80 -35 -145 -75t-109 -91 q-34 -38 -52 -83t-18 -99q0 -59 23 -103t63 -74q36 -27 84 -41t105 -14q77 0 147 27q71 27 135 78zM1282 10q-12 -4 -30 -8q-16 -3 -41.5 -5.5t-63.5 -2.5q-41 0 -73.5 7t-58.5 21q-32 17 -57 41t-51 56q-54 -42 -108 -69.5t-111 -44.5q-47 -14 -95 -19.5t-101 -5.5 q-54 0 -104 8.5t-96 26.5q-54 20 -97.5 52.5t-73.5 77.5q-26 38 -40.5 84t-14.5 101q0 60 16 112.5t45 100.5q32 53 77 98.5t102 86.5q51 36 108 67.5t118 60.5q-37 61 -61 125q-31 82 -31 147q0 50 13.5 95.5t36.5 84.5q24 40 57.5 73t73.5 56q45 26 94.5 40t103.5 14 q81 0 152 -34q32 -16 58.5 -37t47.5 -49q25 -33 39 -73t14 -88q0 -69 -22 -122.5t-60 -97.5q-29 -34 -66 -62.5t-79 -52.5q-34 -20 -69.5 -37t-71.5 -33q29 -58 55 -113.5t52.5 -109.5t53 -107.5t54.5 -109.5q35 41 63.5 79.5t52.5 80.5q26 44 47.5 92t41.5 106l168 -25 q-32 -80 -65 -146t-73 -126q-33 -51 -72.5 -98t-90.5 -97q17 -26 39 -40.5t48 -21.5q19 -5 38 -7t38 -2q26 0 51 2t48 10z" />
<glyph unicode="'" horiz-adv-x="348" d="M354 1059h-123l31 405h199z" />
<glyph unicode="(" horiz-adv-x="752" d="M885 1464q-143 -128 -246 -265t-171 -286q-128 -283 -128 -606q0 -167 43 -323q57 -204 192 -394h-147q-77 82 -135 172t-99 187q-85 202 -85 416q0 153 40.5 294t116.5 274q82 144 201 275.5t270 255.5h148z" />
<glyph unicode=")" horiz-adv-x="752" d="M690 702q0 -43 -3 -84.5t-11 -85.5q-17 -106 -56.5 -212t-99.5 -209q-82 -142 -198 -273.5t-263 -247.5h-145q141 134 242 273t168 286q85 188 118 390q10 60 15.5 119.5t5.5 119.5q0 81 -10.5 160.5t-32.5 157.5q-29 99 -77 191t-122 177h148q85 -90 147.5 -187.5 t103.5 -202.5q35 -91 52.5 -183.5t17.5 -188.5z" />
<glyph unicode="*" horiz-adv-x="752" d="M561 1155l182 -149l-106 -93l-125 203l-117 -201l-119 91l187 137l-242 39l70 143l196 -115l-55 254h158l-55 -258l206 119l50 -143z" />
<glyph unicode="+" d="M674 715h370v-158h-370v-367h-158v367h-366v158h366v362h158v-362z" />
<glyph unicode="," horiz-adv-x="471" d="M8 -336l-45 78q195 133 195 238q0 17 -6 36t-19 39q-76 46 -76 115q0 52 38 85q19 17 45 26.5t57 9.5q29 0 52.5 -11t42.5 -30q23 -23 35.5 -54.5t12.5 -64.5q0 -133 -72 -242q-37 -54 -101.5 -110t-158.5 -115z" />
<glyph unicode="-" horiz-adv-x="600" d="M49 381l31 184h487l-30 -184h-488z" />
<glyph unicode="." horiz-adv-x="471" d="M188 260q27 0 51 -9.5t42 -26.5q20 -18 31.5 -43t11.5 -54q0 -27 -10 -51t-28 -43q-19 -20 -44 -31.5t-54 -11.5q-27 0 -50.5 10t-41.5 27q-20 19 -31.5 45t-11.5 55q0 27 10 50.5t27 41.5q39 41 98 41z" />
<glyph unicode="/" horiz-adv-x="1024" d="M303 0h-162l627 1464h162z" />
<glyph unicode="0" d="M123 401q0 109 11.5 225t37.5 228q26 111 69 210.5t106 178.5q74 92 178.5 146.5t246.5 54.5q115 0 195 -41q98 -51 140 -163q32 -85 32 -204t-10.5 -242.5t-38.5 -241.5q-27 -118 -74 -222t-119 -182t-170 -123t-231 -45q-72 0 -127.5 17.5t-99.5 49.5q-74 55 -111 149 q-18 45 -26.5 96.5t-8.5 108.5zM322 438q0 -150 50 -224q47 -71 138 -71q84 0 146.5 37t109.5 99q51 67 83.5 155.5t52.5 184.5q22 107 30 212t8 189q0 129 -52 196q-51 64 -149 64q-69 0 -124 -32.5t-99 -88.5q-29 -37 -52.5 -81.5t-43 -94t-34.5 -102t-26 -105.5 q-20 -97 -29 -185.5t-9 -152.5z" />
<glyph unicode="1" d="M481 0l191 1075l-307 -149l28 188q158 70 272 143q139 88 209 177h60l-254 -1434h-199z" />
<glyph unicode="2" d="M145 0v88l484 598q54 67 98.5 128t75.5 115t48 101t17 86q0 40 -18 69.5t-47 49.5q-32 22 -74 32.5t-84 10.5q-69 0 -125.5 -33t-101.5 -96l-139 88q43 94 126 145q103 62 265 62q60 0 115 -9t103 -29q46 -19 82.5 -47t62.5 -66q22 -33 34 -74t12 -91q0 -51 -15.5 -101.5 t-43.5 -104.5q-37 -70 -91 -144t-120 -155l-358 -449h544l-32 -174h-818z" />
<glyph unicode="3" d="M86 102l90 162q19 -25 49.5 -47t66.5 -39q35 -16 70.5 -25.5t67.5 -9.5q54 0 100.5 13t85.5 36q36 22 63.5 53t46.5 69q15 32 23.5 68.5t8.5 78.5q0 107 -64 161q-67 56 -202 56l26 158q147 0 223 58q84 65 84 202q0 85 -51 133q-53 51 -149 51q-117 0 -197 -68l-90 115 q58 58 141 88q80 29 191 29q113 0 201 -44q45 -23 79.5 -55.5t56.5 -76.5q16 -32 24.5 -68t8.5 -78q0 -56 -19 -109t-54 -100q-40 -54 -96 -94.5t-121 -58.5q94 -31 147 -92q68 -77 68 -199q0 -138 -48 -240q-58 -124 -183 -188q-120 -61 -302 -61q-54 0 -107 8.5t-101 26.5 q-42 15 -77 36.5t-61 50.5z" />
<glyph unicode="4" d="M909 389l-71 -389h-197l68 389h-652l21 111l948 934h70l-160 -895h145l-26 -150h-146zM825 1038l-506 -499h416z" />
<glyph unicode="5" d="M1020 604q0 -196 -57 -336q-58 -139 -173 -211q-60 -38 -136.5 -57.5t-172.5 -19.5q-47 0 -94 6.5t-90.5 19t-82 31t-69.5 43.5l80 172q54 -51 121 -79q35 -15 71 -22.5t68 -7.5q64 0 114 19t88 54q35 32 58.5 73.5t38.5 91.5q13 42 19 88.5t6 95.5q0 54 -18 100t-51 78 q-29 29 -68.5 44.5t-87.5 15.5q-68 0 -120.5 -18.5t-92.5 -53.5h-101l123 692h719l-31 -163h-532l-62 -347q39 28 87 41t104 13q51 0 97 -13.5t85 -39.5q36 -23 65 -55.5t50 -71.5q22 -41 33.5 -87t11.5 -96z" />
<glyph unicode="6" d="M922 1444l77 -103q-52 -20 -130 -77t-177 -154q-97 -97 -151.5 -172.5t-73.5 -126.5q96 78 242 78q63 0 117 -14t97 -40q78 -48 114 -131q30 -67 30 -157q0 -72 -17.5 -142.5t-50.5 -135.5q-31 -60 -73.5 -112t-96.5 -91q-59 -43 -128.5 -67t-149.5 -24q-97 0 -169.5 29 t-121.5 83q-51 56 -75.5 136t-24.5 183q0 113 18.5 208.5t56.5 183.5q44 102 115.5 196.5t171.5 191.5q106 103 204.5 166t195.5 92zM354 365q0 -96 42 -153q26 -35 68 -54t101 -19q44 0 81 13.5t68 36.5q34 26 60 60.5t44 76.5q19 44 28.5 90.5t9.5 91.5q0 104 -54 161 q-51 54 -136 54q-49 0 -90.5 -12t-75.5 -34q-68 -45 -107 -125q-20 -41 -29.5 -88.5t-9.5 -98.5z" />
<glyph unicode="7" d="M203 0q42 86 105.5 198.5t151.5 254.5q100 161 227.5 356t285.5 430h-688l32 184h938v-75q-127 -177 -240.5 -348t-216.5 -341t-191.5 -334t-166.5 -325h-237z" />
<glyph unicode="8" d="M1098 1147q0 -86 -36 -163q-32 -70 -91 -126q-30 -28 -66 -50t-80 -38q40 -25 75 -58t62 -75q30 -46 48 -101t18 -120q0 -141 -56 -238q-49 -85 -140 -135q-117 -63 -300 -63q-107 0 -199 39q-54 23 -97.5 57.5t-72.5 81.5q-21 35 -32.5 75t-11.5 86q0 120 48 216 q36 71 96 130q40 38 89 69t109 54q-84 56 -121 130.5t-37 154.5q0 59 13.5 108t39.5 90q30 48 73.5 82t98.5 56q88 35 195 35q127 0 218 -47q83 -42 123 -114q34 -60 34 -136zM684 866q44 8 85.5 36t72.5 70q23 32 37 70.5t14 81.5q0 65 -43 106q-25 24 -62.5 37t-85.5 13 q-46 0 -83 -16t-63 -45q-25 -28 -38.5 -64.5t-13.5 -79.5q0 -29 11 -57t30 -52q26 -34 63 -60t76 -40zM623 702q-70 -20 -127 -59t-97 -90q-37 -47 -57 -98.5t-20 -102.5q0 -48 18.5 -87t52.5 -68q30 -26 71 -40t91 -14q67 0 116 17.5t83 49.5q40 38 58.5 93.5t18.5 124.5 q0 39 -17.5 80t-46.5 79q-28 36 -65 65.5t-79 49.5z" />
<glyph unicode="9" d="M352 -25l-82 107q53 20 129.5 77t175.5 154q98 97 155.5 170t74.5 125q-95 -78 -242 -78q-59 0 -110 16.5t-93 45.5q-73 51 -113 132q-18 38 -28 80t-10 87q0 135 44 247q27 69 70.5 125t103.5 97q60 40 133.5 62t162.5 22q63 0 116.5 -14.5t97.5 -40.5q83 -50 129 -141 q46 -92 46 -210q0 -207 -79 -393q-33 -78 -79 -152.5t-106 -146.5q-66 -79 -132.5 -141.5t-130 -109t-123 -76.5t-110.5 -44zM918 1069q0 95 -55 152q-27 28 -65.5 43.5t-88.5 15.5q-45 0 -82.5 -11.5t-68.5 -32.5q-36 -25 -63 -60t-44 -77q-18 -44 -26.5 -91.5t-8.5 -98.5 q0 -45 11.5 -81.5t32.5 -64.5q25 -32 61.5 -49.5t84.5 -17.5q93 0 159 40q40 23 68.5 58t47.5 78q19 44 28 93.5t9 103.5z" />
<glyph unicode=":" horiz-adv-x="471" d="M289 922q56 0 95 -39q19 -19 29.5 -43.5t10.5 -53.5q0 -27 -10.5 -51t-28.5 -42q-19 -19 -43.5 -30.5t-52.5 -11.5t-52 10t-42 28q-19 19 -30 44t-11 53q0 29 10.5 54t29.5 44q38 38 95 38zM199 260q27 0 51 -10t43 -28t30 -42.5t11 -52.5q0 -29 -11 -54t-31 -44 q-18 -18 -42 -28.5t-51 -10.5q-30 0 -55.5 12t-44.5 32q-36 39 -36 93q0 29 11 53t30 42q18 17 42.5 27.5t52.5 10.5z" />
<glyph unicode=";" horiz-adv-x="471" d="M297 922q28 0 52.5 -10.5t43.5 -29.5q18 -18 28.5 -42.5t10.5 -53.5t-11.5 -54t-31.5 -44q-18 -17 -42 -27t-50 -10q-29 0 -53.5 11t-42.5 30t-28.5 43t-10.5 51q0 26 9 49.5t25 41.5q19 21 44.5 33t56.5 12zM367 131q0 -59 -10.5 -106t-31.5 -89q-20 -40 -49 -74.5 t-66 -67t-81 -64.5t-94 -66l-45 78q194 132 194 238q0 17 -6 36t-18 39q-76 46 -76 115q0 56 41 89q19 15 44 23.5t54 8.5q33 0 60 -15t47 -40q17 -22 27 -49t10 -56z" />
<glyph unicode="&#x3c;" d="M1026 213l-895 354v138l895 350v-168l-672 -252q167 -63 336 -126t336 -126v-170z" />
<glyph unicode="=" d="M1053 530v-157h-895v157h895zM1053 899v-158h-895v158h895z" />
<glyph unicode="&#x3e;" d="M158 383l671 252q-167 63 -335.5 126t-335.5 126v168l895 -350v-138l-895 -354v170z" />
<glyph unicode="?" horiz-adv-x="844" d="M330 260q28 0 52 -10.5t43 -28.5q18 -18 29 -42t11 -52q0 -29 -11 -54t-31 -44q-18 -18 -42 -28.5t-51 -10.5q-29 0 -54 11t-43 31q-18 19 -28 43.5t-10 51.5q0 28 10.5 52.5t29.5 42.5q38 38 95 38zM276 428q-12 68 -12 107q0 51 14 96.5t40 88.5q26 44 63.5 86t83.5 87 q40 38 73 71t58 65t41 64.5t22 67.5q2 11 3.5 20.5t1.5 18.5q0 69 -37 103t-131 34q-51 0 -98.5 -17t-92.5 -54l-47 143q54 37 124 59q74 23 171 23q79 0 140.5 -19.5t103.5 -56.5q37 -32 57 -77.5t20 -102.5q0 -14 -1 -27.5t-3 -27.5q-12 -73 -47 -135q-19 -34 -44.5 -66 t-57.5 -61l-170 -156q-54 -54 -85 -113q-34 -63 -44 -129q0 -5 -1 -12.5t-1 -20.5q0 -12 1 -26t1 -33h-146z" />
<glyph unicode="@" horiz-adv-x="1507" d="M979 913q-42 45 -98 45q-40 0 -75 -15.5t-65 -42.5q-31 -28 -55 -64t-41 -76q-18 -42 -27.5 -85t-9.5 -81q0 -73 37 -104q28 -23 76 -23q69 0 129 51q58 52 74 125zM1526 918q0 -66 -13 -135t-39 -134q-23 -58 -56 -108.5t-78 -88.5q-46 -39 -102 -62t-124 -23 q-26 0 -57 6t-59.5 18.5t-51.5 31.5t-33 44q-13 -23 -38.5 -43t-57.5 -35q-33 -16 -67.5 -24.5t-61.5 -8.5q-51 0 -93 13.5t-73 39.5q-35 29 -54 72.5t-19 100.5q0 53 12 103.5t35 98.5q27 57 67.5 106.5t91.5 85.5t109.5 56.5t122.5 20.5q44 0 68.5 -3.5t47 -11t50 -20.5 t77.5 -31q-42 -180 -61.5 -283.5t-19.5 -128.5q0 -102 81 -102q55 0 95.5 24.5t69.5 64.5q23 32 39 70.5t26 80.5q11 44 15.5 87.5t4.5 82.5q0 57 -11.5 108t-32.5 95q-53 110 -158 169q-52 29 -113.5 44.5t-130.5 15.5q-84 0 -159.5 -20.5t-143.5 -58.5q-89 -49 -160 -123 t-121 -165q-48 -88 -74 -187t-26 -202q0 -73 15 -135.5t44 -113.5q61 -109 179 -164q101 -46 233 -46q125 0 227 37q91 32 166 92l96 -73q-105 -90 -233 -133q-64 -22 -134 -32.5t-145 -10.5q-170 0 -298 60q-144 67 -221 201q-35 63 -54 139t-19 165q0 107 23 208t66 193 q51 108 126 198t172 156t209 102t240 36q188 0 329 -76q130 -70 197 -196q28 -53 43 -114.5t15 -133.5z" />
<glyph unicode="A" horiz-adv-x="1251" d="M778 1081h-4l-334 -624h432zM940 0l-45 309h-535l-172 -309h-217l858 1485h45l289 -1485h-223z" />
<glyph unicode="B" horiz-adv-x="1159" d="M455 899q92 -6 143 -6q168 0 252 62q88 65 88 194q0 79 -61 121q-66 45 -203 45q-25 0 -62.5 -2.5t-91.5 -7.5zM319 170q31 -5 62 -7.5t63 -2.5q62 0 125.5 9.5t121.5 29.5q54 20 98.5 49.5t73.5 72.5q20 29 31 64t11 78q0 129 -78 198q-88 78 -276 78q-29 0 -61.5 -1.5 t-69.5 -6.5zM350 1464q75 13 142 18t129 5q180 0 297 -42q111 -39 165 -117q52 -74 52 -185q0 -48 -19 -97t-51 -93q-38 -51 -90.5 -87.5t-110.5 -44.5q117 -24 177 -105q63 -84 63 -231q0 -60 -9 -110.5t-26 -93.5q-30 -75 -83 -127t-124 -86q-97 -46 -219 -63t-260 -17 q-54 0 -125.5 3t-167.5 9z" />
<glyph unicode="C" horiz-adv-x="1225" d="M1147 1251q-80 62 -236 62q-100 0 -184 -43t-151 -115q-54 -57 -96 -127.5t-71 -147.5q-30 -78 -45.5 -157t-15.5 -152q0 -181 69 -283q86 -128 279 -128q91 0 175 34q87 35 165 103l-16 -207q-61 -57 -158 -84q-47 -14 -101.5 -20t-117.5 -6q-75 0 -138.5 14.5 t-115.5 42.5q-114 62 -175 180q-35 66 -52 146t-17 172q0 118 22 233.5t66 221.5q43 103 105 191t144 155q89 72 199 113.5t243 41.5q86 0 154 -12t122 -35z" />
<glyph unicode="D" horiz-adv-x="1255" d="M299 184q32 -5 61.5 -6.5t57.5 -1.5q97 0 178.5 25.5t149.5 72.5q75 52 131 126t93 163q32 79 49 166.5t17 179.5q0 73 -21.5 135t-59.5 112q-56 72 -140 112q-45 22 -95.5 33.5t-105.5 11.5q-34 0 -65 -3.5t-62 -13.5zM72 0l258 1464q121 25 243 25q112 0 208 -19 t176 -58q69 -35 122.5 -84.5t90.5 -115.5q35 -63 54 -141.5t19 -173.5q0 -148 -32.5 -275.5t-95.5 -233.5q-54 -91 -126.5 -162t-164.5 -122q-93 -51 -202.5 -77.5t-234.5 -26.5h-315z" />
<glyph unicode="E" horiz-adv-x="1098" d="M479 1284l-71 -405h485l-31 -170h-483l-94 -529h663l-30 -180h-867l258 1464h879l-35 -180h-674z" />
<glyph unicode="F" horiz-adv-x="1075" d="M487 1284l-71 -405h516l-31 -170h-516l-125 -709h-201l263 1464h903l-33 -180h-705z" />
<glyph unicode="G" horiz-adv-x="1384" d="M1214 1219q-57 44 -121 66q-75 26 -155 26q-87 0 -162 -21.5t-138 -61.5q-78 -49 -137 -119t-99 -157q-40 -85 -60 -180t-20 -194q0 -158 53 -254q46 -84 133 -124q84 -40 209 -40q84 0 156 22q36 11 69 28t62 42l61 342h-203l31 170h393l-112 -639q-101 -72 -232 -109 q-126 -36 -280 -36q-173 0 -294 62q-126 65 -190 195q-61 125 -61 302q0 138 28.5 264t83.5 235q54 107 131.5 192.5t177.5 145.5q93 55 202 85t237 30q50 0 95.5 -6.5t84.5 -18.5q37 -11 66.5 -26t50.5 -35z" />
<glyph unicode="H" horiz-adv-x="1339" d="M918 0l124 709h-649l-125 -709h-196l258 1464h198l-104 -585h647l105 585h196l-260 -1464h-194z" />
<glyph unicode="I" horiz-adv-x="569" d="M104 0l258 1464h197l-260 -1464h-195z" />
<glyph unicode="J" horiz-adv-x="977" d="M158 293q0 -71 40 -104q35 -29 99 -29q100 0 157 29q29 15 50 38t38 55q23 45 38 108t30 149l164 925h193l-160 -909q-24 -135 -53.5 -238t-80.5 -175q-28 -39 -63.5 -69t-83.5 -50q-99 -43 -260 -43q-130 0 -205 72q-35 34 -54 82.5t-19 111.5q0 11 1 22.5t3 24.5h166z " />
<glyph unicode="K" horiz-adv-x="1180" d="M872 0l-288 674h-2l-244 -277l-72 -397h-192l258 1464h192l-131 -757h2l672 757h225l-551 -635l355 -829h-224z" />
<glyph unicode="L" horiz-adv-x="1036" d="M88 0l258 1464h197l-228 -1284h662l-31 -180h-858z" />
<glyph unicode="M" horiz-adv-x="1559" d="M1251 0l-20 905h-2l-494 -925h-41l-164 933h-2l-338 -913h-182l522 1464h93l165 -1028h3l516 1028h96l41 -1464h-193z" />
<glyph unicode="N" horiz-adv-x="1307" d="M1008 -20l-580 1040h-2l-172 -1020h-191l259 1464h71l568 -997h2l167 997h191l-262 -1484h-51z" />
<glyph unicode="O" horiz-adv-x="1380" d="M324 565q0 -79 14.5 -152.5t49.5 -130.5q34 -56 89.5 -89t140.5 -33q97 0 174.5 32.5t138.5 89.5q68 63 114.5 149t74.5 183q23 80 34 162t11 160q0 176 -72 270q-81 107 -255 107q-73 0 -136 -27t-116 -74q-67 -59 -116.5 -140.5t-82.5 -172.5q-32 -87 -47.5 -173.5 t-15.5 -160.5zM119 539q0 103 18 208t54 205q41 113 103.5 212t148.5 173q83 72 185 113t226 41q181 0 301 -73q104 -63 158 -179q55 -119 55 -283q0 -119 -18 -233.5t-56 -219.5q-41 -112 -102.5 -205.5t-147.5 -163.5q-89 -72 -202 -113t-254 -41q-74 0 -135 17t-111 48 q-57 35 -98.5 86.5t-69.5 115.5t-41.5 138t-13.5 154z" />
<glyph unicode="P" horiz-adv-x="1112" d="M389 743q56 -26 166 -26q66 0 127.5 12.5t112.5 38.5q42 22 75.5 52.5t54.5 71.5q16 31 24.5 67t8.5 79q0 146 -85 213q-73 58 -209 58q-44 0 -87.5 -6.5t-91.5 -18.5zM258 0h-201l269 1464q93 11 164.5 16t123.5 5q180 0 303 -47q124 -48 185 -142t61 -237 q0 -66 -13 -122.5t-36 -105.5q-32 -66 -80.5 -116.5t-111.5 -86.5q-76 -44 -168 -65.5t-193 -21.5q-52 0 -102 5.5t-101 16.5z" />
<glyph unicode="Q" horiz-adv-x="1380" d="M309 565q0 -50 5.5 -97.5t18.5 -91.5q12 -42 31 -78t47 -64q34 -35 81.5 -54.5t111.5 -19.5q30 0 49.5 1.5t31 3t16.5 2.5t6 1q-23 36 -77 74q-31 22 -70 42.5t-85 34.5l94 154q44 -13 90.5 -35t90.5 -54q35 -26 66 -59t54 -75q50 36 90 85t72 108q30 55 52.5 116 t37.5 125q15 63 22 127t7 125q0 194 -89 289q-83 88 -239 88q-84 0 -153.5 -35t-126.5 -93q-66 -68 -113.5 -157t-76.5 -186q-22 -73 -33 -143.5t-11 -133.5zM1356 956q0 -78 -10 -160.5t-30 -167.5q-23 -95 -59 -185t-87 -168q-48 -72 -107.5 -129.5t-134.5 -94.5 q11 -44 31 -74t49 -50q31 -20 70.5 -29t88.5 -9h29.5t30.5 2l-72 -194q-55 1 -121.5 14.5t-128.5 51.5q-56 34 -100.5 91t-67.5 148q-43 -11 -83 -16.5t-81 -5.5q-83 0 -149.5 19t-118.5 54q-53 35 -90.5 84.5t-62.5 112.5t-36.5 135.5t-11.5 153.5q0 112 21 226t63 221 q45 112 111 208.5t156 165.5q79 62 175 96.5t210 34.5q173 0 290 -66q116 -65 173 -190q53 -117 53 -279z" />
<glyph unicode="R" horiz-adv-x="1192" d="M420 809q38 -5 73.5 -7.5t67.5 -2.5q51 0 100.5 6.5t95.5 20.5q42 13 78 32.5t63 48.5q29 31 46 71t17 93q0 69 -21.5 112.5t-59.5 68.5q-44 28 -105.5 37t-137.5 9q-19 0 -54.5 -2t-78.5 -8zM838 0l-230 629h-4q-38 0 -92 2.5t-123 7.5l-113 -639h-200l258 1464 q14 2 33.5 2.5t40.5 1.5l42 2t39 3q59 5 103.5 6.5t81.5 1.5q78 0 144.5 -11t121.5 -31q130 -48 188 -146q19 -32 29 -69t10 -79q0 -70 -16 -133.5t-46 -117.5q-23 -42 -53 -77t-67 -64q-42 -32 -92 -55t-107 -34l273 -664h-221z" />
<glyph unicode="S" horiz-adv-x="985" d="M150 240q22 -20 56.5 -34t72.5 -24q42 -11 84.5 -15.5t76.5 -4.5q57 0 107.5 13t87.5 42q34 26 53 65t19 93q0 84 -56 149q-25 31 -71.5 71.5t-114.5 88.5q-64 47 -114 90t-83 95q-26 40 -39.5 88t-13.5 110q0 66 14.5 122t42.5 103q29 51 71.5 88.5t96.5 63.5 q99 47 222 47q220 0 294 -41l-55 -188q-15 12 -42.5 22.5t-58.5 19t-61.5 13t-52.5 4.5q-131 0 -205.5 -58.5t-74.5 -166.5q0 -44 25.5 -88.5t64.5 -79.5q21 -17 63 -50.5t100 -76.5q55 -42 99.5 -84.5t75.5 -92.5q32 -51 48.5 -108.5t16.5 -128.5q0 -64 -14 -117t-40 -96 q-51 -85 -143 -133q-60 -32 -132 -46.5t-152 -14.5q-34 0 -78.5 5.5t-90.5 15.5q-45 10 -87 23t-72 27z" />
<glyph unicode="T" horiz-adv-x="1190" d="M823 1284l-225 -1284h-197l226 1284h-465l31 180h1144l-30 -180h-484z" />
<glyph unicode="U" horiz-adv-x="1327" d="M328 1464h202l-180 -1001q-6 -34 -6 -64q0 -106 60 -168q34 -35 84.5 -53t113.5 -18q97 0 173 35q73 33 121 96q55 70 75 176l180 997h197l-181 -1018q-14 -79 -45.5 -146t-78.5 -121q-46 -54 -104.5 -93t-127.5 -65q-111 -41 -238 -41q-60 0 -116.5 10t-106.5 30 q-53 22 -94.5 55t-70.5 79q-23 37 -35.5 82.5t-12.5 99.5q0 26 2.5 53.5t7.5 56.5z" />
<glyph unicode="V" horiz-adv-x="1202" d="M573 -10h-92l-284 1474h211l186 -1058h2l551 1058h219z" />
<glyph unicode="W" horiz-adv-x="1745" d="M1184 -10h-56l-174 979h-4l-506 -979h-55l-199 1474h199l119 -989h4l502 1000h61l152 -996h4l461 985h209z" />
<glyph unicode="X" horiz-adv-x="1141" d="M817 0l-239 573h-3l-421 -573h-224l570 774l-277 690h195l215 -522h2l414 522h223l-565 -708l311 -756h-201z" />
<glyph unicode="Y" horiz-adv-x="1167" d="M711 655l-117 -655h-193l117 655q-39 96 -81 198.5t-84.5 206.5t-85 206.5t-81.5 197.5h201l252 -624h6l461 624h217z" />
<glyph unicode="Z" horiz-adv-x="1126" d="M84 0v49l817 1235h-620l30 180h869v-49l-789 -1235h615l-33 -180h-889z" />
<glyph unicode="[" horiz-adv-x="573" d="M330 1464h395l-27 -166h-206l-254 -1522h206l-26 -166h-393z" />
<glyph unicode="\" horiz-adv-x="1024" d="M166 1464h162l626 -1464h-161z" />
<glyph unicode="]" horiz-adv-x="573" d="M287 -390h-394l27 166h205l254 1522h-207l27 166h395z" />
<glyph unicode="^" d="M899 877l-235 440l-238 -445h-162l332 592h141l328 -587h-166z" />
<glyph unicode="_" horiz-adv-x="1024" d="M0 -254v129h1024v-129h-1024z" />
<glyph unicode="`" horiz-adv-x="371" d="M207 1112l-174 352h205l102 -352h-133z" />
<glyph unicode="a" horiz-adv-x="909" d="M825 653q0 -12 -1.5 -30.5t-4 -38.5t-5.5 -39.5t-5 -34.5l-51 -281q-3 -17 -5.5 -31t-2.5 -28q0 -40 26.5 -57t79.5 -17v-2q-10 -24 -29.5 -45t-43.5 -36q-24 -16 -49.5 -24.5t-47.5 -8.5q-49 0 -80 28q-28 25 -41 70q-49 -51 -110 -74q-63 -24 -146 -24q-42 0 -78 9.5 t-67 26.5q-34 19 -59.5 45t-42.5 56q-16 29 -24.5 59.5t-8.5 61.5q0 49 12 90t33 75q28 45 70 77t93 54q55 23 116 34.5t122 11.5q43 0 87.5 -7.5t72.5 -13.5q5 23 5.5 40.5t0.5 33.5q0 79 -45 116q-38 31 -111 31q-34 0 -65 -5.5t-60 -16.5q-35 -13 -67 -31.5t-60 -40.5 l-43 145q28 20 63.5 36.5t75.5 28.5q43 13 88 19.5t89 6.5q101 0 171 -29q38 -15 65.5 -38.5t46.5 -54.5q36 -60 36 -147zM612 446q-29 7 -58.5 11t-70.5 4q-44 0 -84 -7.5t-73 -24.5q-28 -14 -50 -32.5t-36 -43.5q-23 -40 -23 -91q0 -57 35 -95q20 -22 47 -34t59 -12 q61 0 123 31q25 13 48.5 30t43.5 39z" />
<glyph unicode="b" horiz-adv-x="965" d="M262 223l5 -12.5t9 -20.5q9 -13 22.5 -24.5t30 -20t34 -13.5t34.5 -5q47 0 89.5 16t79.5 45q39 30 70.5 71t52.5 88q18 40 28 82t10 83q0 132 -61 199q-58 63 -170 63q-42 0 -81 -27.5t-73 -89.5l2 2zM152 0h-140q13 39 25.5 83.5t24 91t22 92.5t18.5 89 q48 274 98.5 554.5t96.5 553.5h178l-102 -614q35 36 85 54q53 18 120 18q99 0 173 -45q44 -26 76 -64t54 -86q41 -91 41 -201q0 -62 -14 -121.5t-40 -114.5q-29 -63 -72.5 -116t-98.5 -94q-63 -47 -137.5 -73.5t-158.5 -26.5q-77 0 -123 26q-39 22 -67 68z" />
<glyph unicode="c" horiz-adv-x="797" d="M756 713q-37 29 -81 45t-89 16q-53 0 -97 -15.5t-81 -42.5q-38 -29 -66.5 -67.5t-48.5 -84.5t-29.5 -96.5t-9.5 -102.5q0 -43 12.5 -83.5t35.5 -72.5q25 -35 61 -55.5t81 -20.5q52 0 112 20q32 11 65.5 28t68.5 40l-20 -186q-27 -12 -55 -22t-57 -17q-34 -8 -69 -12 t-71 -4q-58 0 -106.5 11.5t-88.5 33.5q-38 21 -67.5 51t-49.5 68q-43 81 -43 192q0 150 55 278q32 75 81.5 135t115.5 102q54 34 118.5 52.5t139.5 18.5q67 0 119.5 -13t95.5 -39z" />
<glyph unicode="d" horiz-adv-x="965" d="M721 645q-3 27 -15 48.5t-29 37.5q-46 41 -114 41q-51 0 -92.5 -14.5t-74.5 -40.5q-36 -29 -63 -67.5t-44 -86.5q-18 -48 -26.5 -101.5t-8.5 -107.5q0 -115 44 -171q46 -58 138 -58q45 0 82 21t66 56q40 48 65 110t35 122zM637 0l-14 72q-43 -39 -101 -63 q-33 -14 -69 -21.5t-74 -7.5q-51 0 -94.5 10.5t-78.5 30.5t-62 48t-46 63q-41 79 -41 187q0 81 16 158t47 146q30 66 72.5 120.5t99.5 94.5t124.5 62t148.5 22q63 0 111 -20.5t82 -51.5l112 614h174l-251 -1464h-156z" />
<glyph unicode="e" horiz-adv-x="881" d="M569 774q-94 0 -161 -46q-82 -55 -127 -181q58 -23 135 -23q29 0 60.5 2t62.5 8t59 16t50 27q23 17 36.5 41.5t13.5 59.5q0 46 -33 71q-34 25 -96 25zM440 377q-57 0 -105.5 8.5t-88.5 28.5q-2 -17 -3 -33t-1 -29q0 -75 30 -126q30 -50 84 -74q47 -21 109 -21 q48 0 105 24q53 23 108 64l-19 -192q-36 -12 -71 -21t-67 -15q-29 -5 -56 -8t-53 -3q-131 0 -214 53q-77 48 -113 143q-32 84 -32 201q0 223 150 385q70 76 164 117q98 43 211 43q43 0 84.5 -6.5t77.5 -20.5q32 -13 59 -32t46 -46q36 -50 36 -123q0 -45 -12 -83t-33 -70 q-26 -39 -65 -68t-86 -49q-57 -24 -119.5 -35.5t-125.5 -11.5z" />
<glyph unicode="f" horiz-adv-x="633" d="M813 1315q-31 15 -62 21.5t-46 6.5q-57 0 -99 -39q-24 -23 -41.5 -57t-27.5 -82l-54 -264h217l-26 -139h-211l-135 -815q-7 -42 -23.5 -78.5t-42.5 -67.5q-44 -55 -112 -90q-38 -20 -80.5 -33.5t-87.5 -19.5l-19 113q26 4 54 22.5t52 44.5q25 27 42.5 57t21.5 56l141 811 h-129l27 139h121l61 287q22 104 76 172t133 99q35 14 72.5 20t79.5 6q38 0 72 -8t63 -21z" />
<glyph unicode="g" horiz-adv-x="870" d="M260 -6q-18 -6 -43 -25t-45 -48q-16 -22 -26.5 -47.5t-10.5 -53.5q0 -40 34 -59q39 -23 128 -23q42 0 83.5 5t79.5 16q42 11 77 28.5t60 40.5q23 21 35.5 46t12.5 54q0 22 -9.5 36t-25.5 22.5t-35.5 12t-39.5 3.5q-69 0 -142.5 -4t-132.5 -4zM262 -410q-94 0 -168 27 q-70 24 -110 72q-17 21 -27 46.5t-10 55.5q0 35 13 65t33 56q31 38 69.5 65t64.5 41q-32 16 -52 42.5t-20 64.5q0 27 9 49.5t25 41.5q21 26 51 46.5t59 38.5q-21 13 -40 32.5t-33 45.5q-15 27 -23.5 60.5t-8.5 74.5q0 51 12.5 97t35.5 88q29 54 73 97t98 72q48 26 100 40 t107 14q68 0 122.5 -15t88.5 -43l88 101l86 -99l-108 -71q18 -32 32.5 -72t14.5 -86q0 -51 -16 -99.5t-45 -92.5q-58 -86 -154 -139q-53 -29 -113.5 -45.5t-126.5 -16.5q-15 0 -31 0.5t-30 2.5q-16 2 -31 3q-31 -20 -45 -36.5t-14 -33.5q0 -18 12 -29.5t47 -11.5 q28 0 67.5 1.5t84.5 4t91.5 4t88.5 1.5q51 0 92.5 -12.5t69.5 -38.5q21 -20 33 -48t12 -65q0 -53 -18.5 -100t-52.5 -89q-36 -45 -87 -81.5t-112 -62.5q-69 -31 -147 -47t-157 -16zM506 784q-29 0 -56.5 -9t-52.5 -26q-52 -34 -83 -94q-14 -26 -21.5 -56.5t-7.5 -63.5 q0 -72 38 -112q40 -40 111 -40q56 0 106 31q26 16 47 38t36 51q15 28 23.5 61t8.5 71q0 35 -10.5 62.5t-29.5 46.5q-40 40 -109 40z" />
<glyph unicode="h" horiz-adv-x="965" d="M594 0l98 551q3 22 4.5 44.5t1.5 33.5q0 71 -28 106q-31 39 -103 39q-24 0 -53.5 -9.5t-59.5 -25.5q-29 -16 -56 -35t-46 -38q-29 -166 -59 -333.5t-57 -332.5h-185l258 1464h183l-109 -635q26 23 59.5 41t68.5 30q32 11 63.5 16.5t58.5 5.5q83 0 140 -27 q31 -14 54.5 -36t38.5 -52q29 -56 29 -139q0 -20 -3.5 -51t-6.5 -54l-94 -563h-197z" />
<glyph unicode="i" horiz-adv-x="530" d="M408 1485q26 0 48 -10t39 -27q16 -17 25.5 -38.5t9.5 -45.5q0 -22 -7.5 -41.5t-21.5 -35.5q-17 -20 -41 -31t-52 -11q-25 0 -47.5 9t-39.5 25q-17 17 -27.5 38t-10.5 47q0 25 10.5 46.5t27.5 38.5t39.5 26.5t47.5 9.5zM100 0l138 762h-88l30 139h269l-162 -901h-187z" />
<glyph unicode="j" horiz-adv-x="637" d="M496 1485q24 0 45 -9t38 -24q18 -17 28.5 -39.5t10.5 -48.5q0 -24 -9 -45.5t-25 -37.5q-17 -17 -39.5 -26.5t-48.5 -9.5q-27 0 -49.5 9.5t-39.5 26.5q-16 16 -25 37.5t-9 45.5t9 45t25 38q17 17 40 27.5t49 10.5zM-162 -254q143 0 226 52q82 52 102 155l153 809h-88 l31 139h268l-172 -942q-28 -141 -97 -222q-34 -40 -77 -67.5t-97 -44.5t-118 -25.5t-139 -9.5z" />
<glyph unicode="k" horiz-adv-x="874" d="M365 389l-48 -43l-55 -346h-186l250 1464h180l-148 -897l347 359l120 -115l-319 -324q85 -118 172.5 -243t169.5 -244h-215z" />
<glyph unicode="l" horiz-adv-x="555" d="M369 1464h188l-231 -1165q-17 -73 -17 -121q0 -46 28 -66t69 -20l2 -2q-20 -29 -42 -49.5t-44 -33.5q-26 -15 -50 -21t-45 -6q-57 0 -92 41q-14 17 -21.5 38.5t-7.5 49.5q0 18 4 46.5t9 53.5z" />
<glyph unicode="m" horiz-adv-x="1438" d="M1073 0l101 571q3 17 3.5 32.5t0.5 29.5q0 68 -31 103q-33 38 -103 38q-24 0 -50.5 -8.5t-51.5 -23.5q-26 -16 -48 -37.5t-34 -45.5l2 3q-29 -166 -58.5 -330.5t-58.5 -331.5h-188l113 639q2 8 2 13v12q0 48 -26 74q-34 36 -120 36q-20 0 -45.5 -10t-51.5 -26 q-27 -17 -50.5 -38t-36.5 -41l2 3q-29 -166 -58.5 -330.5t-58.5 -331.5h-184l115 655q3 17 3.5 36t0.5 42q0 47 -4.5 86t-14.5 70l179 33q8 -26 12 -49t6 -46q22 23 50.5 40.5t60.5 28.5q37 14 75.5 20t73.5 6q84 0 144 -23q36 -14 62 -35.5t44 -50.5q20 24 49.5 43t63.5 33 q40 16 81 24.5t76 8.5q135 0 198 -67q56 -59 56 -175q0 -39 -6 -80l-106 -600h-189z" />
<glyph unicode="n" horiz-adv-x="946" d="M586 0l94 524q6 34 8 64t2 49q0 66 -29 99q-33 38 -104 38q-23 0 -52.5 -10t-58.5 -26t-55.5 -35t-46.5 -39q-29 -166 -59 -332.5t-58 -331.5h-184l119 680q6 27 6 57q0 38 -5 77.5t-13 74.5l176 35l16 -82q2 -13 3.5 -19t2.5 -8.5t1 -3t-1 -2.5q23 25 49 44.5t56 33.5 q74 35 178 35q91 0 151 -34q54 -30 80 -88q25 -54 25 -134q0 -23 -4 -53t-9 -58q-23 -134 -47.5 -277.5t-44.5 -277.5h-196z" />
<glyph unicode="o" horiz-adv-x="930" d="M240 344q0 -109 43 -162q43 -55 135 -55q55 0 98.5 21.5t77.5 58.5q33 36 56.5 82.5t37.5 97.5q13 46 19 92.5t6 89.5q0 110 -50 163q-43 46 -126 46q-50 0 -90 -18t-72 -48q-42 -39 -70 -93.5t-44 -114.5q-11 -41 -16 -81.5t-5 -78.5zM49 334q0 93 24 180 q23 82 64.5 154.5t101.5 128.5q63 58 143 91.5t177 33.5q127 0 211 -52q69 -43 103 -119t34 -176q0 -69 -13.5 -137.5t-40.5 -132.5q-28 -66 -69 -122.5t-95 -100.5q-60 -48 -133 -75t-161 -27q-114 0 -191 42q-75 40 -115 120t-40 192z" />
<glyph unicode="p" horiz-adv-x="965" d="M735 563q0 101 -48 152q-52 57 -163 57q-17 0 -40 -6.5t-47 -17.5q-33 -15 -62.5 -35.5t-42.5 -40.5l2 2l-84 -490q8 -13 24.5 -23t35.5 -17t38.5 -11t34.5 -4q61 0 110 15t88 42q38 27 66 64.5t47 83.5q20 50 30.5 108t10.5 121zM930 584q0 -155 -58 -288 q-31 -71 -77 -130t-107 -101q-58 -40 -128.5 -62.5t-153.5 -22.5q-16 0 -41 3t-52 10q-26 6 -50.5 15.5t-41.5 22.5l-78 -421h-182l186 1027q7 32 9 63t2 60q0 31 -2.5 62t-10.5 69l181 33q5 -10 8 -35t8 -64q22 22 52 40t63 30.5t66 19.5t61 7q116 0 191 -37 q77 -37 116 -112t39 -189z" />
<glyph unicode="q" horiz-adv-x="965" d="M735 713q-28 28 -65 44.5t-82 16.5q-50 0 -92 -14t-78 -38q-44 -29 -76.5 -72.5t-53.5 -94.5q-38 -91 -38 -193t48 -161q28 -34 70 -52t97 -18q54 0 97.5 13t78.5 42zM539 -390l77 427q-41 -29 -100 -43t-129 -14q-45 0 -85.5 11t-75.5 31q-39 23 -70 55t-54 71t-35 84.5 t-12 93.5q0 83 19 161.5t54 147.5q34 66 81.5 120.5t109.5 92.5q57 35 123 54.5t142 19.5q117 0 200 -80q8 14 17.5 30.5t17.5 28.5h160q-31 -90 -48.5 -157t-25.5 -113l-184 -1021h-182z" />
<glyph unicode="r" horiz-adv-x="721" d="M707 723q-34 25 -64 38t-61 13q-24 0 -47 -7t-45 -20q-28 -17 -52 -41.5t-44 -53.5q-22 -32 -37 -68t-21 -70l-92 -514h-185l162 901h185l-19 -104q60 66 136 99q61 26 128 26q16 0 43 -3t64 -10z" />
<glyph unicode="s" horiz-adv-x="700" d="M90 231q16 -21 39.5 -38.5t50.5 -31.5q26 -13 53 -20.5t50 -7.5q38 0 71 11t56 33q18 17 28.5 40.5t10.5 52.5q0 18 -5.5 33t-18 29.5t-33.5 29t-52 31.5q-29 16 -59.5 33t-59.5 33q-31 16 -53 36.5t-36 44.5q-14 23 -20 49t-6 52q0 41 10.5 75.5t29.5 63.5 q24 37 59.5 64t78.5 45q80 33 171 33q54 0 126 -20q60 -17 124 -46l-80 -166q-50 44 -95 64t-86 20q-26 0 -51.5 -6.5t-45.5 -20.5t-33 -33.5t-13 -45.5q0 -22 9 -38.5t24 -30t35.5 -25.5t42.5 -25l114 -66q60 -34 88.5 -79.5t28.5 -104.5q0 -54 -15 -98t-41 -80 q-25 -34 -58.5 -59.5t-74.5 -43.5q-88 -38 -194 -38q-37 0 -72.5 5.5t-69.5 16.5q-64 19 -124 57z" />
<glyph unicode="t" horiz-adv-x="727" d="M281 762h-107l33 139h98l60 273h194l-67 -273h247l-30 -139h-244l-94 -420q-7 -28 -11 -55.5t-4 -38.5q0 -50 35 -79q15 -12 35.5 -19t46.5 -7q55 0 148 39l-7 -162q-19 -6 -41 -11.5t-49 -9.5q-60 -9 -143 -9q-57 0 -100 20t-70 56q-45 59 -45 149q0 28 6 57t14 66z" />
<glyph unicode="u" horiz-adv-x="965" d="M377 901l-105 -571q-3 -17 -3.5 -34t-0.5 -30q0 -67 32 -99q34 -34 99 -34q29 0 59.5 9t59.5 26q23 13 43 29.5t37 36.5q23 26 38.5 57t20.5 63l103 547h192l-166 -901h-172l-2 90q-50 -52 -123 -80q-38 -14 -83.5 -22t-98.5 -8q-79 0 -134 35q-48 30 -74 85 q-25 53 -25 129q0 22 2.5 42t5.5 46l104 584h191z" />
<glyph unicode="v" horiz-adv-x="848" d="M393 -10h-61l-266 911h190l158 -577q80 146 162 288.5t163 288.5h207z" />
<glyph unicode="w" horiz-adv-x="1288" d="M817 -10l-162 561q-85 -140 -171 -280.5t-173 -280.5h-57l-170 911h184l97 -530l315 540h61l156 -546l268 536h187l-473 -911h-62z" />
<glyph unicode="x" horiz-adv-x="868" d="M586 0l-154 305l-246 -305h-219l377 471l-227 430h211l139 -293l217 293h242l-369 -455l240 -446h-211z" />
<glyph unicode="y" horiz-adv-x="854" d="M-4 -244q65 1 115.5 15.5t90.5 41.5q44 30 75 73.5t53 99.5q-31 110 -66 225.5t-70.5 232.5t-70 232.5t-66.5 224.5h199l186 -639l283 639h207l-483 -1063q-50 -111 -116 -165q-25 -20 -53.5 -34t-61.5 -24q-45 -13 -99.5 -18.5t-122.5 -6.5v166z" />
<glyph unicode="z" horiz-adv-x="823" d="M338 158h422l-25 -158h-702v51l522 692h-436l26 158h705v-55z" />
<glyph unicode="{" horiz-adv-x="752" d="M451 -393q-72 0 -133 19t-103 57q-33 29 -51.5 70.5t-18.5 94.5t22.5 110t49.5 114.5t49.5 113.5t22.5 107q0 70 -38 122q-22 30 -56 49.5t-80 24.5l14 93q63 7 112.5 37t82.5 75q28 38 42.5 84t14.5 94q0 29 -3.5 59.5t-8 62t-8 63.5t-3.5 63q0 76 29.5 137.5 t80.5 106.5q54 48 127.5 74t158.5 26h69l-20 -133h-47q-48 0 -84 -18.5t-61 -50.5q-23 -31 -35.5 -72.5t-12.5 -89.5q0 -26 3.5 -51.5t7 -50.5t7 -51t3.5 -54q0 -53 -17 -99.5t-51 -90.5q-67 -85 -205 -168q41 -22 75 -57t57 -77q18 -32 28 -66.5t10 -68.5q0 -51 -19 -101.5 t-41.5 -100.5t-41.5 -100t-19 -99q0 -34 10 -57.5t27 -39.5t41.5 -23t53.5 -7h47l-21 -131h-67z" />
<glyph unicode="|" d="M498 -410v1874h161v-1874h-161z" />
<glyph unicode="}" horiz-adv-x="752" d="M666 1221q0 -53 -22.5 -110t-49.5 -114.5t-49.5 -113.5t-22.5 -107q0 -74 43 -128q23 -28 55 -45.5t76 -22.5l-14 -93q-52 -5 -95 -27t-75 -56q-39 -42 -60.5 -95t-21.5 -112q0 -29 3.5 -59.5t8 -62t8 -63.5t3.5 -63q0 -76 -29.5 -137.5t-80.5 -106.5q-54 -48 -127.5 -74 t-158.5 -26h-69l20 133h47q46 0 81.5 17t60.5 48q26 31 38.5 73.5t12.5 92.5q0 26 -3.5 51.5t-7 50.5t-7 51t-3.5 54q0 104 71 193q35 43 85 83.5t117 82.5q-72 40 -120 114q-23 36 -36.5 75.5t-13.5 78.5q0 51 19 101.5t41.5 100.5t41.5 100t19 99q0 34 -10 57.5t-27 39.5 t-41.5 23t-53.5 7h-47l21 131h67q62 0 116 -14.5t96 -43.5q44 -30 69 -75.5t25 -107.5z" />
<glyph unicode="~" d="M969 717q-2 -66 -22 -114t-50 -80q-26 -26 -56.5 -40t-62.5 -14q-45 0 -96.5 12t-100.5 26l-91 26t-68 12q-35 0 -61.5 -19.5t-45.5 -56.5h-92q3 57 20.5 105t46.5 82q24 29 53.5 45t64.5 16q45 0 96.5 -12t101 -27t93.5 -27t75 -12q81 0 107 78h88z" />
<glyph unicode="&#xa1;" horiz-adv-x="643" d="M379 922q58 0 97 -41q17 -18 27.5 -42.5t10.5 -52.5q0 -27 -10.5 -51t-27.5 -42q-19 -20 -43.5 -31t-53.5 -11q-28 0 -52 10t-42 28q-19 19 -30 44t-11 53t10 52.5t28 42.5q18 19 43 30t54 11zM313 -390h-205l50 292q8 49 20.5 104.5t32.5 127.5t48.5 165.5t68.5 218.5 h71q-1 -127 -4.5 -222t-8 -167t-10.5 -126t-14 -101z" />
<glyph unicode="&#xa2;" horiz-adv-x="1073" d="M621 819q-47 -4 -85.5 -21t-69.5 -43t-53.5 -60.5t-36.5 -73.5q-26 -70 -26 -146q0 -50 8.5 -85.5t23.5 -61.5q14 -24 32.5 -40t40.5 -26zM885 727q-72 66 -160 90l-168 -586q5 -2 9 -2h9q35 0 68.5 5t66.5 15q58 17 117 50l-18 -149q-29 -11 -60 -19.5t-63 -14.5 q-66 -12 -137 -12h-29l-74 -256h-114l84 279q-35 7 -67.5 25.5t-60.5 44.5q-57 55 -87 131q-25 64 -25 127q0 128 44 231q25 59 62 107t88 83q58 42 131 64t161 21l75 256h103l-78 -269q48 -15 90 -36q19 -10 36 -20t32 -22z" />
<glyph unicode="&#xa3;" horiz-adv-x="1083" d="M154 670l26 149h152q0 124 14.5 223.5t49.5 175.5q26 55 63.5 97t90.5 71q55 30 126.5 45t165.5 15q29 0 62 -5t65.5 -15t61.5 -24.5t48 -33.5l-96 -154q-43 31 -91.5 47.5t-100.5 16.5q-114 0 -177 -72q-82 -95 -82 -323v-64h211l-24 -149h-187q-1 -62 -10.5 -134 t-27.5 -140t-44 -125t-59 -89q107 -67 279 -67q32 0 70 10.5t75 28.5q38 19 68.5 43.5t46.5 52.5l114 -127q-10 -22 -28.5 -42.5t-43 -38.5t-53 -33.5t-59.5 -28.5q-52 -22 -104 -34t-90 -12q-70 0 -124 12t-102 26q-39 11 -77.5 19.5t-81.5 8.5q-36 0 -78.5 -3t-93.5 -11 l-29 151q63 32 109 88.5t77 127.5t47 152.5t19 164.5h-178z" />
<glyph unicode="&#xa5;" horiz-adv-x="1141" d="M272 623h236l6 32l-332 809h209l250 -624l461 624h225l-612 -809l-6 -32h219l-21 -119h-219l-22 -127h217l-21 -119h-219l-45 -258h-201l45 258h-235l20 119h238l22 127h-235z" />
<glyph unicode="&#xa6;" horiz-adv-x="1073" d="M506 -197v723h145v-723h-145zM506 741v723h145v-723h-145z" />
<glyph unicode="&#xa7;" horiz-adv-x="930" d="M434 901q-2 3 -19 -6t-36.5 -27.5t-35 -44.5t-15.5 -57q0 -34 24 -63q14 -17 34.5 -30t45.5 -24q19 -9 45.5 -19t50.5 -18q19 -6 41 -14.5t45 -17.5q25 32 43.5 73.5t18.5 81.5q0 37 -18.5 61.5t-55.5 41.5q-22 10 -39.5 16t-35.5 12t-39.5 14t-53.5 21zM858 786 q0 -38 -8 -71.5t-25 -64.5q-32 -57 -102 -115h-2q51 -45 74 -93q20 -43 20 -90q0 -56 -14 -102.5t-40 -84.5q-31 -46 -74.5 -80t-96.5 -57q-56 -24 -117 -36t-123 -12q-115 0 -199 27q-76 24 -126 67l98 164q46 -49 107 -75q65 -28 139 -28q121 0 188 52q29 23 44 54.5 t15 73.5q0 26 -11.5 46t-34.5 39q-31 24 -82.5 47.5t-127.5 52.5q-51 20 -92.5 44.5t-69.5 57.5q-20 24 -31 52t-11 63q0 38 11.5 69t31.5 57q23 30 55 54.5t70 46.5h4q-28 12 -50 37q-19 21 -35 56.5t-16 90.5q0 49 12 91.5t35 79.5q29 48 72 83.5t96 59.5q97 43 207 43 q41 0 82.5 -6t79.5 -17q42 -12 75 -28.5t52 -36.5l-90 -168q-21 25 -45.5 44.5t-50.5 33.5q-57 30 -117 30q-45 0 -83.5 -10t-67.5 -30q-30 -21 -47 -53t-17 -75q0 -27 12 -48t36 -39t60 -35t84 -35q78 -29 128.5 -56t78.5 -59q21 -23 30 -50t9 -61z" />
<glyph unicode="&#xa8;" horiz-adv-x="606" d="M119 1464q50 0 82 -35q30 -32 30 -77q0 -53 -36 -84q-15 -14 -34.5 -21.5t-41.5 -7.5q-43 0 -74 28q-18 16 -28.5 37.5t-10.5 47.5q0 23 9 43.5t24 35.5q16 15 36.5 24t43.5 9zM487 1464q46 0 78 -30q17 -15 26 -36t9 -46q0 -26 -11 -48.5t-30 -38.5q-15 -12 -33.5 -19 t-38.5 -7q-44 0 -73 26q-18 15 -28.5 38t-10.5 49q0 23 8.5 43t22.5 35q15 16 36 25t45 9z" />
<glyph unicode="&#xa9;" horiz-adv-x="930" d="M207 1122q0 76 30 142.5t81 116.5q50 48 114.5 76t136.5 28q81 0 151 -34t121 -92q42 -48 66.5 -108.5t24.5 -128.5q0 -65 -22 -122.5t-61 -105.5q-51 -61 -123 -97.5t-157 -36.5q-75 0 -141 29t-116 80q-48 50 -76.5 114.5t-28.5 138.5zM872 1122q0 58 -20 109t-55 91 q-42 48 -100.5 75.5t-127.5 27.5q-62 0 -115.5 -23t-95.5 -64q-42 -42 -67 -97.5t-25 -118.5q0 -62 23.5 -115.5t63.5 -95.5q42 -43 97.5 -67.5t118.5 -24.5q71 0 131 29.5t102 80.5q33 40 51.5 89t18.5 104zM709 948q-28 -28 -62 -40.5t-76 -12.5q-48 0 -83.5 18.5t-59 50 t-34.5 73t-11 87.5q0 45 12.5 86.5t37 74t60.5 52t82 19.5q77 0 115 -25l-20 -51q-30 20 -92 20q-36 0 -60.5 -16t-39.5 -41.5t-22 -58t-7 -64.5t7.5 -62.5t23 -54.5t40.5 -38.5t60 -14.5q62 0 94 43z" />
<glyph unicode="&#xaa;" horiz-adv-x="928" d="M825 1290q0 -9 -1 -22.5t-3 -28.5t-4 -29t-4 -25l-37 -207q-2 -12 -4 -22.5t-2 -21.5q0 -29 19.5 -41.5t58.5 -12.5v-1q-8 -18 -22 -33.5t-32 -26.5q-18 -12 -36.5 -18t-34.5 -6q-38 0 -59 20q-21 18 -30 52q-35 -37 -81 -55q-48 -17 -108 -17q-31 0 -57.5 7t-49.5 19 q-25 14 -43.5 33t-31.5 41q-11 21 -17.5 44t-6.5 46q0 35 9 65.5t24 55.5q20 32 51.5 56t68.5 40q41 17 85.5 25.5t89.5 8.5q32 0 65 -5t53 -10q3 17 3.5 30t0.5 24q0 58 -33 86q-28 22 -81 22q-51 0 -92 -16q-26 -9 -50 -22.5t-44 -30.5l-31 107q20 15 46.5 27t55.5 21 q32 9 65 14t65 5q75 0 126 -21q54 -22 82 -69q27 -43 27 -108zM668 1138q-22 5 -43.5 8t-51.5 3q-67 0 -115 -24q-43 -20 -64 -56q-17 -29 -17 -67q0 -41 26 -70q14 -16 34.5 -25t43.5 -9q45 0 91 23q18 10 35.5 22.5t31.5 28.5z" />
<glyph unicode="&#xab;" horiz-adv-x="780" d="M391 381l21 131l387 285l-29 -185l-240 -172l185 -153l-29 -183zM29 381l20 131l387 285l-28 -185l-240 -172l184 -153l-28 -183z" />
<glyph unicode="&#xac;" horiz-adv-x="1073" d="M961 887v-488h-142v346h-696v142h838z" />
<glyph unicode="&#xae;" horiz-adv-x="932" d="M213 1124q0 66 23 125.5t64 107.5q51 60 122.5 95t155.5 35q81 0 152 -34.5t122 -94.5q41 -48 64.5 -108t23.5 -126q0 -61 -19 -116.5t-54 -101.5q-50 -66 -125.5 -106t-163.5 -40q-78 0 -145.5 30.5t-118.5 83.5q-47 49 -74 113t-27 137zM881 1124q0 57 -19 107t-54 90 q-42 49 -101.5 77.5t-128.5 28.5t-129.5 -28.5t-102.5 -77.5q-35 -40 -54.5 -90t-19.5 -107q0 -62 23 -115.5t63 -95.5q42 -44 98.5 -69t121.5 -25q71 0 131.5 30.5t102.5 81.5q32 40 50.5 89t18.5 104zM690 905l-115 191h-63v-191h-63v447h114q160 0 160 -125 q0 -85 -86 -121l123 -201h-70zM512 1296v-147q5 0 14.5 -1t26.5 -1q27 0 47 2t33 10t19.5 23.5t6.5 42.5q0 71 -96 71h-51z" />
<glyph unicode="&#xaf;" horiz-adv-x="678" d="M6 1235v129h668v-129h-668z" />
<glyph unicode="&#xb0;" horiz-adv-x="672" d="M471 1356q-29 0 -53.5 -10.5t-43.5 -29.5t-29.5 -43.5t-10.5 -53.5q0 -30 11.5 -56t31.5 -45q19 -17 42.5 -27t51.5 -10q30 0 55.5 11t44.5 31q17 19 27 43t10 53q0 51 -30 87q-19 23 -46.5 36.5t-60.5 13.5zM471 989q-49 0 -91 18t-74 50q-31 31 -48.5 72.5t-17.5 89.5 q0 42 14 79.5t40 66.5q32 37 77.5 58t99.5 21q47 0 87.5 -16.5t72.5 -45.5q33 -31 52 -72.5t19 -90.5q0 -48 -17 -88.5t-46 -71.5q-32 -33 -75 -51.5t-93 -18.5z" />
<glyph unicode="&#xb1;" d="M1026 158v-158h-895v158h895zM655 715h371v-158h-371v-358h-157v358h-367v158h367v362h157v-362z" />
<glyph unicode="&#xb2;" horiz-adv-x="924" d="M166 563l4 23l334 387q62 72 96.5 131.5t34.5 120.5q0 45 -26 68.5t-79 23.5q-101 0 -190 -127l-72 70q20 37 52.5 69t71.5 55q36 22 75.5 34t77.5 12q118 0 178 -46q57 -45 57 -129q0 -37 -9.5 -73.5t-26.5 -73.5q-20 -42 -49 -83.5t-66 -84.5l-226 -258h336l-20 -119 h-553z" />
<glyph unicode="&#xb3;" horiz-adv-x="924" d="M279 766q23 -31 56 -46t81 -15q47 0 83.5 15t60.5 41q40 43 40 107q0 53 -32 85q-38 36 -111 36h-17l25 103q70 0 118 34q25 18 39.5 44t14.5 61q0 43 -27 67q-28 25 -84 25q-38 0 -75 -12.5t-66 -40.5l-37 98q48 37 100 56.5t111 19.5q76 0 131 -27q48 -23 72 -64 q22 -36 22 -83q0 -35 -10.5 -66.5t-30.5 -58.5q-24 -33 -58.5 -59t-76.5 -42q71 -25 103 -70q28 -38 28 -95q0 -43 -10 -80.5t-29 -69.5q-39 -65 -110 -101q-40 -20 -87.5 -31t-101.5 -11q-66 0 -119 17t-85 54z" />
<glyph unicode="&#xb4;" horiz-adv-x="369" d="M-25 1112l220 352h204l-278 -352h-146z" />
<glyph unicode="&#xb5;" horiz-adv-x="965" d="M207 901h184l-100 -561q-9 -52 -8 -91t15 -65.5t42.5 -39.5t73.5 -13q35 0 69.5 11t66.5 31t58.5 48t44.5 62l111 618h184l-162 -901h-122l-41 109q-24 -29 -55 -50.5t-65 -36.5q-33 -14 -67 -22t-65 -8q-17 0 -36.5 2t-38.5 6t-35.5 10t-27.5 13l-73 -413h-183z" />
<glyph unicode="&#xb6;" horiz-adv-x="1432" d="M930 -250v1591h-158v-1591h-154v868q-180 0 -267 116q-81 110 -81 319q0 79 18.5 155.5t60.5 136.5q38 54 94.5 86.5t134.5 32.5h505v-1714h-153z" />
<glyph unicode="&#xb7;" horiz-adv-x="492" d="M289 801q30 0 57.5 -11.5t47.5 -31.5q21 -20 33.5 -47.5t12.5 -59.5q0 -29 -11 -55.5t-30 -46.5q-21 -23 -49.5 -36t-60.5 -13q-31 0 -58.5 12t-47.5 33q-20 20 -32 47.5t-12 58.5q0 29 11.5 56.5t31.5 47.5q20 21 47.5 33.5t59.5 12.5z" />
<glyph unicode="&#xb8;" horiz-adv-x="319" d="M-4 -311q43 1 81 5.5t65 18.5q22 11 34.5 28.5t12.5 43.5q0 22 -14 33q-18 14 -66 14l20 119q46 0 83.5 -11.5t61.5 -35.5q38 -36 38 -98q0 -51 -18 -89t-52 -64q-42 -32 -103 -47.5t-139 -15.5z" />
<glyph unicode="&#xb9;" horiz-adv-x="924" d="M434 563l117 647q-51 -26 -105 -56t-104 -56l20 114q112 51 194 106q38 26 70 52t58 53h47l-153 -860h-144z" />
<glyph unicode="&#xba;" horiz-adv-x="940" d="M442 1061q0 -39 7 -68.5t23 -49.5q32 -40 95 -40q37 0 66.5 15t52.5 41q25 27 42 63.5t28 76.5q9 34 13.5 68t4.5 66q0 76 -33 115q-32 38 -92 38q-30 0 -55.5 -10.5t-46.5 -28.5q-26 -23 -45 -54.5t-32 -67.5q-14 -41 -21 -83.5t-7 -80.5zM309 1053q0 55 11 109t33 104 q41 95 116 156q41 32 90 50.5t107 18.5q123 0 185 -70q58 -66 58 -182q0 -103 -38 -199q-22 -55 -54.5 -102t-77.5 -81q-39 -29 -86 -45.5t-102 -16.5q-56 0 -99 15t-73 44q-70 67 -70 199z" />
<glyph unicode="&#xbb;" horiz-adv-x="780" d="M348 104l29 183l237 153l-182 172l29 185l293 -285l-21 -131zM-12 104l26 183l238 153l-182 172l28 185l293 -285l-20 -131z" />
<glyph unicode="&#xbc;" horiz-adv-x="1667" d="M299 563l117 647q-51 -26 -105.5 -56t-103.5 -56l20 114q118 55 200 110q36 25 66.5 50t55.5 51h47l-154 -860h-143zM342 0h-156l1133 1421h156zM1311 590q-73 -72 -147 -144.5t-146 -144.5h242zM1384 201l-36 -201h-144l37 201h-403l12 65l598 590h53l-98 -555h88 l-18 -100h-89z" />
<glyph unicode="&#xbd;" horiz-adv-x="1667" d="M276 0h-155l1132 1421h156zM274 563l117 647q-51 -26 -105 -56t-104 -56l21 114q58 26 107.5 53.5t91.5 56.5q73 49 122 101h47l-153 -860h-144zM907 0l4 23l334 387q35 42 62 78.5t44 71.5q12 26 18.5 51t6.5 51q0 45 -26 68.5t-78 23.5q-100 0 -191 -127l-71 69 q22 40 58 74t79 57q34 18 69 28.5t70 10.5q118 0 176 -43q60 -43 60 -131q0 -42 -11.5 -82t-33.5 -82q-20 -37 -47 -74.5t-60 -76.5l-225 -258h336l-21 -119h-553z" />
<glyph unicode="&#xbe;" horiz-adv-x="1667" d="M1315 590l-293 -289h242zM1389 201l-37 -201h-144l37 201h-403l12 65l598 590h53l-98 -555h88l-18 -100h-88zM395 0h-155l1132 1421h156zM201 766q23 -31 56 -46t81 -15q45 0 80 13.5t59 36.5q45 43 45 113q0 53 -31 84q-37 37 -112 37h-17l25 103q42 0 76.5 12t57.5 35 q38 36 38 92q0 46 -29 69q-28 23 -81 23q-39 0 -76 -12.5t-66 -40.5l-37 98q25 19 51 33.5t53 24.5q51 18 107 18t102.5 -15.5t77.5 -45.5q22 -21 34 -49.5t12 -63.5q0 -33 -10 -63.5t-28 -56.5q-24 -35 -60 -62t-79 -44q74 -26 106 -74q26 -38 26 -91q0 -79 -34 -141 q-39 -68 -112 -108q-82 -44 -192 -44q-66 0 -119.5 17t-85.5 54z" />
<glyph unicode="&#xbf;" horiz-adv-x="752" d="M502 922q29 0 54 -11.5t44 -31.5q17 -18 27 -42t10 -51q0 -29 -12.5 -54.5t-32.5 -44.5q-18 -17 -41 -26.5t-49 -9.5q-29 0 -53.5 10.5t-42.5 29.5t-28.5 43.5t-10.5 51.5q0 58 39 97q18 18 42.5 28.5t53.5 10.5zM553 518q8 -29 11 -53t3 -41q0 -24 -5.5 -48t-12.5 -44 q-13 -37 -36 -71q-23 -35 -57.5 -69.5t-82.5 -78.5q-42 -38 -76 -68t-59 -58t-38.5 -57.5t-13.5 -66.5q0 -60 34 -88q41 -33 136 -33q51 0 96.5 20t90.5 52l47 -144q-29 -19 -60 -33.5t-67 -25.5q-35 -10 -75.5 -15.5t-90.5 -5.5q-51 0 -94.5 8.5t-80.5 24.5q-68 30 -107 81 q-21 28 -32.5 60.5t-11.5 69.5q0 72 37 134q20 33 48.5 63t64.5 59l170 137q31 25 52 51.5t35 55.5q16 30 26 64t10 69v23.5t-2 27.5h141z" />
<glyph unicode="&#xc0;" horiz-adv-x="1251" d="M778 1081h-4l-334 -624h432zM940 0l-45 309h-535l-172 -309h-217l858 1485h45l289 -1485h-223zM830 1540l-174 352h205l102 -352h-133z" />
<glyph unicode="&#xc1;" horiz-adv-x="1251" d="M778 1081h-4l-334 -624h432zM940 0l-45 309h-535l-172 -309h-217l858 1485h45l289 -1485h-223zM729 1540l220 352h204l-278 -352h-146z" />
<glyph unicode="&#xc2;" horiz-adv-x="1251" d="M778 1081h-4l-334 -624h432zM940 0l-45 309h-535l-172 -309h-217l858 1485h45l289 -1485h-223zM1038 1540l-147 193l-217 -193h-150l310 352h164l192 -352h-152z" />
<glyph unicode="&#xc3;" horiz-adv-x="1251" d="M778 1081h-4l-334 -624h432zM940 0l-45 309h-535l-172 -309h-217l858 1485h45l289 -1485h-223zM1194 1749q-49 -118 -114 -169q-50 -40 -113 -40q-40 0 -71.5 12t-58.5 27t-51.5 27t-49.5 12q-72 0 -121 -78h-88q11 40 36 81.5t59 73.5q26 24 56.5 39t63.5 15 q51 0 84 -12t58.5 -27t48 -27t52.5 -12q42 0 71.5 20t49.5 58h88z" />
<glyph unicode="&#xc4;" horiz-adv-x="1251" d="M778 1081h-4l-334 -624h432zM940 0l-45 309h-535l-172 -309h-217l858 1485h45l289 -1485h-223zM682 1765q50 0 82 -35q30 -32 30 -77q0 -53 -36 -84q-15 -14 -34.5 -21.5t-41.5 -7.5q-43 0 -74 28q-18 16 -28.5 37.5t-10.5 47.5q0 23 9 43.5t24 35.5q16 15 36.5 24 t43.5 9zM1050 1765q46 0 78 -30q17 -15 26 -36t9 -46q0 -26 -11 -48.5t-30 -38.5q-15 -12 -33.5 -19t-38.5 -7q-44 0 -73 26q-18 15 -28.5 38t-10.5 49q0 23 8.5 43t22.5 35q15 16 36 25t45 9z" />
<glyph unicode="&#xc5;" horiz-adv-x="1251" d="M778 1081h-4l-334 -624h432zM940 0l-45 309h-535l-172 -309h-217l858 1485h45l289 -1485h-223zM889 1960q42 0 79 -15.5t66 -42.5q30 -29 48 -67t18 -83q0 -37 -12 -69.5t-32 -59.5q-29 -38 -72.5 -60t-94.5 -22q-43 0 -80.5 15.5t-66.5 43.5q-30 29 -47 68t-17 84 q0 42 16 78.5t44 65.5q29 29 68 46.5t83 17.5zM889 1651q22 0 40.5 8.5t32.5 22.5q28 28 28 70q0 23 -9.5 42.5t-26.5 33.5q-28 22 -65 22q-41 0 -70 -27q-15 -14 -23.5 -32t-8.5 -39q0 -20 7.5 -37.5t20.5 -31.5q30 -32 74 -32z" />
<glyph unicode="&#xc6;" horiz-adv-x="1837" d="M1030 1081h-4l-485 -624h381zM895 309h-467l-240 -309h-217l1129 1464h878l-34 -180h-674l-72 -405h485l-30 -170h-484l-94 -529h664l-31 -180h-866z" />
<glyph unicode="&#xc7;" horiz-adv-x="1225" d="M1147 1251q-80 62 -236 62q-100 0 -184 -43t-151 -115q-54 -57 -96 -127.5t-71 -147.5q-30 -78 -45.5 -157t-15.5 -152q0 -181 69 -283q86 -128 279 -128q91 0 175 34q87 35 165 103l-16 -207q-61 -57 -158 -84q-47 -14 -101.5 -20t-117.5 -6q-75 0 -138.5 14.5 t-115.5 42.5q-114 62 -175 180q-35 66 -52 146t-17 172q0 118 22 233.5t66 221.5q43 103 105 191t144 155q89 72 199 113.5t243 41.5q86 0 154 -12t122 -35zM438 -311q43 1 81 5.5t65 18.5q22 11 34.5 28.5t12.5 43.5q0 22 -14 33q-18 14 -66 14l20 119q46 0 83.5 -11.5 t61.5 -35.5q38 -36 38 -98q0 -51 -18 -89t-52 -64q-42 -32 -103 -47.5t-139 -15.5z" />
<glyph unicode="&#xc8;" horiz-adv-x="1098" d="M479 1284l-71 -405h485l-31 -170h-483l-94 -529h663l-30 -180h-867l258 1464h879l-35 -180h-674zM723 1540l-174 352h205l102 -352h-133z" />
<glyph unicode="&#xc9;" horiz-adv-x="1098" d="M479 1284l-71 -405h485l-31 -170h-483l-94 -529h663l-30 -180h-867l258 1464h879l-35 -180h-674zM661 1540l220 352h204l-278 -352h-146z" />
<glyph unicode="&#xca;" horiz-adv-x="1098" d="M479 1284l-71 -405h485l-31 -170h-483l-94 -529h663l-30 -180h-867l258 1464h879l-35 -180h-674zM956 1540l-147 193l-217 -193h-150l310 352h164l192 -352h-152z" />
<glyph unicode="&#xcb;" horiz-adv-x="1098" d="M479 1284l-71 -405h485l-31 -170h-483l-94 -529h663l-30 -180h-867l258 1464h879l-35 -180h-674zM580 1765q50 0 82 -35q30 -32 30 -77q0 -53 -36 -84q-15 -14 -34.5 -21.5t-41.5 -7.5q-43 0 -74 28q-18 16 -28.5 37.5t-10.5 47.5q0 23 9 43.5t24 35.5q16 15 36.5 24 t43.5 9zM948 1765q46 0 78 -30q17 -15 26 -36t9 -46q0 -26 -11 -48.5t-30 -38.5q-15 -12 -33.5 -19t-38.5 -7q-44 0 -73 26q-18 15 -28.5 38t-10.5 49q0 23 8.5 43t22.5 35q15 16 36 25t45 9z" />
<glyph unicode="&#xcc;" horiz-adv-x="569" d="M80 0l258 1464h197l-260 -1464h-195zM424 1540l-174 352h205l102 -352h-133z" />
<glyph unicode="&#xcd;" horiz-adv-x="569" d="M80 0l258 1464h197l-260 -1464h-195zM342 1540l220 352h204l-278 -352h-146z" />
<glyph unicode="&#xce;" horiz-adv-x="569" d="M80 0l258 1464h197l-260 -1464h-195zM636 1540l-147 193l-217 -193h-150l310 352h164l192 -352h-152z" />
<glyph unicode="&#xcf;" horiz-adv-x="569" d="M80 0l258 1464h197l-260 -1464h-195zM279 1765q50 0 82 -35q30 -32 30 -77q0 -53 -36 -84q-15 -14 -34.5 -21.5t-41.5 -7.5q-43 0 -74 28q-18 16 -28.5 37.5t-10.5 47.5q0 23 9 43.5t24 35.5q16 15 36.5 24t43.5 9zM647 1765q46 0 78 -30q17 -15 26 -36t9 -46 q0 -26 -11 -48.5t-30 -38.5q-15 -12 -33.5 -19t-38.5 -7q-44 0 -73 26q-18 15 -28.5 38t-10.5 49q0 23 8.5 43t22.5 35q15 16 36 25t45 9z" />
<glyph unicode="&#xd0;" horiz-adv-x="1255" d="M1243 897q0 -132 -26 -248t-77 -216q-47 -92 -112.5 -166.5t-149.5 -129.5q-101 -66 -224 -101.5t-267 -35.5h-315l123 705h-158l26 161h160l107 598q121 25 243 25q100 0 187.5 -15t162.5 -47q77 -32 137 -81.5t102 -118.5q40 -66 60.5 -147.5t20.5 -182.5zM618 705 h-229l-88 -517q32 -6 61.5 -7t57.5 -1q87 0 160.5 20t136.5 57q76 45 134.5 111t98.5 147q43 88 64.5 188t21.5 206q0 60 -14.5 112.5t-41.5 97.5q-51 83 -135 131q-50 29 -108 44t-123 15q-34 0 -65 -3.5t-62 -13.5l-71 -426h231z" />
<glyph unicode="&#xd1;" horiz-adv-x="1307" d="M1008 -20l-580 1040h-2l-172 -1020h-191l259 1464h71l568 -997h2l167 997h191l-262 -1484h-51zM1173 1749q-49 -118 -114 -169q-50 -40 -113 -40q-40 0 -71.5 12t-58.5 27t-51.5 27t-49.5 12q-72 0 -121 -78h-88q11 40 36 81.5t59 73.5q26 24 56.5 39t63.5 15 q51 0 84 -12t58.5 -27t48 -27t52.5 -12q42 0 71.5 20t49.5 58h88z" />
<glyph unicode="&#xd2;" horiz-adv-x="1380" d="M324 565q0 -79 14.5 -152.5t49.5 -130.5q34 -56 89.5 -89t140.5 -33q97 0 174.5 32.5t138.5 89.5q68 63 114.5 149t74.5 183q23 80 34 162t11 160q0 176 -72 270q-81 107 -255 107q-73 0 -136 -27t-116 -74q-67 -59 -116.5 -140.5t-82.5 -172.5q-32 -87 -47.5 -173.5 t-15.5 -160.5zM119 539q0 103 18 208t54 205q41 113 103.5 212t148.5 173q83 72 185 113t226 41q181 0 301 -73q104 -63 158 -179q55 -119 55 -283q0 -119 -18 -233.5t-56 -219.5q-41 -112 -102.5 -205.5t-147.5 -163.5q-89 -72 -202 -113t-254 -41q-74 0 -135 17t-111 48 q-57 35 -98.5 86.5t-69.5 115.5t-41.5 138t-13.5 154zM828 1540l-174 352h205l102 -352h-133z" />
<glyph unicode="&#xd3;" horiz-adv-x="1380" d="M324 565q0 -79 14.5 -152.5t49.5 -130.5q34 -56 89.5 -89t140.5 -33q97 0 174.5 32.5t138.5 89.5q68 63 114.5 149t74.5 183q23 80 34 162t11 160q0 176 -72 270q-81 107 -255 107q-73 0 -136 -27t-116 -74q-67 -59 -116.5 -140.5t-82.5 -172.5q-32 -87 -47.5 -173.5 t-15.5 -160.5zM119 539q0 103 18 208t54 205q41 113 103.5 212t148.5 173q83 72 185 113t226 41q181 0 301 -73q104 -63 158 -179q55 -119 55 -283q0 -119 -18 -233.5t-56 -219.5q-41 -112 -102.5 -205.5t-147.5 -163.5q-89 -72 -202 -113t-254 -41q-74 0 -135 17t-111 48 q-57 35 -98.5 86.5t-69.5 115.5t-41.5 138t-13.5 154zM776 1540l220 352h204l-278 -352h-146z" />
<glyph unicode="&#xd4;" horiz-adv-x="1380" d="M324 565q0 -79 14.5 -152.5t49.5 -130.5q34 -56 89.5 -89t140.5 -33q97 0 174.5 32.5t138.5 89.5q68 63 114.5 149t74.5 183q23 80 34 162t11 160q0 176 -72 270q-81 107 -255 107q-73 0 -136 -27t-116 -74q-67 -59 -116.5 -140.5t-82.5 -172.5q-32 -87 -47.5 -173.5 t-15.5 -160.5zM119 539q0 103 18 208t54 205q41 113 103.5 212t148.5 173q83 72 185 113t226 41q181 0 301 -73q104 -63 158 -179q55 -119 55 -283q0 -119 -18 -233.5t-56 -219.5q-41 -112 -102.5 -205.5t-147.5 -163.5q-89 -72 -202 -113t-254 -41q-74 0 -135 17t-111 48 q-57 35 -98.5 86.5t-69.5 115.5t-41.5 138t-13.5 154zM1056 1540l-147 193l-217 -193h-150l310 352h164l192 -352h-152z" />
<glyph unicode="&#xd5;" horiz-adv-x="1380" d="M324 565q0 -79 14.5 -152.5t49.5 -130.5q34 -56 89.5 -89t140.5 -33q97 0 174.5 32.5t138.5 89.5q68 63 114.5 149t74.5 183q23 80 34 162t11 160q0 176 -72 270q-81 107 -255 107q-73 0 -136 -27t-116 -74q-67 -59 -116.5 -140.5t-82.5 -172.5q-32 -87 -47.5 -173.5 t-15.5 -160.5zM119 539q0 103 18 208t54 205q41 113 103.5 212t148.5 173q83 72 185 113t226 41q181 0 301 -73q104 -63 158 -179q55 -119 55 -283q0 -119 -18 -233.5t-56 -219.5q-41 -112 -102.5 -205.5t-147.5 -163.5q-89 -72 -202 -113t-254 -41q-74 0 -135 17t-111 48 q-57 35 -98.5 86.5t-69.5 115.5t-41.5 138t-13.5 154zM1220 1749q-49 -118 -114 -169q-50 -40 -113 -40q-40 0 -71.5 12t-58.5 27t-51.5 27t-49.5 12q-72 0 -121 -78h-88q11 40 36 81.5t59 73.5q26 24 56.5 39t63.5 15q51 0 84 -12t58.5 -27t48 -27t52.5 -12q42 0 71.5 20 t49.5 58h88z" />
<glyph unicode="&#xd6;" horiz-adv-x="1380" d="M324 565q0 -79 14.5 -152.5t49.5 -130.5q34 -56 89.5 -89t140.5 -33q97 0 174.5 32.5t138.5 89.5q68 63 114.5 149t74.5 183q23 80 34 162t11 160q0 176 -72 270q-81 107 -255 107q-73 0 -136 -27t-116 -74q-67 -59 -116.5 -140.5t-82.5 -172.5q-32 -87 -47.5 -173.5 t-15.5 -160.5zM119 539q0 103 18 208t54 205q41 113 103.5 212t148.5 173q83 72 185 113t226 41q181 0 301 -73q104 -63 158 -179q55 -119 55 -283q0 -119 -18 -233.5t-56 -219.5q-41 -112 -102.5 -205.5t-147.5 -163.5q-89 -72 -202 -113t-254 -41q-74 0 -135 17t-111 48 q-57 35 -98.5 86.5t-69.5 115.5t-41.5 138t-13.5 154zM709 1763q50 0 82 -35q30 -32 30 -77q0 -53 -36 -84q-15 -14 -34.5 -21.5t-41.5 -7.5q-43 0 -74 28q-18 16 -28.5 37.5t-10.5 47.5q0 23 9 43.5t24 35.5q16 15 36.5 24t43.5 9zM1077 1763q46 0 78 -30q17 -15 26 -36 t9 -46q0 -26 -11 -48.5t-30 -38.5q-15 -12 -33.5 -19t-38.5 -7q-44 0 -73 26q-18 15 -28.5 38t-10.5 49q0 23 8.5 43t22.5 35q15 16 36 25t45 9z" />
<glyph unicode="&#xd7;" d="M713 635l338 -338l-111 -111l-338 338l-338 -338l-112 113l337 336l-333 334l112 112l334 -333l334 333l113 -110z" />
<glyph unicode="&#xd8;" horiz-adv-x="1380" d="M1165 936q0 23 -2 45.5t-10 44.5l-737 -784q17 -20 37.5 -35t46.5 -26q50 -21 118 -21q77 0 141.5 21t118.5 59q79 56 134.5 140t90.5 184q32 91 47 186t15 186zM324 565q0 -49 5.5 -97t22.5 -91l756 807q-37 63 -106 97q-34 17 -75 24.5t-89 7.5q-75 0 -139 -28.5 t-118 -76.5q-66 -60 -115 -142t-81 -173q-31 -85 -46 -170t-15 -158zM1368 956q0 -140 -25 -271.5t-76 -248.5q-48 -108 -118 -196t-164 -149q-81 -53 -180 -82t-217 -29q-47 0 -89 7t-80 20q-81 28 -143 83l-102 -110l-174 20l195 205q-20 36 -34.5 75.5t-23.5 82.5 q-18 84 -18 176q0 127 26.5 255t80.5 245q45 97 106.5 180.5t142.5 144.5q78 60 172.5 93.5t206.5 33.5q134 0 240 -43q94 -39 159 -109l136 146l176 -21l-240 -254q43 -105 43 -254z" />
<glyph unicode="&#xd9;" horiz-adv-x="1327" d="M328 1464h202l-180 -1001q-6 -34 -6 -64q0 -106 60 -168q34 -35 84.5 -53t113.5 -18q97 0 173 35q73 33 121 96q55 70 75 176l180 997h197l-181 -1018q-14 -79 -45.5 -146t-78.5 -121q-46 -54 -104.5 -93t-127.5 -65q-111 -41 -238 -41q-60 0 -116.5 10t-106.5 30 q-53 22 -94.5 55t-70.5 79q-23 37 -35.5 82.5t-12.5 99.5q0 26 2.5 53.5t7.5 56.5zM819 1540l-174 352h205l102 -352h-133z" />
<glyph unicode="&#xda;" horiz-adv-x="1327" d="M328 1464h202l-180 -1001q-6 -34 -6 -64q0 -106 60 -168q34 -35 84.5 -53t113.5 -18q97 0 173 35q73 33 121 96q55 70 75 176l180 997h197l-181 -1018q-14 -79 -45.5 -146t-78.5 -121q-46 -54 -104.5 -93t-127.5 -65q-111 -41 -238 -41q-60 0 -116.5 10t-106.5 30 q-53 22 -94.5 55t-70.5 79q-23 37 -35.5 82.5t-12.5 99.5q0 26 2.5 53.5t7.5 56.5zM733 1540l220 352h204l-278 -352h-146z" />
<glyph unicode="&#xdb;" horiz-adv-x="1327" d="M328 1464h202l-180 -1001q-6 -34 -6 -64q0 -106 60 -168q34 -35 84.5 -53t113.5 -18q97 0 173 35q73 33 121 96q55 70 75 176l180 997h197l-181 -1018q-14 -79 -45.5 -146t-78.5 -121q-46 -54 -104.5 -93t-127.5 -65q-111 -41 -238 -41q-60 0 -116.5 10t-106.5 30 q-53 22 -94.5 55t-70.5 79q-23 37 -35.5 82.5t-12.5 99.5q0 26 2.5 53.5t7.5 56.5zM1017 1540l-147 193l-217 -193h-150l310 352h164l192 -352h-152z" />
<glyph unicode="&#xdc;" horiz-adv-x="1327" d="M328 1464h202l-180 -1001q-6 -34 -6 -64q0 -106 60 -168q34 -35 84.5 -53t113.5 -18q97 0 173 35q73 33 121 96q55 70 75 176l180 997h197l-181 -1018q-14 -79 -45.5 -146t-78.5 -121q-46 -54 -104.5 -93t-127.5 -65q-111 -41 -238 -41q-60 0 -116.5 10t-106.5 30 q-53 22 -94.5 55t-70.5 79q-23 37 -35.5 82.5t-12.5 99.5q0 26 2.5 53.5t7.5 56.5zM692 1765q50 0 82 -35q30 -32 30 -77q0 -53 -36 -84q-15 -14 -34.5 -21.5t-41.5 -7.5q-43 0 -74 28q-18 16 -28.5 37.5t-10.5 47.5q0 23 9 43.5t24 35.5q16 15 36.5 24t43.5 9zM1060 1765 q46 0 78 -30q17 -15 26 -36t9 -46q0 -26 -11 -48.5t-30 -38.5q-15 -12 -33.5 -19t-38.5 -7q-44 0 -73 26q-18 15 -28.5 38t-10.5 49q0 23 8.5 43t22.5 35q15 16 36 25t45 9z" />
<glyph unicode="&#xdd;" horiz-adv-x="1167" d="M711 655l-117 -655h-193l117 655q-39 96 -81 198.5t-84.5 206.5t-85 206.5t-81.5 197.5h201l252 -624h6l461 624h217zM645 1540l220 352h204l-278 -352h-146z" />
<glyph unicode="&#xde;" horiz-adv-x="1112" d="M258 0h-201l269 1464h200l-41 -219q20 3 40 4.5t57 1.5q197 0 323 -57q118 -54 172 -158q45 -87 45 -209q0 -82 -19.5 -150.5t-55.5 -125.5t-86 -99.5t-112 -72.5q-72 -35 -155 -52.5t-174 -17.5q-52 0 -102 6t-101 17zM350 510q19 -9 64.5 -17t99.5 -8t103.5 8t94.5 25 q49 18 88.5 46.5t67.5 68.5q24 35 37 78t13 96q0 97 -39 160q-32 50 -87 77q-67 33 -169 33q-85 0 -174 -24z" />
<glyph unicode="&#xdf;" horiz-adv-x="1118" d="M1079 551q0 -73 -15 -144t-44 -137q-26 -60 -64 -111t-86 -89q-53 -42 -118 -66t-142 -24q-71 0 -135 22l62 152q23 -5 36.5 -7t18.5 -2q45 0 82 12.5t68 35.5q34 26 59 61.5t42 77.5q16 40 23.5 83.5t7.5 88.5q0 48 -18 97.5t-49 80.5q-16 12 -43.5 38t-71.5 66 q-61 58 -61 121q0 43 51 84q36 30 67 56.5t52 58.5q16 24 24.5 53.5t8.5 69.5q0 60 -44 87q-37 23 -102 23q-44 0 -76 -13t-55 -36q-42 -42 -62 -113.5t-36 -160.5l-201 -1127q-21 -123 -127 -204q-53 -42 -113.5 -65.5t-130.5 -31.5l-12 121q94 27 149 107q23 35 40 79.5 t26 100.5l203 1163q14 81 52 146t93 111q54 45 118 69t136 24q149 0 235 -55q45 -29 68 -72t23 -100q0 -36 -7 -68t-21 -63q-16 -35 -39 -68t-54 -65q-32 -34 -47.5 -55t-15.5 -27q0 -22 79 -68q93 -53 134 -146q32 -71 32 -171z" />
<glyph unicode="&#xe0;" horiz-adv-x="909" d="M825 653q0 -12 -1.5 -30.5t-4 -38.5t-5.5 -39.5t-5 -34.5l-51 -281q-3 -17 -5.5 -31t-2.5 -28q0 -40 26.5 -57t79.5 -17v-2q-10 -24 -29.5 -45t-43.5 -36q-24 -16 -49.5 -24.5t-47.5 -8.5q-49 0 -80 28q-28 25 -41 70q-49 -51 -110 -74q-63 -24 -146 -24q-42 0 -78 9.5 t-67 26.5q-34 19 -59.5 45t-42.5 56q-16 29 -24.5 59.5t-8.5 61.5q0 49 12 90t33 75q28 45 70 77t93 54q55 23 116 34.5t122 11.5q43 0 87.5 -7.5t72.5 -13.5q5 23 5.5 40.5t0.5 33.5q0 79 -45 116q-38 31 -111 31q-34 0 -65 -5.5t-60 -16.5q-35 -13 -67 -31.5t-60 -40.5 l-43 145q28 20 63.5 36.5t75.5 28.5q43 13 88 19.5t89 6.5q101 0 171 -29q38 -15 65.5 -38.5t46.5 -54.5q36 -60 36 -147zM612 446q-29 7 -58.5 11t-70.5 4q-44 0 -84 -7.5t-73 -24.5q-28 -14 -50 -32.5t-36 -43.5q-23 -40 -23 -91q0 -57 35 -95q20 -22 47 -34t59 -12 q61 0 123 31q25 13 48.5 30t43.5 39zM606 1112l-174 352h205l102 -352h-133z" />
<glyph unicode="&#xe1;" horiz-adv-x="909" d="M825 653q0 -12 -1.5 -30.5t-4 -38.5t-5.5 -39.5t-5 -34.5l-51 -281q-3 -17 -5.5 -31t-2.5 -28q0 -40 26.5 -57t79.5 -17v-2q-10 -24 -29.5 -45t-43.5 -36q-24 -16 -49.5 -24.5t-47.5 -8.5q-49 0 -80 28q-28 25 -41 70q-49 -51 -110 -74q-63 -24 -146 -24q-42 0 -78 9.5 t-67 26.5q-34 19 -59.5 45t-42.5 56q-16 29 -24.5 59.5t-8.5 61.5q0 49 12 90t33 75q28 45 70 77t93 54q55 23 116 34.5t122 11.5q43 0 87.5 -7.5t72.5 -13.5q5 23 5.5 40.5t0.5 33.5q0 79 -45 116q-38 31 -111 31q-34 0 -65 -5.5t-60 -16.5q-35 -13 -67 -31.5t-60 -40.5 l-43 145q28 20 63.5 36.5t75.5 28.5q43 13 88 19.5t89 6.5q101 0 171 -29q38 -15 65.5 -38.5t46.5 -54.5q36 -60 36 -147zM612 446q-29 7 -58.5 11t-70.5 4q-44 0 -84 -7.5t-73 -24.5q-28 -14 -50 -32.5t-36 -43.5q-23 -40 -23 -91q0 -57 35 -95q20 -22 47 -34t59 -12 q61 0 123 31q25 13 48.5 30t43.5 39zM534 1112l220 352h204l-278 -352h-146z" />
<glyph unicode="&#xe2;" horiz-adv-x="909" d="M825 653q0 -12 -1.5 -30.5t-4 -38.5t-5.5 -39.5t-5 -34.5l-51 -281q-3 -17 -5.5 -31t-2.5 -28q0 -40 26.5 -57t79.5 -17v-2q-10 -24 -29.5 -45t-43.5 -36q-24 -16 -49.5 -24.5t-47.5 -8.5q-49 0 -80 28q-28 25 -41 70q-49 -51 -110 -74q-63 -24 -146 -24q-42 0 -78 9.5 t-67 26.5q-34 19 -59.5 45t-42.5 56q-16 29 -24.5 59.5t-8.5 61.5q0 49 12 90t33 75q28 45 70 77t93 54q55 23 116 34.5t122 11.5q43 0 87.5 -7.5t72.5 -13.5q5 23 5.5 40.5t0.5 33.5q0 79 -45 116q-38 31 -111 31q-34 0 -65 -5.5t-60 -16.5q-35 -13 -67 -31.5t-60 -40.5 l-43 145q28 20 63.5 36.5t75.5 28.5q43 13 88 19.5t89 6.5q101 0 171 -29q38 -15 65.5 -38.5t46.5 -54.5q36 -60 36 -147zM612 446q-29 7 -58.5 11t-70.5 4q-44 0 -84 -7.5t-73 -24.5q-28 -14 -50 -32.5t-36 -43.5q-23 -40 -23 -91q0 -57 35 -95q20 -22 47 -34t59 -12 q61 0 123 31q25 13 48.5 30t43.5 39zM743 1112l-147 193l-217 -193h-150l310 352h164l192 -352h-152z" />
<glyph unicode="&#xe3;" horiz-adv-x="909" d="M825 653q0 -12 -1.5 -30.5t-4 -38.5t-5.5 -39.5t-5 -34.5l-51 -281q-3 -17 -5.5 -31t-2.5 -28q0 -40 26.5 -57t79.5 -17v-2q-10 -24 -29.5 -45t-43.5 -36q-24 -16 -49.5 -24.5t-47.5 -8.5q-49 0 -80 28q-28 25 -41 70q-49 -51 -110 -74q-63 -24 -146 -24q-42 0 -78 9.5 t-67 26.5q-34 19 -59.5 45t-42.5 56q-16 29 -24.5 59.5t-8.5 61.5q0 49 12 90t33 75q28 45 70 77t93 54q55 23 116 34.5t122 11.5q43 0 87.5 -7.5t72.5 -13.5q5 23 5.5 40.5t0.5 33.5q0 79 -45 116q-38 31 -111 31q-34 0 -65 -5.5t-60 -16.5q-35 -13 -67 -31.5t-60 -40.5 l-43 145q28 20 63.5 36.5t75.5 28.5q43 13 88 19.5t89 6.5q101 0 171 -29q38 -15 65.5 -38.5t46.5 -54.5q36 -60 36 -147zM612 446q-29 7 -58.5 11t-70.5 4q-44 0 -84 -7.5t-73 -24.5q-28 -14 -50 -32.5t-36 -43.5q-23 -40 -23 -91q0 -57 35 -95q20 -22 47 -34t59 -12 q61 0 123 31q25 13 48.5 30t43.5 39zM921 1407q-49 -118 -114 -169q-50 -40 -113 -40q-40 0 -71.5 12t-58.5 27t-51.5 27t-49.5 12q-72 0 -121 -78h-88q11 40 36 81.5t59 73.5q26 24 56.5 39t63.5 15q51 0 84 -12t58.5 -27t48 -27t52.5 -12q42 0 71.5 20t49.5 58h88z" />
<glyph unicode="&#xe4;" horiz-adv-x="909" d="M825 653q0 -12 -1.5 -30.5t-4 -38.5t-5.5 -39.5t-5 -34.5l-51 -281q-3 -17 -5.5 -31t-2.5 -28q0 -40 26.5 -57t79.5 -17v-2q-10 -24 -29.5 -45t-43.5 -36q-24 -16 -49.5 -24.5t-47.5 -8.5q-49 0 -80 28q-28 25 -41 70q-49 -51 -110 -74q-63 -24 -146 -24q-42 0 -78 9.5 t-67 26.5q-34 19 -59.5 45t-42.5 56q-16 29 -24.5 59.5t-8.5 61.5q0 49 12 90t33 75q28 45 70 77t93 54q55 23 116 34.5t122 11.5q43 0 87.5 -7.5t72.5 -13.5q5 23 5.5 40.5t0.5 33.5q0 79 -45 116q-38 31 -111 31q-34 0 -65 -5.5t-60 -16.5q-35 -13 -67 -31.5t-60 -40.5 l-43 145q28 20 63.5 36.5t75.5 28.5q43 13 88 19.5t89 6.5q101 0 171 -29q38 -15 65.5 -38.5t46.5 -54.5q36 -60 36 -147zM612 446q-29 7 -58.5 11t-70.5 4q-44 0 -84 -7.5t-73 -24.5q-28 -14 -50 -32.5t-36 -43.5q-23 -40 -23 -91q0 -57 35 -95q20 -22 47 -34t59 -12 q61 0 123 31q25 13 48.5 30t43.5 39zM424 1464q50 0 82 -35q30 -32 30 -77q0 -53 -36 -84q-15 -14 -34.5 -21.5t-41.5 -7.5q-43 0 -74 28q-18 16 -28.5 37.5t-10.5 47.5q0 23 9 43.5t24 35.5q16 15 36.5 24t43.5 9zM792 1464q46 0 78 -30q17 -15 26 -36t9 -46 q0 -26 -11 -48.5t-30 -38.5q-15 -12 -33.5 -19t-38.5 -7q-44 0 -73 26q-18 15 -28.5 38t-10.5 49q0 23 8.5 43t22.5 35q15 16 36 25t45 9z" />
<glyph unicode="&#xe5;" horiz-adv-x="909" d="M825 653q0 -12 -1.5 -30.5t-4 -38.5t-5.5 -39.5t-5 -34.5l-51 -281q-3 -17 -5.5 -31t-2.5 -28q0 -40 26.5 -57t79.5 -17v-2q-10 -24 -29.5 -45t-43.5 -36q-24 -16 -49.5 -24.5t-47.5 -8.5q-49 0 -80 28q-28 25 -41 70q-49 -51 -110 -74q-63 -24 -146 -24q-42 0 -78 9.5 t-67 26.5q-34 19 -59.5 45t-42.5 56q-16 29 -24.5 59.5t-8.5 61.5q0 49 12 90t33 75q28 45 70 77t93 54q55 23 116 34.5t122 11.5q43 0 87.5 -7.5t72.5 -13.5q5 23 5.5 40.5t0.5 33.5q0 79 -45 116q-38 31 -111 31q-34 0 -65 -5.5t-60 -16.5q-35 -13 -67 -31.5t-60 -40.5 l-43 145q28 20 63.5 36.5t75.5 28.5q43 13 88 19.5t89 6.5q101 0 171 -29q38 -15 65.5 -38.5t46.5 -54.5q36 -60 36 -147zM612 446q-29 7 -58.5 11t-70.5 4q-44 0 -84 -7.5t-73 -24.5q-28 -14 -50 -32.5t-36 -43.5q-23 -40 -23 -91q0 -57 35 -95q20 -22 47 -34t59 -12 q61 0 123 31q25 13 48.5 30t43.5 39zM624 1511q42 0 79 -15.5t66 -42.5q30 -29 48 -67t18 -83q0 -37 -12 -69.5t-32 -59.5q-29 -38 -72.5 -60t-94.5 -22q-43 0 -80.5 15.5t-66.5 43.5q-30 29 -47 68t-17 84q0 42 16 78.5t44 65.5q29 29 68 46.5t83 17.5zM624 1202 q22 0 40.5 8.5t32.5 22.5q28 28 28 70q0 23 -9.5 42.5t-26.5 33.5q-28 22 -65 22q-41 0 -70 -27q-15 -14 -23.5 -32t-8.5 -39q0 -20 7.5 -37.5t20.5 -31.5q30 -32 74 -32z" />
<glyph unicode="&#xe6;" horiz-adv-x="1442" d="M987 377q-57 0 -105.5 8.5t-88.5 28.5q-2 -17 -3.5 -33t-1.5 -29q0 -95 47 -151q58 -70 177 -70q45 0 97 21q27 11 56 27.5t60 39.5l-19 -192q-34 -11 -66 -20t-63 -15q-63 -12 -119 -12q-115 0 -194 41q-76 40 -111 114q-38 -38 -81.5 -67t-88.5 -49t-89.5 -29.5 t-84.5 -9.5q-42 0 -78 9.5t-67 26.5q-65 36 -100 96q-35 59 -35 126q0 61 18 109.5t50 86.5q35 42 82.5 71t102.5 46q46 15 95 22t98 7q25 0 51 -3t50 -7q17 -3 32 -6t27 -5q5 23 5.5 40.5t0.5 33.5q0 67 -31 102q-37 45 -125 45q-65 0 -126 -22q-35 -13 -66.5 -31.5 t-59.5 -40.5l-43 145q33 24 77.5 42.5t94.5 30.5q36 8 72.5 13t71.5 5q109 0 181 -33q65 -29 101 -88q69 58 155 90q42 15 87.5 23t93.5 8q42 0 81 -5.5t74 -18.5q32 -11 58 -28.5t46 -41.5q21 -26 32.5 -59t11.5 -75q0 -52 -15.5 -94.5t-42.5 -76.5q-32 -41 -78.5 -69.5 t-100.5 -45.5q-48 -16 -100 -23.5t-103 -7.5zM612 446q-29 7 -58.5 11t-70.5 4q-42 0 -79.5 -7t-69.5 -21q-29 -13 -52 -31.5t-39 -43.5q-26 -41 -26 -96q0 -33 12 -59.5t33 -45.5q39 -36 96 -36q56 0 113 26t102 74zM1116 774q-105 0 -177 -57q-70 -57 -112 -170 q60 -23 136 -23q32 0 66.5 2.5t67.5 9.5q29 6 55 16.5t46 26.5q22 17 34.5 41.5t12.5 57.5q0 39 -21 61q-32 35 -108 35z" />
<glyph unicode="&#xe7;" horiz-adv-x="797" d="M756 713q-37 29 -81 45t-89 16q-53 0 -97 -15.5t-81 -42.5q-38 -29 -66.5 -67.5t-48.5 -84.5t-29.5 -96.5t-9.5 -102.5q0 -43 12.5 -83.5t35.5 -72.5q25 -35 61 -55.5t81 -20.5q52 0 112 20q32 11 65.5 28t68.5 40l-20 -186q-27 -12 -55 -22t-57 -17q-34 -8 -69 -12 t-71 -4q-58 0 -106.5 11.5t-88.5 33.5q-38 21 -67.5 51t-49.5 68q-43 81 -43 192q0 150 55 278q32 75 81.5 135t115.5 102q54 34 118.5 52.5t139.5 18.5q67 0 119.5 -13t95.5 -39zM221 -311q43 1 81 5.5t65 18.5q22 11 34.5 28.5t12.5 43.5q0 22 -14 33q-18 14 -66 14 l20 119q46 0 83.5 -11.5t61.5 -35.5q38 -36 38 -98q0 -51 -18 -89t-52 -64q-42 -32 -103 -47.5t-139 -15.5z" />
<glyph unicode="&#xe8;" horiz-adv-x="881" d="M569 774q-94 0 -161 -46q-82 -55 -127 -181q58 -23 135 -23q29 0 60.5 2t62.5 8t59 16t50 27q23 17 36.5 41.5t13.5 59.5q0 46 -33 71q-34 25 -96 25zM440 377q-57 0 -105.5 8.5t-88.5 28.5q-2 -17 -3 -33t-1 -29q0 -75 30 -126q30 -50 84 -74q47 -21 109 -21 q48 0 105 24q53 23 108 64l-19 -192q-36 -12 -71 -21t-67 -15q-29 -5 -56 -8t-53 -3q-131 0 -214 53q-77 48 -113 143q-32 84 -32 201q0 223 150 385q70 76 164 117q98 43 211 43q43 0 84.5 -6.5t77.5 -20.5q32 -13 59 -32t46 -46q36 -50 36 -123q0 -45 -12 -83t-33 -70 q-26 -39 -65 -68t-86 -49q-57 -24 -119.5 -35.5t-125.5 -11.5zM613 1112l-174 352h205l102 -352h-133z" />
<glyph unicode="&#xe9;" horiz-adv-x="881" d="M571 774q-94 0 -161 -46q-82 -55 -127 -181q58 -23 135 -23q29 0 60.5 2t62.5 8t59 16t50 27q23 17 36.5 41.5t13.5 59.5q0 46 -33 71q-34 25 -96 25zM442 377q-57 0 -105.5 8.5t-88.5 28.5q-2 -17 -3 -33t-1 -29q0 -75 30 -126q30 -50 84 -74q47 -21 109 -21 q48 0 105 24q53 23 108 64l-19 -192q-36 -12 -71 -21t-67 -15q-29 -5 -56 -8t-53 -3q-131 0 -214 53q-77 48 -113 143q-32 84 -32 201q0 223 150 385q70 76 164 117q98 43 211 43q43 0 84.5 -6.5t77.5 -20.5q32 -13 59 -32t46 -46q36 -50 36 -123q0 -45 -12 -83t-33 -70 q-26 -39 -65 -68t-86 -49q-57 -24 -119.5 -35.5t-125.5 -11.5zM514 1112l220 352h204l-278 -352h-146z" />
<glyph unicode="&#xea;" horiz-adv-x="881" d="M569 774q-94 0 -161 -46q-82 -55 -127 -181q58 -23 135 -23q29 0 60.5 2t62.5 8t59 16t50 27q23 17 36.5 41.5t13.5 59.5q0 46 -33 71q-34 25 -96 25zM440 377q-57 0 -105.5 8.5t-88.5 28.5q-2 -17 -3 -33t-1 -29q0 -75 30 -126q30 -50 84 -74q47 -21 109 -21 q48 0 105 24q53 23 108 64l-19 -192q-36 -12 -71 -21t-67 -15q-29 -5 -56 -8t-53 -3q-131 0 -214 53q-77 48 -113 143q-32 84 -32 201q0 223 150 385q70 76 164 117q98 43 211 43q43 0 84.5 -6.5t77.5 -20.5q32 -13 59 -32t46 -46q36 -50 36 -123q0 -45 -12 -83t-33 -70 q-26 -39 -65 -68t-86 -49q-57 -24 -119.5 -35.5t-125.5 -11.5zM796 1112l-147 193l-217 -193h-150l310 352h164l192 -352h-152z" />
<glyph unicode="&#xeb;" horiz-adv-x="881" d="M569 774q-94 0 -161 -46q-82 -55 -127 -181q58 -23 135 -23q29 0 60.5 2t62.5 8t59 16t50 27q23 17 36.5 41.5t13.5 59.5q0 46 -33 71q-34 25 -96 25zM440 377q-57 0 -105.5 8.5t-88.5 28.5q-2 -17 -3 -33t-1 -29q0 -75 30 -126q30 -50 84 -74q47 -21 109 -21 q48 0 105 24q53 23 108 64l-19 -192q-36 -12 -71 -21t-67 -15q-29 -5 -56 -8t-53 -3q-131 0 -214 53q-77 48 -113 143q-32 84 -32 201q0 223 150 385q70 76 164 117q98 43 211 43q43 0 84.5 -6.5t77.5 -20.5q32 -13 59 -32t46 -46q36 -50 36 -123q0 -45 -12 -83t-33 -70 q-26 -39 -65 -68t-86 -49q-57 -24 -119.5 -35.5t-125.5 -11.5zM471 1464q50 0 82 -35q30 -32 30 -77q0 -53 -36 -84q-15 -14 -34.5 -21.5t-41.5 -7.5q-43 0 -74 28q-18 16 -28.5 37.5t-10.5 47.5q0 23 9 43.5t24 35.5q16 15 36.5 24t43.5 9zM839 1464q46 0 78 -30 q17 -15 26 -36t9 -46q0 -26 -11 -48.5t-30 -38.5q-15 -12 -33.5 -19t-38.5 -7q-44 0 -73 26q-18 15 -28.5 38t-10.5 49q0 23 8.5 43t22.5 35q15 16 36 25t45 9z" />
<glyph unicode="&#xec;" horiz-adv-x="530" d="M100 0l138 762h-88l30 139h269l-162 -901h-187zM299 1112l-174 352h205l102 -352h-133z" />
<glyph unicode="&#xed;" horiz-adv-x="530" d="M100 0l138 762h-88l30 139h269l-162 -901h-187zM221 1112l220 352h204l-278 -352h-146z" />
<glyph unicode="&#xee;" horiz-adv-x="530" d="M100 0l138 762h-88l30 139h269l-162 -901h-187zM524 1112l-147 193l-217 -193h-150l310 352h164l192 -352h-152z" />
<glyph unicode="&#xef;" horiz-adv-x="530" d="M100 0l138 762h-88l30 139h269l-162 -901h-187zM172 1464q50 0 82 -35q30 -32 30 -77q0 -53 -36 -84q-15 -14 -34.5 -21.5t-41.5 -7.5q-43 0 -74 28q-18 16 -28.5 37.5t-10.5 47.5q0 23 9 43.5t24 35.5q16 15 36.5 24t43.5 9zM540 1464q46 0 78 -30q17 -15 26 -36t9 -46 q0 -26 -11 -48.5t-30 -38.5q-15 -12 -33.5 -19t-38.5 -7q-44 0 -73 26q-18 15 -28.5 38t-10.5 49q0 23 8.5 43t22.5 35q15 16 36 25t45 9z" />
<glyph unicode="&#xf0;" horiz-adv-x="930" d="M535 778q-73 0 -139 -49q-38 -29 -69.5 -72.5t-52.5 -102.5q-16 -45 -25 -98t-9 -114q0 -104 40 -156q44 -59 138 -59q47 0 85.5 16t70.5 44q39 35 67 85t45 108q14 47 20.5 95.5t6.5 95.5q0 56 -13 95.5t-37 64.5q-46 47 -128 47zM49 334q0 76 16.5 151t49.5 144 q32 68 80 124.5t111 96.5q54 34 116.5 53t136.5 19q14 0 31.5 -2t36.5 -7.5t38 -13.5t35 -20q-18 44 -40.5 90t-47.5 91t-50 85t-50 69l-199 -98l-32 90l176 84q-32 48 -72.5 93.5t-77.5 80.5h252q11 -14 27.5 -37.5t38.5 -54.5l186 92l33 -84l-172 -86l16 -22 q18 -27 39.5 -63.5t43.5 -81.5q23 -47 45.5 -101.5t41.5 -115.5q23 -76 38 -159t15 -171q0 -73 -16.5 -149.5t-50.5 -148.5q-35 -73 -86.5 -135t-122.5 -104q-51 -30 -110.5 -46.5t-129.5 -16.5q-104 0 -180 37q-80 39 -123 118q-22 41 -32.5 91t-10.5 108z" />
<glyph unicode="&#xf1;" horiz-adv-x="946" d="M594 0l94 524q6 34 8 64t2 49q0 66 -29 99q-33 38 -104 38q-23 0 -52.5 -10t-58.5 -26t-55.5 -35t-46.5 -39q-29 -166 -59 -332.5t-58 -331.5h-184l119 680q6 27 6 57q0 38 -5 77.5t-13 74.5l176 35l16 -82q2 -13 3.5 -19t2.5 -8.5t1 -3t-1 -2.5q23 25 49 44.5t56 33.5 q74 35 178 35q91 0 151 -34q54 -30 80 -88q25 -54 25 -134q0 -23 -4 -53t-9 -58q-23 -134 -47.5 -277.5t-44.5 -277.5h-196zM960 1407q-49 -118 -114 -169q-50 -40 -113 -40q-40 0 -71.5 12t-58.5 27t-51.5 27t-49.5 12q-72 0 -121 -78h-88q11 40 36 81.5t59 73.5 q26 24 56.5 39t63.5 15q51 0 84 -12t58.5 -27t48 -27t52.5 -12q42 0 71.5 20t49.5 58h88z" />
<glyph unicode="&#xf2;" horiz-adv-x="930" d="M240 344q0 -109 43 -162q43 -55 135 -55q55 0 98.5 21.5t77.5 58.5q33 36 56.5 82.5t37.5 97.5q13 46 19 92.5t6 89.5q0 110 -50 163q-43 46 -126 46q-50 0 -90 -18t-72 -48q-42 -39 -70 -93.5t-44 -114.5q-11 -41 -16 -81.5t-5 -78.5zM49 334q0 93 24 180 q23 82 64.5 154.5t101.5 128.5q63 58 143 91.5t177 33.5q127 0 211 -52q69 -43 103 -119t34 -176q0 -69 -13.5 -137.5t-40.5 -132.5q-28 -66 -69 -122.5t-95 -100.5q-60 -48 -133 -75t-161 -27q-114 0 -191 42q-75 40 -115 120t-40 192zM531 1112l-174 352h205l102 -352 h-133z" />
<glyph unicode="&#xf3;" horiz-adv-x="930" d="M240 344q0 -109 43 -162q43 -55 135 -55q55 0 98.5 21.5t77.5 58.5q33 36 56.5 82.5t37.5 97.5q13 46 19 92.5t6 89.5q0 110 -50 163q-43 46 -126 46q-50 0 -90 -18t-72 -48q-42 -39 -70 -93.5t-44 -114.5q-11 -41 -16 -81.5t-5 -78.5zM49 334q0 93 24 180 q23 82 64.5 154.5t101.5 128.5q63 58 143 91.5t177 33.5q127 0 211 -52q69 -43 103 -119t34 -176q0 -69 -13.5 -137.5t-40.5 -132.5q-28 -66 -69 -122.5t-95 -100.5q-60 -48 -133 -75t-161 -27q-114 0 -191 42q-75 40 -115 120t-40 192zM460 1112l220 352h204l-278 -352 h-146z" />
<glyph unicode="&#xf4;" horiz-adv-x="930" d="M240 344q0 -109 43 -162q43 -55 135 -55q55 0 98.5 21.5t77.5 58.5q33 36 56.5 82.5t37.5 97.5q13 46 19 92.5t6 89.5q0 110 -50 163q-43 46 -126 46q-50 0 -90 -18t-72 -48q-42 -39 -70 -93.5t-44 -114.5q-11 -41 -16 -81.5t-5 -78.5zM49 334q0 93 24 180 q23 82 64.5 154.5t101.5 128.5q63 58 143 91.5t177 33.5q127 0 211 -52q69 -43 103 -119t34 -176q0 -69 -13.5 -137.5t-40.5 -132.5q-28 -66 -69 -122.5t-95 -100.5q-60 -48 -133 -75t-161 -27q-114 0 -191 42q-75 40 -115 120t-40 192zM792 1112l-147 193l-217 -193h-150 l310 352h164l192 -352h-152z" />
<glyph unicode="&#xf5;" horiz-adv-x="930" d="M240 344q0 -109 43 -162q43 -55 135 -55q55 0 98.5 21.5t77.5 58.5q33 36 56.5 82.5t37.5 97.5q13 46 19 92.5t6 89.5q0 110 -50 163q-43 46 -126 46q-50 0 -90 -18t-72 -48q-42 -39 -70 -93.5t-44 -114.5q-11 -41 -16 -81.5t-5 -78.5zM49 334q0 93 24 180 q23 82 64.5 154.5t101.5 128.5q63 58 143 91.5t177 33.5q127 0 211 -52q69 -43 103 -119t34 -176q0 -69 -13.5 -137.5t-40.5 -132.5q-28 -66 -69 -122.5t-95 -100.5q-60 -48 -133 -75t-161 -27q-114 0 -191 42q-75 40 -115 120t-40 192zM936 1407q-49 -118 -114 -169 q-50 -40 -113 -40q-40 0 -71.5 12t-58.5 27t-51.5 27t-49.5 12q-72 0 -121 -78h-88q11 40 36 81.5t59 73.5q26 24 56.5 39t63.5 15q51 0 84 -12t58.5 -27t48 -27t52.5 -12q42 0 71.5 20t49.5 58h88z" />
<glyph unicode="&#xf6;" horiz-adv-x="930" d="M240 344q0 -109 43 -162q43 -55 135 -55q55 0 98.5 21.5t77.5 58.5q33 36 56.5 82.5t37.5 97.5q13 46 19 92.5t6 89.5q0 110 -50 163q-43 46 -126 46q-50 0 -90 -18t-72 -48q-42 -39 -70 -93.5t-44 -114.5q-11 -41 -16 -81.5t-5 -78.5zM49 334q0 93 24 180 q23 82 64.5 154.5t101.5 128.5q63 58 143 91.5t177 33.5q127 0 211 -52q69 -43 103 -119t34 -176q0 -69 -13.5 -137.5t-40.5 -132.5q-28 -66 -69 -122.5t-95 -100.5q-60 -48 -133 -75t-161 -27q-114 0 -191 42q-75 40 -115 120t-40 192zM420 1464q50 0 82 -35q30 -32 30 -77 q0 -53 -36 -84q-15 -14 -34.5 -21.5t-41.5 -7.5q-43 0 -74 28q-18 16 -28.5 37.5t-10.5 47.5q0 23 9 43.5t24 35.5q16 15 36.5 24t43.5 9zM788 1464q46 0 78 -30q17 -15 26 -36t9 -46q0 -26 -11 -48.5t-30 -38.5q-15 -12 -33.5 -19t-38.5 -7q-44 0 -73 26q-18 15 -28.5 38 t-10.5 49q0 23 8.5 43t22.5 35q15 16 36 25t45 9z" />
<glyph unicode="&#xf7;" d="M578 1069q26 0 48.5 -10.5t38.5 -28.5q27 -32 27 -76q0 -23 -8.5 -43t-22.5 -35q-16 -17 -37 -26.5t-46 -9.5q-26 0 -48 10t-38 27q-14 15 -22.5 34.5t-8.5 42.5q0 47 29 78q16 17 38.5 27t49.5 10zM578 428q46 0 78 -30q17 -16 26.5 -37.5t9.5 -47.5q0 -25 -10 -46.5 t-27 -37.5q-32 -30 -77 -30q-52 0 -85 35q-15 15 -23.5 35.5t-8.5 43.5q0 51 35 84q16 14 36.5 22.5t45.5 8.5zM1018 707v-142h-879v142h879z" />
<glyph unicode="&#xf8;" horiz-adv-x="930" d="M713 569q0 11 -1 21.5t-1 21.5l-406 -452q42 -33 113 -33q45 0 81.5 14t66.5 39q39 32 67 77.5t46 99.5q17 52 25.5 106.5t8.5 105.5zM240 344q0 -23 1.5 -44t6.5 -40l418 467q-48 51 -129 51q-45 0 -82 -14.5t-68 -40.5q-41 -34 -69.5 -82.5t-46.5 -103.5 q-16 -49 -23.5 -98.5t-7.5 -94.5zM109 106q-60 89 -60 228q0 79 18 155.5t52 145.5q34 68 82 123.5t111 94.5q53 33 114.5 51t132.5 18q69 0 125.5 -16.5t99.5 -45.5l56 62l127 -23l-109 -121q25 -40 37 -91.5t12 -111.5q0 -71 -14 -140.5t-41 -133.5q-32 -75 -81.5 -138 t-115.5 -107q-54 -36 -119.5 -56t-140.5 -20q-124 0 -207 51l-45 -51l-129 20z" />
<glyph unicode="&#xf9;" horiz-adv-x="965" d="M374 901l-105 -571q-3 -17 -3.5 -34t-0.5 -30q0 -67 32 -99q34 -34 99 -34q29 0 59.5 9t59.5 26q23 13 43 29.5t37 36.5q23 26 38.5 57t20.5 63l103 547h192l-166 -901h-172l-2 90q-50 -52 -123 -80q-38 -14 -83.5 -22t-98.5 -8q-79 0 -134 35q-48 30 -74 85 q-25 53 -25 129q0 22 2.5 42t5.5 46l104 584h191zM545 1112l-174 352h205l102 -352h-133z" />
<glyph unicode="&#xfa;" horiz-adv-x="965" d="M374 901l-105 -571q-3 -17 -3.5 -34t-0.5 -30q0 -67 32 -99q34 -34 99 -34q29 0 59.5 9t59.5 26q23 13 43 29.5t37 36.5q23 26 38.5 57t20.5 63l103 547h192l-166 -901h-172l-2 90q-50 -52 -123 -80q-38 -14 -83.5 -22t-98.5 -8q-79 0 -134 35q-48 30 -74 85 q-25 53 -25 129q0 22 2.5 42t5.5 46l104 584h191zM489 1112l220 352h204l-278 -352h-146z" />
<glyph unicode="&#xfb;" horiz-adv-x="965" d="M374 901l-105 -571q-3 -17 -3.5 -34t-0.5 -30q0 -67 32 -99q34 -34 99 -34q29 0 59.5 9t59.5 26q23 13 43 29.5t37 36.5q23 26 38.5 57t20.5 63l103 547h192l-166 -901h-172l-2 90q-50 -52 -123 -80q-38 -14 -83.5 -22t-98.5 -8q-79 0 -134 35q-48 30 -74 85 q-25 53 -25 129q0 22 2.5 42t5.5 46l104 584h191zM788 1112l-147 193l-217 -193h-150l310 352h164l192 -352h-152z" />
<glyph unicode="&#xfc;" horiz-adv-x="965" d="M374 901l-105 -571q-3 -17 -3.5 -34t-0.5 -30q0 -67 32 -99q34 -34 99 -34q29 0 59.5 9t59.5 26q23 13 43 29.5t37 36.5q23 26 38.5 57t20.5 63l103 547h192l-166 -901h-172l-2 90q-50 -52 -123 -80q-38 -14 -83.5 -22t-98.5 -8q-79 0 -134 35q-48 30 -74 85 q-25 53 -25 129q0 22 2.5 42t5.5 46l104 584h191zM447 1464q50 0 82 -35q30 -32 30 -77q0 -53 -36 -84q-15 -14 -34.5 -21.5t-41.5 -7.5q-43 0 -74 28q-18 16 -28.5 37.5t-10.5 47.5q0 23 9 43.5t24 35.5q16 15 36.5 24t43.5 9zM815 1464q46 0 78 -30q17 -15 26 -36t9 -46 q0 -26 -11 -48.5t-30 -38.5q-15 -12 -33.5 -19t-38.5 -7q-44 0 -73 26q-18 15 -28.5 38t-10.5 49q0 23 8.5 43t22.5 35q15 16 36 25t45 9z" />
<glyph unicode="&#xfd;" horiz-adv-x="854" d="M-4 -244q65 1 115.5 15.5t90.5 41.5q44 30 75 73.5t53 99.5q-31 110 -66 225.5t-70.5 232.5t-70 232.5t-66.5 224.5h199l186 -639l283 639h207l-483 -1063q-50 -111 -116 -165q-25 -20 -53.5 -34t-61.5 -24q-45 -13 -99.5 -18.5t-122.5 -6.5v166zM424 1112l220 352h204 l-278 -352h-146z" />
<glyph unicode="&#xfe;" horiz-adv-x="965" d="M934 584q0 -79 -15.5 -154.5t-46.5 -142.5q-27 -60 -65.5 -111.5t-88.5 -91.5q-62 -49 -138.5 -76.5t-169.5 -27.5q-15 0 -38.5 3t-49.5 9q-28 6 -54 15.5t-43 23.5l-75 -421h-182l333 1854h182l-112 -620q45 43 103 60.5t114 17.5q62 0 112.5 -12.5t90.5 -35.5 q75 -45 111 -125q32 -72 32 -165zM252 184q8 -13 25 -23t36.5 -17t39 -11t34.5 -4q62 0 112 14.5t89 40.5q43 29 73 71t48 95q30 89 30 199q0 106 -53 164q-54 59 -158 59q-76 0 -130 -34q-20 -13 -36.5 -29.5t-27.5 -36.5z" />
<glyph unicode="&#xff;" horiz-adv-x="854" d="M-4 -244q65 1 115.5 15.5t90.5 41.5q44 30 75 73.5t53 99.5q-31 110 -66 225.5t-70.5 232.5t-70 232.5t-66.5 224.5h199l186 -639l283 639h207l-483 -1063q-50 -111 -116 -165q-25 -20 -53.5 -34t-61.5 -24q-45 -13 -99.5 -18.5t-122.5 -6.5v166zM357 1464q50 0 82 -35 q30 -32 30 -77q0 -53 -36 -84q-15 -14 -34.5 -21.5t-41.5 -7.5q-43 0 -74 28q-18 16 -28.5 37.5t-10.5 47.5q0 23 9 43.5t24 35.5q16 15 36.5 24t43.5 9zM725 1464q46 0 78 -30q17 -15 26 -36t9 -46q0 -26 -11 -48.5t-30 -38.5q-15 -12 -33.5 -19t-38.5 -7q-44 0 -73 26 q-18 15 -28.5 38t-10.5 49q0 23 8.5 43t22.5 35q15 16 36 25t45 9z" />
<glyph unicode="&#x131;" horiz-adv-x="530" d="M100 0l138 762h-88l30 139h269l-162 -901h-187z" />
<glyph unicode="&#x141;" horiz-adv-x="1036" d="M977 180l-31 -180h-858l121 684l-154 -55v145l183 68l108 622h197l-97 -540l234 84v-150l-262 -96l-103 -582h662z" />
<glyph unicode="&#x142;" horiz-adv-x="555" d="M625 897l-199 -90l-100 -508q-17 -73 -17 -121q0 -46 28 -66t69 -20l2 -2q-21 -31 -44 -51.5t-46 -33.5q-25 -14 -48 -19.5t-43 -5.5q-28 0 -52 11t-41 31q-13 17 -20.5 38.5t-7.5 48.5q0 18 4 46.5t9 53.5l100 504l-158 -72v150l191 86l117 587h188l-98 -493l166 76 v-150z" />
<glyph unicode="&#x152;" horiz-adv-x="1835" d="M324 565q0 -53 6.5 -103.5t20.5 -96.5t37 -84.5t58 -66.5q32 -26 74.5 -40t97.5 -14q59 0 109.5 11.5t93.5 33.5h2l189 1069h-2q-34 18 -77 28.5t-95 10.5q-77 0 -142 -29t-119 -80q-66 -60 -114 -142.5t-80 -173.5q-29 -85 -44 -168t-15 -155zM1217 1284l-72 -405h485 l-31 -170h-483l-94 -529h664l-31 -180h-871q-45 -9 -95 -14.5t-101 -5.5q-82 0 -148.5 21t-119.5 59q-54 39 -93 93.5t-64 121.5q-44 120 -44 264q0 99 16.5 199t48.5 196q42 122 108.5 228t159.5 184q81 68 181.5 106.5t220.5 38.5q54 0 103 -7t94 -20h874l-35 -180h-673z " />
<glyph unicode="&#x153;" horiz-adv-x="1528" d="M1087 377q-57 0 -105.5 8.5t-88.5 28.5q-2 -17 -3 -33t-1 -29q0 -61 22 -110q24 -52 72 -81q51 -30 129 -30q45 0 97 21q27 11 56 27.5t60 39.5l-18 -192q-72 -24 -139 -36q-29 -5 -56 -8t-53 -3q-114 0 -193 41q-75 39 -116 116q-63 -71 -146 -111q-94 -46 -209 -46 q-94 0 -162.5 29t-112.5 84q-71 89 -71 241q0 72 14.5 141t42.5 133q32 72 80 133t111 103q55 37 121 57.5t141 20.5q113 0 192 -41q72 -37 111 -107q73 74 169 112q45 17 93.5 26.5t100.5 9.5q48 0 92.5 -8t82.5 -25q29 -13 53 -31.5t41 -43.5q34 -49 34 -120 q0 -42 -10 -77t-28 -65q-25 -42 -63 -72.5t-85 -51.5q-58 -26 -124 -38.5t-131 -12.5zM240 344q0 -113 48 -167q44 -50 130 -50q49 0 89 17.5t72 47.5q37 35 63.5 82.5t42.5 101.5q14 48 21 97.5t7 95.5q0 209 -176 209q-45 0 -81.5 -14.5t-67.5 -39.5q-41 -34 -70 -82.5 t-47 -103.5q-16 -49 -23.5 -99t-7.5 -95zM1217 774q-75 0 -134 -28q-56 -26 -95 -73q-43 -50 -70 -126q29 -11 68 -17t77 -6q27 0 56.5 1.5t58.5 6.5t56 13.5t49 22.5q28 17 45.5 44t17.5 66q0 47 -34 72q-33 24 -95 24z" />
<glyph unicode="&#x160;" horiz-adv-x="985" d="M150 240q22 -20 56.5 -34t72.5 -24q42 -11 84.5 -15.5t76.5 -4.5q57 0 107.5 13t87.5 42q34 26 53 65t19 93q0 84 -56 149q-25 31 -71.5 71.5t-114.5 88.5q-64 47 -114 90t-83 95q-26 40 -39.5 88t-13.5 110q0 66 14.5 122t42.5 103q29 51 71.5 88.5t96.5 63.5 q99 47 222 47q220 0 294 -41l-55 -188q-15 12 -42.5 22.5t-58.5 19t-61.5 13t-52.5 4.5q-131 0 -205.5 -58.5t-74.5 -166.5q0 -44 25.5 -88.5t64.5 -79.5q21 -17 63 -50.5t100 -76.5q55 -42 99.5 -84.5t75.5 -92.5q32 -51 48.5 -108.5t16.5 -128.5q0 -64 -14 -117t-40 -96 q-51 -85 -143 -133q-60 -32 -132 -46.5t-152 -14.5q-34 0 -78.5 5.5t-90.5 15.5q-45 10 -87 23t-72 27zM1085 1892l-311 -352h-164l-192 352h151l152 -192l213 192h151z" />
<glyph unicode="&#x161;" horiz-adv-x="700" d="M90 231q16 -21 39.5 -38.5t50.5 -31.5q26 -13 53 -20.5t50 -7.5q38 0 71 11t56 33q18 17 28.5 40.5t10.5 52.5q0 18 -5.5 33t-18 29.5t-33.5 29t-52 31.5q-29 16 -59.5 33t-59.5 33q-31 16 -53 36.5t-36 44.5q-14 23 -20 49t-6 52q0 41 10.5 75.5t29.5 63.5 q24 37 59.5 64t78.5 45q80 33 171 33q54 0 126 -20q60 -17 124 -46l-80 -166q-50 44 -95 64t-86 20q-26 0 -51.5 -6.5t-45.5 -20.5t-33 -33.5t-13 -45.5q0 -22 9 -38.5t24 -30t35.5 -25.5t42.5 -25l114 -66q60 -34 88.5 -79.5t28.5 -104.5q0 -54 -15 -98t-41 -80 q-25 -34 -58.5 -59.5t-74.5 -43.5q-88 -38 -194 -38q-37 0 -72.5 5.5t-69.5 16.5q-64 19 -124 57zM856 1464l-311 -352h-164l-192 352h151l152 -192l213 192h151z" />
<glyph unicode="&#x178;" horiz-adv-x="1167" d="M711 655l-117 -655h-193l117 655q-39 96 -81 198.5t-84.5 206.5t-85 206.5t-81.5 197.5h201l252 -624h6l461 624h217zM580 1765q50 0 82 -35q30 -32 30 -77q0 -53 -36 -84q-15 -14 -34.5 -21.5t-41.5 -7.5q-43 0 -74 28q-18 16 -28.5 37.5t-10.5 47.5q0 23 9 43.5 t24 35.5q16 15 36.5 24t43.5 9zM948 1765q46 0 78 -30q17 -15 26 -36t9 -46q0 -26 -11 -48.5t-30 -38.5q-15 -12 -33.5 -19t-38.5 -7q-44 0 -73 26q-18 15 -28.5 38t-10.5 49q0 23 8.5 43t22.5 35q15 16 36 25t45 9z" />
<glyph unicode="&#x17d;" horiz-adv-x="1126" d="M84 0v49l817 1235h-620l30 180h869v-49l-789 -1235h615l-33 -180h-889zM1163 1890l-311 -352h-164l-192 352h151l152 -192l213 192h151z" />
<glyph unicode="&#x17e;" horiz-adv-x="823" d="M314 158h422l-25 -158h-702v51l522 692h-436l26 158h705v-55zM909 1464l-311 -352h-164l-192 352h151l152 -192l213 192h151z" />
<glyph unicode="&#x192;" horiz-adv-x="821" d="M862 1315q-31 15 -62 21.5t-46 6.5q-59 0 -102 -41q-23 -23 -40 -56.5t-26 -80.5l-54 -264h207l-14 -123h-211l-137 -831q-6 -38 -20.5 -72t-36.5 -63q-41 -54 -106 -93q-41 -24 -87 -39t-96 -22l-19 113q26 4 54 22.5t52 44.5q25 27 42.5 57t21.5 56l144 827h-129 l24 123h121l61 287q14 61 37 108t55 82q54 60 132 86q63 21 137 21q38 0 72 -8t63 -21z" />
<glyph unicode="&#x2c6;" horiz-adv-x="682" d="M489 1112l-147 193l-217 -193h-150l310 352h164l192 -352h-152z" />
<glyph unicode="&#x2c7;" horiz-adv-x="680" d="M700 1464l-311 -352h-164l-192 352h151l152 -192l213 192h151z" />
<glyph unicode="&#x2d8;" horiz-adv-x="670" d="M694 1454q-11 -66 -47 -123t-89 -102q-56 -47 -123.5 -74t-139.5 -27t-126.5 24.5t-89.5 69.5t-47 104t-1 128h141q-7 -38 2 -69t29 -54q42 -47 119 -47q43 0 82.5 13t71.5 38q29 22 48.5 52.5t26.5 66.5h143z" />
<glyph unicode="&#x2d9;" horiz-adv-x="252" d="M125 1419q24 0 46 -9.5t39 -26.5q16 -16 25 -36.5t9 -43.5q0 -52 -38 -87q-16 -15 -37 -23.5t-44 -8.5q-26 0 -48 11t-39 30q-14 16 -22 36t-8 42q0 26 10.5 48t27.5 38q33 30 79 30z" />
<glyph unicode="&#x2da;" horiz-adv-x="446" d="M225 1511q42 0 79 -15.5t66 -42.5q30 -29 48 -67t18 -83q0 -37 -12 -69.5t-32 -59.5q-29 -38 -72.5 -60t-94.5 -22q-43 0 -80.5 15.5t-66.5 43.5q-30 29 -47 68t-17 84q0 42 16 78.5t44 65.5q29 29 68 46.5t83 17.5zM225 1202q22 0 40.5 8.5t32.5 22.5q28 28 28 70 q0 23 -9.5 42.5t-26.5 33.5q-28 22 -65 22q-41 0 -70 -27q-15 -14 -23.5 -32t-8.5 -39q0 -20 7.5 -37.5t20.5 -31.5q30 -32 74 -32z" />
<glyph unicode="&#x2db;" horiz-adv-x="465" d="M393 -233l66 -142q-23 -8 -44.5 -14t-42.5 -11q-46 -10 -91 -10q-56 0 -105 17.5t-86 49.5t-58.5 77.5t-21.5 103.5q0 86 50 157q52 73 155 130l57 -162q-28 -15 -47 -29t-30 -29t-16 -32.5t-5 -38.5q0 -24 10.5 -42t27.5 -31t36.5 -19t36.5 -6q56 0 108 31z" />
<glyph unicode="&#x2dc;" horiz-adv-x="639" d="M653 1407q-49 -118 -114 -169q-50 -40 -113 -40q-40 0 -71.5 12t-58.5 27t-51.5 27t-49.5 12q-72 0 -121 -78h-88q11 40 36 81.5t59 73.5q26 24 56.5 39t63.5 15q51 0 84 -12t58.5 -27t48 -27t52.5 -12q42 0 71.5 20t49.5 58h88z" />
<glyph unicode="&#x2dd;" horiz-adv-x="711" d="M-23 1112l220 352h204l-278 -352h-146zM303 1112l219 352h205l-278 -352h-146z" />
<glyph unicode="&#x2013;" horiz-adv-x="713" d="M39 387l27 170h606l-27 -170h-606z" />
<glyph unicode="&#x2014;" horiz-adv-x="1430" d="M39 387l27 170h1323l-27 -170h-1323z" />
<glyph unicode="&#x2018;" horiz-adv-x="471" d="M524 1425q-157 -127 -157 -219q0 -14 3.5 -25t6.5 -16q51 -9 80 -47q24 -31 24 -78q0 -30 -11.5 -55.5t-31.5 -43.5q-18 -17 -42.5 -26.5t-51.5 -9.5q-30 0 -55 10.5t-43 30.5q-39 41 -39 109q0 101 28 172q15 37 37 69t52 63t68.5 63t84.5 69z" />
<glyph unicode="&#x2019;" horiz-adv-x="471" d="M199 971q80 65 118.5 119.5t38.5 99.5q0 14 -3.5 25t-6.5 16q-49 9 -77 43q-27 33 -27 82q0 29 10.5 53t28.5 42q19 19 44 29.5t54 10.5q63 0 100 -42q37 -40 37 -108q0 -70 -12.5 -122.5t-38.5 -96.5q-16 -28 -38 -54t-49.5 -52t-60 -53t-71.5 -58z" />
<glyph unicode="&#x201a;" horiz-adv-x="471" d="M2 -240q81 65 119.5 120t38.5 100q0 14 -3.5 24.5t-6.5 15.5q-50 10 -79 45q-26 34 -26 80q0 29 10.5 54t29.5 43t43.5 28.5t53.5 10.5q65 0 102 -45q35 -41 35 -105q0 -110 -32 -183q-15 -35 -37 -65.5t-52 -60.5t-67 -61t-82 -66z" />
<glyph unicode="&#x201c;" horiz-adv-x="752" d="M844 1425q-81 -65 -119.5 -119.5t-38.5 -99.5q0 -14 3.5 -25t6.5 -16q55 -10 83 -49q22 -31 22 -76q0 -29 -11 -53.5t-29 -42.5q-39 -39 -97 -39q-60 0 -98 41q-19 20 -29.5 47.5t-10.5 61.5q0 50 6.5 90.5t19.5 75.5q14 38 36.5 71t53 64.5t69 64.5t86.5 70zM500 1425 q-81 -65 -119.5 -119.5t-38.5 -99.5q0 -14 3.5 -25t6.5 -16q50 -9 77 -41q28 -32 28 -84q0 -29 -11 -54.5t-31 -43.5q-19 -17 -43.5 -27t-52.5 -10q-62 0 -99 42q-38 41 -38 108q0 78 16 135q12 45 33.5 82.5t53.5 72.5t74 70t94 76z" />
<glyph unicode="&#x201d;" horiz-adv-x="752" d="M164 971q158 128 158 219q0 14 -4 25t-7 16q-46 9 -74 40q-30 35 -30 85q0 29 10.5 53t28.5 42q19 19 44 29.5t54 10.5t52.5 -10t41.5 -27q20 -20 31.5 -48.5t11.5 -64.5q0 -113 -34 -188q-15 -34 -37.5 -64t-52 -59t-66 -59.5t-80.5 -65.5zM508 971q158 128 158 219 q0 14 -4 25t-7 16q-47 9 -74 39q-30 33 -30 86q0 32 13 59t35 45q37 31 89 31q63 0 100 -42q17 -20 27 -47t10 -61q0 -63 -10.5 -111.5t-30.5 -89.5q-31 -62 -88.5 -115.5t-140.5 -119.5z" />
<glyph unicode="&#x201e;" horiz-adv-x="752" d="M-37 -240q81 65 119.5 120t38.5 100q0 14 -3.5 24.5t-6.5 15.5q-45 9 -73 38q-32 34 -32 87q0 29 11 54.5t30 43.5t43.5 28t52.5 10q58 0 95 -37q20 -20 31.5 -48.5t11.5 -64.5q0 -60 -9 -106.5t-28 -86.5q-15 -33 -37.5 -62.5t-51.5 -58t-65 -58.5t-80 -64zM307 -240 q81 65 119.5 120t38.5 100q0 14 -3.5 24.5t-6.5 15.5q-51 10 -78 44q-27 33 -27 81q0 27 9 50t25 41q19 21 45.5 33t57.5 12q60 0 99 -41t39 -109q0 -60 -9 -106t-27 -85q-15 -33 -37.5 -63t-51.5 -59t-65.5 -59t-80.5 -64z" />
<glyph unicode="&#x2020;" horiz-adv-x="1004" d="M504 977h-359v168h359v319h174v-319h356v-168h-356v-1075h-174v1075z" />
<glyph unicode="&#x2021;" horiz-adv-x="1004" d="M104 475h359v502h-359v168h359v319h174v-319h356v-168h-356v-502h356v-168h-356v-405h-174v405h-359v168z" />
<glyph unicode="&#x2022;" horiz-adv-x="1073" d="M543 805q48 0 89.5 -18t73.5 -50t50 -74t18 -90t-18.5 -90t-50.5 -74q-32 -31 -73 -49t-89 -18q-44 0 -83 15.5t-70 42.5q-36 32 -57.5 76.5t-21.5 96.5q0 51 21 95t56 76q31 29 70.5 45t84.5 16z" />
<glyph unicode="&#x2026;" horiz-adv-x="1503" d="M1346 131q0 -32 -12.5 -59.5t-33.5 -48.5q-20 -20 -46.5 -31.5t-57.5 -11.5t-57.5 11.5t-46.5 31.5q-21 21 -33 48.5t-12 59.5t11.5 59.5t31.5 47.5t47 31.5t59 11.5q33 0 61.5 -13t48.5 -35q19 -20 29.5 -46t10.5 -56zM852 131q0 -34 -14 -63.5t-38 -50.5 q-20 -17 -44.5 -27t-53.5 -10q-32 0 -60 12.5t-48 34.5q-20 20 -30.5 47t-10.5 57q0 32 12 60t32 48t47 31t58 11q32 0 59.5 -11.5t47.5 -31.5t31.5 -47.5t11.5 -59.5zM358 131q0 -56 -35 -97q-20 -25 -49.5 -39.5t-64.5 -14.5q-28 0 -52.5 9.5t-44.5 26.5q-25 21 -39 50.5 t-14 64.5q0 33 12 61t34 48q20 19 47 30t57 11q32 0 60 -12.5t48 -33.5q20 -20 30.5 -46.5t10.5 -57.5z" />
<glyph unicode="&#x2030;" horiz-adv-x="2447" d="M1540 414q0 -53 -13 -102t-36 -94q-27 -52 -66.5 -94t-88.5 -74q-51 -33 -110 -51.5t-122 -18.5q-72 0 -128.5 22.5t-96.5 63.5q-38 39 -58 92t-20 116q0 57 15 110t43 101q29 51 71.5 93.5t93.5 72.5q48 28 101 43t110 15q50 0 93 -11.5t78 -33.5q65 -40 99 -104 q35 -65 35 -146zM1374 393q0 37 -12 68.5t-35 53.5q-44 42 -119 42q-59 0 -106 -26q-32 -17 -57.5 -43.5t-42.5 -58.5q-16 -29 -24.5 -62t-8.5 -68q0 -72 41 -118q21 -23 51.5 -36.5t71.5 -13.5q31 0 59 8t53 22q32 19 58 47t43 63q28 58 28 122zM2351 414q0 -57 -15.5 -110 t-42.5 -101t-65 -87t-84 -68q-51 -32 -109 -50t-120 -18q-86 0 -152 34q-71 36 -111 103q-40 68 -40 157q0 53 13 102.5t37 94.5q29 57 73.5 103t100.5 78q48 27 100.5 42t109.5 15q44 0 82.5 -9.5t71.5 -26.5q80 -42 120 -122q31 -64 31 -137zM2185 393q0 79 -51 125 q-44 39 -115 39q-31 0 -58.5 -7.5t-52.5 -21.5q-63 -35 -97 -102q-31 -59 -31 -127q0 -75 43 -121q44 -47 121 -47q32 0 61 8.5t55 23.5q31 18 55 45t41 60q29 58 29 125zM670 1130q0 72 -42 117t-122 45q-36 0 -68 -10t-60 -29q-53 -36 -84 -95q-14 -29 -22 -60t-8 -64 q0 -38 12 -70t35 -55q21 -20 50.5 -31.5t66.5 -11.5q65 0 117 32q29 17 52 42.5t40 56.5q16 29 24.5 63t8.5 70zM836 1149q0 -60 -16.5 -115.5t-46.5 -104.5q-61 -99 -162 -157q-48 -27 -100.5 -42t-109.5 -15q-95 0 -166 41q-33 20 -59.5 46.5t-44.5 61.5q-35 65 -35 150 q0 56 15 108t42 100q29 51 71 93t93 71q48 28 102 43t113 15h832l98 -64l-1147 -1380h-180l1120 1327h-477q12 -12 23 -31t18.5 -43t12 -51t4.5 -53z" />
<glyph unicode="&#x2039;" horiz-adv-x="516" d="M76 381l20 131l387 285l-28 -185l-240 -172l184 -153l-28 -183z" />
<glyph unicode="&#x203a;" horiz-adv-x="516" d="M31 104l28 183l238 153l-182 172l28 185l293 -285l-20 -131z" />
<glyph unicode="&#x2044;" horiz-adv-x="532" d="M-39 0h-147l868 1464h147z" />
<glyph unicode="&#x20ac;" horiz-adv-x="1073" d="M897 1446q151 0 291 -70l-96 -174q-86 64 -207 64q-37 0 -72.5 -10.5t-69.5 -28.5q-41 -23 -77 -54.5t-66 -69.5q-33 -42 -57 -87.5t-35 -91.5h426l-41 -152h-432q-6 -29 -12 -59.5t-9 -59.5h414l-41 -151h-379q0 -137 42 -218q35 -68 104 -99q56 -25 137 -25 q70 0 140 36q72 36 147 111v-215q-57 -60 -144 -87q-79 -25 -188 -25q-77 0 -140 17.5t-114 49.5q-53 33 -91 80.5t-63 107.5q-25 58 -36.5 125t-10.5 142h-125v151h133q3 31 7.5 61t9.5 58h-150v152h189q38 146 120 262q45 63 102 113.5t125 84.5q60 30 127 46t142 16z" />
<glyph unicode="&#x2122;" horiz-adv-x="877" d="M346 1403v-447h-70v447h-145v61h367v-61h-152zM899 958l-55 345l-103 -349h-41l-106 353l-53 -349h-66l76 506h53l115 -393l117 393h53l78 -506h-68z" />
<glyph unicode="&#x2212;" d="M1053 715v-158h-895v158h895z" />
<glyph unicode="&#x2260;" d="M416 530l147 211h-432v158h541l121 178h176l-123 -178h180v-158h-287l-147 -211h434v-157h-543l-123 -183h-176l125 183h-178v157h285z" />
<glyph unicode="&#x2264;" d="M1026 158v-158h-895v158h895zM1026 213l-895 354v138l895 350v-168l-672 -252l672 -252v-170z" />
<glyph unicode="&#x2265;" d="M1026 157v-158h-895v158h895zM131 383l672 252l-672 252v168l895 -350v-138l-895 -354v170z" />
<glyph unicode="&#x25fc;" horiz-adv-x="900" d="M0 900h900v-900h-900v900z" />
<glyph unicode="&#xfb01;" horiz-adv-x="1118" d="M995 1485q25 0 46.5 -9t38.5 -25q18 -17 28 -39t10 -48q0 -42 -27 -74q-17 -20 -42 -32.5t-54 -12.5q-26 0 -50 10.5t-41 27.5q-16 16 -25 37t-9 44q0 29 13 53t35 41q35 27 77 27zM850 1456q-29 13 -63 21t-72 8q-79 0 -145 -24q-38 -14 -70.5 -35.5t-59.5 -53.5 q-30 -35 -51.5 -80t-34.5 -104l-61 -287h-121l-27 -139h129l-137 -811q-4 -24 -20.5 -53t-40.5 -55q-26 -28 -55.5 -48t-57.5 -24l19 -113q51 7 97.5 22.5t86.5 39.5q48 29 85 72q27 32 45 70t26 85l141 815h362l-137 -762h186l162 901h-553l54 264q9 46 25.5 79.5 t39.5 56.5q44 42 103 42q15 0 46 -6.5t62 -21.5z" />
<glyph unicode="&#xfb02;" horiz-adv-x="1120" d="M975 90q-15 -23 -34 -41.5t-39 -32.5q-26 -17 -53.5 -26.5t-53.5 -9.5q-57 0 -90 38q-31 36 -31 91q0 16 1.5 31.5t5 37.5t9.5 52.5t15 76.5q14 70 30 152t33.5 170t35.5 179.5t35.5 180t33.5 171t30 153.5q-16 6 -36.5 11.5t-42.5 9.5t-44.5 6.5t-42.5 2.5 q-79 0 -123 -31q-31 -22 -48.5 -58.5t-28.5 -88.5l-54 -264h217l-26 -139h-211l-135 -815q-8 -45 -26 -82.5t-45 -69.5q-23 -26 -50 -47t-59 -38q-77 -40 -166 -52l-19 113q28 4 57 24t53 48q23 26 39 55t21 53l141 811h-129l27 139h121l61 287q13 59 35 105t52 81 q44 51 107 79q73 32 167 32q42 0 70.5 -3.5t55 -7t55.5 -7t71 -3.5h157l-227 -1145q-7 -35 -11 -57.5t-6 -37.5t-2.5 -25t-0.5 -21q0 -42 23 -63t73 -23z" />
</font>
</defs>
</svg>
