<?xml version="1.0" standalone="no"?>
<!DOCTYPE svg PUBLIC "-//W3C//DTD SVG 1.1//EN" "http://www.w3.org/Graphics/SVG/1.1/DTD/svg11.dtd" >
<svg xmlns="http://www.w3.org/2000/svg">
<metadata></metadata>
<defs>
<font id="citisansregular" horiz-adv-x="1229" >
<font-face units-per-em="2048" ascent="1638" descent="-410" />
<missing-glyph horiz-adv-x="516" />
<glyph unicode=" "  horiz-adv-x="516" />
<glyph unicode="&#x09;" horiz-adv-x="516" />
<glyph unicode="&#xa0;" horiz-adv-x="516" />
<glyph unicode="!" horiz-adv-x="612" d="M137 158q0 33 11.5 61.5t32.5 51.5q23 25 55 39t69 14q40 0 74 -17t57 -46q17 -21 27 -47.5t10 -55.5q0 -67 -44 -114q-23 -25 -55 -39.5t-69 -14.5q-39 0 -72 15.5t-56 41.5q-19 22 -29.5 50.5t-10.5 60.5zM225 457q-21 125 -34 218.5t-20.5 165t-10 127t-2.5 105.5v391 h299v-391q0 -50 -4 -105.5t-12 -127t-21.5 -165t-32.5 -218.5h-162z" />
<glyph unicode="&#x22;" horiz-adv-x="938" d="M768 977h-182l-39 487h264zM348 977h-180l-41 487h264z" />
<glyph unicode="#" d="M1188 899h-240l-78 -299h172v-201h-223l-112 -399h-215l112 399h-190l-111 -399h-217l111 399h-158v201h213l76 299h-174v203h229l98 362h213l-98 -362h188l101 362h213l-94 -362h184v-203zM741 899h-194l-84 -299h192z" />
<glyph unicode="$" d="M825 375q0 54 -34.5 100t-90.5 84v-319q29 8 51.5 20.5t39.5 29.5q34 36 34 85zM403 1087q0 -29 9.5 -53t26.5 -45q18 -21 43 -40t57 -38v322q-31 -8 -56.5 -21t-43.5 -33q-36 -38 -36 -92zM539 8q-48 2 -107 11.5t-116 23.5q-48 12 -90.5 28t-71.5 35l92 220 q33 -23 71.5 -41t79.5 -31q75 -23 142 -29v424l-150 80q-62 33 -104 65t-68 66q-38 48 -49.5 98.5t-11.5 110.5q0 47 15 93.5t44 89.5q20 28 45 53.5t57 47.5q45 30 99.5 52t122.5 31v166h161v-160q45 -3 85.5 -10t75.5 -17q45 -13 82.5 -29t66.5 -34l-74 -211 q-51 35 -112.5 59t-123.5 35v-412l95 -49q84 -44 141.5 -85.5t90.5 -94.5q24 -39 36 -88t12 -115q0 -100 -52 -183q-43 -66 -114 -112q-42 -27 -94.5 -46.5t-114.5 -29.5v-215h-161v203z" />
<glyph unicode="%" horiz-adv-x="1778" d="M1206 348q0 -35 10.5 -65t29.5 -53q20 -23 48.5 -36.5t63.5 -13.5t63 12.5t48 35.5q40 46 40 120q0 64 -37 109q-20 23 -48.5 37t-65.5 14q-33 0 -59.5 -11.5t-46.5 -31.5q-22 -22 -34 -52t-12 -65zM270 1083q0 -35 10.5 -65t29.5 -53q20 -23 48.5 -36.5t63.5 -13.5 q32 0 58 10.5t46 29.5q23 23 35 56t12 72q0 67 -40 112q-20 22 -48 35t-63 13q-36 0 -64.5 -13.5t-48.5 -36.5q-39 -45 -39 -110zM993 350q0 72 26.5 136t74.5 113q50 51 117.5 80.5t146.5 29.5q83 0 152 -32t119 -87q43 -48 67 -109.5t24 -130.5q0 -76 -24 -141t-68 -114 q-48 -54 -117 -84.5t-153 -30.5q-78 0 -144 27t-114 75q-51 51 -79 119t-28 149zM57 1085q0 75 28.5 141t79.5 115q49 48 115 75.5t142 27.5h1042l-921 -1444h-211l831 1296h-446q26 -34 46.5 -89t20.5 -122q0 -88 -32.5 -161t-90.5 -124q-47 -41 -107 -63t-132 -22 q-74 0 -136 24t-110 67q-57 51 -88 122.5t-31 156.5z" />
<glyph unicode="&#x26;" horiz-adv-x="1522" d="M670 954q49 23 81 49t51 55q16 25 22.5 53t6.5 60q0 47 -26 84q-17 23 -43.5 36.5t-63.5 13.5q-31 0 -54.5 -13t-40.5 -33q-16 -20 -24 -44t-8 -48q0 -18 3 -35t10 -35t18.5 -39t28.5 -47q17 -25 39 -57zM557 688q-46 -23 -86.5 -53t-65.5 -75q-14 -25 -22 -55t-8 -65 q0 -69 27.5 -120.5t74.5 -83.5q69 -46 164 -46q59 0 109 18t98 60zM1434 20q-32 -12 -71.5 -19t-100.5 -7q-83 0 -151 24q-35 12 -65.5 30.5t-58.5 41.5q-78 -58 -165 -84q-45 -14 -95 -20t-109 -6q-58 0 -114 9.5t-107.5 28t-96.5 45.5t-81 63q-53 52 -83 119.5t-30 151.5 q0 78 21.5 142t63.5 119q45 59 108.5 108t144.5 94q-25 33 -47.5 70t-40 75t-27.5 75t-10 71q0 70 23.5 128t66.5 103q50 52 121.5 80.5t157.5 28.5q88 0 163 -27t128 -79q43 -43 67.5 -101t24.5 -133q0 -54 -21 -104t-56 -95q-40 -51 -94.5 -94.5t-115.5 -77.5l226 -338 q25 33 46 66t39 70q20 42 36 87.5t30 100.5l234 -39q-24 -75 -51 -140t-56 -123q-57 -112 -131 -208q12 -10 29.5 -17.5t37 -13t38.5 -8t34 -2.5q60 0 138 18v-213z" />
<glyph unicode="'" horiz-adv-x="496" d="M336 977h-180l-41 487h264z" />
<glyph unicode="(" horiz-adv-x="770" d="M584 -410q-140 102 -237 215.5t-160 236.5q-61 119 -89 242t-28 248q0 138 34 273t109 264q62 106 153 205t218 190h184q-111 -95 -180.5 -204t-110.5 -227q-42 -121 -56.5 -245.5t-14.5 -248.5q0 -135 16.5 -262.5t61.5 -251.5q42 -114 110 -222t174 -213h-184z" />
<glyph unicode=")" horiz-adv-x="770" d="M700 532q0 -134 -32 -265t-102 -258q-63 -113 -156.5 -218.5t-223.5 -200.5h-184q115 113 186 230t111 241q38 115 52 234t14 244q0 136 -18.5 272t-69.5 267q-42 106 -108.5 203t-166.5 183h184q125 -90 215.5 -187.5t152.5 -202.5q77 -131 111.5 -266.5t34.5 -275.5z " />
<glyph unicode="*" horiz-adv-x="827" d="M475 801l-59 182l-62 -182l-67 -92l-193 137l70 96l153 113h-190l-109 35l72 227l111 -37l153 -113l-59 181v116h237v-114l-57 -183l154 113l110 37l72 -227l-109 -37h-190l154 -111l69 -96l-192 -137z" />
<glyph unicode="+" d="M1096 758v-248h-357v-356h-247v356h-357v248h357v356h247v-356h357z" />
<glyph unicode="," horiz-adv-x="516" d="M12 -240q46 32 82 64.5t60.5 62t37.5 54.5t13 43q0 12 -2.5 20.5t-7.5 18.5q-50 21 -76 58q-27 39 -27 89q0 28 10.5 53t27.5 45q23 26 55.5 41t70.5 15q42 0 76 -18t57 -48q17 -23 27 -51t10 -60q0 -60 -14.5 -113t-42.5 -102q-42 -73 -110.5 -140t-160.5 -136z" />
<glyph unicode="-" horiz-adv-x="653" d="M53 315v250h547v-250h-547z" />
<glyph unicode="." horiz-adv-x="516" d="M90 158q0 35 13.5 66t37.5 54q23 22 52.5 34t64.5 12q40 0 74 -17t57 -46q17 -21 27 -47.5t10 -55.5q0 -30 -10 -56.5t-27 -48.5q-23 -29 -57 -46t-74 -17q-35 0 -65.5 12.5t-53.5 34.5q-23 23 -36 54t-13 67z" />
<glyph unicode="/" horiz-adv-x="1116" d="M399 0h-256l574 1464h256z" />
<glyph unicode="0" d="M391 717q0 -149 14.5 -246t44.5 -154q26 -49 65 -70.5t93 -21.5q57 0 97 18.5t67 60.5q35 55 49.5 155t14.5 258q0 144 -13 242.5t-48 156.5q-26 43 -66.5 63.5t-100.5 20.5q-92 0 -142 -74q-38 -57 -56.5 -158t-18.5 -251zM78 717q0 199 48 349q51 163 156 259 q63 58 144.5 88.5t181.5 30.5q84 0 154.5 -20.5t129.5 -59.5q57 -38 101.5 -93t76.5 -126q79 -175 79 -428q0 -131 -20.5 -242t-62.5 -200q-61 -129 -161 -204q-60 -45 -134 -68t-163 -23q-129 0 -228 52t-166 148t-101.5 232.5t-34.5 304.5z" />
<glyph unicode="1" d="M553 0v963h-10q-17 -11 -35 -21.5t-37 -21.5q-57 -35 -109.5 -68t-99.5 -59v297q76 37 143.5 78t126.5 86q54 42 99.5 86t83.5 94h141v-1434h-303z" />
<glyph unicode="2" d="M121 0v98l454 647q35 51 62 96.5t44 87.5q28 68 28 118q0 75 -51 114q-21 17 -51 26t-68 9q-63 0 -120 -39q-59 -41 -110 -125l-209 160q43 62 92 108.5t107 78.5q118 65 270 65q104 0 194 -27.5t153 -87.5q49 -47 76.5 -113.5t27.5 -156.5q0 -42 -7.5 -87t-27.5 -98 q-20 -51 -53 -110t-84 -131l-273 -377h527v-256h-981z" />
<glyph unicode="3" d="M270 371q23 -34 54 -60.5t66 -46.5q33 -19 66 -29t62 -10q50 0 91.5 13.5t71.5 41.5q27 26 42.5 62.5t15.5 85.5q0 45 -15 80t-42 61q-32 31 -79 46.5t-101 15.5h-72v246h64q98 0 150 43q50 41 50 120q0 37 -13 67t-37 51q-45 40 -120 40q-25 0 -57 -8t-67 -25 q-29 -14 -56.5 -34.5t-50.5 -47.5l-135 205q40 35 87.5 63.5t99.5 49.5q51 20 105 31.5t111 11.5q78 0 143.5 -16t119.5 -47q45 -26 78.5 -62t56.5 -82q40 -80 40 -182q0 -100 -44 -172t-126 -123h2q109 -49 164 -140q52 -88 52 -212q0 -104 -32.5 -180t-90.5 -127 q-72 -64 -177 -92.5t-231 -28.5q-111 0 -206 37q-100 38 -189 118z" />
<glyph unicode="4" d="M709 934h-7l-301 -359h308v359zM1001 336v-336h-292v336h-648v168l791 930h149v-859h146v-239h-146z" />
<glyph unicode="5" d="M266 362q33 -32 66 -55t65 -39q41 -20 76.5 -29.5t63.5 -9.5q97 0 163 52q41 32 63.5 83.5t22.5 122.5q0 47 -12.5 88.5t-36.5 74.5q-30 42 -77.5 66.5t-112.5 24.5q-26 0 -56 -6.5t-61.5 -20.5t-62.5 -36.5t-60 -54.5l-114 73v727h833v-256h-559v-213h8q28 13 70.5 24 t95.5 11q118 0 209 -41q63 -28 109.5 -73t77.5 -105q55 -107 55 -248q0 -81 -15.5 -152t-44.5 -131q-55 -111 -154 -177q-60 -40 -134 -61t-162 -21q-75 0 -140.5 12t-125.5 35q-46 17 -87 41t-79 53z" />
<glyph unicode="6" d="M426 444q0 -54 13 -94t37 -68q50 -57 138 -57q36 0 68 12t57 35q31 28 48.5 71.5t17.5 102.5q0 48 -15 90.5t-43 73.5q-25 27 -58 42.5t-75 15.5q-43 0 -78 -16.5t-60 -47.5q-24 -29 -37 -70t-13 -90zM926 1276q-66 -31 -135.5 -76.5t-132.5 -102.5q-60 -54 -109.5 -114 t-79.5 -123h8q57 26 103.5 38.5t91.5 12.5q91 0 166.5 -28t133.5 -82q65 -60 101.5 -149t36.5 -203q0 -102 -33.5 -186t-94.5 -146q-64 -66 -154 -101.5t-199 -35.5q-131 0 -235.5 49t-172.5 146q-49 70 -75.5 164.5t-26.5 215.5q0 123 37 240.5t106 225.5q39 62 87.5 118 t105.5 107q69 61 147 110.5t166 85.5z" />
<glyph unicode="7" d="M217 0q42 127 95.5 256.5t120.5 269.5q68 142 148 295.5t175 327.5h-639v274h1032v-131q-94 -174 -166 -319t-129 -267t-102 -224t-86 -189q-34 -74 -67.5 -151t-53.5 -142h-328z" />
<glyph unicode="8" d="M473 1077q0 -26 15.5 -53.5t39.5 -52.5t52.5 -44.5t54.5 -31.5h6q20 12 40 33t37 47t27.5 53.5t10.5 50.5q0 56 -39 92q-19 17 -45.5 27t-57.5 10q-61 0 -99 -30q-42 -36 -42 -101zM803 397q0 67 -56 129q-26 30 -65.5 59.5t-91.5 61.5h-8q-80 -48 -119 -104 q-37 -55 -37 -125q0 -41 12 -74.5t35 -59.5q24 -28 59 -43.5t78 -15.5q42 0 79 12.5t63 37.5q24 22 37.5 53t13.5 69zM123 418q0 50 15 99.5t44 96.5q29 48 71.5 90.5t96.5 75.5q-34 26 -64.5 58.5t-54.5 69.5q-26 41 -41.5 84t-15.5 85q0 93 37 165q25 50 64 86.5t90 61.5 q54 27 117 40.5t132 13.5q75 0 141.5 -14t121.5 -43q42 -22 75.5 -52.5t56.5 -69.5q23 -38 35.5 -84.5t12.5 -103.5q0 -38 -14.5 -81.5t-41.5 -86.5q-26 -41 -61 -77t-78 -62h2q66 -33 113.5 -79.5t78.5 -98.5q26 -45 39 -89t13 -85q0 -100 -32 -177t-91 -133 q-67 -63 -162.5 -95.5t-212.5 -32.5q-109 0 -194 25.5t-147 73.5q-72 57 -109 141.5t-37 197.5z" />
<glyph unicode="9" d="M803 979q0 103 -48 160q-50 59 -141 59q-46 0 -84.5 -19.5t-64.5 -56.5q-20 -27 -30.5 -63.5t-10.5 -81.5q0 -48 14.5 -89.5t41.5 -71.5q25 -28 58.5 -44t75.5 -16q45 0 80.5 17.5t60.5 49.5q23 29 35.5 68.5t12.5 87.5zM303 147q64 30 131.5 74.5t130 99t113.5 116.5 t82 126h-8q-57 -26 -103.5 -38.5t-91.5 -12.5q-69 0 -129 16.5t-111 48.5q-89 55 -140 150q-28 52 -43 114t-15 134q0 103 35 188q26 63 67.5 114t97.5 88q58 38 128.5 58.5t152.5 20.5q133 0 238 -51q74 -35 130 -94.5t91 -143.5q25 -60 38 -131t13 -156q0 -74 -14 -146 t-40 -143q-31 -83 -78 -160t-108 -146q-82 -94 -185 -168t-224 -123z" />
<glyph unicode=":" horiz-adv-x="516" d="M90 754q0 31 10 58t28 49q23 28 56.5 44.5t73.5 16.5q32 0 60 -11.5t51 -31.5q26 -23 41.5 -55.5t15.5 -69.5q0 -40 -17.5 -74t-46.5 -57q-21 -17 -48 -26t-56 -9q-35 0 -63.5 12t-51.5 32q-25 23 -39 54.5t-14 67.5zM90 158q0 33 12 62t33 52q23 24 54.5 38t68.5 14 q41 0 75.5 -17.5t57.5 -46.5q17 -21 26 -47t9 -55q0 -36 -14 -67.5t-38 -54.5q-23 -22 -52.5 -34t-63.5 -12q-38 0 -69.5 14t-54.5 39q-20 23 -32 52t-12 63z" />
<glyph unicode=";" horiz-adv-x="516" d="M90 754q0 34 12 63.5t33 52.5q23 24 54.5 38t68.5 14t69.5 -15.5t55.5 -41.5q20 -23 31.5 -51t11.5 -60q0 -38 -15.5 -70t-41.5 -55q-22 -19 -50.5 -30t-60.5 -11q-36 0 -66.5 13t-53.5 36t-35.5 52.5t-12.5 64.5zM12 -240q46 32 82 64.5t60.5 62t37.5 54.5t13 43 q0 12 -2.5 20.5t-7.5 18.5q-24 10 -42.5 24.5t-31.5 31.5q-29 40 -29 91q0 30 12 56.5t32 47.5q23 23 54 36.5t66 13.5q40 0 73.5 -16t56.5 -45q19 -23 29.5 -52.5t10.5 -63.5q0 -60 -14.5 -112t-41.5 -101q-42 -74 -111 -141t-161 -137z" />
<glyph unicode="&#x3c;" d="M1096 154l-961 358v244l961 358v-248l-664 -235l664 -228v-249z" />
<glyph unicode="=" d="M1094 492v-248h-961v248h961zM1094 1024v-248h-961v248h961z" />
<glyph unicode="&#x3e;" d="M133 403l664 228l-664 235v248l961 -358v-244l-961 -358v249z" />
<glyph unicode="?" horiz-adv-x="928" d="M238 158q0 33 12 61.5t32 51.5q23 25 54.5 39t69.5 14q33 0 62.5 -12t52.5 -33q24 -23 38 -54t14 -67q0 -34 -12 -63.5t-34 -52.5q-23 -24 -54 -38t-67 -14q-40 0 -73 15.5t-56 42.5q-39 45 -39 110zM305 444q-15 31 -25 67t-10 71q0 63 18 115.5t52 103.5q17 26 50.5 66 t82.5 96q51 55 68.5 101t17.5 83q0 31 -13.5 56t-41.5 42q-42 25 -113 25q-22 0 -48.5 -6t-54.5 -18q-26 -11 -52.5 -27.5t-49.5 -38.5l-112 200q32 25 72.5 45t86.5 35q46 14 96 22.5t103 8.5q102 0 184 -33q88 -35 140 -101q31 -39 48 -87.5t17 -108.5q0 -54 -9.5 -95.5 t-29.5 -78.5q-23 -42 -58 -80.5t-83 -83.5q-41 -38 -70.5 -70.5t-49 -65t-29 -67t-9.5 -77.5q0 -25 3.5 -45t11.5 -54h-193z" />
<glyph unicode="@" horiz-adv-x="1577" d="M922 410q-44 -32 -93 -49t-108 -17q-60 0 -112.5 18.5t-89.5 53.5q-31 29 -48.5 70.5t-17.5 93.5q0 117 85 183q49 38 125 59q78 21 185 24q-18 94 -84 94q-46 0 -96 -14q-24 -7 -48 -18t-49 -25l-59 135q112 80 238 80q146 0 223 -76q86 -84 86 -260v-215q55 -37 92 -37 q71 0 110 56q46 67 46 208q0 149 -58 257q-65 120 -191 181q-110 52 -253 52q-97 0 -177.5 -27t-145.5 -77q-54 -41 -94.5 -95t-67.5 -119q-23 -57 -35.5 -120t-12.5 -132q0 -144 52 -257q35 -77 92 -135t133 -94q55 -26 119 -40t137 -14q65 0 114 6t92 22q40 15 78 39 t82 62v-207q-42 -24 -86 -41.5t-89 -29.5q-47 -12 -94.5 -18.5t-96.5 -6.5q-121 0 -226.5 28t-193.5 82q-152 93 -234 252q-39 76 -60 164t-21 188q0 103 21 195.5t63 172.5q43 85 105.5 152t142.5 116q85 52 186 80t217 28q82 0 155.5 -11t138.5 -32q188 -62 291 -207 q57 -80 87 -184t30 -234q0 -91 -30 -175.5t-88 -144.5q-44 -45 -102.5 -71.5t-133.5 -26.5q-149 0 -231 58zM852 711h-21q-71 0 -113 -25q-52 -32 -52 -102q0 -39 28.5 -63.5t73.5 -24.5q25 0 46 6.5t38 23.5v185z" />
<glyph unicode="A" horiz-adv-x="1407" d="M702 956h-12l-155 -434h329zM1057 0l-105 289h-501l-99 -289h-325l594 1475h157l602 -1475h-323z" />
<glyph unicode="B" horiz-adv-x="1165" d="M434 915h88q92 0 138 30q31 20 44 54t13 82q0 40 -9.5 68.5t-33.5 46.5q-20 15 -51.5 23t-77.5 8q-31 0 -55.5 -0.5t-55.5 -3.5v-308zM434 248q28 -2 50 -2h40q77 0 128 11.5t82 37.5q32 27 45.5 71t13.5 107t-14 103t-43 63q-33 26 -85 35.5t-125 9.5h-92v-436zM145 0 v1462q32 3 68 5.5t70 2.5q86 4 155.5 5.5t112.5 1.5q63 0 119.5 -8t106.5 -26q54 -20 97.5 -51t74.5 -76q29 -43 45 -98.5t16 -125.5q0 -85 -35 -148q-37 -67 -119 -119h2q84 -34 135 -86q50 -52 76 -124q27 -75 27 -173q0 -58 -11.5 -108t-32.5 -93q-26 -54 -67 -95 t-93 -71q-66 -38 -144 -56.5t-166 -18.5h-437z" />
<glyph unicode="C" horiz-adv-x="1339" d="M1126 1098q-32 34 -64.5 57.5t-67.5 39.5q-41 19 -84 26.5t-91 7.5q-86 0 -155 -26q-75 -28 -127.5 -80t-86.5 -118q-33 -66 -49 -139.5t-16 -148.5q0 -108 38 -202q24 -61 63 -111.5t93 -87.5q51 -35 114 -54.5t138 -19.5q86 0 161 40q42 22 79.5 55t69.5 75l143 -244 q-38 -42 -82.5 -75t-97.5 -57q-60 -27 -130 -41.5t-153 -14.5q-112 0 -213 30q-64 19 -121.5 48.5t-108.5 68.5q-81 62 -142.5 143t-99.5 177q-26 66 -40 137t-14 145q0 106 28 205.5t79 187.5q58 100 140 177.5t183 125.5q66 32 137.5 49t147.5 17q80 0 146.5 -11 t121.5 -30q57 -20 102 -45.5t80 -54.5z" />
<glyph unicode="D" horiz-adv-x="1309" d="M438 266q32 -2 60.5 -2h54.5q57 0 103.5 12.5t84.5 35.5q42 26 73.5 62t54.5 81q33 66 48 147t15 170q0 122 -30 210q-40 117 -138 174q-89 52 -229 52h-43t-54 -2v-940zM145 0v1464q20 1 54 1.5t74.5 1.5t84 2t81.5 2t67 1.5t41 0.5q85 0 161.5 -14.5t143.5 -42.5 q183 -76 283 -239q49 -80 74.5 -177.5t25.5 -211.5q0 -190 -44 -336q-72 -239 -266 -352q-172 -100 -442 -100h-338z" />
<glyph unicode="E" horiz-adv-x="1108" d="M438 1200v-295h418v-254h-418v-387h592v-264h-885v1464h897v-264h-604z" />
<glyph unicode="F" horiz-adv-x="1108" d="M438 1200v-295h463v-254h-463v-651h-293v1464h938v-264h-645z" />
<glyph unicode="G" horiz-adv-x="1530" d="M1159 1063q-38 43 -81 76t-94 54q-38 17 -79.5 25.5t-87.5 8.5q-72 0 -131.5 -19.5t-108.5 -54.5q-54 -38 -92.5 -91t-62.5 -116q-37 -100 -37 -209q0 -103 28 -188q22 -69 60.5 -125.5t93.5 -97.5q52 -38 117 -59t143 -21q38 0 78 3.5t78 11.5q35 7 65.5 17.5t53.5 24.5 v250h-197v258h481v-670q-50 -41 -117.5 -71t-142.5 -50q-77 -20 -154 -30t-141 -10q-127 0 -237 37t-201 103q-83 60 -146 139.5t-103 172.5q-30 69 -46 143t-16 152q0 84 17 163t49 153q46 106 120.5 193t174.5 148q84 51 182 79t211 28q62 0 126 -12.5t124 -35.5 q58 -23 109 -54t89 -70z" />
<glyph unicode="H" horiz-adv-x="1446" d="M1012 0v641h-574v-641h-293v1464h293v-559h574v559h288v-1464h-288z" />
<glyph unicode="I" horiz-adv-x="559" d="M133 0v1464h293v-1464h-293z" />
<glyph unicode="J" horiz-adv-x="1044" d="M260 371q8 -34 22.5 -58t37.5 -40q41 -27 112 -27q79 0 122 39q38 35 52.5 101t14.5 165v913h290v-905q0 -137 -23.5 -242t-78.5 -179q-67 -90 -186 -128q-91 -30 -220 -30q-134 0 -231 59q-40 25 -71.5 58.5t-54.5 78.5q-43 82 -50 195h264z" />
<glyph unicode="K" horiz-adv-x="1339" d="M985 0l-393 580h-2l-152 -197v-383h-293v1464h293v-610h2l471 610h342l-473 -626l551 -838h-346z" />
<glyph unicode="L" horiz-adv-x="1055" d="M145 0v1464h293v-1200h580v-264h-873z" />
<glyph unicode="M" horiz-adv-x="1575" d="M1540 0h-287l-137 684h-4l-264 -692h-113l-266 690h-4l-146 -682h-282l297 1464h162l292 -886h5l284 886h164z" />
<glyph unicode="N" horiz-adv-x="1423" d="M1137 -8l-707 842h-2v-834h-283v1464h152l698 -833h2v833h281v-1472h-141z" />
<glyph unicode="O" horiz-adv-x="1645" d="M385 733q0 -133 49 -242q28 -63 71.5 -112t100.5 -81q46 -26 99.5 -40t115.5 -14q65 0 120 14t102 40q62 35 107 88.5t72 122.5q20 51 30 107t10 117q0 133 -46 240q-29 66 -74 117.5t-105 84.5q-93 52 -216 52q-62 0 -114.5 -14t-97.5 -39q-57 -32 -99 -79.5t-71 -107.5 q-27 -57 -40.5 -121t-13.5 -133zM82 733q0 69 13 137t37 134q41 109 111 201.5t167 159.5q85 59 188.5 92.5t222.5 33.5q85 0 159.5 -15t140.5 -44q125 -54 215.5 -145t145.5 -204q41 -82 61 -171t20 -179q0 -91 -21 -179.5t-62 -169.5q-47 -94 -117 -171t-163 -132 q-81 -48 -175.5 -74.5t-203.5 -26.5q-81 0 -157 17t-145 49q-121 56 -216 150t-152 218q-33 73 -51 153t-18 166z" />
<glyph unicode="P" horiz-adv-x="1192" d="M438 784q32 -2 51 -2h31q58 0 104.5 6t82.5 20q58 22 90 65q37 50 37 135q0 79 -55 128q-35 31 -89 48q-76 24 -194 24h-58v-424zM438 0h-293v1462q17 0 32 1t34 1q32 2 65 3.5t66 2.5t64 2t57 1q110 0 211.5 -11t186.5 -41q69 -24 123.5 -63t89.5 -99q27 -45 41.5 -102 t14.5 -129q0 -161 -58 -270q-60 -113 -183 -173q-137 -67 -354 -67q-22 0 -41 0.5t-56 1.5v-520z" />
<glyph unicode="Q" horiz-adv-x="1645" d="M385 731q0 -138 52 -245q58 -119 164 -181q49 -29 105.5 -44t120.5 -15q14 0 38 1t55 7q-17 23 -39 44.5t-48 40.5q-32 23 -68.5 40t-78.5 27l86 221q118 -37 210 -107q82 -62 148 -155q28 29 53 69.5t44 91.5q17 46 27 98t10 109q0 129 -41 229q-21 54 -52.5 97 t-71.5 76q-55 45 -124.5 68.5t-151.5 23.5q-66 0 -124.5 -17t-109.5 -49q-63 -41 -108.5 -104t-70.5 -146q-12 -41 -18.5 -85.5t-6.5 -94.5zM82 733q0 146 52 279q38 100 101.5 184t147.5 147q93 70 204 109t236 39q89 0 169.5 -18.5t152.5 -52.5q118 -56 206.5 -146.5 t142.5 -208.5q35 -75 53 -158.5t18 -173.5q0 -73 -14 -140.5t-39 -129.5q-23 -58 -54 -109t-66 -96q-36 -45 -75.5 -82t-79.5 -65q38 -103 118 -149q32 -19 68.5 -28t77.5 -10l-63 -223q-80 11 -144 36.5t-116 65.5q-97 75 -158 203q-23 -8 -51 -13t-54.5 -8t-49 -4 t-34.5 -1q-100 0 -190 23t-168 65q-106 57 -186.5 143.5t-131.5 193.5q-35 75 -54 157.5t-19 170.5z" />
<glyph unicode="R" horiz-adv-x="1296" d="M438 846q26 -2 54.5 -3t44.5 -1q83 0 146.5 12.5t98.5 53.5q19 23 29 55t10 77q0 48 -18.5 80.5t-56.5 52.5t-95.5 28.5t-136.5 8.5h-35t-41 -2v-362zM963 0l-388 588q-18 1 -33.5 1.5t-31.5 1.5t-33 2.5t-39 2.5v-596h-293v1464q32 1 72 2t82 2.5t83 3t75 3.5 q15 1 30.5 1.5t30 1t25.5 1t16 0.5q80 0 147.5 -9t124.5 -26q134 -40 207 -131q84 -103 84 -273q0 -56 -15 -109.5t-44 -102.5q-34 -58 -83.5 -103.5t-111.5 -71.5l428 -653h-333z" />
<glyph unicode="S" horiz-adv-x="1149" d="M193 356q36 -26 76.5 -45t82.5 -33q50 -17 97.5 -24.5t85.5 -7.5q61 0 106 10.5t76 30.5q63 41 63 116q0 17 -6 35t-21.5 36.5t-43 39t-70.5 43.5q-32 18 -71 39t-79 42.5t-78 41.5t-69 35q-84 42 -134.5 84t-77.5 92q-22 41 -31 87t-9 103q0 53 13.5 99t39.5 88 q29 47 70 84.5t92 66.5q62 35 132.5 53.5t142.5 18.5q75 0 148.5 -11t136.5 -30q44 -13 79.5 -28.5t59.5 -32.5l-86 -259q-31 21 -66 39.5t-73 32.5q-44 16 -91 25.5t-96 9.5q-47 0 -89.5 -15.5t-72.5 -41.5q-23 -20 -36 -44.5t-13 -52.5q0 -23 11.5 -42.5t33.5 -39.5 q26 -23 65 -47t87 -51q20 -9 58 -28t75 -39q23 -13 43 -23t34 -16q85 -43 139.5 -87.5t86.5 -95.5q29 -48 41 -101t12 -116q0 -64 -18.5 -117t-51.5 -97q-36 -48 -85.5 -83.5t-109.5 -61.5q-69 -29 -144.5 -43.5t-151.5 -14.5q-55 0 -116.5 9.5t-123.5 28.5 q-49 15 -95.5 35.5t-88.5 46.5z" />
<glyph unicode="T" horiz-adv-x="1126" d="M696 1200v-1200h-290v1200h-377v264h1069v-264h-402z" />
<glyph unicode="U" horiz-adv-x="1384" d="M143 1464h293v-983q0 -51 15 -91.5t43 -70.5q32 -35 79.5 -54t106.5 -19q65 0 114.5 16.5t84.5 47.5q69 62 69 177v977h291v-997q0 -91 -23.5 -165t-68.5 -131q-56 -73 -141 -118q-69 -37 -151 -55t-173 -18q-74 0 -139 10.5t-122 32.5q-61 23 -110.5 59.5t-84.5 87.5 q-41 57 -62 131t-21 168v995z" />
<glyph unicode="V" horiz-adv-x="1309" d="M727 -10h-164l-551 1474h320l313 -915h6l334 915h311z" />
<glyph unicode="W" horiz-adv-x="1907" d="M1403 -10h-129l-318 835h-6l-303 -835h-133l-502 1474h303l277 -807h6l289 818h139l293 -816h6l268 805h301z" />
<glyph unicode="X" horiz-adv-x="1245" d="M932 0l-311 504h-7l-311 -504h-307l469 745l-445 719h314l282 -473h9l295 473h309l-459 -721l479 -743h-317z" />
<glyph unicode="Y" horiz-adv-x="1268" d="M782 602v-602h-290v602l-496 862h315l326 -585h6l320 585h309z" />
<glyph unicode="Z" horiz-adv-x="1178" d="M74 0v104l602 1096h-592v264h997v-104l-606 -1096h629v-264h-1030z" />
<glyph unicode="[" horiz-adv-x="707" d="M139 -390v1854h508v-223h-235v-1407h235v-224h-508z" />
<glyph unicode="\" horiz-adv-x="1116" d="M143 1464h256l574 -1464h-256z" />
<glyph unicode="]" horiz-adv-x="707" d="M59 -390v224h236v1407h-236v223h508v-1854h-508z" />
<glyph unicode="^" horiz-adv-x="1382" d="M885 877l-195 389l-196 -394h-265l353 592h223l348 -587h-268z" />
<glyph unicode="_" horiz-adv-x="1024" d="M0 -334v230h1024v-230h-1024z" />
<glyph unicode="`" horiz-adv-x="446" d="M248 1098l-246 366h260l182 -366h-196z" />
<glyph unicode="a" horiz-adv-x="975" d="M588 412q-20 3 -36 3.5t-24 0.5q-60 0 -103.5 -8.5t-70.5 -28.5q-43 -31 -43 -92q0 -50 27.5 -76.5t83.5 -26.5q69 0 109 31q57 43 57 135v62zM958 129q-5 -18 -15 -36q-8 -16 -21 -34.5t-32 -35.5q-20 -18 -48 -30.5t-64 -12.5q-27 0 -52 7t-47 24q-17 14 -31 37t-25 56 h-2q-20 -28 -48.5 -50.5t-63.5 -39.5q-34 -16 -71.5 -25t-77.5 -9q-72 0 -134.5 24t-104.5 73q-31 36 -48.5 85t-17.5 112q0 78 24.5 133t68.5 93q35 30 79 50t95 32q46 11 96 15.5t102 4.5q13 0 30 -1t34 -3q-2 32 -16.5 54.5t-38.5 36.5q-22 13 -51.5 18.5t-65.5 5.5 q-56 0 -109.5 -14t-101.5 -35l-58 198q63 29 132.5 44.5t148.5 15.5q101 0 173 -18.5t121 -56.5q61 -49 89 -129q18 -51 25.5 -114t7.5 -141v-174q0 -84 31.5 -122t86.5 -36v-2z" />
<glyph unicode="b" horiz-adv-x="1044" d="M369 225q21 -15 52 -25t75 -10q97 0 150 40q43 32 61 90.5t18 144.5q0 134 -66 195q-56 53 -159 53q-34 0 -70.5 -11.5t-60.5 -29.5v-447zM266 0h-153v1464h256v-571q43 14 85 21.5t81 7.5q94 0 170 -27q123 -42 198 -143q42 -56 64 -126.5t22 -152.5q0 -58 -7.5 -110.5 t-24.5 -99.5q-23 -68 -63 -121.5t-97 -90.5q-53 -35 -118.5 -53t-146.5 -18q-32 0 -63.5 7.5t-60.5 20.5q-30 13 -56 30t-45 34h-2z" />
<glyph unicode="c" horiz-adv-x="893" d="M748 633q-50 42 -98.5 62t-102.5 20q-53 0 -93 -17.5t-68 -49.5q-32 -37 -48 -88.5t-16 -113.5q0 -134 63 -194q29 -29 72 -42t100 -13q53 0 105 20.5t108 67.5l94 -205q-58 -41 -125 -65q-51 -19 -105.5 -27t-113.5 -8q-81 0 -148.5 18t-121.5 52t-94 82.5t-65 109.5 q-36 90 -36 204q0 72 14.5 133.5t42.5 113.5q65 120 193 180q107 49 244 49q47 0 89.5 -7t82.5 -21q76 -26 137 -73z" />
<glyph unicode="d" horiz-adv-x="1040" d="M674 668q-12 10 -29 17.5t-35.5 13t-37.5 8t-37 2.5q-104 0 -160 -71q-53 -67 -53 -194q0 -71 14.5 -121t46.5 -82q53 -53 160 -53q43 0 74.5 8.5t56.5 28.5v443zM696 0l-16 45h-2q-42 -28 -92 -46.5t-109 -18.5q-70 0 -128 17t-106 49t-82.5 75.5t-58.5 97.5 q-47 108 -47 244t58 241q31 57 76.5 100.5t105.5 72.5q46 22 98.5 33.5t112.5 11.5q40 0 83 -8t85 -25v575h256v-1464h-234z" />
<glyph unicode="e" horiz-adv-x="1020" d="M707 557q-9 79 -59 118q-49 38 -128 38q-39 0 -73.5 -12t-60.5 -35q-22 -20 -36.5 -47t-19.5 -62h377zM324 371q11 -85 63 -129q56 -47 160 -47q130 0 223 94l98 -207q-60 -46 -137 -71q-47 -15 -100 -23t-115 -8q-137 0 -237 50q-128 64 -184 197q-40 93 -40 219 q0 101 28 182q22 65 60 117.5t90 90.5q57 42 128 64t157 22q64 0 120.5 -13t105.5 -38q54 -27 96.5 -67t71.5 -91q55 -95 55 -215q0 -34 -7 -68.5t-18 -58.5h-618z" />
<glyph unicode="f" horiz-adv-x="614" d="M653 1245q-35 19 -64.5 28t-58.5 9q-40 0 -67 -25q-20 -18 -29.5 -46t-9.5 -62v-248h182v-205h-182v-696h-256v696h-121v205h123v254q0 56 17 105.5t49 91.5q21 29 48 52t59 40q36 20 78 30.5t87 10.5q40 0 97.5 -9.5t123.5 -31.5z" />
<glyph unicode="g" horiz-adv-x="983" d="M391 -27q-12 -7 -28 -19.5t-30.5 -28.5t-24 -34.5t-9.5 -37.5q0 -35 38 -57q40 -23 112 -23q56 0 109.5 13.5t95.5 36.5q36 20 57.5 46t21.5 55q0 17 -7.5 28t-19.5 18t-26 9.5t-27 2.5zM475 735q-37 0 -68.5 -13.5t-53.5 -39.5q-16 -19 -25 -44t-9 -56q0 -35 10.5 -63 t29.5 -48q42 -47 116 -47q67 0 108 39q44 41 44 117q0 40 -15 71t-40 51q-40 33 -97 33zM446 -410q-60 0 -116.5 10.5t-104.5 32.5q-34 15 -62.5 35t-48.5 46q-22 27 -34 59.5t-12 70.5q0 30 9.5 56t25.5 48q17 25 39.5 44.5t43.5 34.5q-27 21 -48 53t-21 70q0 46 27 83.5 t75 63.5q-65 44 -100 114q-37 73 -37 171q0 39 8.5 74.5t24.5 67.5q23 45 57 80.5t79 61.5q47 27 101.5 41.5t112.5 14.5q78 0 140 -17q23 -6 42.5 -13.5t36.5 -17.5l104 136l138 -127l-138 -90q15 -21 29 -42.5t25 -45.5t17.5 -51.5t6.5 -59.5q0 -104 -42 -182 q-42 -80 -129 -125q-46 -23 -103.5 -36t-128.5 -13q-20 0 -38 1t-32 3q-16 2 -28 4q-22 -6 -30.5 -19.5t-8.5 -25.5q0 -17 11.5 -27t37.5 -10q42 0 84.5 3.5t83.5 7.5t80.5 7.5t76.5 3.5q61 0 111.5 -14t86.5 -45q33 -29 51 -72t18 -104q0 -45 -14 -85.5t-40 -76.5 q-35 -49 -88.5 -87.5t-119.5 -64.5q-58 -23 -123.5 -35t-135.5 -12z" />
<glyph unicode="h" horiz-adv-x="1044" d="M678 0v555q0 38 -10.5 69.5t-32.5 52.5q-19 18 -46.5 28t-64.5 10q-19 0 -41.5 -6t-43.5 -17q-23 -11 -41.5 -25.5t-28.5 -31.5v-635h-256v1464h260v-610q22 14 45 26t47 21q26 10 52.5 15.5t53.5 5.5q156 0 248 -75q57 -47 86 -120t29 -172v-555h-256z" />
<glyph unicode="i" horiz-adv-x="547" d="M281 1415q34 0 63.5 -14t50.5 -38q20 -22 30.5 -49.5t10.5 -58.5q0 -37 -15.5 -69t-42.5 -54q-20 -16 -44 -25t-53 -9q-31 0 -58.5 10.5t-48.5 29.5q-24 21 -38.5 51t-14.5 66q0 35 13.5 64.5t36.5 51.5q22 20 50 32t60 12zM152 0v696h-66v205h322v-901h-256z" />
<glyph unicode="j" horiz-adv-x="573" d="M295 1415q32 0 60.5 -13t49.5 -35t33.5 -51t12.5 -61t-12 -60.5t-33 -50.5q-21 -21 -49.5 -33.5t-61.5 -12.5q-32 0 -60.5 11.5t-50.5 31.5q-23 21 -36 50t-13 64t13.5 65t37.5 52q22 20 49.5 31.5t59.5 11.5zM-90 -184q76 1 125 7.5t78 24.5q30 19 41.5 52.5t11.5 87.5 v708h-66v205h322v-928q0 -84 -20 -147.5t-62 -109.5q-80 -87 -252 -114q-78 -12 -178 -12v226z" />
<glyph unicode="k" horiz-adv-x="1004" d="M686 0l-248 381l-69 -70v-311h-256v1464h256v-825h4l245 262h314l-316 -336l369 -565h-299z" />
<glyph unicode="l" horiz-adv-x="547" d="M147 1464h256v-1140q0 -53 8 -88.5t22 -58.5q16 -26 39 -36t50 -10l2 -2q-6 -41 -25 -68t-45 -44q-32 -21 -68 -29t-67 -8q-83 0 -128 63q-21 30 -32.5 73.5t-11.5 102.5v1245z" />
<glyph unicode="m" horiz-adv-x="1475" d="M1106 0v592q0 30 -8.5 54t-27.5 40q-32 27 -87 27q-38 0 -69 -22t-48 -54v-637h-256v592q0 61 -37 93q-31 28 -84 28q-17 0 -34.5 -6t-33.5 -16.5t-29.5 -25t-22.5 -30.5v-635h-256v901h190l31 -76q40 42 92 66q65 31 133 31q44 0 79 -6.5t65 -17.5q27 -11 50.5 -24.5 t45.5 -29.5q27 17 56 31.5t60 25.5q28 10 57.5 15.5t61.5 5.5q69 0 124.5 -17.5t97.5 -50.5q53 -43 80.5 -109t27.5 -153v-592h-258z" />
<glyph unicode="n" horiz-adv-x="1044" d="M678 0v530q0 45 -7.5 78t-24.5 56q-37 49 -126 49q-17 0 -37 -5t-40.5 -14.5t-39.5 -24t-34 -32.5v-637h-256v901h190l31 -76h10q23 19 49.5 36.5t56.5 31.5q29 13 60 21t65 8q63 0 115 -13t94 -38q68 -41 105 -109q45 -81 45 -199v-563h-256z" />
<glyph unicode="o" horiz-adv-x="1006" d="M319 457q0 -144 51 -210q46 -59 132 -59q84 0 132 64q52 69 52 205q0 146 -55 208q-44 50 -129 50q-35 0 -63.5 -12.5t-50.5 -35.5q-35 -36 -52 -91.5t-17 -118.5zM55 457q0 108 35 198q23 57 59 104.5t84 82.5q54 38 121 59t148 21q91 0 164.5 -23t128.5 -67 q45 -35 77 -82.5t51 -106.5q27 -84 27 -186q0 -132 -46 -236q-52 -117 -158 -180q-50 -29 -111 -45t-133 -16q-141 0 -240 58q-60 35 -103 87t-69 120q-35 94 -35 212z" />
<glyph unicode="p" horiz-adv-x="1051" d="M367 221q14 -8 31.5 -14.5t36 -10.5t36.5 -6t33 -2q124 0 178 72q49 64 49 191q0 146 -71 212q-53 50 -146 50q-15 0 -34.5 -3t-39.5 -9t-39 -15t-34 -20v-445zM367 -390h-254v1291h213l28 -53q23 16 47 29.5t50.5 23.5t57 15.5t66.5 5.5q107 0 193 -43q56 -28 100.5 -73 t74.5 -108q25 -52 38.5 -114.5t13.5 -137.5q0 -66 -12.5 -123.5t-35.5 -107.5q-51 -107 -149 -168q-53 -32 -118 -49.5t-143 -17.5q-39 0 -82 6t-88 18v-394z" />
<glyph unicode="q" horiz-adv-x="1024" d="M659 668q-21 20 -52.5 31.5t-78.5 11.5q-55 0 -94.5 -22t-65.5 -61q-23 -35 -34.5 -82t-11.5 -102q0 -136 61 -198q55 -56 160 -56q35 0 62.5 8t53.5 25v445zM653 -390v394q-18 -5 -34 -9.5t-33 -7.5t-36.5 -5t-43.5 -2q-122 0 -216 43q-58 27 -102 69t-74 97 q-29 54 -44 117.5t-15 137.5q0 134 49 238q53 114 157 176q52 31 115 47.5t136 16.5q56 0 106 -14t91 -40l26 33h178v-1291h-260z" />
<glyph unicode="r" horiz-adv-x="795" d="M659 668q-21 24 -54.5 34.5t-72.5 10.5q-29 0 -53.5 -9t-44.5 -25q-30 -24 -47.5 -60t-17.5 -78v-541h-256v901h225l20 -57h7q22 18 46 32.5t50 24.5q53 21 110 21q30 0 57 -2.5t51 -8.5q44 -10 85 -32z" />
<glyph unicode="s" horiz-adv-x="762" d="M141 279q55 -46 106 -69q57 -26 111 -26q47 0 70 22t23 54q0 22 -14.5 43t-57.5 41l-38 19t-56 28.5t-60.5 31.5t-52.5 28q-30 16 -55 36.5t-42 50.5q-14 23 -21 53.5t-7 70.5q0 67 27 116q17 33 44 58t61 43q42 22 90.5 32.5t99.5 10.5q44 0 89 -6t90 -19 q32 -9 62.5 -20.5t59.5 -26.5l-78 -209q-26 20 -51.5 37.5t-53.5 28.5q-43 18 -94 18q-40 0 -60 -17.5t-20 -41.5q0 -8 1.5 -17t9 -19t22 -21t39.5 -23q11 -6 30 -14.5t40.5 -18t43.5 -19.5t40 -18q47 -20 80 -43.5t55 -53.5q41 -57 41 -153q0 -42 -9 -76t-26 -63 q-20 -33 -47.5 -58t-62.5 -43q-47 -24 -102.5 -35t-115.5 -11q-39 0 -86.5 7t-96.5 24q-32 11 -62.5 25t-59.5 34z" />
<glyph unicode="t" horiz-adv-x="727" d="M143 696h-100v205h100v275h256v-275h240v-205h-240v-338q0 -36 4.5 -64t17 -47.5t34 -29.5t55.5 -10q59 0 166 61v-243q-45 -14 -102.5 -24.5t-129.5 -10.5q-143 0 -222 81t-79 228v397z" />
<glyph unicode="u" horiz-adv-x="1044" d="M694 0l-18 55q-54 -32 -112.5 -53.5t-127.5 -21.5q-123 0 -198 48q-56 36 -88 99q-39 81 -39 203v571h256v-557q0 -82 35 -118q29 -31 85 -31q27 0 56.5 9t55.5 24q26 14 46 33t31 40v600h256v-901h-238z" />
<glyph unicode="v" horiz-adv-x="963" d="M532 -10h-108l-418 911h281l188 -461h4l205 461h272z" />
<glyph unicode="w" horiz-adv-x="1376" d="M1022 -10h-111l-221 483h-2l-221 -483h-111l-350 911h270l158 -440h2l195 450h110l201 -465h2l174 455h252z" />
<glyph unicode="x" horiz-adv-x="922" d="M639 0l-180 264h-2l-172 -264h-297l344 469l-326 432h297l160 -246h4l160 246h293l-330 -455q41 -53 86 -109.5t91 -114t91 -114t86 -108.5h-305z" />
<glyph unicode="y" horiz-adv-x="963" d="M584 -127q-28 -78 -64 -131.5t-90 -87.5q-54 -33 -128.5 -48.5t-182.5 -15.5v220q129 0 186 28q51 24 51 72q0 18 -2 36.5t-7.5 42t-15 53.5t-24.5 69l-301 790h266l217 -588h3l198 588h266z" />
<glyph unicode="z" horiz-adv-x="819" d="M53 0v121l371 563h-363v217h703v-90l-391 -594h395v-217h-715z" />
<glyph unicode="{" horiz-adv-x="653" d="M555 -410q-84 0 -158 24.5t-126 75.5q-41 39 -64 93t-23 123q0 36 11.5 79.5t25 88.5t24.5 88t11 78t-14.5 69.5t-40.5 63.5q-26 28 -61.5 47t-80.5 24v162q48 5 85.5 26t63.5 52q48 59 48 129q0 45 -11 88t-24.5 86t-25 84.5t-11.5 83.5q0 63 22.5 115t62.5 91 q51 50 125 76.5t159 26.5h80v-209h-58q-44 0 -71 -24q-37 -32 -37 -101q0 -41 9.5 -76.5t21 -70t21 -72t9.5 -82.5q0 -39 -16.5 -89t-48.5 -98q-25 -38 -57.5 -68.5t-73.5 -49.5q36 -17 69.5 -49t59.5 -71q30 -45 48.5 -94t18.5 -87t-9.5 -76.5t-21 -76t-21 -74.5t-9.5 -72 q0 -68 31 -99q14 -15 34 -21.5t43 -6.5h58v-207h-78z" />
<glyph unicode="|" horiz-adv-x="1382" d="M567 -410v1874h248v-1874h-248z" />
<glyph unicode="}" horiz-adv-x="653" d="M20 -410v207h58q26 0 47.5 8t35.5 27q25 31 25 92q0 35 -9.5 72t-21 74.5t-21 76t-9.5 76.5q0 34 14.5 75t38.5 83q28 47 65 85.5t79 57.5q-45 20 -79.5 54.5t-60.5 76.5q-28 45 -42.5 91.5t-14.5 82.5q0 45 9.5 82.5t21 72t21 70t9.5 76.5q0 56 -24 87q-27 38 -84 38 h-58v209h80q84 0 156.5 -26t123.5 -74q42 -39 65.5 -91.5t23.5 -117.5q0 -42 -11 -83.5t-24.5 -84.5t-25 -86t-11.5 -88q0 -35 13 -68.5t37 -62.5q26 -30 63 -50.5t84 -25.5v-162q-48 -5 -85.5 -26t-63.5 -52q-23 -28 -35.5 -60.5t-12.5 -65.5q0 -35 11.5 -78t25 -88 t24.5 -88.5t11 -79.5q0 -65 -20.5 -116.5t-56.5 -89.5q-52 -55 -129 -82.5t-165 -27.5h-78z" />
<glyph unicode="~" horiz-adv-x="1382" d="M254 471q11 59 33 117.5t60 101.5q27 31 63 49.5t82 18.5q54 0 104.5 -12t96 -26t86 -26t73.5 -12q23 0 41.5 17t28.5 59h186q-20 -78 -41.5 -137t-58.5 -96q-26 -26 -63 -40t-89 -14q-46 0 -97 11.5t-98.5 25.5t-85.5 25.5t-59 11.5q-18 0 -39.5 -17t-34.5 -57h-188z " />
<glyph unicode="&#xa1;" horiz-adv-x="612" d="M139 754q0 60 36 105q23 29 57 46t75 17q35 0 65.5 -13t53.5 -36t36 -53.5t13 -65.5t-13.5 -65.5t-36.5 -53.5q-23 -22 -53 -34.5t-65 -12.5q-38 0 -69.5 14t-54.5 39q-20 23 -32 51.5t-12 61.5zM387 444q13 -83 23.5 -144.5t18 -107.5t13 -80t9 -63.5t5 -57.5t1.5 -61 v-320h-301v320q0 33 1.5 61t5 57.5t9 63.5t13 80t17.5 107.5t23 144.5h162z" />
<glyph unicode="&#xa2;" d="M807 1079h121l-58 -143q29 -11 57.5 -26t53.5 -33l-92 -158q-19 17 -40 30t-46 21l-189 -467q50 -18 107 -18q45 0 87 15q53 19 99 60l80 -167q-45 -26 -81 -42.5t-71 -26.5q-32 -8 -67.5 -11.5t-81.5 -3.5q-38 0 -73.5 4.5t-67.5 15.5l-43 -111h-123l61 156 q-75 51 -117 129q-49 92 -49 225q0 103 34.5 184.5t97.5 138.5q67 61 161 90q36 11 75 16.5t81 5.5h18t17 -2zM524 381l164 403q-113 -9 -162 -91q-37 -61 -37 -165q0 -45 9 -81.5t26 -65.5z" />
<glyph unicode="&#xa3;" d="M186 0v182q90 32 90 105v346h-81v201h81v112q0 69 12 132.5t35 117.5q17 40 40 74t52 63q54 53 128.5 82t169.5 29q118 0 205 -42q76 -37 124 -104l-129 -176q-80 103 -223 103q-70 0 -107 -55q-46 -67 -46 -216v-120h198v-201h-198v-402h192q40 0 70 6t56 19 q27 14 51 37.5t50 58.5l189 -141q-62 -104 -181 -157q-123 -54 -305 -54h-473z" />
<glyph unicode="&#xa5;" d="M242 588h231v14l-483 862h311l315 -600h9l307 600h309l-477 -862v-14h231v-166h-231v-123h231v-166h-231v-133h-291v133h-231v166h231v123h-231v166z" />
<glyph unicode="&#xa6;" horiz-adv-x="1382" d="M567 741v723h248v-723h-248zM567 -198v724h248v-724h-248z" />
<glyph unicode="&#xa7;" d="M289 319q32 -29 64.5 -49.5t66.5 -33.5q36 -14 73.5 -20.5t75.5 -6.5q79 0 122 24q54 29 54 91q0 55 -55 91q-25 16 -61 28.5t-84 23.5q-78 17 -136 44t-100 64q-45 38 -64.5 82.5t-19.5 94.5q0 58 21 104t61 80q-48 45 -70 104.5t-22 135.5q0 68 28.5 122.5t76.5 94.5 q54 45 126.5 68.5t153.5 23.5q122 0 225 -41q76 -29 142 -80l-109 -213q-17 21 -43.5 44t-60.5 41q-27 14 -58 23t-65 9q-38 0 -66 -8.5t-45 -22.5q-35 -29 -35 -78q0 -39 23 -60q12 -12 29 -20t37 -14.5t42.5 -12t45.5 -12.5q89 -21 152 -52.5t101 -69.5q70 -79 70 -203 q0 -50 -19 -92t-53 -76q54 -42 78.5 -97.5t24.5 -123.5q-1 -85 -30 -147t-80 -104q-62 -51 -147.5 -74.5t-183.5 -23.5q-126 0 -227 36q-43 15 -80.5 36t-72.5 47zM510 858q-39 -25 -39 -67q0 -47 33 -78q12 -11 29.5 -20t44.5 -19t64 -20.5t87 -24.5q0 5 6 18t8 45 q0 20 -6 45t-35 51q-23 20 -72 39t-120 31z" />
<glyph unicode="&#xa8;" horiz-adv-x="649" d="M514 1415q31 0 57 -13t45 -36q15 -18 24 -41t9 -49q0 -25 -8.5 -47.5t-22.5 -40.5q-18 -23 -45 -36t-59 -13q-55 0 -94 34q-21 19 -33 45t-12 58q0 26 8.5 48t22.5 40q19 23 47 37t61 14zM139 1415q28 0 52 -11t43 -30q18 -19 29 -44t11 -54q0 -30 -12 -57t-33 -46 q-17 -16 -40.5 -25t-49.5 -9q-32 0 -59 12t-46 33q-34 37 -34 92q0 25 7.5 47t21.5 39q19 25 47.5 39t62.5 14z" />
<glyph unicode="&#xa9;" horiz-adv-x="772" d="M25 1122q0 75 28 140t77 115q50 51 116 79.5t141 28.5q70 0 132 -25t111 -69q56 -51 88 -120t32 -149q0 -73 -28 -138t-76 -114q-50 -51 -116.5 -80.5t-142.5 -29.5q-72 0 -135 26t-112 71q-54 50 -84.5 118t-30.5 147zM113 1122q0 -59 23 -110t63 -89q37 -35 85 -55 t103 -20q58 0 108 22t88 60q37 37 58 86t21 106q0 61 -25 113t-67 90q-37 32 -83.5 51t-99.5 19q-58 0 -108 -22t-88 -60q-36 -37 -57 -85.5t-21 -105.5zM504 1309l-27 -74q-36 27 -86 27q-27 0 -45.5 -13t-29.5 -33.5t-16 -45.5t-5 -50q0 -24 5.5 -48t17.5 -43t30.5 -30.5 t44.5 -11.5q23 0 43.5 12t38.5 35l47 -65q-58 -58 -135 -58q-46 0 -79.5 18.5t-55.5 49.5q-20 29 -30.5 66t-10.5 79q0 73 37 132q23 36 59 58.5t84 22.5q32 0 61 -6.5t52 -21.5z" />
<glyph unicode="&#xaa;" horiz-adv-x="717" d="M713 905q-4 -12 -10 -24q-5 -11 -13.5 -23.5t-20.5 -24.5q-15 -15 -36.5 -25.5t-50.5 -10.5q-38 0 -68 19t-47 73q-29 -42 -80.5 -67t-110.5 -25q-48 0 -90 15t-73 44q-28 27 -44 66t-16 90t15.5 89.5t42.5 65.5q48 48 122.5 66t159.5 18q10 0 21.5 -1t23.5 -1 q-3 44 -36 65q-17 11 -39 15t-50 4q-40 0 -79.5 -10.5t-73.5 -26.5l-43 146q46 21 97 32t108 11q88 0 146.5 -18.5t93.5 -59.5t50 -104t15 -154v-127q0 -60 22.5 -88.5t63.5 -26.5v-2zM442 1110q-15 3 -26.5 3.5t-18.5 0.5q-82 0 -119 -23q-38 -23 -38 -71q0 -76 79 -76 q53 0 84 25q39 31 39 96v45z" />
<glyph unicode="&#xab;" horiz-adv-x="1098" d="M113 381v147l411 351v-273l-194 -157l194 -140v-270zM573 381v147l410 351v-273l-195 -157l195 -140v-270z" />
<glyph unicode="&#xac;" horiz-adv-x="1073" d="M961 887v-488h-142v346h-696v142h838z" />
<glyph unicode="&#xae;" horiz-adv-x="772" d="M23 1122q0 60 18.5 115t52.5 100q50 67 125.5 107.5t165.5 40.5q84 0 155 -35t122 -95q40 -48 63 -107.5t23 -125.5q0 -63 -20.5 -119.5t-56.5 -102.5q-51 -64 -124.5 -102t-161.5 -38q-69 0 -130.5 24t-109.5 66q-57 50 -89.5 120.5t-32.5 151.5zM111 1122 q0 -61 24.5 -114t67.5 -91q36 -32 82.5 -50.5t99.5 -18.5q68 0 125 29.5t95 80.5q26 35 40 76.5t14 87.5q0 52 -17.5 98t-49.5 82q-38 44 -91.5 69.5t-115.5 25.5q-67 0 -123.5 -29.5t-94.5 -79.5q-26 -35 -41 -76.5t-15 -89.5zM467 920l-98 165h-33v-165h-84v413h113 q153 0 153 -121q0 -75 -69 -110l110 -182h-92zM365 1257h-29v-100h40.5t24.5 2q33 6 33 49q0 26 -17 37.5t-52 11.5z" />
<glyph unicode="&#xaf;" horiz-adv-x="678" d="M2 1245v164h674v-164h-674z" />
<glyph unicode="&#xb0;" horiz-adv-x="729" d="M123 1206q0 50 20 93.5t54 76.5q33 32 76.5 51t91.5 19q51 0 96 -21.5t79 -56.5q30 -32 48 -73.5t18 -88.5q0 -43 -14.5 -81t-40.5 -69q-34 -41 -82 -65t-104 -24q-53 0 -99 21t-80 58q-29 32 -46 73t-17 87zM256 1206q0 -20 7 -38t19 -32q15 -17 36.5 -27.5t46.5 -10.5 q21 0 39.5 7.5t32.5 20.5q17 15 26.5 36t9.5 44t-9 42.5t-23 34.5q-32 32 -76 32q-45 0 -77 -32q-15 -15 -23.5 -34.5t-8.5 -42.5z" />
<glyph unicode="&#xb1;" d="M1094 248v-248h-961v248h961zM1094 758v-248h-357v-193h-248v193h-356v248h356v356h248v-356h357z" />
<glyph unicode="&#xb2;" horiz-adv-x="750" d="M59 578v57l297 389q44 56 65 99.5t21 80.5q0 43 -25 65q-28 25 -81 25q-36 0 -71 -21q-20 -13 -39.5 -32.5t-37.5 -48.5l-141 100q30 40 64.5 69.5t75.5 48.5q72 34 169 34q74 0 136.5 -19.5t103.5 -61.5q27 -28 42 -65t15 -86q0 -24 -5 -50t-17.5 -57t-34.5 -67.5 t-57 -81.5l-177 -225h345v-153h-648z" />
<glyph unicode="&#xb3;" horiz-adv-x="750" d="M178 805q16 -22 37.5 -39.5t44.5 -29.5q43 -23 80 -23q60 0 98 29q20 15 30.5 37.5t10.5 54.5q0 26 -8.5 46t-23.5 35q-20 20 -51 30.5t-66 10.5h-51v148h45q62 0 94.5 24.5t32.5 73.5q0 42 -29.5 68t-77.5 26q-15 0 -33.5 -4t-39 -13t-40.5 -23t-38 -33l-91 127 q51 41 117 66q73 28 150 28q134 0 210 -62q37 -30 57.5 -73.5t20.5 -98.5q0 -61 -33 -108q-27 -39 -79 -70q81 -33 116 -97q27 -49 27 -114q0 -66 -24 -113t-67 -78q-48 -34 -113.5 -49.5t-143.5 -15.5q-71 0 -137 23q-66 24 -125 71z" />
<glyph unicode="&#xb4;" horiz-adv-x="446" d="M444 1464l-245 -366h-197l182 366h260z" />
<glyph unicode="&#xb5;" horiz-adv-x="1044" d="M111 901h256v-557q0 -74 28.5 -111.5t91.5 -37.5q26 0 54 8.5t54 22.5t47.5 33.5t33.5 41.5v600h256v-901h-238l-18 55q-23 -16 -43.5 -28t-42.5 -19.5t-48 -11.5t-61 -4q-40 0 -68 10t-46 23v-415h-256v1291z" />
<glyph unicode="&#xb6;" d="M831 -250v1591h-157v-1591h-154v868q-202 0 -287 148q-61 108 -61 287q0 44 6 87.5t18 84.5t30.5 78t43.5 67q37 43 88.5 68.5t120.5 25.5h506v-1714h-154z" />
<glyph unicode="&#xb7;" horiz-adv-x="559" d="M78 721q0 41 15.5 77t42.5 63q28 29 64.5 45t78.5 16q40 0 75.5 -15t62.5 -41q29 -28 46.5 -65.5t17.5 -79.5q0 -43 -16.5 -80.5t-44.5 -65.5q-28 -27 -64 -43t-77 -16t-76.5 15.5t-62.5 41.5q-29 28 -45.5 66t-16.5 82z" />
<glyph unicode="&#xb8;" horiz-adv-x="319" d="M31 -410l-23 109q78 0 122 18.5t44 53.5q0 24 -14.5 42.5t-59.5 18.5v119q45 2 83 -9.5t66 -35.5t44 -58t16 -77q0 -94 -72.5 -137.5t-205.5 -43.5z" />
<glyph unicode="&#xb9;" horiz-adv-x="750" d="M346 563v578q-22 -12 -47 -26l-50 -28t-48.5 -27t-42.5 -24v181q94 42 168 92.5t127 113.5h98v-860h-205z" />
<glyph unicode="&#xba;" horiz-adv-x="758" d="M244 1145q0 -107 40 -156q33 -41 95 -41q64 0 99 50q17 25 26.5 62t9.5 85q0 116 -49 159q-34 29 -86 29q-29 0 -51.5 -11.5t-39.5 -31.5q-22 -26 -33 -64t-11 -81zM51 1145q0 45 8.5 85.5t24.5 75.5q19 42 47.5 75t66.5 56q37 23 82 35.5t99 12.5t98 -11t81 -31 q74 -42 112 -120q37 -74 37 -178q0 -93 -30 -165q-32 -77 -95 -124q-39 -29 -89.5 -45t-113.5 -16q-99 0 -171 40q-85 47 -124 137q-33 75 -33 173z" />
<glyph unicode="&#xbb;" horiz-adv-x="1098" d="M113 39v270l194 140l-194 157v273l409 -351v-147zM571 39v270l195 140l-195 157v273l412 -351v-147z" />
<glyph unicode="&#xbc;" horiz-adv-x="1843" d="M612 0h-209l799 1423h209zM326 563v578q-22 -12 -47.5 -26t-50.5 -28t-48.5 -27t-42.5 -24v181q94 42 168 92.5t127 113.5h98v-860h-204zM1407 553q-42 -46 -94 -101.5t-99 -105.5h193v207zM1606 201v-201h-199v201h-420v100l514 559h105v-514h94v-145h-94z" />
<glyph unicode="&#xbd;" horiz-adv-x="1843" d="M539 0h-209l798 1423h207zM270 563v578q-22 -12 -47 -26l-50 -28t-48.5 -27t-42.5 -24v181q94 42 168 92.5t127 113.5h98v-860h-205zM1094 0v57l297 389q43 56 64.5 100t21.5 81q0 42 -28 66q-29 24 -79 24q-35 0 -70 -21q-42 -26 -77 -82l-142 101q59 79 138 116 q73 35 172 35q71 0 131.5 -17.5t102.5 -56.5q29 -28 46 -67t17 -90q0 -24 -5 -50.5t-18 -57t-35 -67t-57 -81.5l-176 -225h344v-154h-647z" />
<glyph unicode="&#xbe;" horiz-adv-x="1843" d="M1423 553q-42 -46 -94 -101.5t-98 -105.5h192v207zM1622 201v-201h-199v201h-419v100l514 559h104v-514h94v-145h-94zM641 0h-209l799 1423h207zM199 805q33 -42 78 -67t83 -25q56 0 92 24q23 15 35.5 39t12.5 58q0 45 -27 75q-20 23 -52.5 35t-70.5 12h-51v148h45 q62 0 96 26q31 25 31 72q0 43 -32 70q-29 24 -74 24q-15 0 -34 -4t-39 -13t-40.5 -23t-38.5 -33l-90 127q56 44 126 69q33 12 68.5 18.5t71.5 6.5q107 0 180 -41q54 -31 82 -81q27 -48 27 -112q0 -58 -29 -102q-14 -22 -35.5 -40.5t-48.5 -35.5q59 -24 93 -63 q51 -58 51 -148q0 -73 -29.5 -122.5t-80.5 -80.5q-47 -28 -107.5 -40.5t-131.5 -12.5q-67 0 -129 20q-70 23 -133 74z" />
<glyph unicode="&#xbf;" horiz-adv-x="928" d="M334 754q0 31 10 58t28 49q23 28 56.5 44.5t73.5 16.5q32 0 61 -12t52 -32q26 -23 40.5 -55t14.5 -69q0 -38 -15.5 -70t-41.5 -55q-22 -19 -50.5 -30t-60.5 -11q-38 0 -69 14t-54 38q-21 23 -33 52t-12 62zM594 457q11 -13 23 -37.5t12 -63.5q0 -36 -8 -69.5t-26 -67.5 q-20 -38 -53.5 -77t-84.5 -81q-34 -29 -55.5 -51t-33.5 -40t-16 -35t-4 -35q0 -45 32 -72q39 -33 118 -33q48 0 102 18q33 11 65 29t58 43l104 -194q-67 -50 -162 -76q-46 -13 -96 -19t-102 -6q-81 0 -153.5 18t-126.5 59q-46 35 -72.5 88t-26.5 126q0 36 9.5 66.5 t25.5 56.5t38 48.5t46 43.5q35 30 72 58.5t67.5 60.5t50 70.5t19.5 87.5q0 9 -3.5 29.5t-11.5 54.5h193z" />
<glyph unicode="&#xc0;" horiz-adv-x="1407" d="M702 956h-12l-155 -434h329zM1057 0l-105 289h-501l-99 -289h-325l594 1475h157l602 -1475h-323zM676 1540l-246 366h260l182 -366h-196z" />
<glyph unicode="&#xc1;" horiz-adv-x="1407" d="M702 956h-12l-155 -434h329zM1057 0l-105 289h-501l-99 -289h-325l594 1475h157l602 -1475h-323zM1003 1906l-245 -366h-197l182 366h260z" />
<glyph unicode="&#xc2;" horiz-adv-x="1407" d="M702 956h-12l-155 -434h329zM1057 0l-105 289h-501l-99 -289h-325l594 1475h157l602 -1475h-323zM811 1540l-120 159q-34 -40 -67.5 -79.5t-65.5 -79.5h-234l299 366h141l310 -366h-263z" />
<glyph unicode="&#xc3;" horiz-adv-x="1407" d="M702 956h-12l-155 -434h329zM1057 0l-105 289h-501l-99 -289h-325l594 1475h157l602 -1475h-323zM1048 1830q-36 -161 -102 -233q-52 -57 -123 -57q-41 0 -70.5 14t-55 31t-51 31t-57.5 14q-34 0 -55.5 -21t-32.5 -69h-143q6 59 29.5 120t61.5 105q26 29 56.5 47t65.5 18 q45 0 77 -14t58.5 -31t52.5 -31t60 -14q35 0 53.5 20t28.5 70h147z" />
<glyph unicode="&#xc4;" horiz-adv-x="1407" d="M702 956h-12l-155 -434h329zM1057 0l-105 289h-501l-99 -289h-325l594 1475h157l602 -1475h-323zM889 1816q31 0 57 -13t45 -36q15 -18 24 -41t9 -49q0 -25 -8.5 -47.5t-22.5 -40.5q-18 -23 -45 -36t-59 -13q-55 0 -94 34q-21 19 -33 45t-12 58q0 26 8.5 48t22.5 40 q19 23 47 37t61 14zM514 1816q28 0 52 -11t43 -30q18 -19 29 -44t11 -54q0 -30 -12 -57t-33 -46q-17 -16 -40.5 -25t-49.5 -9q-32 0 -59 12t-46 33q-34 37 -34 92q0 25 7.5 47t21.5 39q19 25 47.5 39t62.5 14z" />
<glyph unicode="&#xc5;" horiz-adv-x="1407" d="M702 956h-12l-155 -434h329zM1057 0l-105 289h-501l-99 -289h-325l594 1475h157l602 -1475h-323zM698 1960q42 0 78 -15t65 -41q32 -29 50 -68.5t18 -84.5q0 -41 -14 -77t-40 -64q-29 -32 -69.5 -51t-87.5 -19q-41 0 -77 14t-64 40q-32 29 -51 69.5t-19 87.5t19.5 87 t52.5 69q28 25 63.5 39t75.5 14zM698 1651q21 0 39.5 7.5t32.5 21.5q29 29 29 71q0 39 -27 68q-14 14 -33 22.5t-41 8.5q-21 0 -40 -8t-33 -22t-21.5 -31.5t-7.5 -37.5t7.5 -36.5t19.5 -30.5q14 -15 33.5 -24t41.5 -9z" />
<glyph unicode="&#xc6;" horiz-adv-x="1939" d="M973 963h-12l-269 -441h285zM375 0h-326l928 1464h897v-264h-604v-295h418v-254h-418v-387h592v-264h-885v289h-424z" />
<glyph unicode="&#xc7;" horiz-adv-x="1339" d="M1126 1098q-32 34 -64.5 57.5t-67.5 39.5q-41 19 -84 26.5t-91 7.5q-86 0 -155 -26q-75 -28 -127.5 -80t-86.5 -118q-33 -66 -49 -139.5t-16 -148.5q0 -108 38 -202q24 -61 63 -111.5t93 -87.5q51 -35 114 -54.5t138 -19.5q86 0 161 40q42 22 79.5 55t69.5 75l143 -244 q-38 -42 -82.5 -75t-97.5 -57q-60 -27 -130 -41.5t-153 -14.5q-112 0 -213 30q-64 19 -121.5 48.5t-108.5 68.5q-81 62 -142.5 143t-99.5 177q-26 66 -40 137t-14 145q0 106 28 205.5t79 187.5q58 100 140 177.5t183 125.5q66 32 137.5 49t147.5 17q80 0 146.5 -11 t121.5 -30q57 -20 102 -45.5t80 -54.5zM664 -410l-23 109q78 0 122 18.5t44 53.5q0 24 -14.5 42.5t-59.5 18.5v119q45 2 83 -9.5t66 -35.5t44 -58t16 -77q0 -94 -72.5 -137.5t-205.5 -43.5z" />
<glyph unicode="&#xc8;" horiz-adv-x="1108" d="M438 1200v-295h418v-254h-418v-387h592v-264h-885v1464h897v-264h-604zM553 1540l-246 366h260l182 -366h-196z" />
<glyph unicode="&#xc9;" horiz-adv-x="1108" d="M438 1200v-295h418v-254h-418v-387h592v-264h-885v1464h897v-264h-604zM931 1906l-245 -366h-197l182 366h260z" />
<glyph unicode="&#xca;" horiz-adv-x="1108" d="M438 1200v-295h418v-254h-418v-387h592v-264h-885v1464h897v-264h-604zM694 1540l-120 159q-34 -40 -67.5 -79.5t-65.5 -79.5h-234l299 366h141l310 -366h-263z" />
<glyph unicode="&#xcb;" horiz-adv-x="1108" d="M438 1200v-295h418v-254h-418v-387h592v-264h-885v1464h897v-264h-604zM799 1816q31 0 57 -13t45 -36q15 -18 24 -41t9 -49q0 -25 -8.5 -47.5t-22.5 -40.5q-18 -23 -45 -36t-59 -13q-55 0 -94 34q-21 19 -33 45t-12 58q0 26 8.5 48t22.5 40q19 23 47 37t61 14zM424 1816 q28 0 52 -11t43 -30q18 -19 29 -44t11 -54q0 -30 -12 -57t-33 -46q-17 -16 -40.5 -25t-49.5 -9q-32 0 -59 12t-46 33q-34 37 -34 92q0 25 7.5 47t21.5 39q19 25 47.5 39t62.5 14z" />
<glyph unicode="&#xcc;" horiz-adv-x="559" d="M133 0v1464h293v-1464h-293zM226 1540l-246 366h260l182 -366h-196z" />
<glyph unicode="&#xcd;" horiz-adv-x="559" d="M133 0v1464h293v-1464h-293zM567 1906l-245 -366h-197l182 366h260z" />
<glyph unicode="&#xce;" horiz-adv-x="559" d="M133 0v1464h293v-1464h-293zM390 1540l-120 159q-34 -40 -67.5 -79.5t-65.5 -79.5h-234l299 366h141l310 -366h-263z" />
<glyph unicode="&#xcf;" horiz-adv-x="559" d="M133 0v1464h293v-1464h-293zM472 1816q31 0 57 -13t45 -36q15 -18 24 -41t9 -49q0 -25 -8.5 -47.5t-22.5 -40.5q-18 -23 -45 -36t-59 -13q-55 0 -94 34q-21 19 -33 45t-12 58q0 26 8.5 48t22.5 40q19 23 47 37t61 14zM97 1816q28 0 52 -11t43 -30q18 -19 29 -44t11 -54 q0 -30 -12 -57t-33 -46q-17 -16 -40.5 -25t-49.5 -9q-32 0 -59 12t-46 33q-34 37 -34 92q0 25 7.5 47t21.5 39q19 25 47.5 39t62.5 14z" />
<glyph unicode="&#xd0;" horiz-adv-x="1309" d="M438 877h168v-215h-168v-396q32 -2 60.5 -2h54.5q84 0 146.5 27t107.5 75q67 71 96 177t29 229q0 226 -106 335q-99 101 -291 101h-43t-54 -2v-329zM31 877h114v587q20 1 54 1.5t74.5 1.5t84 2t81.5 2t67 1.5t41 0.5q100 0 186.5 -19.5t161.5 -56.5q94 -48 164.5 -121 t113.5 -171q62 -139 62 -317q0 -100 -11.5 -186.5t-35.5 -161.5q-68 -212 -232 -321q-179 -119 -473 -119h-338v662h-114v215z" />
<glyph unicode="&#xd1;" horiz-adv-x="1423" d="M1137 -8l-707 842h-2v-834h-283v1464h152l698 -833h2v833h281v-1472h-141zM1065 1830q-36 -161 -102 -233q-52 -57 -123 -57q-41 0 -70.5 14t-55 31t-51 31t-57.5 14q-34 0 -55.5 -21t-32.5 -69h-143q6 59 29.5 120t61.5 105q26 29 56.5 47t65.5 18q45 0 77 -14t58.5 -31 t52.5 -31t60 -14q35 0 53.5 20t28.5 70h147z" />
<glyph unicode="&#xd2;" horiz-adv-x="1645" d="M385 733q0 -133 49 -242q28 -63 71.5 -112t100.5 -81q46 -26 99.5 -40t115.5 -14q65 0 120 14t102 40q62 35 107 88.5t72 122.5q20 51 30 107t10 117q0 133 -46 240q-29 66 -74 117.5t-105 84.5q-93 52 -216 52q-62 0 -114.5 -14t-97.5 -39q-57 -32 -99 -79.5t-71 -107.5 q-27 -57 -40.5 -121t-13.5 -133zM82 733q0 69 13 137t37 134q41 109 111 201.5t167 159.5q85 59 188.5 92.5t222.5 33.5q85 0 159.5 -15t140.5 -44q125 -54 215.5 -145t145.5 -204q41 -82 61 -171t20 -179q0 -91 -21 -179.5t-62 -169.5q-47 -94 -117 -171t-163 -132 q-81 -48 -175.5 -74.5t-203.5 -26.5q-81 0 -157 17t-145 49q-121 56 -216 150t-152 218q-33 73 -51 153t-18 166zM795 1540l-246 366h260l182 -366h-196z" />
<glyph unicode="&#xd3;" horiz-adv-x="1645" d="M385 733q0 -133 49 -242q28 -63 71.5 -112t100.5 -81q46 -26 99.5 -40t115.5 -14q65 0 120 14t102 40q62 35 107 88.5t72 122.5q20 51 30 107t10 117q0 133 -46 240q-29 66 -74 117.5t-105 84.5q-93 52 -216 52q-62 0 -114.5 -14t-97.5 -39q-57 -32 -99 -79.5t-71 -107.5 q-27 -57 -40.5 -121t-13.5 -133zM82 733q0 69 13 137t37 134q41 109 111 201.5t167 159.5q85 59 188.5 92.5t222.5 33.5q85 0 159.5 -15t140.5 -44q125 -54 215.5 -145t145.5 -204q41 -82 61 -171t20 -179q0 -91 -21 -179.5t-62 -169.5q-47 -94 -117 -171t-163 -132 q-81 -48 -175.5 -74.5t-203.5 -26.5q-81 0 -157 17t-145 49q-121 56 -216 150t-152 218q-33 73 -51 153t-18 166zM1149 1906l-245 -366h-197l182 366h260z" />
<glyph unicode="&#xd4;" horiz-adv-x="1645" d="M385 733q0 -133 49 -242q28 -63 71.5 -112t100.5 -81q46 -26 99.5 -40t115.5 -14q65 0 120 14t102 40q62 35 107 88.5t72 122.5q20 51 30 107t10 117q0 133 -46 240q-29 66 -74 117.5t-105 84.5q-93 52 -216 52q-62 0 -114.5 -14t-97.5 -39q-57 -32 -99 -79.5t-71 -107.5 q-27 -57 -40.5 -121t-13.5 -133zM82 733q0 69 13 137t37 134q41 109 111 201.5t167 159.5q85 59 188.5 92.5t222.5 33.5q85 0 159.5 -15t140.5 -44q125 -54 215.5 -145t145.5 -204q41 -82 61 -171t20 -179q0 -91 -21 -179.5t-62 -169.5q-47 -94 -117 -171t-163 -132 q-81 -48 -175.5 -74.5t-203.5 -26.5q-81 0 -157 17t-145 49q-121 56 -216 150t-152 218q-33 73 -51 153t-18 166zM944 1540l-120 159q-34 -40 -67.5 -79.5t-65.5 -79.5h-234l299 366h141l310 -366h-263z" />
<glyph unicode="&#xd5;" horiz-adv-x="1645" d="M385 733q0 -133 49 -242q28 -63 71.5 -112t100.5 -81q46 -26 99.5 -40t115.5 -14q65 0 120 14t102 40q62 35 107 88.5t72 122.5q20 51 30 107t10 117q0 133 -46 240q-29 66 -74 117.5t-105 84.5q-93 52 -216 52q-62 0 -114.5 -14t-97.5 -39q-57 -32 -99 -79.5t-71 -107.5 q-27 -57 -40.5 -121t-13.5 -133zM82 733q0 69 13 137t37 134q41 109 111 201.5t167 159.5q85 59 188.5 92.5t222.5 33.5q85 0 159.5 -15t140.5 -44q125 -54 215.5 -145t145.5 -204q41 -82 61 -171t20 -179q0 -91 -21 -179.5t-62 -169.5q-47 -94 -117 -171t-163 -132 q-81 -48 -175.5 -74.5t-203.5 -26.5q-81 0 -157 17t-145 49q-121 56 -216 150t-152 218q-33 73 -51 153t-18 166zM1177 1830q-36 -161 -102 -233q-52 -57 -123 -57q-41 0 -70.5 14t-55 31t-51 31t-57.5 14q-34 0 -55.5 -21t-32.5 -69h-143q6 59 29.5 120t61.5 105 q26 29 56.5 47t65.5 18q45 0 77 -14t58.5 -31t52.5 -31t60 -14q35 0 53.5 20t28.5 70h147z" />
<glyph unicode="&#xd6;" horiz-adv-x="1645" d="M385 733q0 -133 49 -242q28 -63 71.5 -112t100.5 -81q46 -26 99.5 -40t115.5 -14q65 0 120 14t102 40q62 35 107 88.5t72 122.5q20 51 30 107t10 117q0 133 -46 240q-29 66 -74 117.5t-105 84.5q-93 52 -216 52q-62 0 -114.5 -14t-97.5 -39q-57 -32 -99 -79.5t-71 -107.5 q-27 -57 -40.5 -121t-13.5 -133zM82 733q0 69 13 137t37 134q41 109 111 201.5t167 159.5q85 59 188.5 92.5t222.5 33.5q85 0 159.5 -15t140.5 -44q125 -54 215.5 -145t145.5 -204q41 -82 61 -171t20 -179q0 -91 -21 -179.5t-62 -169.5q-47 -94 -117 -171t-163 -132 q-81 -48 -175.5 -74.5t-203.5 -26.5q-81 0 -157 17t-145 49q-121 56 -216 150t-152 218q-33 73 -51 153t-18 166zM1010 1816q31 0 57 -13t45 -36q15 -18 24 -41t9 -49q0 -25 -8.5 -47.5t-22.5 -40.5q-18 -23 -45 -36t-59 -13q-55 0 -94 34q-21 19 -33 45t-12 58q0 26 8.5 48 t22.5 40q19 23 47 37t61 14zM635 1816q28 0 52 -11t43 -30q18 -19 29 -44t11 -54q0 -30 -12 -57t-33 -46q-17 -16 -40.5 -25t-49.5 -9q-32 0 -59 12t-46 33q-34 37 -34 92q0 25 7.5 47t21.5 39q19 25 47.5 39t62.5 14z" />
<glyph unicode="&#xd7;" d="M1094 328l-174 -176l-306 305l-303 -303l-176 176l303 303l-305 305l176 176l305 -305l306 307l174 -176l-306 -307z" />
<glyph unicode="&#xd8;" horiz-adv-x="1645" d="M1262 733q0 82 -19 157.5t-51 135.5l-604 -719q48 -29 106.5 -46t126.5 -17q125 0 218 52q71 39 120 103t75 145q14 44 21 91t7 98zM385 733q0 -80 18 -152.5t56 -138.5l600 719q-48 29 -109 47.5t-129 18.5t-125 -16.5t-105 -46.5q-50 -32 -87 -75.5t-63 -97.5 q-28 -57 -42 -122.5t-14 -135.5zM1374 1245q48 -57 85 -124t62 -141q20 -61 31 -123t11 -124q0 -81 -17 -159.5t-49 -152.5q-42 -95 -107 -175.5t-153 -140.5q-86 -59 -190 -92t-226 -33q-59 0 -114 10t-109 28q-48 16 -92 38t-86 48l-107 -124l-227 20l188 225 q-37 44 -68.5 94t-56.5 106q-32 71 -49.5 149t-17.5 159q0 98 24.5 193t72.5 181q39 72 92.5 133.5t119.5 110.5q88 66 195.5 103t234.5 37q67 0 127 -10.5t117 -30.5q45 -16 87 -36.5t83 -45.5l96 117l228 -21z" />
<glyph unicode="&#xd9;" horiz-adv-x="1384" d="M143 1464h293v-983q0 -51 15 -91.5t43 -70.5q32 -35 79.5 -54t106.5 -19q65 0 114.5 16.5t84.5 47.5q69 62 69 177v977h291v-997q0 -91 -23.5 -165t-68.5 -131q-56 -73 -141 -118q-69 -37 -151 -55t-173 -18q-74 0 -139 10.5t-122 32.5q-61 23 -110.5 59.5t-84.5 87.5 q-41 57 -62 131t-21 168v995zM645 1540l-246 366h260l182 -366h-196z" />
<glyph unicode="&#xda;" horiz-adv-x="1384" d="M143 1464h293v-983q0 -51 15 -91.5t43 -70.5q32 -35 79.5 -54t106.5 -19q65 0 114.5 16.5t84.5 47.5q69 62 69 177v977h291v-997q0 -91 -23.5 -165t-68.5 -131q-56 -73 -141 -118q-69 -37 -151 -55t-173 -18q-74 0 -139 10.5t-122 32.5q-61 23 -110.5 59.5t-84.5 87.5 q-41 57 -62 131t-21 168v995zM1030 1906l-245 -366h-197l182 366h260z" />
<glyph unicode="&#xdb;" horiz-adv-x="1384" d="M143 1464h293v-983q0 -51 15 -91.5t43 -70.5q32 -35 79.5 -54t106.5 -19q65 0 114.5 16.5t84.5 47.5q69 62 69 177v977h291v-997q0 -91 -23.5 -165t-68.5 -131q-56 -73 -141 -118q-69 -37 -151 -55t-173 -18q-74 0 -139 10.5t-122 32.5q-61 23 -110.5 59.5t-84.5 87.5 q-41 57 -62 131t-21 168v995zM819 1540l-120 159q-34 -40 -67.5 -79.5t-65.5 -79.5h-234l299 366h141l310 -366h-263z" />
<glyph unicode="&#xdc;" horiz-adv-x="1384" d="M143 1464h293v-983q0 -51 15 -91.5t43 -70.5q32 -35 79.5 -54t106.5 -19q65 0 114.5 16.5t84.5 47.5q69 62 69 177v977h291v-997q0 -91 -23.5 -165t-68.5 -131q-56 -73 -141 -118q-69 -37 -151 -55t-173 -18q-74 0 -139 10.5t-122 32.5q-61 23 -110.5 59.5t-84.5 87.5 q-41 57 -62 131t-21 168v995zM891 1816q31 0 57 -13t45 -36q15 -18 24 -41t9 -49q0 -25 -8.5 -47.5t-22.5 -40.5q-18 -23 -45 -36t-59 -13q-55 0 -94 34q-21 19 -33 45t-12 58q0 26 8.5 48t22.5 40q19 23 47 37t61 14zM516 1816q28 0 52 -11t43 -30q18 -19 29 -44t11 -54 q0 -30 -12 -57t-33 -46q-17 -16 -40.5 -25t-49.5 -9q-32 0 -59 12t-46 33q-34 37 -34 92q0 25 7.5 47t21.5 39q19 25 47.5 39t62.5 14z" />
<glyph unicode="&#xdd;" horiz-adv-x="1241" d="M769 602v-602h-290v602l-496 862h315l326 -585h6l320 585h309zM933 1906l-245 -366h-197l182 366h260z" />
<glyph unicode="&#xde;" horiz-adv-x="1192" d="M438 580q32 -2 51 -2h31q87 0 148 14t99 45q67 54 67 166q0 114 -111 164q-81 37 -227 37h-58v-424zM438 0h-293v1464h293v-196h25q92 0 177.5 -7t161.5 -27q78 -20 141 -54.5t107 -90.5q38 -48 59 -113.5t21 -152.5q0 -153 -52 -258q-53 -107 -157 -168 q-144 -84 -386 -84q-22 0 -41 0.5t-56 1.5v-315z" />
<glyph unicode="&#xdf;" horiz-adv-x="1137" d="M547 209q26 -6 43.5 -9t36.5 -3q85 0 133 48q61 61 61 199q0 57 -16 104t-45 81q-16 17 -51.5 46t-94.5 73q-29 21 -50.5 39t-36 35.5t-22 36t-7.5 42.5q0 38 19 64.5t56 58.5q78 65 78 137q0 127 -139 127q-54 0 -83 -23t-43 -61.5t-16.5 -89.5t-2.5 -108v-1006h-254 v1102q0 95 29.5 174t86.5 135q48 46 111.5 72t144.5 26q85 0 163 -18.5t135 -60.5q48 -35 76 -88t28 -128q0 -34 -4.5 -62t-14 -53t-25 -49t-36.5 -51q-19 -21 -31 -34.5t-12 -24.5q0 -9 15.5 -20t54.5 -31q117 -61 179 -163q68 -110 68 -269q0 -69 -10.5 -131t-33.5 -116 q-24 -57 -61 -102.5t-89 -75.5q-87 -52 -211 -52q-42 0 -85 8.5t-91 23.5z" />
<glyph unicode="&#xe0;" horiz-adv-x="975" d="M588 412q-20 3 -36 3.5t-24 0.5q-60 0 -103.5 -8.5t-70.5 -28.5q-43 -31 -43 -92q0 -50 27.5 -76.5t83.5 -26.5q69 0 109 31q57 43 57 135v62zM958 129q-5 -18 -15 -36q-8 -16 -21 -34.5t-32 -35.5q-20 -18 -48 -30.5t-64 -12.5q-27 0 -52 7t-47 24q-17 14 -31 37t-25 56 h-2q-20 -28 -48.5 -50.5t-63.5 -39.5q-34 -16 -71.5 -25t-77.5 -9q-72 0 -134.5 24t-104.5 73q-31 36 -48.5 85t-17.5 112q0 78 24.5 133t68.5 93q35 30 79 50t95 32q46 11 96 15.5t102 4.5q13 0 30 -1t34 -3q-2 32 -16.5 54.5t-38.5 36.5q-22 13 -51.5 18.5t-65.5 5.5 q-56 0 -109.5 -14t-101.5 -35l-58 198q63 29 132.5 44.5t148.5 15.5q101 0 173 -18.5t121 -56.5q61 -49 89 -129q18 -51 25.5 -114t7.5 -141v-174q0 -84 31.5 -122t86.5 -36v-2zM463 1098l-246 366h260l182 -366h-196z" />
<glyph unicode="&#xe1;" horiz-adv-x="975" d="M588 412q-20 3 -36 3.5t-24 0.5q-60 0 -103.5 -8.5t-70.5 -28.5q-43 -31 -43 -92q0 -50 27.5 -76.5t83.5 -26.5q69 0 109 31q57 43 57 135v62zM958 129q-5 -18 -15 -36q-8 -16 -21 -34.5t-32 -35.5q-20 -18 -48 -30.5t-64 -12.5q-27 0 -52 7t-47 24q-17 14 -31 37t-25 56 h-2q-20 -28 -48.5 -50.5t-63.5 -39.5q-34 -16 -71.5 -25t-77.5 -9q-72 0 -134.5 24t-104.5 73q-31 36 -48.5 85t-17.5 112q0 78 24.5 133t68.5 93q35 30 79 50t95 32q46 11 96 15.5t102 4.5q13 0 30 -1t34 -3q-2 32 -16.5 54.5t-38.5 36.5q-22 13 -51.5 18.5t-65.5 5.5 q-56 0 -109.5 -14t-101.5 -35l-58 198q63 29 132.5 44.5t148.5 15.5q101 0 173 -18.5t121 -56.5q61 -49 89 -129q18 -51 25.5 -114t7.5 -141v-174q0 -84 31.5 -122t86.5 -36v-2zM759 1464l-245 -366h-197l182 366h260z" />
<glyph unicode="&#xe2;" horiz-adv-x="975" d="M588 412q-20 3 -36 3.5t-24 0.5q-60 0 -103.5 -8.5t-70.5 -28.5q-43 -31 -43 -92q0 -50 27.5 -76.5t83.5 -26.5q69 0 109 31q57 43 57 135v62zM958 129q-5 -18 -15 -36q-8 -16 -21 -34.5t-32 -35.5q-20 -18 -48 -30.5t-64 -12.5q-27 0 -52 7t-47 24q-17 14 -31 37t-25 56 h-2q-20 -28 -48.5 -50.5t-63.5 -39.5q-34 -16 -71.5 -25t-77.5 -9q-72 0 -134.5 24t-104.5 73q-31 36 -48.5 85t-17.5 112q0 78 24.5 133t68.5 93q35 30 79 50t95 32q46 11 96 15.5t102 4.5q13 0 30 -1t34 -3q-2 32 -16.5 54.5t-38.5 36.5q-22 13 -51.5 18.5t-65.5 5.5 q-56 0 -109.5 -14t-101.5 -35l-58 198q63 29 132.5 44.5t148.5 15.5q101 0 173 -18.5t121 -56.5q61 -49 89 -129q18 -51 25.5 -114t7.5 -141v-174q0 -84 31.5 -122t86.5 -36v-2zM598 1098l-120 159q-34 -40 -67.5 -79.5t-65.5 -79.5h-234l299 366h141l310 -366h-263z" />
<glyph unicode="&#xe3;" horiz-adv-x="975" d="M588 412q-20 3 -36 3.5t-24 0.5q-60 0 -103.5 -8.5t-70.5 -28.5q-43 -31 -43 -92q0 -50 27.5 -76.5t83.5 -26.5q69 0 109 31q57 43 57 135v62zM958 129q-5 -18 -15 -36q-8 -16 -21 -34.5t-32 -35.5q-20 -18 -48 -30.5t-64 -12.5q-27 0 -52 7t-47 24q-17 14 -31 37t-25 56 h-2q-20 -28 -48.5 -50.5t-63.5 -39.5q-34 -16 -71.5 -25t-77.5 -9q-72 0 -134.5 24t-104.5 73q-31 36 -48.5 85t-17.5 112q0 78 24.5 133t68.5 93q35 30 79 50t95 32q46 11 96 15.5t102 4.5q13 0 30 -1t34 -3q-2 32 -16.5 54.5t-38.5 36.5q-22 13 -51.5 18.5t-65.5 5.5 q-56 0 -109.5 -14t-101.5 -35l-58 198q63 29 132.5 44.5t148.5 15.5q101 0 173 -18.5t121 -56.5q61 -49 89 -129q18 -51 25.5 -114t7.5 -141v-174q0 -84 31.5 -122t86.5 -36v-2zM835 1427q-36 -161 -102 -233q-52 -57 -123 -57q-41 0 -70.5 14t-55 31t-51 31t-57.5 14 q-34 0 -55.5 -21t-32.5 -69h-143q6 59 29.5 120t61.5 105q26 29 56.5 47t65.5 18q45 0 77 -14t58.5 -31t52.5 -31t60 -14q35 0 53.5 20t28.5 70h147z" />
<glyph unicode="&#xe4;" horiz-adv-x="975" d="M588 412q-20 3 -36 3.5t-24 0.5q-60 0 -103.5 -8.5t-70.5 -28.5q-43 -31 -43 -92q0 -50 27.5 -76.5t83.5 -26.5q69 0 109 31q57 43 57 135v62zM958 129q-5 -18 -15 -36q-8 -16 -21 -34.5t-32 -35.5q-20 -18 -48 -30.5t-64 -12.5q-27 0 -52 7t-47 24q-17 14 -31 37t-25 56 h-2q-20 -28 -48.5 -50.5t-63.5 -39.5q-34 -16 -71.5 -25t-77.5 -9q-72 0 -134.5 24t-104.5 73q-31 36 -48.5 85t-17.5 112q0 78 24.5 133t68.5 93q35 30 79 50t95 32q46 11 96 15.5t102 4.5q13 0 30 -1t34 -3q-2 32 -16.5 54.5t-38.5 36.5q-22 13 -51.5 18.5t-65.5 5.5 q-56 0 -109.5 -14t-101.5 -35l-58 198q63 29 132.5 44.5t148.5 15.5q101 0 173 -18.5t121 -56.5q61 -49 89 -129q18 -51 25.5 -114t7.5 -141v-174q0 -84 31.5 -122t86.5 -36v-2zM678 1415q31 0 57 -13t45 -36q15 -18 24 -41t9 -49q0 -25 -8.5 -47.5t-22.5 -40.5 q-18 -23 -45 -36t-59 -13q-55 0 -94 34q-21 19 -33 45t-12 58q0 26 8.5 48t22.5 40q19 23 47 37t61 14zM303 1415q28 0 52 -11t43 -30q18 -19 29 -44t11 -54q0 -30 -12 -57t-33 -46q-17 -16 -40.5 -25t-49.5 -9q-32 0 -59 12t-46 33q-34 37 -34 92q0 25 7.5 47t21.5 39 q19 25 47.5 39t62.5 14z" />
<glyph unicode="&#xe5;" horiz-adv-x="975" d="M588 412q-20 3 -36 3.5t-24 0.5q-60 0 -103.5 -8.5t-70.5 -28.5q-43 -31 -43 -92q0 -50 27.5 -76.5t83.5 -26.5q69 0 109 31q57 43 57 135v62zM958 129q-5 -18 -15 -36q-8 -16 -21 -34.5t-32 -35.5q-20 -18 -48 -30.5t-64 -12.5q-27 0 -52 7t-47 24q-17 14 -31 37t-25 56 h-2q-20 -28 -48.5 -50.5t-63.5 -39.5q-34 -16 -71.5 -25t-77.5 -9q-72 0 -134.5 24t-104.5 73q-31 36 -48.5 85t-17.5 112q0 78 24.5 133t68.5 93q35 30 79 50t95 32q46 11 96 15.5t102 4.5q13 0 30 -1t34 -3q-2 32 -16.5 54.5t-38.5 36.5q-22 13 -51.5 18.5t-65.5 5.5 q-56 0 -109.5 -14t-101.5 -35l-58 198q63 29 132.5 44.5t148.5 15.5q101 0 173 -18.5t121 -56.5q61 -49 89 -129q18 -51 25.5 -114t7.5 -141v-174q0 -84 31.5 -122t86.5 -36v-2zM475 1502q42 0 78 -15t65 -41q32 -29 50 -68.5t18 -84.5q0 -41 -14 -77t-40 -64 q-29 -32 -69.5 -51t-87.5 -19q-41 0 -77 14t-64 40q-32 29 -51 69.5t-19 87.5t19.5 87t52.5 69q28 25 63.5 39t75.5 14zM475 1193q21 0 39.5 7.5t32.5 21.5q29 29 29 71q0 39 -27 68q-14 14 -33 22.5t-41 8.5q-21 0 -40 -8t-33 -22t-21.5 -31.5t-7.5 -37.5t7.5 -36.5 t19.5 -30.5q14 -15 33.5 -24t41.5 -9z" />
<glyph unicode="&#xe6;" horiz-adv-x="1536" d="M1223 557q-4 38 -18.5 66.5t-37.5 48.5q-49 41 -131 41q-41 0 -76.5 -12.5t-61.5 -37.5q-20 -20 -33.5 -46t-18.5 -60h377zM588 412q-20 3 -36 3.5t-24 0.5q-60 0 -103.5 -8.5t-70.5 -28.5q-43 -31 -43 -92q0 -50 27.5 -76.5t83.5 -26.5q69 0 109 31q57 43 57 135v62z M840 371q10 -91 70 -135q28 -21 66.5 -31t86.5 -10q64 0 118 22q29 11 55 29.5t50 42.5l98 -207q-63 -48 -151 -75q-44 -13 -94 -20t-107 -7q-136 0 -232 46q-42 20 -76.5 48t-61.5 63q-32 -42 -65.5 -70.5t-68.5 -46.5q-42 -22 -84 -31t-84 -9q-94 0 -166 39q-63 34 -99 95 q-19 32 -29.5 72t-10.5 88q0 51 11.5 92.5t31.5 74.5q25 41 62 69t84 47q60 24 130.5 34.5t145.5 10.5q13 0 30 -1t34 -3q-5 62 -51 88.5t-121 26.5q-56 0 -109.5 -14t-101.5 -35l-58 198q32 15 66.5 26.5t70.5 19.5q34 8 70 11t74 3q124 0 205 -28q67 -23 108 -67 q65 50 144 73q35 11 73 16.5t80 5.5q110 0 200 -38q52 -22 94 -55t74 -75q39 -53 60 -117t21 -139q0 -34 -7 -68.5t-18 -58.5h-618z" />
<glyph unicode="&#xe7;" horiz-adv-x="893" d="M748 633q-50 42 -98.5 62t-102.5 20q-53 0 -93 -17.5t-68 -49.5q-32 -37 -48 -88.5t-16 -113.5q0 -134 63 -194q29 -29 72 -42t100 -13q53 0 105 20.5t108 67.5l94 -205q-58 -41 -125 -65q-51 -19 -105.5 -27t-113.5 -8q-81 0 -148.5 18t-121.5 52t-94 82.5t-65 109.5 q-36 90 -36 204q0 72 14.5 133.5t42.5 113.5q65 120 193 180q107 49 244 49q47 0 89.5 -7t82.5 -21q76 -26 137 -73zM408 -410l-23 109q78 0 122 18.5t44 53.5q0 24 -14.5 42.5t-59.5 18.5v119q45 2 83 -9.5t66 -35.5t44 -58t16 -77q0 -94 -72.5 -137.5t-205.5 -43.5z" />
<glyph unicode="&#xe8;" horiz-adv-x="1020" d="M707 557q-9 79 -59 118q-49 38 -128 38q-39 0 -73.5 -12t-60.5 -35q-22 -20 -36.5 -47t-19.5 -62h377zM324 371q11 -85 63 -129q56 -47 160 -47q130 0 223 94l98 -207q-60 -46 -137 -71q-47 -15 -100 -23t-115 -8q-137 0 -237 50q-128 64 -184 197q-40 93 -40 219 q0 101 28 182q22 65 60 117.5t90 90.5q57 42 128 64t157 22q64 0 120.5 -13t105.5 -38q54 -27 96.5 -67t71.5 -91q55 -95 55 -215q0 -34 -7 -68.5t-18 -58.5h-618zM504 1098l-246 366h260l182 -366h-196z" />
<glyph unicode="&#xe9;" horiz-adv-x="1020" d="M707 557q-9 79 -59 118q-49 38 -128 38q-39 0 -73.5 -12t-60.5 -35q-22 -20 -36.5 -47t-19.5 -62h377zM324 371q11 -85 63 -129q56 -47 160 -47q130 0 223 94l98 -207q-60 -46 -137 -71q-47 -15 -100 -23t-115 -8q-137 0 -237 50q-128 64 -184 197q-40 93 -40 219 q0 101 28 182q22 65 60 117.5t90 90.5q57 42 128 64t157 22q64 0 120.5 -13t105.5 -38q54 -27 96.5 -67t71.5 -91q55 -95 55 -215q0 -34 -7 -68.5t-18 -58.5h-618zM841 1464l-245 -366h-197l182 366h260z" />
<glyph unicode="&#xea;" horiz-adv-x="1020" d="M707 557q-9 79 -59 118q-49 38 -128 38q-39 0 -73.5 -12t-60.5 -35q-22 -20 -36.5 -47t-19.5 -62h377zM324 371q11 -85 63 -129q56 -47 160 -47q130 0 223 94l98 -207q-60 -46 -137 -71q-47 -15 -100 -23t-115 -8q-137 0 -237 50q-128 64 -184 197q-40 93 -40 219 q0 101 28 182q22 65 60 117.5t90 90.5q57 42 128 64t157 22q64 0 120.5 -13t105.5 -38q54 -27 96.5 -67t71.5 -91q55 -95 55 -215q0 -34 -7 -68.5t-18 -58.5h-618zM639 1098l-120 159q-34 -40 -67.5 -79.5t-65.5 -79.5h-234l299 366h141l310 -366h-263z" />
<glyph unicode="&#xeb;" horiz-adv-x="1020" d="M707 557q-9 79 -59 118q-49 38 -128 38q-39 0 -73.5 -12t-60.5 -35q-22 -20 -36.5 -47t-19.5 -62h377zM324 371q11 -85 63 -129q56 -47 160 -47q130 0 223 94l98 -207q-60 -46 -137 -71q-47 -15 -100 -23t-115 -8q-137 0 -237 50q-128 64 -184 197q-40 93 -40 219 q0 101 28 182q22 65 60 117.5t90 90.5q57 42 128 64t157 22q64 0 120.5 -13t105.5 -38q54 -27 96.5 -67t71.5 -91q55 -95 55 -215q0 -34 -7 -68.5t-18 -58.5h-618zM713 1415q31 0 57 -13t45 -36q15 -18 24 -41t9 -49q0 -25 -8.5 -47.5t-22.5 -40.5q-18 -23 -45 -36t-59 -13 q-55 0 -94 34q-21 19 -33 45t-12 58q0 26 8.5 48t22.5 40q19 23 47 37t61 14zM338 1415q28 0 52 -11t43 -30q18 -19 29 -44t11 -54q0 -30 -12 -57t-33 -46q-17 -16 -40.5 -25t-49.5 -9q-32 0 -59 12t-46 33q-34 37 -34 92q0 25 7.5 47t21.5 39q19 25 47.5 39t62.5 14z" />
<glyph unicode="&#xec;" horiz-adv-x="547" d="M152 0v696h-66v205h322v-901h-256zM248 1098l-246 366h260l182 -366h-196z" />
<glyph unicode="&#xed;" horiz-adv-x="547" d="M152 0v696h-66v205h322v-901h-256zM540 1464l-245 -366h-197l182 366h260z" />
<glyph unicode="&#xee;" horiz-adv-x="547" d="M152 0v696h-66v205h322v-901h-256zM379 1098l-120 159q-34 -40 -67.5 -79.5t-65.5 -79.5h-234l299 366h141l310 -366h-263z" />
<glyph unicode="&#xef;" horiz-adv-x="547" d="M152 0v696h-66v205h322v-901h-256zM449 1415q31 0 57 -13t45 -36q15 -18 24 -41t9 -49q0 -25 -8.5 -47.5t-22.5 -40.5q-18 -23 -45 -36t-59 -13q-55 0 -94 34q-21 19 -33 45t-12 58q0 26 8.5 48t22.5 40q19 23 47 37t61 14zM74 1415q28 0 52 -11t43 -30q18 -19 29 -44 t11 -54q0 -30 -12 -57t-33 -46q-17 -16 -40.5 -25t-49.5 -9q-32 0 -59 12t-46 33q-34 37 -34 92q0 25 7.5 47t21.5 39q19 25 47.5 39t62.5 14z" />
<glyph unicode="&#xf0;" horiz-adv-x="1006" d="M319 457q0 -150 55 -215q45 -54 128 -54q85 0 133 65q25 34 38 85t13 119q0 123 -39 186q-44 72 -145 72q-41 0 -72 -16t-54 -45q-29 -36 -43 -87.5t-14 -109.5zM217 1090l-51 92l149 80h2q-54 51 -107 102t-110 100h303l103 -100l170 90l53 -88l-156 -84 q72 -78 131 -154.5t105 -156.5q61 -106 97 -219q22 -70 33 -143t11 -152q0 -121 -40 -221q-27 -66 -70.5 -117t-103.5 -84q-99 -55 -234 -55q-69 0 -127.5 14.5t-106.5 40.5q-96 53 -151 152q-62 113 -62 270q0 136 55 241q32 63 82.5 110.5t117.5 76.5q86 37 192 37 q23 0 51.5 -2.5t54.5 -6.5q-18 36 -43.5 75t-53.5 76t-56 68.5t-52 53.5z" />
<glyph unicode="&#xf1;" horiz-adv-x="1044" d="M678 0v530q0 45 -7.5 78t-24.5 56q-37 49 -126 49q-17 0 -37 -5t-40.5 -14.5t-39.5 -24t-34 -32.5v-637h-256v901h190l31 -76h10q23 19 49.5 36.5t56.5 31.5q29 13 60 21t65 8q63 0 115 -13t94 -38q68 -41 105 -109q45 -81 45 -199v-563h-256zM860 1427 q-36 -161 -102 -233q-52 -57 -123 -57q-41 0 -70.5 14t-55 31t-51 31t-57.5 14q-34 0 -55.5 -21t-32.5 -69h-143q6 59 29.5 120t61.5 105q26 29 56.5 47t65.5 18q45 0 77 -14t58.5 -31t52.5 -31t60 -14q35 0 53.5 20t28.5 70h147z" />
<glyph unicode="&#xf2;" horiz-adv-x="1006" d="M319 457q0 -144 51 -210q46 -59 132 -59q84 0 132 64q52 69 52 205q0 146 -55 208q-44 50 -129 50q-35 0 -63.5 -12.5t-50.5 -35.5q-35 -36 -52 -91.5t-17 -118.5zM55 457q0 108 35 198q23 57 59 104.5t84 82.5q54 38 121 59t148 21q91 0 164.5 -23t128.5 -67 q45 -35 77 -82.5t51 -106.5q27 -84 27 -186q0 -132 -46 -236q-52 -117 -158 -180q-50 -29 -111 -45t-133 -16q-141 0 -240 58q-60 35 -103 87t-69 120q-35 94 -35 212zM477 1098l-246 366h260l182 -366h-196z" />
<glyph unicode="&#xf3;" horiz-adv-x="1006" d="M319 457q0 -144 51 -210q46 -59 132 -59q84 0 132 64q52 69 52 205q0 146 -55 208q-44 50 -129 50q-35 0 -63.5 -12.5t-50.5 -35.5q-35 -36 -52 -91.5t-17 -118.5zM55 457q0 108 35 198q23 57 59 104.5t84 82.5q54 38 121 59t148 21q91 0 164.5 -23t128.5 -67 q45 -35 77 -82.5t51 -106.5q27 -84 27 -186q0 -132 -46 -236q-52 -117 -158 -180q-50 -29 -111 -45t-133 -16q-141 0 -240 58q-60 35 -103 87t-69 120q-35 94 -35 212zM821 1464l-245 -366h-197l182 366h260z" />
<glyph unicode="&#xf4;" horiz-adv-x="1006" d="M319 457q0 -144 51 -210q46 -59 132 -59q84 0 132 64q52 69 52 205q0 146 -55 208q-44 50 -129 50q-35 0 -63.5 -12.5t-50.5 -35.5q-35 -36 -52 -91.5t-17 -118.5zM55 457q0 108 35 198q23 57 59 104.5t84 82.5q54 38 121 59t148 21q91 0 164.5 -23t128.5 -67 q45 -35 77 -82.5t51 -106.5q27 -84 27 -186q0 -132 -46 -236q-52 -117 -158 -180q-50 -29 -111 -45t-133 -16q-141 0 -240 58q-60 35 -103 87t-69 120q-35 94 -35 212zM620 1098l-120 159q-34 -40 -67.5 -79.5t-65.5 -79.5h-234l299 366h141l310 -366h-263z" />
<glyph unicode="&#xf5;" horiz-adv-x="1006" d="M319 457q0 -144 51 -210q46 -59 132 -59q84 0 132 64q52 69 52 205q0 146 -55 208q-44 50 -129 50q-35 0 -63.5 -12.5t-50.5 -35.5q-35 -36 -52 -91.5t-17 -118.5zM55 457q0 108 35 198q23 57 59 104.5t84 82.5q54 38 121 59t148 21q91 0 164.5 -23t128.5 -67 q45 -35 77 -82.5t51 -106.5q27 -84 27 -186q0 -132 -46 -236q-52 -117 -158 -180q-50 -29 -111 -45t-133 -16q-141 0 -240 58q-60 35 -103 87t-69 120q-35 94 -35 212zM852 1427q-36 -161 -102 -233q-52 -57 -123 -57q-41 0 -70.5 14t-55 31t-51 31t-57.5 14 q-34 0 -55.5 -21t-32.5 -69h-143q6 59 29.5 120t61.5 105q26 29 56.5 47t65.5 18q45 0 77 -14t58.5 -31t52.5 -31t60 -14q35 0 53.5 20t28.5 70h147z" />
<glyph unicode="&#xf6;" horiz-adv-x="1006" d="M319 457q0 -144 51 -210q46 -59 132 -59q84 0 132 64q52 69 52 205q0 146 -55 208q-44 50 -129 50q-35 0 -63.5 -12.5t-50.5 -35.5q-35 -36 -52 -91.5t-17 -118.5zM55 457q0 108 35 198q23 57 59 104.5t84 82.5q54 38 121 59t148 21q91 0 164.5 -23t128.5 -67 q45 -35 77 -82.5t51 -106.5q27 -84 27 -186q0 -132 -46 -236q-52 -117 -158 -180q-50 -29 -111 -45t-133 -16q-141 0 -240 58q-60 35 -103 87t-69 120q-35 94 -35 212zM694 1415q31 0 57 -13t45 -36q15 -18 24 -41t9 -49q0 -25 -8.5 -47.5t-22.5 -40.5q-18 -23 -45 -36 t-59 -13q-55 0 -94 34q-21 19 -33 45t-12 58q0 26 8.5 48t22.5 40q19 23 47 37t61 14zM319 1415q28 0 52 -11t43 -30q18 -19 29 -44t11 -54q0 -30 -12 -57t-33 -46q-17 -16 -40.5 -25t-49.5 -9q-32 0 -59 12t-46 33q-34 37 -34 92q0 25 7.5 47t21.5 39q19 25 47.5 39 t62.5 14z" />
<glyph unicode="&#xf7;" horiz-adv-x="1382" d="M537 961q0 29 10 55t27 46q21 24 51 38t65 14q32 0 60 -12.5t49 -34.5q20 -21 31.5 -48.5t11.5 -57.5q0 -32 -12.5 -60t-34.5 -49q-20 -20 -47 -31.5t-58 -11.5q-35 0 -64 12.5t-49 35.5q-19 20 -29.5 47t-10.5 57zM537 305q0 59 36 101q21 25 51.5 39t65.5 14 q29 0 56.5 -11t47.5 -31q23 -21 35.5 -50t12.5 -62q0 -32 -12.5 -60t-34.5 -49q-20 -20 -47 -31t-58 -11q-32 0 -58.5 10.5t-46.5 29.5q-23 20 -35.5 49t-12.5 62zM1171 758v-248h-960v248h960z" />
<glyph unicode="&#xf8;" horiz-adv-x="1006" d="M686 457q0 29 -2.5 54t-7.5 48l-275 -342q39 -29 101 -29q83 0 131 63q26 34 39.5 85.5t13.5 120.5zM319 457q0 -34 2.5 -63t8.5 -54l276 344q-38 31 -104 31q-48 0 -82.5 -22t-57.5 -59q-22 -35 -32.5 -80.5t-10.5 -96.5zM850 776q55 -69 81 -166q9 -35 14 -73t5 -80 q0 -129 -44 -231q-26 -61 -67.5 -109t-98.5 -80q-49 -28 -108.5 -42.5t-129.5 -14.5q-144 0 -244 59l-49 -59l-154 20l103 127q-49 59 -74 137q-29 89 -29 193q0 108 35 198q25 63 65.5 114t96.5 86q51 32 113.5 49.5t136.5 17.5t136 -15.5t112 -44.5l49 60l153 -21z" />
<glyph unicode="&#xf9;" horiz-adv-x="1044" d="M694 0l-18 55q-54 -32 -112.5 -53.5t-127.5 -21.5q-123 0 -198 48q-56 36 -88 99q-39 81 -39 203v571h256v-557q0 -82 35 -118q29 -31 85 -31q27 0 56.5 9t55.5 24q26 14 46 33t31 40v600h256v-901h-238zM484 1098l-246 366h260l182 -366h-196z" />
<glyph unicode="&#xfa;" horiz-adv-x="1044" d="M694 0l-18 55q-54 -32 -112.5 -53.5t-127.5 -21.5q-123 0 -198 48q-56 36 -88 99q-39 81 -39 203v571h256v-557q0 -82 35 -118q29 -31 85 -31q27 0 56.5 9t55.5 24q26 14 46 33t31 40v600h256v-901h-238zM850 1464l-245 -366h-197l182 366h260z" />
<glyph unicode="&#xfb;" horiz-adv-x="1044" d="M694 0l-18 55q-54 -32 -112.5 -53.5t-127.5 -21.5q-123 0 -198 48q-56 36 -88 99q-39 81 -39 203v571h256v-557q0 -82 35 -118q29 -31 85 -31q27 0 56.5 9t55.5 24q26 14 46 33t31 40v600h256v-901h-238zM641 1098l-120 159q-34 -40 -67.5 -79.5t-65.5 -79.5h-234 l299 366h141l310 -366h-263z" />
<glyph unicode="&#xfc;" horiz-adv-x="1044" d="M694 0l-18 55q-54 -32 -112.5 -53.5t-127.5 -21.5q-123 0 -198 48q-56 36 -88 99q-39 81 -39 203v571h256v-557q0 -82 35 -118q29 -31 85 -31q27 0 56.5 9t55.5 24q26 14 46 33t31 40v600h256v-901h-238zM719 1415q31 0 57 -13t45 -36q15 -18 24 -41t9 -49 q0 -25 -8.5 -47.5t-22.5 -40.5q-18 -23 -45 -36t-59 -13q-55 0 -94 34q-21 19 -33 45t-12 58q0 26 8.5 48t22.5 40q19 23 47 37t61 14zM344 1415q28 0 52 -11t43 -30q18 -19 29 -44t11 -54q0 -30 -12 -57t-33 -46q-17 -16 -40.5 -25t-49.5 -9q-32 0 -59 12t-46 33 q-34 37 -34 92q0 25 7.5 47t21.5 39q19 25 47.5 39t62.5 14z" />
<glyph unicode="&#xfd;" horiz-adv-x="963" d="M584 -127q-28 -78 -64 -131.5t-90 -87.5q-54 -33 -128.5 -48.5t-182.5 -15.5v220q129 0 186 28q51 24 51 72q0 18 -2 36.5t-7.5 42t-15 53.5t-24.5 69l-301 790h266l217 -588h3l198 588h266zM827 1464l-245 -366h-197l182 366h260z" />
<glyph unicode="&#xfe;" horiz-adv-x="1051" d="M367 221q14 -8 31.5 -14.5t36 -10.5t36.5 -6t33 -2q115 0 170 62q57 63 57 201q0 148 -73 214q-54 48 -144 48q-15 0 -34.5 -3t-39.5 -9t-39 -15t-34 -20v-445zM367 -390h-254v1854h254v-616q21 15 43 28.5t46.5 23.5t53.5 16t65 6q66 0 125.5 -17t110.5 -51 q87 -58 135 -162q23 -51 36 -112.5t13 -133.5q0 -80 -18 -148.5t-53 -125.5q-57 -92 -153 -141q-49 -25 -107.5 -38t-126.5 -13q-39 0 -82 6t-88 18v-394z" />
<glyph unicode="&#xff;" horiz-adv-x="963" d="M584 -127q-28 -78 -64 -131.5t-90 -87.5q-54 -33 -128.5 -48.5t-182.5 -15.5v220q129 0 186 28q51 24 51 72q0 18 -2 36.5t-7.5 42t-15 53.5t-24.5 69l-301 790h266l217 -588h3l198 588h266zM678 1415q31 0 57 -13t45 -36q15 -18 24 -41t9 -49q0 -25 -8.5 -47.5 t-22.5 -40.5q-18 -23 -45 -36t-59 -13q-55 0 -94 34q-21 19 -33 45t-12 58q0 26 8.5 48t22.5 40q19 23 47 37t61 14zM303 1415q28 0 52 -11t43 -30q18 -19 29 -44t11 -54q0 -30 -12 -57t-33 -46q-17 -16 -40.5 -25t-49.5 -9q-32 0 -59 12t-46 33q-34 37 -34 92q0 25 7.5 47 t21.5 39q19 25 47.5 39t62.5 14z" />
<glyph unicode="&#x131;" horiz-adv-x="547" d="M152 0v696h-66v205h322v-901h-256z" />
<glyph unicode="&#x141;" horiz-adv-x="1055" d="M18 750l127 81v633h293v-440l174 113v-195l-174 -113v-565h580v-264h-873v637l-127 -84v197z" />
<glyph unicode="&#x142;" horiz-adv-x="547" d="M508 874l-117 -77v-473q0 -57 9 -94t26 -60q16 -21 37 -30t47 -9l2 -2q-6 -42 -26 -69.5t-47 -44.5q-32 -20 -67 -27.5t-65 -7.5q-80 0 -125 60q-23 30 -35 74.5t-12 104.5v412l-112 -74v195l112 73v639h256v-473l117 78v-195z" />
<glyph unicode="&#x152;" horiz-adv-x="1993" d="M385 733q0 -115 36 -211q27 -72 72 -128t108 -93q47 -27 101.5 -42t118.5 -15q60 0 111.5 9t97.5 32v895q-48 23 -99 35t-110 12q-84 0 -151 -24t-119 -68q-44 -36 -75.5 -83.5t-52.5 -102.5q-38 -100 -38 -216zM1323 1200v-295h418v-254h-418v-387h592v-264h-891 q-46 -8 -98 -14t-105 -6q-120 0 -228.5 37t-199.5 103q-76 56 -136.5 128t-102.5 160q-35 74 -53.5 155.5t-18.5 169.5q0 90 21 177t61 168q43 86 104.5 159t141.5 128q85 59 188 92.5t223 33.5q54 0 105.5 -7t99.5 -20h901v-264h-604z" />
<glyph unicode="&#x153;" horiz-adv-x="1636" d="M1323 557q-8 72 -52 112q-49 44 -134 44q-84 0 -140 -51q-20 -20 -34 -46t-19 -59h379zM319 457q0 -146 52 -211q45 -58 131 -58t135 69t49 200t-44 194q-45 64 -140 64q-42 0 -73.5 -17t-54.5 -46q-28 -36 -41.5 -87t-13.5 -108zM944 371q9 -81 56 -125q54 -51 163 -51 q58 0 112 20q59 22 111 74l99 -207q-28 -21 -59.5 -38t-69.5 -30q-48 -17 -103.5 -25.5t-119.5 -8.5q-96 0 -173 24q-45 14 -82 35t-69 49q-58 -53 -132 -80q-77 -28 -175 -28q-83 0 -150.5 20.5t-121.5 58.5q-95 68 -139 184q-36 95 -36 214q0 117 41 213q46 105 133 169 q54 40 122.5 61.5t150.5 21.5q102 0 180.5 -29.5t134.5 -83.5q62 56 142 84q81 29 176 29q122 0 217 -46q58 -27 103 -68.5t75 -95.5q53 -94 53 -214q0 -34 -6.5 -68.5t-17.5 -58.5h-615z" />
<glyph unicode="&#x160;" horiz-adv-x="1149" d="M193 356q36 -26 76.5 -45t82.5 -33q50 -17 97.5 -24.5t85.5 -7.5q61 0 106 10.5t76 30.5q63 41 63 116q0 17 -6 35t-21.5 36.5t-43 39t-70.5 43.5q-32 18 -71 39t-79 42.5t-78 41.5t-69 35q-84 42 -134.5 84t-77.5 92q-22 41 -31 87t-9 103q0 53 13.5 99t39.5 88 q29 47 70 84.5t92 66.5q62 35 132.5 53.5t142.5 18.5q75 0 148.5 -11t136.5 -30q44 -13 79.5 -28.5t59.5 -32.5l-86 -259q-31 21 -66 39.5t-73 32.5q-44 16 -91 25.5t-96 9.5q-47 0 -89.5 -15.5t-72.5 -41.5q-23 -20 -36 -44.5t-13 -52.5q0 -23 11.5 -42.5t33.5 -39.5 q26 -23 65 -47t87 -51q20 -9 58 -28t75 -39q23 -13 43 -23t34 -16q85 -43 139.5 -87.5t86.5 -95.5q29 -48 41 -101t12 -116q0 -64 -18.5 -117t-51.5 -97q-36 -48 -85.5 -83.5t-109.5 -61.5q-69 -29 -144.5 -43.5t-151.5 -14.5q-55 0 -116.5 9.5t-123.5 28.5 q-49 15 -95.5 35.5t-88.5 46.5zM942 1906l-310 -366h-141l-299 366h234l133 -159l120 159h263z" />
<glyph unicode="&#x161;" horiz-adv-x="762" d="M141 279q55 -46 106 -69q57 -26 111 -26q47 0 70 22t23 54q0 22 -14.5 43t-57.5 41l-38 19t-56 28.5t-60.5 31.5t-52.5 28q-30 16 -55 36.5t-42 50.5q-14 23 -21 53.5t-7 70.5q0 67 27 116q17 33 44 58t61 43q42 22 90.5 32.5t99.5 10.5q44 0 89 -6t90 -19 q32 -9 62.5 -20.5t59.5 -26.5l-78 -209q-26 20 -51.5 37.5t-53.5 28.5q-43 18 -94 18q-40 0 -60 -17.5t-20 -41.5q0 -8 1.5 -17t9 -19t22 -21t39.5 -23q11 -6 30 -14.5t40.5 -18t43.5 -19.5t40 -18q47 -20 80 -43.5t55 -53.5q41 -57 41 -153q0 -42 -9 -76t-26 -63 q-20 -33 -47.5 -58t-62.5 -43q-47 -24 -102.5 -35t-115.5 -11q-39 0 -86.5 7t-96.5 24q-32 11 -62.5 25t-59.5 34zM752 1464l-310 -366h-141l-299 366h234l133 -159l120 159h263z" />
<glyph unicode="&#x178;" horiz-adv-x="1241" d="M769 602v-602h-290v602l-496 862h315l326 -585h6l320 585h309zM809 1816q31 0 57 -13t45 -36q15 -18 24 -41t9 -49q0 -25 -8.5 -47.5t-22.5 -40.5q-18 -23 -45 -36t-59 -13q-55 0 -94 34q-21 19 -33 45t-12 58q0 26 8.5 48t22.5 40q19 23 47 37t61 14zM434 1816 q28 0 52 -11t43 -30q18 -19 29 -44t11 -54q0 -30 -12 -57t-33 -46q-17 -16 -40.5 -25t-49.5 -9q-32 0 -59 12t-46 33q-34 37 -34 92q0 25 7.5 47t21.5 39q19 25 47.5 39t62.5 14z" />
<glyph unicode="&#x17d;" horiz-adv-x="1178" d="M74 0v104l602 1096h-592v264h997v-104l-606 -1096h629v-264h-1030zM979 1906l-310 -366h-141l-299 366h234l133 -159l120 159h263z" />
<glyph unicode="&#x17e;" horiz-adv-x="819" d="M53 0v121l371 563h-363v217h703v-90l-391 -594h395v-217h-715zM793 1464l-310 -366h-141l-299 366h234l133 -159l120 159h263z" />
<glyph unicode="&#x192;" horiz-adv-x="1139" d="M999 1239q-46 17 -79.5 28t-53.5 11q-18 0 -36.5 -5t-34.5 -17.5t-28.5 -34.5t-18.5 -56l-66 -264h199l-27 -205h-205l-127 -735q-9 -81 -42.5 -138.5t-85 -94t-117 -54t-138.5 -18.5l-53 168q30 6 58.5 21.5t51 36.5t38.5 45t20 48l129 721h-123l31 205h125l73 289 q15 80 50.5 135.5t86.5 90.5t115 51t136 16q43 0 86.5 -11t85.5 -38z" />
<glyph unicode="&#x2c6;" horiz-adv-x="754" d="M489 1098l-120 159q-34 -40 -67.5 -79.5t-65.5 -79.5h-234l299 366h141l310 -366h-263z" />
<glyph unicode="&#x2c7;" horiz-adv-x="754" d="M752 1464l-310 -366h-141l-299 366h234l133 -159l120 159h263z" />
<glyph unicode="&#x2d8;" horiz-adv-x="715" d="M713 1464q0 -70 -26.5 -131.5t-72.5 -109.5q-51 -54 -120.5 -84.5t-147.5 -30.5q-75 0 -137 25.5t-107 70.5q-48 48 -74 115t-26 145h203q0 -37 11 -68t30 -52.5t45 -33.5t55 -12q32 0 61.5 12t52 33.5t35.5 52.5t13 68h205z" />
<glyph unicode="&#x2d9;" horiz-adv-x="276" d="M139 1415q26 0 49 -9.5t41 -26.5q20 -20 32.5 -46t12.5 -57q0 -52 -32 -90q-18 -22 -44.5 -34.5t-58.5 -12.5q-60 0 -99 39q-19 19 -29.5 44t-10.5 54t10 53t28 43q19 20 45 31.5t56 11.5z" />
<glyph unicode="&#x2da;" horiz-adv-x="446" d="M225 1544q42 0 78 -15t65 -41q32 -29 50 -68.5t18 -84.5q0 -41 -14 -77t-40 -64q-29 -32 -69.5 -51t-87.5 -19q-41 0 -77 14t-64 40q-32 29 -51 69.5t-19 87.5t19.5 87t52.5 69q28 25 63.5 39t75.5 14zM225 1235q21 0 39.5 7.5t32.5 21.5q29 29 29 71q0 39 -27 68 q-14 14 -33 22.5t-41 8.5q-21 0 -40 -8t-33 -22t-21.5 -31.5t-7.5 -37.5t7.5 -36.5t19.5 -30.5q14 -15 33.5 -24t41.5 -9z" />
<glyph unicode="&#x2db;" horiz-adv-x="465" d="M459 -375q-48 -17 -92 -26t-86 -9q-52 0 -98.5 14.5t-82.5 43.5q-42 32 -66 80t-24 110q0 81 43 148q50 77 162 139l57 -162q-54 -29 -76 -56q-12 -16 -17 -33.5t-5 -39.5q0 -25 11.5 -43.5t29.5 -31.5q16 -11 34.5 -17t35.5 -6q56 0 108 31z" />
<glyph unicode="&#x2dc;" horiz-adv-x="692" d="M690 1427q-36 -161 -102 -233q-52 -57 -123 -57q-41 0 -70.5 14t-55 31t-51 31t-57.5 14q-34 0 -55.5 -21t-32.5 -69h-143q6 59 29.5 120t61.5 105q26 29 56.5 47t65.5 18q45 0 77 -14t58.5 -31t52.5 -31t60 -14q35 0 53.5 20t28.5 70h147z" />
<glyph unicode="&#x2dd;" horiz-adv-x="774" d="M770 1464l-246 -366h-196l182 366h260zM444 1464l-245 -366h-197l182 366h260z" />
<glyph unicode="&#x2013;" horiz-adv-x="854" d="M53 315v250h748v-250h-748z" />
<glyph unicode="&#x2014;" horiz-adv-x="1712" d="M53 315v250h1606v-250h-1606z" />
<glyph unicode="&#x2018;" horiz-adv-x="524" d="M483 1364q-97 -70 -144.5 -117t-47.5 -88q0 -14 3.5 -23t8.5 -20q55 -22 86 -64q33 -45 33 -104q0 -39 -18 -73t-49 -58q-25 -19 -55 -30t-64 -11q-40 0 -75 14t-61 40q-28 27 -43.5 64t-15.5 81q0 59 10.5 107.5t30.5 91.5q20 41 48.5 78.5t66.5 74.5t85 75.5t103 80.5z " />
<glyph unicode="&#x2019;" horiz-adv-x="524" d="M41 897q48 35 84 64t60 53.5t36 45.5t12 42q0 14 -3.5 23t-8.5 20q-27 11 -47.5 26t-35.5 34q-18 23 -27 50.5t-9 57.5q0 33 13 62.5t36 52.5q26 26 61.5 41.5t76.5 15.5q42 0 78 -15.5t62 -43.5q26 -26 40 -62t14 -78q0 -105 -34 -185q-18 -44 -46.5 -83.5t-67.5 -78 t-88 -78t-108 -83.5z" />
<glyph unicode="&#x201a;" horiz-adv-x="524" d="M41 -227q97 70 144.5 116.5t47.5 87.5q0 14 -3.5 23t-8.5 20q-29 11 -51 28.5t-37 39.5q-31 45 -31 100q0 35 14 65t38 53q26 25 61 39.5t74 14.5q41 0 76.5 -15t61.5 -42t41 -63t15 -78q0 -54 -8.5 -99t-25.5 -85q-18 -44 -46.5 -83.5t-67.5 -78t-88 -78.5t-108 -84z " />
<glyph unicode="&#x201c;" horiz-adv-x="995" d="M954 1364q-97 -70 -144.5 -117t-47.5 -88q0 -14 3.5 -23t8.5 -20q53 -21 84 -61q35 -46 35 -107q0 -38 -18 -71.5t-47 -57.5q-25 -20 -55.5 -31.5t-65.5 -11.5q-41 0 -76.5 15.5t-61.5 41.5q-26 27 -41.5 63t-15.5 79q0 77 17.5 137t52.5 114q43 65 111.5 125.5 t162.5 131.5zM483 1364q-97 -70 -144.5 -117t-47.5 -88q0 -14 3.5 -23t8.5 -20q55 -22 86 -64q33 -45 33 -104q0 -35 -14.5 -66t-39.5 -54q-26 -24 -60 -38t-72 -14q-42 0 -77.5 15.5t-61.5 42.5t-41 63t-15 78q0 74 16 132.5t48 109.5q42 68 112 130.5t168 135.5z" />
<glyph unicode="&#x201d;" horiz-adv-x="995" d="M41 897q48 35 84 64t60 53.5t36 45.5t12 42q0 14 -3.5 23t-8.5 20q-59 24 -90 70q-29 44 -29 98q0 37 16.5 69.5t44.5 56.5q26 22 58 34t68 12q41 0 76.5 -15t61.5 -42t41 -63t15 -79q0 -65 -12.5 -117t-36.5 -99q-40 -76 -114 -144t-181 -148zM512 897q48 35 84.5 64 t60.5 53.5t36 45.5t12 42q0 14 -4 23t-9 20q-60 24 -91 70q-14 21 -21 46t-7 52q0 35 14 65.5t39 53.5q26 25 60.5 39t73.5 14q43 0 80 -17t63 -46q24 -26 37.5 -61t13.5 -75q0 -53 -8 -97.5t-25 -84.5q-18 -45 -46.5 -84.5t-67.5 -78.5t-88 -78.5t-109 -84.5z" />
<glyph unicode="&#x201e;" horiz-adv-x="995" d="M41 -227q97 70 144.5 116.5t47.5 87.5q0 14 -3.5 23t-8.5 20q-58 24 -89 69q-30 44 -30 99q0 38 16.5 70.5t44.5 55.5q26 21 58 33.5t68 12.5q44 0 81.5 -17.5t63.5 -47.5q23 -26 36 -60t13 -73q0 -102 -31 -179q-18 -45 -46.5 -85t-67.5 -79.5t-89 -79.5t-110 -85z M512 -227q97 70 145 116.5t48 87.5q0 14 -4 23t-9 20q-50 20 -79 55q-20 24 -30 52.5t-10 60.5q0 30 11 57t30 49q26 30 64 48t82 18q38 0 71.5 -13.5t59.5 -37.5q29 -27 46 -64.5t17 -82.5q0 -54 -8.5 -99t-25.5 -85q-18 -44 -46.5 -83.5t-67.5 -78t-88 -78.5t-108 -84z " />
<glyph unicode="&#x2020;" horiz-adv-x="1026" d="M393 940h-325v221h325v303h240v-303h323v-221h-323v-1038h-240v1038z" />
<glyph unicode="&#x2021;" horiz-adv-x="1026" d="M68 512h325v428h-325v221h325v303h240v-303h323v-221h-323v-428h323v-221h-323v-389h-240v389h-325v221z" />
<glyph unicode="&#x2022;" horiz-adv-x="961" d="M225 573q0 54 21 100.5t56 81.5t81 54.5t98 19.5q51 0 95.5 -18.5t79.5 -51.5q37 -35 58 -83t21 -103q0 -54 -21 -101t-57 -82q-35 -33 -80 -52t-96 -19q-53 0 -99.5 19.5t-81.5 54.5t-55 81t-20 99z" />
<glyph unicode="&#x2026;" horiz-adv-x="1505" d="M399 131q0 -29 -10.5 -56t-29.5 -47q-20 -22 -48 -35t-61 -13q-34 0 -63 13.5t-49 36.5q-18 20 -28 46t-10 55q0 30 11 56.5t30 46.5q20 22 48 34.5t61 12.5q31 0 57.5 -10.5t46.5 -30.5q21 -20 33 -48.5t12 -60.5zM901 131q0 -30 -10.5 -57t-30.5 -47q-20 -22 -48 -34.5 t-60 -12.5q-31 0 -58.5 12t-47.5 33q-20 20 -32 47.5t-12 58.5q0 28 9.5 52.5t26.5 44.5q21 25 50 39t64 14q34 0 63 -13.5t49 -36.5q17 -20 27 -45.5t10 -54.5zM1405 131q0 -30 -11.5 -57t-31.5 -47q-21 -22 -49 -34.5t-60 -12.5q-30 0 -57 12t-47 32q-21 21 -33 48.5 t-12 58.5q0 30 11 57t31 47q20 21 47.5 33.5t59.5 12.5q37 0 68.5 -16t52.5 -43q14 -19 22.5 -42t8.5 -49z" />
<glyph unicode="&#x2030;" horiz-adv-x="2507" d="M270 1083q0 -68 35 -112q20 -26 49.5 -41t67.5 -15q35 0 62 12t47 34q42 47 42 122q0 35 -11.5 66t-34.5 53q-20 19 -46 30t-59 11q-35 0 -62.5 -12t-47.5 -34t-31 -51.5t-11 -62.5zM57 1085q0 68 23.5 127.5t65.5 107.5q50 57 120.5 90.5t155.5 33.5h1001l-921 -1444 h-211l831 1296h-405q26 -34 46.5 -89t20.5 -122q0 -72 -21.5 -134t-61.5 -110q-48 -59 -119.5 -92.5t-159.5 -33.5q-75 0 -138.5 25t-111.5 70q-54 51 -84.5 121.5t-30.5 153.5zM1935 348q0 -35 10 -63.5t28 -51.5q20 -25 49 -39t65 -14q33 0 59 11t46 31q23 23 34.5 55.5 t11.5 70.5t-13.5 70.5t-39.5 54.5q-19 17 -43.5 26t-54.5 9q-38 0 -68 -15t-50 -41q-34 -43 -34 -104zM1722 350q0 76 29.5 142.5t80.5 115.5q49 48 114.5 74.5t140.5 26.5q70 0 131 -23t109 -65q57 -50 89.5 -120t32.5 -151q0 -80 -26.5 -147.5t-75.5 -117.5 q-48 -49 -114 -77t-146 -28q-76 0 -140 25.5t-112 71.5q-54 51 -83.5 120.5t-29.5 152.5zM1120 348q0 -70 39 -117q20 -24 48.5 -37.5t64.5 -13.5q34 0 60.5 11.5t46.5 32.5q44 47 44 124q0 35 -11.5 65t-32.5 52q-20 20 -46.5 31.5t-60.5 11.5q-35 0 -62.5 -12t-47.5 -34 t-31 -51.5t-11 -62.5zM907 350q0 73 27 137t75 113q50 51 117.5 80t145.5 29q76 0 140.5 -26.5t113.5 -74.5q51 -49 79.5 -115.5t28.5 -142.5q0 -73 -22.5 -136t-64.5 -112q-48 -57 -118 -89.5t-157 -32.5q-80 0 -146.5 28t-115.5 78t-76 117.5t-27 146.5z" />
<glyph unicode="&#x2039;" horiz-adv-x="676" d="M131 381v147l412 351v-273l-195 -157l195 -140v-270z" />
<glyph unicode="&#x203a;" horiz-adv-x="676" d="M133 39v270l195 140l-195 157v273l412 -351v-147z" />
<glyph unicode="&#x2044;" horiz-adv-x="512" d="M-78 0h-168l850 1464h166z" />
<glyph unicode="&#x20ac;" d="M1184 1341l-99 -206q-79 88 -256 88q-64 0 -117.5 -16.5t-97 -51.5t-77.5 -91t-58 -134h514l-55 -150h-487q-2 -21 -2 -40.5v-39.5v-39.5t2 -39.5h423l-55 -152h-340q44 -140 125.5 -204t206.5 -64q199 0 295 141v-266q-119 -101 -313 -101q-119 0 -214.5 34t-167 98 t-118.5 155.5t-70 206.5h-127v152h107q-3 83 0 159h-107v150h127q23 113 74.5 207.5t127.5 163t174 107t214 38.5q230 0 371 -105z" />
<glyph unicode="&#x2122;" horiz-adv-x="1026" d="M465 1364h-154v-426h-114v426h-158v100h426v-100zM602 1464l105 -325l104 325h86l90 -524h-113l-47 260l-84 -264h-75l-86 268l-45 -264h-113l86 524h92z" />
<glyph unicode="&#x2212;" d="M1096 758v-248h-961v248h961z" />
<glyph unicode="&#x2260;" d="M512 154h-248l70 151h-201v248h318l75 162h-393v248h510l72 151h248l-72 -151h203v-248h-320l-76 -162h396v-248h-512z" />
<glyph unicode="&#x2264;" d="M1094 297l-961 297v244l961 297v-248l-688 -174l688 -166v-250zM1094 248v-248h-961v248h961z" />
<glyph unicode="&#x2265;" d="M1096 248v-248h-961v248h961zM135 547l688 166l-688 174v248l961 -297v-244l-961 -297v250z" />
<glyph unicode="&#x25fc;" horiz-adv-x="900" d="M0 900h900v-900h-900v900z" />
<glyph unicode="&#xfb01;" horiz-adv-x="1042" d="M807 1415q33 0 61.5 -13t49.5 -36q21 -22 33 -50.5t12 -60.5t-12 -61t-34 -51q-21 -21 -49 -33t-61 -12q-29 0 -55 9t-47 26q-26 21 -42 52.5t-16 69.5q0 33 12.5 62t34.5 51t51 34.5t62 12.5zM678 0v696h-309v-696h-256v696h-121v205h123v254q0 80 35 148.5t95 113.5 q43 32 95.5 50t112.5 18q47 0 111 -12q26 -5 53.5 -12t56.5 -17l-76 -199q-35 19 -64.5 28t-58.5 9q-42 0 -69 -27q-19 -18 -28 -46t-9 -60v-248h565v-901h-256z" />
<glyph unicode="&#xfb02;" horiz-adv-x="1077" d="M678 1253q-20 14 -60.5 25.5t-99.5 11.5q-33 0 -57 -6t-41 -17q-31 -20 -41 -51t-10 -67v-248h182v-205h-182v-696h-256v696h-121v205h123v254q0 46 12 88t34 79q38 64 100 105q41 27 89.5 42.5t102.5 15.5q18 0 43.5 -1t55.5 -3.5t62.5 -6.5t63.5 -10h256v-1142 q0 -93 27 -141t92 -50l2 -2q-6 -34 -21.5 -59.5t-37.5 -43.5q-29 -23 -66.5 -34.5t-79.5 -11.5q-72 0 -114 47q-58 63 -58 194v1032z" />
</font>
</defs>
</svg>
